<?xml version="1.0" encoding="UTF-8" standalone="no"?>
<!DOCTYPE svg PUBLIC "-//W3C//DTD SVG 1.1//EN" "http://www.w3.org/Graphics/SVG/1.1/DTD/svg11.dtd">
<svg width="100%" height="100%" viewBox="0 0 1369 171" version="1.1" xmlns="http://www.w3.org/2000/svg" xmlns:xlink="http://www.w3.org/1999/xlink" xml:space="preserve" xmlns:serif="http://www.serif.com/" style="fill-rule:evenodd;clip-rule:evenodd;stroke-linejoin:round;stroke-miterlimit:2;">
    <g id="Citations" transform="matrix(1,0,0,1,1098.08,2.84217e-14)">
        <g transform="matrix(1.17315,0,0,1.05894,55.0489,19.3026)">
            <path d="M183.226,-18.228L89.461,-18.228L-46.924,142.31L46.841,142.31L183.226,-18.228Z" style="fill:rgb(160,178,226);"/>
        </g>
        <g transform="matrix(0.687063,-0.726598,0.726598,0.687063,-44.3574,169.579)">
            <g transform="matrix(24,0,0,24,120.355,78.8299)">
                <path d="M0.378,-0.737C0.469,-0.737 0.54,-0.713 0.59,-0.665C0.64,-0.617 0.668,-0.563 0.673,-0.502L0.579,-0.502C0.568,-0.548 0.546,-0.585 0.514,-0.612C0.482,-0.639 0.437,-0.652 0.379,-0.652C0.309,-0.652 0.252,-0.628 0.208,-0.578C0.165,-0.528 0.143,-0.452 0.143,-0.35C0.143,-0.266 0.163,-0.198 0.202,-0.145C0.241,-0.093 0.3,-0.067 0.377,-0.067C0.449,-0.067 0.504,-0.094 0.541,-0.149C0.561,-0.178 0.576,-0.216 0.585,-0.264L0.68,-0.264C0.672,-0.188 0.644,-0.125 0.596,-0.074C0.539,-0.012 0.462,0.019 0.366,0.019C0.282,0.019 0.212,-0.007 0.156,-0.057C0.081,-0.124 0.044,-0.227 0.044,-0.366C0.044,-0.472 0.072,-0.559 0.128,-0.626C0.188,-0.7 0.272,-0.737 0.378,-0.737Z" style="fill-rule:nonzero;"/>
            </g>
            <g transform="matrix(24,0,0,24,137.687,78.8299)">
                <path d="M0.064,-0.521L0.154,-0.521L0.154,-0L0.064,-0L0.064,-0.521ZM0.064,-0.717L0.154,-0.717L0.154,-0.618L0.064,-0.618L0.064,-0.717Z" style="fill-rule:nonzero;"/>
            </g>
            <g transform="matrix(24,0,0,24,143.019,78.8299)">
                <path d="M0.082,-0.669L0.171,-0.669L0.171,-0.523L0.254,-0.523L0.254,-0.451L0.171,-0.451L0.171,-0.11C0.171,-0.092 0.177,-0.079 0.189,-0.073C0.196,-0.07 0.208,-0.068 0.224,-0.068C0.228,-0.068 0.232,-0.068 0.237,-0.068C0.242,-0.068 0.248,-0.069 0.254,-0.069L0.254,-0C0.244,0.003 0.234,0.005 0.223,0.006C0.212,0.008 0.2,0.008 0.188,0.008C0.146,0.008 0.119,-0.002 0.104,-0.023C0.089,-0.044 0.082,-0.071 0.082,-0.105L0.082,-0.451L0.011,-0.451L0.011,-0.523L0.082,-0.523L0.082,-0.669Z" style="fill-rule:nonzero;"/>
            </g>
            <g transform="matrix(24,0,0,24,149.687,78.8299)">
                <path d="M0.132,-0.139C0.132,-0.114 0.141,-0.094 0.16,-0.079C0.178,-0.064 0.2,-0.057 0.226,-0.057C0.257,-0.057 0.286,-0.064 0.315,-0.079C0.364,-0.102 0.389,-0.141 0.389,-0.195L0.389,-0.266C0.378,-0.259 0.364,-0.254 0.347,-0.249C0.33,-0.244 0.314,-0.241 0.297,-0.239L0.244,-0.232C0.212,-0.228 0.188,-0.222 0.172,-0.212C0.145,-0.197 0.132,-0.173 0.132,-0.139ZM0.345,-0.317C0.365,-0.319 0.378,-0.328 0.385,-0.342C0.389,-0.35 0.391,-0.361 0.391,-0.376C0.391,-0.406 0.38,-0.428 0.359,-0.441C0.338,-0.455 0.307,-0.461 0.268,-0.461C0.222,-0.461 0.189,-0.449 0.17,-0.424C0.159,-0.411 0.152,-0.39 0.149,-0.363L0.067,-0.363C0.069,-0.428 0.089,-0.473 0.13,-0.498C0.17,-0.523 0.216,-0.536 0.27,-0.536C0.331,-0.536 0.381,-0.524 0.419,-0.5C0.458,-0.477 0.477,-0.441 0.477,-0.391L0.477,-0.09C0.477,-0.081 0.478,-0.073 0.482,-0.068C0.486,-0.062 0.494,-0.06 0.506,-0.06C0.51,-0.06 0.514,-0.06 0.519,-0.06C0.524,-0.061 0.529,-0.062 0.535,-0.063L0.535,0.002C0.521,0.006 0.511,0.009 0.503,0.01C0.496,0.011 0.486,0.011 0.474,0.011C0.444,0.011 0.422,0 0.408,-0.021C0.401,-0.032 0.396,-0.049 0.393,-0.069C0.375,-0.046 0.349,-0.026 0.316,-0.008C0.282,0.009 0.245,0.018 0.205,0.018C0.157,0.018 0.117,0.003 0.086,-0.027C0.055,-0.056 0.04,-0.093 0.04,-0.137C0.04,-0.186 0.055,-0.223 0.085,-0.25C0.116,-0.277 0.155,-0.293 0.205,-0.299L0.345,-0.317Z" style="fill-rule:nonzero;"/>
            </g>
            <g transform="matrix(24,0,0,24,163.034,78.8299)">
                <path d="M0.082,-0.669L0.171,-0.669L0.171,-0.523L0.254,-0.523L0.254,-0.451L0.171,-0.451L0.171,-0.11C0.171,-0.092 0.177,-0.079 0.189,-0.073C0.196,-0.07 0.208,-0.068 0.224,-0.068C0.228,-0.068 0.232,-0.068 0.237,-0.068C0.242,-0.068 0.248,-0.069 0.254,-0.069L0.254,-0C0.244,0.003 0.234,0.005 0.223,0.006C0.212,0.008 0.2,0.008 0.188,0.008C0.146,0.008 0.119,-0.002 0.104,-0.023C0.089,-0.044 0.082,-0.071 0.082,-0.105L0.082,-0.451L0.011,-0.451L0.011,-0.523L0.082,-0.523L0.082,-0.669Z" style="fill-rule:nonzero;"/>
            </g>
            <g transform="matrix(24,0,0,24,169.702,78.8299)">
                <path d="M0.064,-0.521L0.154,-0.521L0.154,-0L0.064,-0L0.064,-0.521ZM0.064,-0.717L0.154,-0.717L0.154,-0.618L0.064,-0.618L0.064,-0.717Z" style="fill-rule:nonzero;"/>
            </g>
            <g transform="matrix(24,0,0,24,175.034,78.8299)">
                <path d="M0.272,-0.057C0.33,-0.057 0.37,-0.079 0.392,-0.123C0.413,-0.167 0.424,-0.216 0.424,-0.27C0.424,-0.319 0.417,-0.359 0.401,-0.389C0.376,-0.437 0.333,-0.461 0.273,-0.461C0.219,-0.461 0.18,-0.441 0.156,-0.4C0.131,-0.359 0.119,-0.309 0.119,-0.251C0.119,-0.196 0.131,-0.149 0.156,-0.112C0.18,-0.075 0.219,-0.057 0.272,-0.057ZM0.275,-0.538C0.343,-0.538 0.4,-0.516 0.446,-0.471C0.493,-0.426 0.516,-0.36 0.516,-0.272C0.516,-0.188 0.496,-0.118 0.455,-0.063C0.414,-0.008 0.35,0.019 0.264,0.019C0.192,0.019 0.135,-0.005 0.092,-0.054C0.05,-0.103 0.029,-0.168 0.029,-0.25C0.029,-0.338 0.051,-0.408 0.096,-0.46C0.14,-0.512 0.2,-0.538 0.275,-0.538Z" style="fill-rule:nonzero;"/>
            </g>
            <g transform="matrix(24,0,0,24,188.382,78.8299)">
                <path d="M0.064,-0.523L0.148,-0.523L0.148,-0.449C0.173,-0.479 0.199,-0.501 0.227,-0.515C0.254,-0.528 0.285,-0.535 0.319,-0.535C0.393,-0.535 0.443,-0.509 0.469,-0.457C0.484,-0.429 0.491,-0.388 0.491,-0.335L0.491,-0L0.401,-0L0.401,-0.33C0.401,-0.361 0.397,-0.387 0.387,-0.407C0.372,-0.439 0.343,-0.456 0.302,-0.456C0.281,-0.456 0.264,-0.453 0.251,-0.449C0.227,-0.442 0.206,-0.428 0.188,-0.406C0.173,-0.389 0.163,-0.371 0.159,-0.353C0.155,-0.334 0.152,-0.308 0.152,-0.274L0.152,-0L0.064,-0L0.064,-0.523Z" style="fill-rule:nonzero;"/>
            </g>
            <g transform="matrix(24,0,0,24,201.73,78.8299)">
                <path d="M0.117,-0.164C0.119,-0.135 0.127,-0.112 0.139,-0.097C0.161,-0.068 0.199,-0.054 0.254,-0.054C0.286,-0.054 0.315,-0.061 0.34,-0.075C0.365,-0.09 0.377,-0.111 0.377,-0.141C0.377,-0.164 0.367,-0.181 0.347,-0.192C0.334,-0.2 0.309,-0.208 0.272,-0.217L0.202,-0.235C0.158,-0.246 0.125,-0.258 0.104,-0.272C0.066,-0.296 0.047,-0.329 0.047,-0.371C0.047,-0.42 0.065,-0.46 0.1,-0.491C0.136,-0.521 0.184,-0.537 0.244,-0.537C0.323,-0.537 0.38,-0.514 0.415,-0.467C0.436,-0.438 0.447,-0.406 0.446,-0.373L0.363,-0.373C0.362,-0.392 0.355,-0.41 0.342,-0.427C0.322,-0.45 0.287,-0.461 0.237,-0.461C0.204,-0.461 0.179,-0.455 0.162,-0.442C0.145,-0.43 0.136,-0.413 0.136,-0.392C0.136,-0.369 0.147,-0.351 0.17,-0.337C0.183,-0.329 0.202,-0.322 0.228,-0.316L0.286,-0.302C0.349,-0.286 0.391,-0.272 0.413,-0.257C0.447,-0.235 0.464,-0.2 0.464,-0.151C0.464,-0.105 0.446,-0.065 0.411,-0.031C0.376,0.003 0.322,0.02 0.25,0.02C0.172,0.02 0.117,0.002 0.084,-0.033C0.052,-0.068 0.035,-0.112 0.032,-0.164L0.117,-0.164Z" style="fill-rule:nonzero;"/>
            </g>
        </g>
    </g>
    <g id="Declarations" transform="matrix(1,0,0,1,988.084,2.84217e-14)">
        <g transform="matrix(1.17315,0,0,1.05894,55.0489,19.3026)">
            <path d="M183.226,-18.228L89.461,-18.228L-46.924,142.31L46.841,142.31L183.226,-18.228Z" style="fill:rgb(236,210,181);"/>
        </g>
        <g transform="matrix(0.687063,-0.726598,0.726598,0.687063,-50.3574,174.579)">
            <g transform="matrix(24,0,0,24,120.355,78.8299)">
                <path d="M0.352,-0.083C0.384,-0.083 0.411,-0.086 0.433,-0.093C0.47,-0.106 0.501,-0.13 0.525,-0.167C0.545,-0.195 0.558,-0.233 0.567,-0.278C0.572,-0.305 0.574,-0.33 0.574,-0.353C0.574,-0.442 0.557,-0.511 0.521,-0.56C0.486,-0.609 0.429,-0.634 0.351,-0.634L0.178,-0.634L0.178,-0.083L0.352,-0.083ZM0.081,-0.717L0.371,-0.717C0.47,-0.717 0.546,-0.682 0.601,-0.612C0.649,-0.549 0.673,-0.468 0.673,-0.37C0.673,-0.293 0.659,-0.225 0.63,-0.163C0.58,-0.054 0.493,-0 0.37,-0L0.081,-0L0.081,-0.717Z" style="fill-rule:nonzero;"/>
            </g>
            <g transform="matrix(24,0,0,24,137.687,78.8299)">
                <path d="M0.282,-0.535C0.319,-0.535 0.355,-0.526 0.39,-0.509C0.425,-0.491 0.451,-0.469 0.47,-0.441C0.487,-0.415 0.499,-0.384 0.505,-0.349C0.51,-0.325 0.513,-0.286 0.513,-0.233L0.129,-0.233C0.131,-0.18 0.144,-0.138 0.167,-0.106C0.19,-0.074 0.227,-0.058 0.276,-0.058C0.322,-0.058 0.358,-0.073 0.386,-0.103C0.401,-0.121 0.412,-0.141 0.419,-0.164L0.505,-0.164C0.503,-0.145 0.496,-0.123 0.483,-0.1C0.47,-0.076 0.455,-0.057 0.439,-0.042C0.413,-0.016 0.38,0.002 0.34,0.011C0.319,0.016 0.295,0.019 0.269,0.019C0.203,0.019 0.148,-0.005 0.103,-0.052C0.058,-0.1 0.035,-0.166 0.035,-0.251C0.035,-0.335 0.058,-0.404 0.104,-0.456C0.149,-0.508 0.209,-0.535 0.282,-0.535ZM0.422,-0.303C0.419,-0.341 0.41,-0.372 0.397,-0.395C0.373,-0.437 0.333,-0.458 0.277,-0.458C0.236,-0.458 0.203,-0.443 0.175,-0.414C0.148,-0.385 0.133,-0.348 0.132,-0.303L0.422,-0.303Z" style="fill-rule:nonzero;"/>
            </g>
            <g transform="matrix(24,0,0,24,151.034,78.8299)">
                <path d="M0.266,-0.538C0.325,-0.538 0.373,-0.524 0.41,-0.495C0.447,-0.466 0.469,-0.417 0.477,-0.347L0.391,-0.347C0.386,-0.379 0.374,-0.406 0.355,-0.427C0.337,-0.449 0.307,-0.459 0.266,-0.459C0.21,-0.459 0.17,-0.432 0.146,-0.377C0.13,-0.342 0.123,-0.298 0.123,-0.246C0.123,-0.194 0.134,-0.15 0.156,-0.114C0.178,-0.078 0.213,-0.06 0.26,-0.06C0.297,-0.06 0.326,-0.071 0.347,-0.094C0.368,-0.116 0.383,-0.146 0.391,-0.185L0.477,-0.185C0.467,-0.116 0.442,-0.065 0.403,-0.033C0.364,-0.001 0.314,0.015 0.253,0.015C0.185,0.015 0.131,-0.01 0.09,-0.06C0.049,-0.11 0.029,-0.172 0.029,-0.247C0.029,-0.339 0.051,-0.41 0.096,-0.461C0.14,-0.513 0.197,-0.538 0.266,-0.538Z" style="fill-rule:nonzero;"/>
            </g>
            <g transform="matrix(24,0,0,24,163.034,78.8299)">
                <rect x="0.067" y="-0.717" width="0.088" height="0.717" style="fill-rule:nonzero;"/>
            </g>
            <g transform="matrix(24,0,0,24,168.366,78.8299)">
                <path d="M0.132,-0.139C0.132,-0.114 0.141,-0.094 0.16,-0.079C0.178,-0.064 0.2,-0.057 0.226,-0.057C0.257,-0.057 0.286,-0.064 0.315,-0.079C0.364,-0.102 0.389,-0.141 0.389,-0.195L0.389,-0.266C0.378,-0.259 0.364,-0.254 0.347,-0.249C0.33,-0.244 0.314,-0.241 0.297,-0.239L0.244,-0.232C0.212,-0.228 0.188,-0.222 0.172,-0.212C0.145,-0.197 0.132,-0.173 0.132,-0.139ZM0.345,-0.317C0.365,-0.319 0.378,-0.328 0.385,-0.342C0.389,-0.35 0.391,-0.361 0.391,-0.376C0.391,-0.406 0.38,-0.428 0.359,-0.441C0.338,-0.455 0.307,-0.461 0.268,-0.461C0.222,-0.461 0.189,-0.449 0.17,-0.424C0.159,-0.411 0.152,-0.39 0.149,-0.363L0.067,-0.363C0.069,-0.428 0.089,-0.473 0.13,-0.498C0.17,-0.523 0.216,-0.536 0.27,-0.536C0.331,-0.536 0.381,-0.524 0.419,-0.5C0.458,-0.477 0.477,-0.441 0.477,-0.391L0.477,-0.09C0.477,-0.081 0.478,-0.073 0.482,-0.068C0.486,-0.062 0.494,-0.06 0.506,-0.06C0.51,-0.06 0.514,-0.06 0.519,-0.06C0.524,-0.061 0.529,-0.062 0.535,-0.063L0.535,0.002C0.521,0.006 0.511,0.009 0.503,0.01C0.496,0.011 0.486,0.011 0.474,0.011C0.444,0.011 0.422,0 0.408,-0.021C0.401,-0.032 0.396,-0.049 0.393,-0.069C0.375,-0.046 0.349,-0.026 0.316,-0.008C0.282,0.009 0.245,0.018 0.205,0.018C0.157,0.018 0.117,0.003 0.086,-0.027C0.055,-0.056 0.04,-0.093 0.04,-0.137C0.04,-0.186 0.055,-0.223 0.085,-0.25C0.116,-0.277 0.155,-0.293 0.205,-0.299L0.345,-0.317Z" style="fill-rule:nonzero;"/>
            </g>
            <g transform="matrix(24,0,0,24,181.714,78.8299)">
                <path d="M0.067,-0.523L0.15,-0.523L0.15,-0.433C0.157,-0.45 0.174,-0.472 0.201,-0.497C0.227,-0.522 0.258,-0.535 0.293,-0.535C0.295,-0.535 0.297,-0.535 0.301,-0.534C0.305,-0.534 0.312,-0.533 0.321,-0.532L0.321,-0.439C0.316,-0.44 0.311,-0.441 0.307,-0.441C0.302,-0.442 0.298,-0.442 0.292,-0.442C0.248,-0.442 0.214,-0.428 0.19,-0.399C0.167,-0.371 0.155,-0.338 0.155,-0.301L0.155,-0L0.067,-0L0.067,-0.523Z" style="fill-rule:nonzero;"/>
            </g>
            <g transform="matrix(24,0,0,24,189.706,78.8299)">
                <path d="M0.132,-0.139C0.132,-0.114 0.141,-0.094 0.16,-0.079C0.178,-0.064 0.2,-0.057 0.226,-0.057C0.257,-0.057 0.286,-0.064 0.315,-0.079C0.364,-0.102 0.389,-0.141 0.389,-0.195L0.389,-0.266C0.378,-0.259 0.364,-0.254 0.347,-0.249C0.33,-0.244 0.314,-0.241 0.297,-0.239L0.244,-0.232C0.212,-0.228 0.188,-0.222 0.172,-0.212C0.145,-0.197 0.132,-0.173 0.132,-0.139ZM0.345,-0.317C0.365,-0.319 0.378,-0.328 0.385,-0.342C0.389,-0.35 0.391,-0.361 0.391,-0.376C0.391,-0.406 0.38,-0.428 0.359,-0.441C0.338,-0.455 0.307,-0.461 0.268,-0.461C0.222,-0.461 0.189,-0.449 0.17,-0.424C0.159,-0.411 0.152,-0.39 0.149,-0.363L0.067,-0.363C0.069,-0.428 0.089,-0.473 0.13,-0.498C0.17,-0.523 0.216,-0.536 0.27,-0.536C0.331,-0.536 0.381,-0.524 0.419,-0.5C0.458,-0.477 0.477,-0.441 0.477,-0.391L0.477,-0.09C0.477,-0.081 0.478,-0.073 0.482,-0.068C0.486,-0.062 0.494,-0.06 0.506,-0.06C0.51,-0.06 0.514,-0.06 0.519,-0.06C0.524,-0.061 0.529,-0.062 0.535,-0.063L0.535,0.002C0.521,0.006 0.511,0.009 0.503,0.01C0.496,0.011 0.486,0.011 0.474,0.011C0.444,0.011 0.422,0 0.408,-0.021C0.401,-0.032 0.396,-0.049 0.393,-0.069C0.375,-0.046 0.349,-0.026 0.316,-0.008C0.282,0.009 0.245,0.018 0.205,0.018C0.157,0.018 0.117,0.003 0.086,-0.027C0.055,-0.056 0.04,-0.093 0.04,-0.137C0.04,-0.186 0.055,-0.223 0.085,-0.25C0.116,-0.277 0.155,-0.293 0.205,-0.299L0.345,-0.317Z" style="fill-rule:nonzero;"/>
            </g>
            <g transform="matrix(24,0,0,24,203.054,78.8299)">
                <path d="M0.082,-0.669L0.171,-0.669L0.171,-0.523L0.254,-0.523L0.254,-0.451L0.171,-0.451L0.171,-0.11C0.171,-0.092 0.177,-0.079 0.189,-0.073C0.196,-0.07 0.208,-0.068 0.224,-0.068C0.228,-0.068 0.232,-0.068 0.237,-0.068C0.242,-0.068 0.248,-0.069 0.254,-0.069L0.254,-0C0.244,0.003 0.234,0.005 0.223,0.006C0.212,0.008 0.2,0.008 0.188,0.008C0.146,0.008 0.119,-0.002 0.104,-0.023C0.089,-0.044 0.082,-0.071 0.082,-0.105L0.082,-0.451L0.011,-0.451L0.011,-0.523L0.082,-0.523L0.082,-0.669Z" style="fill-rule:nonzero;"/>
            </g>
            <g transform="matrix(24,0,0,24,209.722,78.8299)">
                <path d="M0.064,-0.521L0.154,-0.521L0.154,-0L0.064,-0L0.064,-0.521ZM0.064,-0.717L0.154,-0.717L0.154,-0.618L0.064,-0.618L0.064,-0.717Z" style="fill-rule:nonzero;"/>
            </g>
            <g transform="matrix(24,0,0,24,215.054,78.8299)">
                <path d="M0.272,-0.057C0.33,-0.057 0.37,-0.079 0.392,-0.123C0.413,-0.167 0.424,-0.216 0.424,-0.27C0.424,-0.319 0.417,-0.359 0.401,-0.389C0.376,-0.437 0.333,-0.461 0.273,-0.461C0.219,-0.461 0.18,-0.441 0.156,-0.4C0.131,-0.359 0.119,-0.309 0.119,-0.251C0.119,-0.196 0.131,-0.149 0.156,-0.112C0.18,-0.075 0.219,-0.057 0.272,-0.057ZM0.275,-0.538C0.343,-0.538 0.4,-0.516 0.446,-0.471C0.493,-0.426 0.516,-0.36 0.516,-0.272C0.516,-0.188 0.496,-0.118 0.455,-0.063C0.414,-0.008 0.35,0.019 0.264,0.019C0.192,0.019 0.135,-0.005 0.092,-0.054C0.05,-0.103 0.029,-0.168 0.029,-0.25C0.029,-0.338 0.051,-0.408 0.096,-0.46C0.14,-0.512 0.2,-0.538 0.275,-0.538Z" style="fill-rule:nonzero;"/>
            </g>
            <g transform="matrix(24,0,0,24,228.402,78.8299)">
                <path d="M0.064,-0.523L0.148,-0.523L0.148,-0.449C0.173,-0.479 0.199,-0.501 0.227,-0.515C0.254,-0.528 0.285,-0.535 0.319,-0.535C0.393,-0.535 0.443,-0.509 0.469,-0.457C0.484,-0.429 0.491,-0.388 0.491,-0.335L0.491,-0L0.401,-0L0.401,-0.33C0.401,-0.361 0.397,-0.387 0.387,-0.407C0.372,-0.439 0.343,-0.456 0.302,-0.456C0.281,-0.456 0.264,-0.453 0.251,-0.449C0.227,-0.442 0.206,-0.428 0.188,-0.406C0.173,-0.389 0.163,-0.371 0.159,-0.353C0.155,-0.334 0.152,-0.308 0.152,-0.274L0.152,-0L0.064,-0L0.064,-0.523Z" style="fill-rule:nonzero;"/>
            </g>
            <g transform="matrix(24,0,0,24,241.749,78.8299)">
                <path d="M0.117,-0.164C0.119,-0.135 0.127,-0.112 0.139,-0.097C0.161,-0.068 0.199,-0.054 0.254,-0.054C0.286,-0.054 0.315,-0.061 0.34,-0.075C0.365,-0.09 0.377,-0.111 0.377,-0.141C0.377,-0.164 0.367,-0.181 0.347,-0.192C0.334,-0.2 0.309,-0.208 0.272,-0.217L0.202,-0.235C0.158,-0.246 0.125,-0.258 0.104,-0.272C0.066,-0.296 0.047,-0.329 0.047,-0.371C0.047,-0.42 0.065,-0.46 0.1,-0.491C0.136,-0.521 0.184,-0.537 0.244,-0.537C0.323,-0.537 0.38,-0.514 0.415,-0.467C0.436,-0.438 0.447,-0.406 0.446,-0.373L0.363,-0.373C0.362,-0.392 0.355,-0.41 0.342,-0.427C0.322,-0.45 0.287,-0.461 0.237,-0.461C0.204,-0.461 0.179,-0.455 0.162,-0.442C0.145,-0.43 0.136,-0.413 0.136,-0.392C0.136,-0.369 0.147,-0.351 0.17,-0.337C0.183,-0.329 0.202,-0.322 0.228,-0.316L0.286,-0.302C0.349,-0.286 0.391,-0.272 0.413,-0.257C0.447,-0.235 0.464,-0.2 0.464,-0.151C0.464,-0.105 0.446,-0.065 0.411,-0.031C0.376,0.003 0.322,0.02 0.25,0.02C0.172,0.02 0.117,0.002 0.084,-0.033C0.052,-0.068 0.035,-0.112 0.032,-0.164L0.117,-0.164Z" style="fill-rule:nonzero;"/>
            </g>
        </g>
    </g>
    <g id="Definitions" transform="matrix(1,0,0,1,878.084,2.84217e-14)">
        <g transform="matrix(1.17315,0,0,1.05894,55.0489,19.3026)">
            <path d="M183.226,-18.228L89.461,-18.228L-46.924,142.31L46.841,142.31L183.226,-18.228Z" style="fill:rgb(186,231,193);"/>
        </g>
        <g transform="matrix(0.687063,-0.726598,0.726598,0.687063,-48.3574,172.579)">
            <g transform="matrix(24,0,0,24,120.355,78.8299)">
                <path d="M0.352,-0.083C0.384,-0.083 0.411,-0.086 0.433,-0.093C0.47,-0.106 0.501,-0.13 0.525,-0.167C0.545,-0.195 0.558,-0.233 0.567,-0.278C0.572,-0.305 0.574,-0.33 0.574,-0.353C0.574,-0.442 0.557,-0.511 0.521,-0.56C0.486,-0.609 0.429,-0.634 0.351,-0.634L0.178,-0.634L0.178,-0.083L0.352,-0.083ZM0.081,-0.717L0.371,-0.717C0.47,-0.717 0.546,-0.682 0.601,-0.612C0.649,-0.549 0.673,-0.468 0.673,-0.37C0.673,-0.293 0.659,-0.225 0.63,-0.163C0.58,-0.054 0.493,-0 0.37,-0L0.081,-0L0.081,-0.717Z" style="fill-rule:nonzero;"/>
            </g>
            <g transform="matrix(24,0,0,24,137.687,78.8299)">
                <path d="M0.282,-0.535C0.319,-0.535 0.355,-0.526 0.39,-0.509C0.425,-0.491 0.451,-0.469 0.47,-0.441C0.487,-0.415 0.499,-0.384 0.505,-0.349C0.51,-0.325 0.513,-0.286 0.513,-0.233L0.129,-0.233C0.131,-0.18 0.144,-0.138 0.167,-0.106C0.19,-0.074 0.227,-0.058 0.276,-0.058C0.322,-0.058 0.358,-0.073 0.386,-0.103C0.401,-0.121 0.412,-0.141 0.419,-0.164L0.505,-0.164C0.503,-0.145 0.496,-0.123 0.483,-0.1C0.47,-0.076 0.455,-0.057 0.439,-0.042C0.413,-0.016 0.38,0.002 0.34,0.011C0.319,0.016 0.295,0.019 0.269,0.019C0.203,0.019 0.148,-0.005 0.103,-0.052C0.058,-0.1 0.035,-0.166 0.035,-0.251C0.035,-0.335 0.058,-0.404 0.104,-0.456C0.149,-0.508 0.209,-0.535 0.282,-0.535ZM0.422,-0.303C0.419,-0.341 0.41,-0.372 0.397,-0.395C0.373,-0.437 0.333,-0.458 0.277,-0.458C0.236,-0.458 0.203,-0.443 0.175,-0.414C0.148,-0.385 0.133,-0.348 0.132,-0.303L0.422,-0.303Z" style="fill-rule:nonzero;"/>
            </g>
            <g transform="matrix(24,0,0,24,151.034,78.8299)">
                <path d="M0.086,-0.603C0.088,-0.639 0.094,-0.666 0.105,-0.683C0.126,-0.713 0.166,-0.728 0.224,-0.728C0.23,-0.728 0.235,-0.727 0.241,-0.727C0.247,-0.727 0.254,-0.726 0.261,-0.726L0.261,-0.646C0.252,-0.646 0.246,-0.647 0.241,-0.647C0.237,-0.647 0.234,-0.647 0.23,-0.647C0.203,-0.647 0.187,-0.64 0.182,-0.626C0.177,-0.612 0.174,-0.577 0.174,-0.521L0.261,-0.521L0.261,-0.451L0.173,-0.451L0.173,-0L0.086,-0L0.086,-0.451L0.014,-0.451L0.014,-0.521L0.086,-0.521L0.086,-0.603ZM0.346,-0.618L0.346,-0.717L0.434,-0.717L0.434,-0.618L0.346,-0.618ZM0.346,-0.521L0.434,-0.521L0.434,-0L0.346,-0L0.346,-0.521Z" style="fill-rule:nonzero;"/>
            </g>
            <g transform="matrix(24,0,0,24,163.034,78.8299)">
                <path d="M0.064,-0.523L0.148,-0.523L0.148,-0.449C0.173,-0.479 0.199,-0.501 0.227,-0.515C0.254,-0.528 0.285,-0.535 0.319,-0.535C0.393,-0.535 0.443,-0.509 0.469,-0.457C0.484,-0.429 0.491,-0.388 0.491,-0.335L0.491,-0L0.401,-0L0.401,-0.33C0.401,-0.361 0.397,-0.387 0.387,-0.407C0.372,-0.439 0.343,-0.456 0.302,-0.456C0.281,-0.456 0.264,-0.453 0.251,-0.449C0.227,-0.442 0.206,-0.428 0.188,-0.406C0.173,-0.389 0.163,-0.371 0.159,-0.353C0.155,-0.334 0.152,-0.308 0.152,-0.274L0.152,-0L0.064,-0L0.064,-0.523Z" style="fill-rule:nonzero;"/>
            </g>
            <g transform="matrix(24,0,0,24,176.382,78.8299)">
                <path d="M0.064,-0.521L0.154,-0.521L0.154,-0L0.064,-0L0.064,-0.521ZM0.064,-0.717L0.154,-0.717L0.154,-0.618L0.064,-0.618L0.064,-0.717Z" style="fill-rule:nonzero;"/>
            </g>
            <g transform="matrix(24,0,0,24,181.714,78.8299)">
                <path d="M0.082,-0.669L0.171,-0.669L0.171,-0.523L0.254,-0.523L0.254,-0.451L0.171,-0.451L0.171,-0.11C0.171,-0.092 0.177,-0.079 0.189,-0.073C0.196,-0.07 0.208,-0.068 0.224,-0.068C0.228,-0.068 0.232,-0.068 0.237,-0.068C0.242,-0.068 0.248,-0.069 0.254,-0.069L0.254,-0C0.244,0.003 0.234,0.005 0.223,0.006C0.212,0.008 0.2,0.008 0.188,0.008C0.146,0.008 0.119,-0.002 0.104,-0.023C0.089,-0.044 0.082,-0.071 0.082,-0.105L0.082,-0.451L0.011,-0.451L0.011,-0.523L0.082,-0.523L0.082,-0.669Z" style="fill-rule:nonzero;"/>
            </g>
            <g transform="matrix(24,0,0,24,188.382,78.8299)">
                <path d="M0.064,-0.521L0.154,-0.521L0.154,-0L0.064,-0L0.064,-0.521ZM0.064,-0.717L0.154,-0.717L0.154,-0.618L0.064,-0.618L0.064,-0.717Z" style="fill-rule:nonzero;"/>
            </g>
            <g transform="matrix(24,0,0,24,193.714,78.8299)">
                <path d="M0.272,-0.057C0.33,-0.057 0.37,-0.079 0.392,-0.123C0.413,-0.167 0.424,-0.216 0.424,-0.27C0.424,-0.319 0.417,-0.359 0.401,-0.389C0.376,-0.437 0.333,-0.461 0.273,-0.461C0.219,-0.461 0.18,-0.441 0.156,-0.4C0.131,-0.359 0.119,-0.309 0.119,-0.251C0.119,-0.196 0.131,-0.149 0.156,-0.112C0.18,-0.075 0.219,-0.057 0.272,-0.057ZM0.275,-0.538C0.343,-0.538 0.4,-0.516 0.446,-0.471C0.493,-0.426 0.516,-0.36 0.516,-0.272C0.516,-0.188 0.496,-0.118 0.455,-0.063C0.414,-0.008 0.35,0.019 0.264,0.019C0.192,0.019 0.135,-0.005 0.092,-0.054C0.05,-0.103 0.029,-0.168 0.029,-0.25C0.029,-0.338 0.051,-0.408 0.096,-0.46C0.14,-0.512 0.2,-0.538 0.275,-0.538Z" style="fill-rule:nonzero;"/>
            </g>
            <g transform="matrix(24,0,0,24,207.062,78.8299)">
                <path d="M0.064,-0.523L0.148,-0.523L0.148,-0.449C0.173,-0.479 0.199,-0.501 0.227,-0.515C0.254,-0.528 0.285,-0.535 0.319,-0.535C0.393,-0.535 0.443,-0.509 0.469,-0.457C0.484,-0.429 0.491,-0.388 0.491,-0.335L0.491,-0L0.401,-0L0.401,-0.33C0.401,-0.361 0.397,-0.387 0.387,-0.407C0.372,-0.439 0.343,-0.456 0.302,-0.456C0.281,-0.456 0.264,-0.453 0.251,-0.449C0.227,-0.442 0.206,-0.428 0.188,-0.406C0.173,-0.389 0.163,-0.371 0.159,-0.353C0.155,-0.334 0.152,-0.308 0.152,-0.274L0.152,-0L0.064,-0L0.064,-0.523Z" style="fill-rule:nonzero;"/>
            </g>
            <g transform="matrix(24,0,0,24,220.409,78.8299)">
                <path d="M0.117,-0.164C0.119,-0.135 0.127,-0.112 0.139,-0.097C0.161,-0.068 0.199,-0.054 0.254,-0.054C0.286,-0.054 0.315,-0.061 0.34,-0.075C0.365,-0.09 0.377,-0.111 0.377,-0.141C0.377,-0.164 0.367,-0.181 0.347,-0.192C0.334,-0.2 0.309,-0.208 0.272,-0.217L0.202,-0.235C0.158,-0.246 0.125,-0.258 0.104,-0.272C0.066,-0.296 0.047,-0.329 0.047,-0.371C0.047,-0.42 0.065,-0.46 0.1,-0.491C0.136,-0.521 0.184,-0.537 0.244,-0.537C0.323,-0.537 0.38,-0.514 0.415,-0.467C0.436,-0.438 0.447,-0.406 0.446,-0.373L0.363,-0.373C0.362,-0.392 0.355,-0.41 0.342,-0.427C0.322,-0.45 0.287,-0.461 0.237,-0.461C0.204,-0.461 0.179,-0.455 0.162,-0.442C0.145,-0.43 0.136,-0.413 0.136,-0.392C0.136,-0.369 0.147,-0.351 0.17,-0.337C0.183,-0.329 0.202,-0.322 0.228,-0.316L0.286,-0.302C0.349,-0.286 0.391,-0.272 0.413,-0.257C0.447,-0.235 0.464,-0.2 0.464,-0.151C0.464,-0.105 0.446,-0.065 0.411,-0.031C0.376,0.003 0.322,0.02 0.25,0.02C0.172,0.02 0.117,0.002 0.084,-0.033C0.052,-0.068 0.035,-0.112 0.032,-0.164L0.117,-0.164Z" style="fill-rule:nonzero;"/>
            </g>
        </g>
    </g>
    <g id="Annotations" transform="matrix(1,0,0,1,768.778,1.42109e-14)">
        <g transform="matrix(1.17315,0,0,1.05894,55.0489,19.3026)">
            <path d="M183.226,-18.228L89.461,-18.228L-46.924,142.31L46.841,142.31L183.226,-18.228Z" style="fill:rgb(236,181,226);"/>
        </g>
        <g transform="matrix(0.687063,-0.726598,0.726598,0.687063,-51.2973,175.573)">
            <g transform="matrix(24,0,0,24,120.355,78.8299)">
                <path d="M0.444,-0.294L0.335,-0.611L0.22,-0.294L0.444,-0.294ZM0.285,-0.717L0.395,-0.717L0.655,-0L0.548,-0L0.476,-0.215L0.192,-0.215L0.114,-0L0.015,-0L0.285,-0.717Z" style="fill-rule:nonzero;"/>
            </g>
            <g transform="matrix(24,0,0,24,136.363,78.8299)">
                <path d="M0.064,-0.523L0.148,-0.523L0.148,-0.449C0.173,-0.479 0.199,-0.501 0.227,-0.515C0.254,-0.528 0.285,-0.535 0.319,-0.535C0.393,-0.535 0.443,-0.509 0.469,-0.457C0.484,-0.429 0.491,-0.388 0.491,-0.335L0.491,-0L0.401,-0L0.401,-0.33C0.401,-0.361 0.397,-0.387 0.387,-0.407C0.372,-0.439 0.343,-0.456 0.302,-0.456C0.281,-0.456 0.264,-0.453 0.251,-0.449C0.227,-0.442 0.206,-0.428 0.188,-0.406C0.173,-0.389 0.163,-0.371 0.159,-0.353C0.155,-0.334 0.152,-0.308 0.152,-0.274L0.152,-0L0.064,-0L0.064,-0.523Z" style="fill-rule:nonzero;"/>
            </g>
            <g transform="matrix(24,0,0,24,149.71,78.8299)">
                <path d="M0.064,-0.523L0.148,-0.523L0.148,-0.449C0.173,-0.479 0.199,-0.501 0.227,-0.515C0.254,-0.528 0.285,-0.535 0.319,-0.535C0.393,-0.535 0.443,-0.509 0.469,-0.457C0.484,-0.429 0.491,-0.388 0.491,-0.335L0.491,-0L0.401,-0L0.401,-0.33C0.401,-0.361 0.397,-0.387 0.387,-0.407C0.372,-0.439 0.343,-0.456 0.302,-0.456C0.281,-0.456 0.264,-0.453 0.251,-0.449C0.227,-0.442 0.206,-0.428 0.188,-0.406C0.173,-0.389 0.163,-0.371 0.159,-0.353C0.155,-0.334 0.152,-0.308 0.152,-0.274L0.152,-0L0.064,-0L0.064,-0.523Z" style="fill-rule:nonzero;"/>
            </g>
            <g transform="matrix(24,0,0,24,163.058,78.8299)">
                <path d="M0.272,-0.057C0.33,-0.057 0.37,-0.079 0.392,-0.123C0.413,-0.167 0.424,-0.216 0.424,-0.27C0.424,-0.319 0.417,-0.359 0.401,-0.389C0.376,-0.437 0.333,-0.461 0.273,-0.461C0.219,-0.461 0.18,-0.441 0.156,-0.4C0.131,-0.359 0.119,-0.309 0.119,-0.251C0.119,-0.196 0.131,-0.149 0.156,-0.112C0.18,-0.075 0.219,-0.057 0.272,-0.057ZM0.275,-0.538C0.343,-0.538 0.4,-0.516 0.446,-0.471C0.493,-0.426 0.516,-0.36 0.516,-0.272C0.516,-0.188 0.496,-0.118 0.455,-0.063C0.414,-0.008 0.35,0.019 0.264,0.019C0.192,0.019 0.135,-0.005 0.092,-0.054C0.05,-0.103 0.029,-0.168 0.029,-0.25C0.029,-0.338 0.051,-0.408 0.096,-0.46C0.14,-0.512 0.2,-0.538 0.275,-0.538Z" style="fill-rule:nonzero;"/>
            </g>
            <g transform="matrix(24,0,0,24,176.405,78.8299)">
                <path d="M0.082,-0.669L0.171,-0.669L0.171,-0.523L0.254,-0.523L0.254,-0.451L0.171,-0.451L0.171,-0.11C0.171,-0.092 0.177,-0.079 0.189,-0.073C0.196,-0.07 0.208,-0.068 0.224,-0.068C0.228,-0.068 0.232,-0.068 0.237,-0.068C0.242,-0.068 0.248,-0.069 0.254,-0.069L0.254,-0C0.244,0.003 0.234,0.005 0.223,0.006C0.212,0.008 0.2,0.008 0.188,0.008C0.146,0.008 0.119,-0.002 0.104,-0.023C0.089,-0.044 0.082,-0.071 0.082,-0.105L0.082,-0.451L0.011,-0.451L0.011,-0.523L0.082,-0.523L0.082,-0.669Z" style="fill-rule:nonzero;"/>
            </g>
            <g transform="matrix(24,0,0,24,183.073,78.8299)">
                <path d="M0.132,-0.139C0.132,-0.114 0.141,-0.094 0.16,-0.079C0.178,-0.064 0.2,-0.057 0.226,-0.057C0.257,-0.057 0.286,-0.064 0.315,-0.079C0.364,-0.102 0.389,-0.141 0.389,-0.195L0.389,-0.266C0.378,-0.259 0.364,-0.254 0.347,-0.249C0.33,-0.244 0.314,-0.241 0.297,-0.239L0.244,-0.232C0.212,-0.228 0.188,-0.222 0.172,-0.212C0.145,-0.197 0.132,-0.173 0.132,-0.139ZM0.345,-0.317C0.365,-0.319 0.378,-0.328 0.385,-0.342C0.389,-0.35 0.391,-0.361 0.391,-0.376C0.391,-0.406 0.38,-0.428 0.359,-0.441C0.338,-0.455 0.307,-0.461 0.268,-0.461C0.222,-0.461 0.189,-0.449 0.17,-0.424C0.159,-0.411 0.152,-0.39 0.149,-0.363L0.067,-0.363C0.069,-0.428 0.089,-0.473 0.13,-0.498C0.17,-0.523 0.216,-0.536 0.27,-0.536C0.331,-0.536 0.381,-0.524 0.419,-0.5C0.458,-0.477 0.477,-0.441 0.477,-0.391L0.477,-0.09C0.477,-0.081 0.478,-0.073 0.482,-0.068C0.486,-0.062 0.494,-0.06 0.506,-0.06C0.51,-0.06 0.514,-0.06 0.519,-0.06C0.524,-0.061 0.529,-0.062 0.535,-0.063L0.535,0.002C0.521,0.006 0.511,0.009 0.503,0.01C0.496,0.011 0.486,0.011 0.474,0.011C0.444,0.011 0.422,0 0.408,-0.021C0.401,-0.032 0.396,-0.049 0.393,-0.069C0.375,-0.046 0.349,-0.026 0.316,-0.008C0.282,0.009 0.245,0.018 0.205,0.018C0.157,0.018 0.117,0.003 0.086,-0.027C0.055,-0.056 0.04,-0.093 0.04,-0.137C0.04,-0.186 0.055,-0.223 0.085,-0.25C0.116,-0.277 0.155,-0.293 0.205,-0.299L0.345,-0.317Z" style="fill-rule:nonzero;"/>
            </g>
            <g transform="matrix(24,0,0,24,196.421,78.8299)">
                <path d="M0.082,-0.669L0.171,-0.669L0.171,-0.523L0.254,-0.523L0.254,-0.451L0.171,-0.451L0.171,-0.11C0.171,-0.092 0.177,-0.079 0.189,-0.073C0.196,-0.07 0.208,-0.068 0.224,-0.068C0.228,-0.068 0.232,-0.068 0.237,-0.068C0.242,-0.068 0.248,-0.069 0.254,-0.069L0.254,-0C0.244,0.003 0.234,0.005 0.223,0.006C0.212,0.008 0.2,0.008 0.188,0.008C0.146,0.008 0.119,-0.002 0.104,-0.023C0.089,-0.044 0.082,-0.071 0.082,-0.105L0.082,-0.451L0.011,-0.451L0.011,-0.523L0.082,-0.523L0.082,-0.669Z" style="fill-rule:nonzero;"/>
            </g>
            <g transform="matrix(24,0,0,24,203.089,78.8299)">
                <path d="M0.064,-0.521L0.154,-0.521L0.154,-0L0.064,-0L0.064,-0.521ZM0.064,-0.717L0.154,-0.717L0.154,-0.618L0.064,-0.618L0.064,-0.717Z" style="fill-rule:nonzero;"/>
            </g>
            <g transform="matrix(24,0,0,24,208.421,78.8299)">
                <path d="M0.272,-0.057C0.33,-0.057 0.37,-0.079 0.392,-0.123C0.413,-0.167 0.424,-0.216 0.424,-0.27C0.424,-0.319 0.417,-0.359 0.401,-0.389C0.376,-0.437 0.333,-0.461 0.273,-0.461C0.219,-0.461 0.18,-0.441 0.156,-0.4C0.131,-0.359 0.119,-0.309 0.119,-0.251C0.119,-0.196 0.131,-0.149 0.156,-0.112C0.18,-0.075 0.219,-0.057 0.272,-0.057ZM0.275,-0.538C0.343,-0.538 0.4,-0.516 0.446,-0.471C0.493,-0.426 0.516,-0.36 0.516,-0.272C0.516,-0.188 0.496,-0.118 0.455,-0.063C0.414,-0.008 0.35,0.019 0.264,0.019C0.192,0.019 0.135,-0.005 0.092,-0.054C0.05,-0.103 0.029,-0.168 0.029,-0.25C0.029,-0.338 0.051,-0.408 0.096,-0.46C0.14,-0.512 0.2,-0.538 0.275,-0.538Z" style="fill-rule:nonzero;"/>
            </g>
            <g transform="matrix(24,0,0,24,221.769,78.8299)">
                <path d="M0.064,-0.523L0.148,-0.523L0.148,-0.449C0.173,-0.479 0.199,-0.501 0.227,-0.515C0.254,-0.528 0.285,-0.535 0.319,-0.535C0.393,-0.535 0.443,-0.509 0.469,-0.457C0.484,-0.429 0.491,-0.388 0.491,-0.335L0.491,-0L0.401,-0L0.401,-0.33C0.401,-0.361 0.397,-0.387 0.387,-0.407C0.372,-0.439 0.343,-0.456 0.302,-0.456C0.281,-0.456 0.264,-0.453 0.251,-0.449C0.227,-0.442 0.206,-0.428 0.188,-0.406C0.173,-0.389 0.163,-0.371 0.159,-0.353C0.155,-0.334 0.152,-0.308 0.152,-0.274L0.152,-0L0.064,-0L0.064,-0.523Z" style="fill-rule:nonzero;"/>
            </g>
            <g transform="matrix(24,0,0,24,235.116,78.8299)">
                <path d="M0.117,-0.164C0.119,-0.135 0.127,-0.112 0.139,-0.097C0.161,-0.068 0.199,-0.054 0.254,-0.054C0.286,-0.054 0.315,-0.061 0.34,-0.075C0.365,-0.09 0.377,-0.111 0.377,-0.141C0.377,-0.164 0.367,-0.181 0.347,-0.192C0.334,-0.2 0.309,-0.208 0.272,-0.217L0.202,-0.235C0.158,-0.246 0.125,-0.258 0.104,-0.272C0.066,-0.296 0.047,-0.329 0.047,-0.371C0.047,-0.42 0.065,-0.46 0.1,-0.491C0.136,-0.521 0.184,-0.537 0.244,-0.537C0.323,-0.537 0.38,-0.514 0.415,-0.467C0.436,-0.438 0.447,-0.406 0.446,-0.373L0.363,-0.373C0.362,-0.392 0.355,-0.41 0.342,-0.427C0.322,-0.45 0.287,-0.461 0.237,-0.461C0.204,-0.461 0.179,-0.455 0.162,-0.442C0.145,-0.43 0.136,-0.413 0.136,-0.392C0.136,-0.369 0.147,-0.351 0.17,-0.337C0.183,-0.329 0.202,-0.322 0.228,-0.316L0.286,-0.302C0.349,-0.286 0.391,-0.272 0.413,-0.257C0.447,-0.235 0.464,-0.2 0.464,-0.151C0.464,-0.105 0.446,-0.065 0.411,-0.031C0.376,0.003 0.322,0.02 0.25,0.02C0.172,0.02 0.117,0.002 0.084,-0.033C0.052,-0.068 0.035,-0.112 0.032,-0.164L0.117,-0.164Z" style="fill-rule:nonzero;"/>
            </g>
        </g>
    </g>
    <g id="Formulation" transform="matrix(1,0,0,1,658.805,1.42109e-14)">
        <g transform="matrix(1.17315,0,0,1.05894,55.0489,19.3026)">
            <path d="M183.226,-18.228L89.461,-18.228L-46.924,142.31L46.841,142.31L183.226,-18.228Z" style="fill:rgb(181,227,236);"/>
        </g>
        <g transform="matrix(0.687063,-0.726598,0.726598,0.687063,-50.2056,175.97)">
            <g transform="matrix(24,0,0,24,120.355,78.8299)">
                <path d="M0.085,-0.717L0.583,-0.717L0.583,-0.629L0.183,-0.629L0.183,-0.412L0.535,-0.412L0.535,-0.326L0.183,-0.326L0.183,-0L0.085,-0L0.085,-0.717Z" style="fill-rule:nonzero;"/>
            </g>
            <g transform="matrix(24,0,0,24,135.015,78.8299)">
                <path d="M0.272,-0.057C0.33,-0.057 0.37,-0.079 0.392,-0.123C0.413,-0.167 0.424,-0.216 0.424,-0.27C0.424,-0.319 0.417,-0.359 0.401,-0.389C0.376,-0.437 0.333,-0.461 0.273,-0.461C0.219,-0.461 0.18,-0.441 0.156,-0.4C0.131,-0.359 0.119,-0.309 0.119,-0.251C0.119,-0.196 0.131,-0.149 0.156,-0.112C0.18,-0.075 0.219,-0.057 0.272,-0.057ZM0.275,-0.538C0.343,-0.538 0.4,-0.516 0.446,-0.471C0.493,-0.426 0.516,-0.36 0.516,-0.272C0.516,-0.188 0.496,-0.118 0.455,-0.063C0.414,-0.008 0.35,0.019 0.264,0.019C0.192,0.019 0.135,-0.005 0.092,-0.054C0.05,-0.103 0.029,-0.168 0.029,-0.25C0.029,-0.338 0.051,-0.408 0.096,-0.46C0.14,-0.512 0.2,-0.538 0.275,-0.538Z" style="fill-rule:nonzero;"/>
            </g>
            <g transform="matrix(24,0,0,24,148.363,78.8299)">
                <path d="M0.067,-0.523L0.15,-0.523L0.15,-0.433C0.157,-0.45 0.174,-0.472 0.201,-0.497C0.227,-0.522 0.258,-0.535 0.293,-0.535C0.295,-0.535 0.297,-0.535 0.301,-0.534C0.305,-0.534 0.312,-0.533 0.321,-0.532L0.321,-0.439C0.316,-0.44 0.311,-0.441 0.307,-0.441C0.302,-0.442 0.298,-0.442 0.292,-0.442C0.248,-0.442 0.214,-0.428 0.19,-0.399C0.167,-0.371 0.155,-0.338 0.155,-0.301L0.155,-0L0.067,-0L0.067,-0.523Z" style="fill-rule:nonzero;"/>
            </g>
            <g transform="matrix(24,0,0,24,156.355,78.8299)">
                <path d="M0.064,-0.523L0.151,-0.523L0.151,-0.449C0.172,-0.474 0.191,-0.493 0.208,-0.505C0.237,-0.525 0.27,-0.535 0.307,-0.535C0.348,-0.535 0.382,-0.524 0.407,-0.504C0.422,-0.492 0.435,-0.475 0.446,-0.452C0.466,-0.48 0.489,-0.501 0.515,-0.514C0.542,-0.528 0.571,-0.535 0.604,-0.535C0.674,-0.535 0.722,-0.509 0.748,-0.458C0.761,-0.431 0.768,-0.394 0.768,-0.348L0.768,-0L0.677,-0L0.677,-0.363C0.677,-0.398 0.668,-0.422 0.651,-0.435C0.633,-0.448 0.612,-0.455 0.587,-0.455C0.552,-0.455 0.523,-0.443 0.498,-0.42C0.473,-0.397 0.46,-0.358 0.46,-0.304L0.46,-0L0.371,-0L0.371,-0.341C0.371,-0.377 0.367,-0.403 0.358,-0.419C0.345,-0.443 0.32,-0.456 0.284,-0.456C0.25,-0.456 0.22,-0.443 0.193,-0.417C0.166,-0.391 0.152,-0.345 0.152,-0.277L0.152,-0L0.064,-0L0.064,-0.523Z" style="fill-rule:nonzero;"/>
            </g>
            <g transform="matrix(24,0,0,24,176.347,78.8299)">
                <path d="M0.152,-0.523L0.152,-0.176C0.152,-0.149 0.157,-0.127 0.165,-0.11C0.181,-0.079 0.21,-0.063 0.252,-0.063C0.314,-0.063 0.355,-0.091 0.377,-0.146C0.389,-0.175 0.396,-0.215 0.396,-0.266L0.396,-0.523L0.483,-0.523L0.483,-0L0.4,-0L0.401,-0.077C0.39,-0.057 0.376,-0.041 0.359,-0.027C0.325,0 0.285,0.014 0.237,0.014C0.162,0.014 0.111,-0.011 0.084,-0.061C0.07,-0.087 0.063,-0.123 0.063,-0.167L0.063,-0.523L0.152,-0.523Z" style="fill-rule:nonzero;"/>
            </g>
            <g transform="matrix(24,0,0,24,189.695,78.8299)">
                <rect x="0.067" y="-0.717" width="0.088" height="0.717" style="fill-rule:nonzero;"/>
            </g>
            <g transform="matrix(24,0,0,24,195.027,78.8299)">
                <path d="M0.132,-0.139C0.132,-0.114 0.141,-0.094 0.16,-0.079C0.178,-0.064 0.2,-0.057 0.226,-0.057C0.257,-0.057 0.286,-0.064 0.315,-0.079C0.364,-0.102 0.389,-0.141 0.389,-0.195L0.389,-0.266C0.378,-0.259 0.364,-0.254 0.347,-0.249C0.33,-0.244 0.314,-0.241 0.297,-0.239L0.244,-0.232C0.212,-0.228 0.188,-0.222 0.172,-0.212C0.145,-0.197 0.132,-0.173 0.132,-0.139ZM0.345,-0.317C0.365,-0.319 0.378,-0.328 0.385,-0.342C0.389,-0.35 0.391,-0.361 0.391,-0.376C0.391,-0.406 0.38,-0.428 0.359,-0.441C0.338,-0.455 0.307,-0.461 0.268,-0.461C0.222,-0.461 0.189,-0.449 0.17,-0.424C0.159,-0.411 0.152,-0.39 0.149,-0.363L0.067,-0.363C0.069,-0.428 0.089,-0.473 0.13,-0.498C0.17,-0.523 0.216,-0.536 0.27,-0.536C0.331,-0.536 0.381,-0.524 0.419,-0.5C0.458,-0.477 0.477,-0.441 0.477,-0.391L0.477,-0.09C0.477,-0.081 0.478,-0.073 0.482,-0.068C0.486,-0.062 0.494,-0.06 0.506,-0.06C0.51,-0.06 0.514,-0.06 0.519,-0.06C0.524,-0.061 0.529,-0.062 0.535,-0.063L0.535,0.002C0.521,0.006 0.511,0.009 0.503,0.01C0.496,0.011 0.486,0.011 0.474,0.011C0.444,0.011 0.422,0 0.408,-0.021C0.401,-0.032 0.396,-0.049 0.393,-0.069C0.375,-0.046 0.349,-0.026 0.316,-0.008C0.282,0.009 0.245,0.018 0.205,0.018C0.157,0.018 0.117,0.003 0.086,-0.027C0.055,-0.056 0.04,-0.093 0.04,-0.137C0.04,-0.186 0.055,-0.223 0.085,-0.25C0.116,-0.277 0.155,-0.293 0.205,-0.299L0.345,-0.317Z" style="fill-rule:nonzero;"/>
            </g>
            <g transform="matrix(24,0,0,24,208.374,78.8299)">
                <path d="M0.082,-0.669L0.171,-0.669L0.171,-0.523L0.254,-0.523L0.254,-0.451L0.171,-0.451L0.171,-0.11C0.171,-0.092 0.177,-0.079 0.189,-0.073C0.196,-0.07 0.208,-0.068 0.224,-0.068C0.228,-0.068 0.232,-0.068 0.237,-0.068C0.242,-0.068 0.248,-0.069 0.254,-0.069L0.254,-0C0.244,0.003 0.234,0.005 0.223,0.006C0.212,0.008 0.2,0.008 0.188,0.008C0.146,0.008 0.119,-0.002 0.104,-0.023C0.089,-0.044 0.082,-0.071 0.082,-0.105L0.082,-0.451L0.011,-0.451L0.011,-0.523L0.082,-0.523L0.082,-0.669Z" style="fill-rule:nonzero;"/>
            </g>
            <g transform="matrix(24,0,0,24,215.042,78.8299)">
                <path d="M0.064,-0.521L0.154,-0.521L0.154,-0L0.064,-0L0.064,-0.521ZM0.064,-0.717L0.154,-0.717L0.154,-0.618L0.064,-0.618L0.064,-0.717Z" style="fill-rule:nonzero;"/>
            </g>
            <g transform="matrix(24,0,0,24,220.374,78.8299)">
                <path d="M0.272,-0.057C0.33,-0.057 0.37,-0.079 0.392,-0.123C0.413,-0.167 0.424,-0.216 0.424,-0.27C0.424,-0.319 0.417,-0.359 0.401,-0.389C0.376,-0.437 0.333,-0.461 0.273,-0.461C0.219,-0.461 0.18,-0.441 0.156,-0.4C0.131,-0.359 0.119,-0.309 0.119,-0.251C0.119,-0.196 0.131,-0.149 0.156,-0.112C0.18,-0.075 0.219,-0.057 0.272,-0.057ZM0.275,-0.538C0.343,-0.538 0.4,-0.516 0.446,-0.471C0.493,-0.426 0.516,-0.36 0.516,-0.272C0.516,-0.188 0.496,-0.118 0.455,-0.063C0.414,-0.008 0.35,0.019 0.264,0.019C0.192,0.019 0.135,-0.005 0.092,-0.054C0.05,-0.103 0.029,-0.168 0.029,-0.25C0.029,-0.338 0.051,-0.408 0.096,-0.46C0.14,-0.512 0.2,-0.538 0.275,-0.538Z" style="fill-rule:nonzero;"/>
            </g>
            <g transform="matrix(24,0,0,24,233.722,78.8299)">
                <path d="M0.064,-0.523L0.148,-0.523L0.148,-0.449C0.173,-0.479 0.199,-0.501 0.227,-0.515C0.254,-0.528 0.285,-0.535 0.319,-0.535C0.393,-0.535 0.443,-0.509 0.469,-0.457C0.484,-0.429 0.491,-0.388 0.491,-0.335L0.491,-0L0.401,-0L0.401,-0.33C0.401,-0.361 0.397,-0.387 0.387,-0.407C0.372,-0.439 0.343,-0.456 0.302,-0.456C0.281,-0.456 0.264,-0.453 0.251,-0.449C0.227,-0.442 0.206,-0.428 0.188,-0.406C0.173,-0.389 0.163,-0.371 0.159,-0.353C0.155,-0.334 0.152,-0.308 0.152,-0.274L0.152,-0L0.064,-0L0.064,-0.523Z" style="fill-rule:nonzero;"/>
            </g>
        </g>
    </g>
    <g id="Vulnerabilities" transform="matrix(1,0,0,1,549.606,0)">
        <g transform="matrix(1.17315,0,0,1.05894,55.0489,19.3026)">
            <path d="M183.226,-18.228L89.461,-18.228L-46.924,142.31L46.841,142.31L183.226,-18.228Z" style="fill:rgb(249,184,184);"/>
        </g>
        <g transform="matrix(0.687063,-0.726598,0.726598,0.687063,-61.2936,186.25)">
            <g transform="matrix(24,0,0,24,120.355,78.8299)">
                <path d="M0.133,-0.717L0.339,-0.106L0.542,-0.717L0.651,-0.717L0.39,-0L0.287,-0L0.025,-0.717L0.133,-0.717Z" style="fill-rule:nonzero;"/>
            </g>
            <g transform="matrix(24,0,0,24,135.484,78.8299)">
                <path d="M0.152,-0.523L0.152,-0.176C0.152,-0.149 0.157,-0.127 0.165,-0.11C0.181,-0.079 0.21,-0.063 0.252,-0.063C0.314,-0.063 0.355,-0.091 0.377,-0.146C0.389,-0.175 0.396,-0.215 0.396,-0.266L0.396,-0.523L0.483,-0.523L0.483,-0L0.4,-0L0.401,-0.077C0.39,-0.057 0.376,-0.041 0.359,-0.027C0.325,0 0.285,0.014 0.237,0.014C0.162,0.014 0.111,-0.011 0.084,-0.061C0.07,-0.087 0.063,-0.123 0.063,-0.167L0.063,-0.523L0.152,-0.523Z" style="fill-rule:nonzero;"/>
            </g>
            <g transform="matrix(24,0,0,24,148.831,78.8299)">
                <rect x="0.067" y="-0.717" width="0.088" height="0.717" style="fill-rule:nonzero;"/>
            </g>
            <g transform="matrix(24,0,0,24,154.163,78.8299)">
                <path d="M0.064,-0.523L0.148,-0.523L0.148,-0.449C0.173,-0.479 0.199,-0.501 0.227,-0.515C0.254,-0.528 0.285,-0.535 0.319,-0.535C0.393,-0.535 0.443,-0.509 0.469,-0.457C0.484,-0.429 0.491,-0.388 0.491,-0.335L0.491,-0L0.401,-0L0.401,-0.33C0.401,-0.361 0.397,-0.387 0.387,-0.407C0.372,-0.439 0.343,-0.456 0.302,-0.456C0.281,-0.456 0.264,-0.453 0.251,-0.449C0.227,-0.442 0.206,-0.428 0.188,-0.406C0.173,-0.389 0.163,-0.371 0.159,-0.353C0.155,-0.334 0.152,-0.308 0.152,-0.274L0.152,-0L0.064,-0L0.064,-0.523Z" style="fill-rule:nonzero;"/>
            </g>
            <g transform="matrix(24,0,0,24,167.511,78.8299)">
                <path d="M0.282,-0.535C0.319,-0.535 0.355,-0.526 0.39,-0.509C0.425,-0.491 0.451,-0.469 0.47,-0.441C0.487,-0.415 0.499,-0.384 0.505,-0.349C0.51,-0.325 0.513,-0.286 0.513,-0.233L0.129,-0.233C0.131,-0.18 0.144,-0.138 0.167,-0.106C0.19,-0.074 0.227,-0.058 0.276,-0.058C0.322,-0.058 0.358,-0.073 0.386,-0.103C0.401,-0.121 0.412,-0.141 0.419,-0.164L0.505,-0.164C0.503,-0.145 0.496,-0.123 0.483,-0.1C0.47,-0.076 0.455,-0.057 0.439,-0.042C0.413,-0.016 0.38,0.002 0.34,0.011C0.319,0.016 0.295,0.019 0.269,0.019C0.203,0.019 0.148,-0.005 0.103,-0.052C0.058,-0.1 0.035,-0.166 0.035,-0.251C0.035,-0.335 0.058,-0.404 0.104,-0.456C0.149,-0.508 0.209,-0.535 0.282,-0.535ZM0.422,-0.303C0.419,-0.341 0.41,-0.372 0.397,-0.395C0.373,-0.437 0.333,-0.458 0.277,-0.458C0.236,-0.458 0.203,-0.443 0.175,-0.414C0.148,-0.385 0.133,-0.348 0.132,-0.303L0.422,-0.303Z" style="fill-rule:nonzero;"/>
            </g>
            <g transform="matrix(24,0,0,24,180.859,78.8299)">
                <path d="M0.067,-0.523L0.15,-0.523L0.15,-0.433C0.157,-0.45 0.174,-0.472 0.201,-0.497C0.227,-0.522 0.258,-0.535 0.293,-0.535C0.295,-0.535 0.297,-0.535 0.301,-0.534C0.305,-0.534 0.312,-0.533 0.321,-0.532L0.321,-0.439C0.316,-0.44 0.311,-0.441 0.307,-0.441C0.302,-0.442 0.298,-0.442 0.292,-0.442C0.248,-0.442 0.214,-0.428 0.19,-0.399C0.167,-0.371 0.155,-0.338 0.155,-0.301L0.155,-0L0.067,-0L0.067,-0.523Z" style="fill-rule:nonzero;"/>
            </g>
            <g transform="matrix(24,0,0,24,188.851,78.8299)">
                <path d="M0.132,-0.139C0.132,-0.114 0.141,-0.094 0.16,-0.079C0.178,-0.064 0.2,-0.057 0.226,-0.057C0.257,-0.057 0.286,-0.064 0.315,-0.079C0.364,-0.102 0.389,-0.141 0.389,-0.195L0.389,-0.266C0.378,-0.259 0.364,-0.254 0.347,-0.249C0.33,-0.244 0.314,-0.241 0.297,-0.239L0.244,-0.232C0.212,-0.228 0.188,-0.222 0.172,-0.212C0.145,-0.197 0.132,-0.173 0.132,-0.139ZM0.345,-0.317C0.365,-0.319 0.378,-0.328 0.385,-0.342C0.389,-0.35 0.391,-0.361 0.391,-0.376C0.391,-0.406 0.38,-0.428 0.359,-0.441C0.338,-0.455 0.307,-0.461 0.268,-0.461C0.222,-0.461 0.189,-0.449 0.17,-0.424C0.159,-0.411 0.152,-0.39 0.149,-0.363L0.067,-0.363C0.069,-0.428 0.089,-0.473 0.13,-0.498C0.17,-0.523 0.216,-0.536 0.27,-0.536C0.331,-0.536 0.381,-0.524 0.419,-0.5C0.458,-0.477 0.477,-0.441 0.477,-0.391L0.477,-0.09C0.477,-0.081 0.478,-0.073 0.482,-0.068C0.486,-0.062 0.494,-0.06 0.506,-0.06C0.51,-0.06 0.514,-0.06 0.519,-0.06C0.524,-0.061 0.529,-0.062 0.535,-0.063L0.535,0.002C0.521,0.006 0.511,0.009 0.503,0.01C0.496,0.011 0.486,0.011 0.474,0.011C0.444,0.011 0.422,0 0.408,-0.021C0.401,-0.032 0.396,-0.049 0.393,-0.069C0.375,-0.046 0.349,-0.026 0.316,-0.008C0.282,0.009 0.245,0.018 0.205,0.018C0.157,0.018 0.117,0.003 0.086,-0.027C0.055,-0.056 0.04,-0.093 0.04,-0.137C0.04,-0.186 0.055,-0.223 0.085,-0.25C0.116,-0.277 0.155,-0.293 0.205,-0.299L0.345,-0.317Z" style="fill-rule:nonzero;"/>
            </g>
            <g transform="matrix(24,0,0,24,202.198,78.8299)">
                <path d="M0.058,-0.72L0.143,-0.72L0.143,-0.459C0.162,-0.485 0.185,-0.504 0.212,-0.517C0.239,-0.53 0.268,-0.537 0.299,-0.537C0.364,-0.537 0.417,-0.514 0.457,-0.469C0.498,-0.425 0.518,-0.359 0.518,-0.271C0.518,-0.189 0.498,-0.12 0.458,-0.065C0.418,-0.011 0.362,0.017 0.292,0.017C0.252,0.017 0.218,0.007 0.191,-0.012C0.175,-0.024 0.157,-0.042 0.139,-0.067L0.139,-0L0.058,-0L0.058,-0.72ZM0.286,-0.061C0.334,-0.061 0.369,-0.08 0.393,-0.118C0.416,-0.155 0.428,-0.205 0.428,-0.267C0.428,-0.322 0.416,-0.368 0.393,-0.404C0.369,-0.44 0.334,-0.458 0.289,-0.458C0.249,-0.458 0.213,-0.443 0.183,-0.414C0.153,-0.384 0.138,-0.335 0.138,-0.267C0.138,-0.218 0.144,-0.178 0.157,-0.147C0.18,-0.09 0.223,-0.061 0.286,-0.061Z" style="fill-rule:nonzero;"/>
            </g>
            <g transform="matrix(24,0,0,24,215.546,78.8299)">
                <path d="M0.064,-0.521L0.154,-0.521L0.154,-0L0.064,-0L0.064,-0.521ZM0.064,-0.717L0.154,-0.717L0.154,-0.618L0.064,-0.618L0.064,-0.717Z" style="fill-rule:nonzero;"/>
            </g>
            <g transform="matrix(24,0,0,24,220.878,78.8299)">
                <rect x="0.067" y="-0.717" width="0.088" height="0.717" style="fill-rule:nonzero;"/>
            </g>
            <g transform="matrix(24,0,0,24,226.21,78.8299)">
                <path d="M0.064,-0.521L0.154,-0.521L0.154,-0L0.064,-0L0.064,-0.521ZM0.064,-0.717L0.154,-0.717L0.154,-0.618L0.064,-0.618L0.064,-0.717Z" style="fill-rule:nonzero;"/>
            </g>
            <g transform="matrix(24,0,0,24,231.542,78.8299)">
                <path d="M0.082,-0.669L0.171,-0.669L0.171,-0.523L0.254,-0.523L0.254,-0.451L0.171,-0.451L0.171,-0.11C0.171,-0.092 0.177,-0.079 0.189,-0.073C0.196,-0.07 0.208,-0.068 0.224,-0.068C0.228,-0.068 0.232,-0.068 0.237,-0.068C0.242,-0.068 0.248,-0.069 0.254,-0.069L0.254,-0C0.244,0.003 0.234,0.005 0.223,0.006C0.212,0.008 0.2,0.008 0.188,0.008C0.146,0.008 0.119,-0.002 0.104,-0.023C0.089,-0.044 0.082,-0.071 0.082,-0.105L0.082,-0.451L0.011,-0.451L0.011,-0.523L0.082,-0.523L0.082,-0.669Z" style="fill-rule:nonzero;"/>
            </g>
            <g transform="matrix(24,0,0,24,238.21,78.8299)">
                <path d="M0.064,-0.521L0.154,-0.521L0.154,-0L0.064,-0L0.064,-0.521ZM0.064,-0.717L0.154,-0.717L0.154,-0.618L0.064,-0.618L0.064,-0.717Z" style="fill-rule:nonzero;"/>
            </g>
            <g transform="matrix(24,0,0,24,243.542,78.8299)">
                <path d="M0.282,-0.535C0.319,-0.535 0.355,-0.526 0.39,-0.509C0.425,-0.491 0.451,-0.469 0.47,-0.441C0.487,-0.415 0.499,-0.384 0.505,-0.349C0.51,-0.325 0.513,-0.286 0.513,-0.233L0.129,-0.233C0.131,-0.18 0.144,-0.138 0.167,-0.106C0.19,-0.074 0.227,-0.058 0.276,-0.058C0.322,-0.058 0.358,-0.073 0.386,-0.103C0.401,-0.121 0.412,-0.141 0.419,-0.164L0.505,-0.164C0.503,-0.145 0.496,-0.123 0.483,-0.1C0.47,-0.076 0.455,-0.057 0.439,-0.042C0.413,-0.016 0.38,0.002 0.34,0.011C0.319,0.016 0.295,0.019 0.269,0.019C0.203,0.019 0.148,-0.005 0.103,-0.052C0.058,-0.1 0.035,-0.166 0.035,-0.251C0.035,-0.335 0.058,-0.404 0.104,-0.456C0.149,-0.508 0.209,-0.535 0.282,-0.535ZM0.422,-0.303C0.419,-0.341 0.41,-0.372 0.397,-0.395C0.373,-0.437 0.333,-0.458 0.277,-0.458C0.236,-0.458 0.203,-0.443 0.175,-0.414C0.148,-0.385 0.133,-0.348 0.132,-0.303L0.422,-0.303Z" style="fill-rule:nonzero;"/>
            </g>
            <g transform="matrix(24,0,0,24,256.89,78.8299)">
                <path d="M0.117,-0.164C0.119,-0.135 0.127,-0.112 0.139,-0.097C0.161,-0.068 0.199,-0.054 0.254,-0.054C0.286,-0.054 0.315,-0.061 0.34,-0.075C0.365,-0.09 0.377,-0.111 0.377,-0.141C0.377,-0.164 0.367,-0.181 0.347,-0.192C0.334,-0.2 0.309,-0.208 0.272,-0.217L0.202,-0.235C0.158,-0.246 0.125,-0.258 0.104,-0.272C0.066,-0.296 0.047,-0.329 0.047,-0.371C0.047,-0.42 0.065,-0.46 0.1,-0.491C0.136,-0.521 0.184,-0.537 0.244,-0.537C0.323,-0.537 0.38,-0.514 0.415,-0.467C0.436,-0.438 0.447,-0.406 0.446,-0.373L0.363,-0.373C0.362,-0.392 0.355,-0.41 0.342,-0.427C0.322,-0.45 0.287,-0.461 0.237,-0.461C0.204,-0.461 0.179,-0.455 0.162,-0.442C0.145,-0.43 0.136,-0.413 0.136,-0.392C0.136,-0.369 0.147,-0.351 0.17,-0.337C0.183,-0.329 0.202,-0.322 0.228,-0.316L0.286,-0.302C0.349,-0.286 0.391,-0.272 0.413,-0.257C0.447,-0.235 0.464,-0.2 0.464,-0.151C0.464,-0.105 0.446,-0.065 0.411,-0.031C0.376,0.003 0.322,0.02 0.25,0.02C0.172,0.02 0.117,0.002 0.084,-0.033C0.052,-0.068 0.035,-0.112 0.032,-0.164L0.117,-0.164Z" style="fill-rule:nonzero;"/>
            </g>
        </g>
    </g>
    <g id="Compositions" transform="matrix(1,0,0,1,440,1.42109e-14)">
        <g transform="matrix(1.17315,0,0,1.05894,55.0489,19.3026)">
            <path d="M183.226,-18.228L89.461,-18.228L-46.924,142.31L46.841,142.31L183.226,-18.228Z" style="fill:rgb(235,218,173);"/>
        </g>
        <g transform="matrix(0.687063,-0.726598,0.726598,0.687063,-56.9649,184.25)">
            <g transform="matrix(24,0,0,24,120.355,78.8299)">
                <path d="M0.378,-0.737C0.469,-0.737 0.54,-0.713 0.59,-0.665C0.64,-0.617 0.668,-0.563 0.673,-0.502L0.579,-0.502C0.568,-0.548 0.546,-0.585 0.514,-0.612C0.482,-0.639 0.437,-0.652 0.379,-0.652C0.309,-0.652 0.252,-0.628 0.208,-0.578C0.165,-0.528 0.143,-0.452 0.143,-0.35C0.143,-0.266 0.163,-0.198 0.202,-0.145C0.241,-0.093 0.3,-0.067 0.377,-0.067C0.449,-0.067 0.504,-0.094 0.541,-0.149C0.561,-0.178 0.576,-0.216 0.585,-0.264L0.68,-0.264C0.672,-0.188 0.644,-0.125 0.596,-0.074C0.539,-0.012 0.462,0.019 0.366,0.019C0.282,0.019 0.212,-0.007 0.156,-0.057C0.081,-0.124 0.044,-0.227 0.044,-0.366C0.044,-0.472 0.072,-0.559 0.128,-0.626C0.188,-0.7 0.272,-0.737 0.378,-0.737Z" style="fill-rule:nonzero;"/>
            </g>
            <g transform="matrix(24,0,0,24,137.687,78.8299)">
                <path d="M0.272,-0.057C0.33,-0.057 0.37,-0.079 0.392,-0.123C0.413,-0.167 0.424,-0.216 0.424,-0.27C0.424,-0.319 0.417,-0.359 0.401,-0.389C0.376,-0.437 0.333,-0.461 0.273,-0.461C0.219,-0.461 0.18,-0.441 0.156,-0.4C0.131,-0.359 0.119,-0.309 0.119,-0.251C0.119,-0.196 0.131,-0.149 0.156,-0.112C0.18,-0.075 0.219,-0.057 0.272,-0.057ZM0.275,-0.538C0.343,-0.538 0.4,-0.516 0.446,-0.471C0.493,-0.426 0.516,-0.36 0.516,-0.272C0.516,-0.188 0.496,-0.118 0.455,-0.063C0.414,-0.008 0.35,0.019 0.264,0.019C0.192,0.019 0.135,-0.005 0.092,-0.054C0.05,-0.103 0.029,-0.168 0.029,-0.25C0.029,-0.338 0.051,-0.408 0.096,-0.46C0.14,-0.512 0.2,-0.538 0.275,-0.538Z" style="fill-rule:nonzero;"/>
            </g>
            <g transform="matrix(24,0,0,24,151.034,78.8299)">
                <path d="M0.064,-0.523L0.151,-0.523L0.151,-0.449C0.172,-0.474 0.191,-0.493 0.208,-0.505C0.237,-0.525 0.27,-0.535 0.307,-0.535C0.348,-0.535 0.382,-0.524 0.407,-0.504C0.422,-0.492 0.435,-0.475 0.446,-0.452C0.466,-0.48 0.489,-0.501 0.515,-0.514C0.542,-0.528 0.571,-0.535 0.604,-0.535C0.674,-0.535 0.722,-0.509 0.748,-0.458C0.761,-0.431 0.768,-0.394 0.768,-0.348L0.768,-0L0.677,-0L0.677,-0.363C0.677,-0.398 0.668,-0.422 0.651,-0.435C0.633,-0.448 0.612,-0.455 0.587,-0.455C0.552,-0.455 0.523,-0.443 0.498,-0.42C0.473,-0.397 0.46,-0.358 0.46,-0.304L0.46,-0L0.371,-0L0.371,-0.341C0.371,-0.377 0.367,-0.403 0.358,-0.419C0.345,-0.443 0.32,-0.456 0.284,-0.456C0.25,-0.456 0.22,-0.443 0.193,-0.417C0.166,-0.391 0.152,-0.345 0.152,-0.277L0.152,-0L0.064,-0L0.064,-0.523Z" style="fill-rule:nonzero;"/>
            </g>
            <g transform="matrix(24,0,0,24,171.027,78.8299)">
                <path d="M0.285,-0.059C0.326,-0.059 0.36,-0.076 0.387,-0.111C0.415,-0.145 0.428,-0.196 0.428,-0.265C0.428,-0.306 0.422,-0.342 0.41,-0.372C0.387,-0.43 0.346,-0.458 0.285,-0.458C0.224,-0.458 0.183,-0.428 0.16,-0.367C0.148,-0.335 0.142,-0.293 0.142,-0.243C0.142,-0.203 0.148,-0.168 0.16,-0.14C0.183,-0.086 0.225,-0.059 0.285,-0.059ZM0.058,-0.521L0.143,-0.521L0.143,-0.451C0.161,-0.475 0.18,-0.493 0.201,-0.506C0.23,-0.526 0.265,-0.536 0.305,-0.536C0.364,-0.536 0.415,-0.513 0.456,-0.468C0.497,-0.422 0.518,-0.357 0.518,-0.273C0.518,-0.159 0.488,-0.078 0.429,-0.029C0.391,0.002 0.347,0.018 0.297,0.018C0.257,0.018 0.224,0.009 0.198,-0.008C0.182,-0.018 0.165,-0.035 0.146,-0.059L0.146,0.208L0.058,0.208L0.058,-0.521Z" style="fill-rule:nonzero;"/>
            </g>
            <g transform="matrix(24,0,0,24,184.374,78.8299)">
                <path d="M0.272,-0.057C0.33,-0.057 0.37,-0.079 0.392,-0.123C0.413,-0.167 0.424,-0.216 0.424,-0.27C0.424,-0.319 0.417,-0.359 0.401,-0.389C0.376,-0.437 0.333,-0.461 0.273,-0.461C0.219,-0.461 0.18,-0.441 0.156,-0.4C0.131,-0.359 0.119,-0.309 0.119,-0.251C0.119,-0.196 0.131,-0.149 0.156,-0.112C0.18,-0.075 0.219,-0.057 0.272,-0.057ZM0.275,-0.538C0.343,-0.538 0.4,-0.516 0.446,-0.471C0.493,-0.426 0.516,-0.36 0.516,-0.272C0.516,-0.188 0.496,-0.118 0.455,-0.063C0.414,-0.008 0.35,0.019 0.264,0.019C0.192,0.019 0.135,-0.005 0.092,-0.054C0.05,-0.103 0.029,-0.168 0.029,-0.25C0.029,-0.338 0.051,-0.408 0.096,-0.46C0.14,-0.512 0.2,-0.538 0.275,-0.538Z" style="fill-rule:nonzero;"/>
            </g>
            <g transform="matrix(24,0,0,24,197.722,78.8299)">
                <path d="M0.117,-0.164C0.119,-0.135 0.127,-0.112 0.139,-0.097C0.161,-0.068 0.199,-0.054 0.254,-0.054C0.286,-0.054 0.315,-0.061 0.34,-0.075C0.365,-0.09 0.377,-0.111 0.377,-0.141C0.377,-0.164 0.367,-0.181 0.347,-0.192C0.334,-0.2 0.309,-0.208 0.272,-0.217L0.202,-0.235C0.158,-0.246 0.125,-0.258 0.104,-0.272C0.066,-0.296 0.047,-0.329 0.047,-0.371C0.047,-0.42 0.065,-0.46 0.1,-0.491C0.136,-0.521 0.184,-0.537 0.244,-0.537C0.323,-0.537 0.38,-0.514 0.415,-0.467C0.436,-0.438 0.447,-0.406 0.446,-0.373L0.363,-0.373C0.362,-0.392 0.355,-0.41 0.342,-0.427C0.322,-0.45 0.287,-0.461 0.237,-0.461C0.204,-0.461 0.179,-0.455 0.162,-0.442C0.145,-0.43 0.136,-0.413 0.136,-0.392C0.136,-0.369 0.147,-0.351 0.17,-0.337C0.183,-0.329 0.202,-0.322 0.228,-0.316L0.286,-0.302C0.349,-0.286 0.391,-0.272 0.413,-0.257C0.447,-0.235 0.464,-0.2 0.464,-0.151C0.464,-0.105 0.446,-0.065 0.411,-0.031C0.376,0.003 0.322,0.02 0.25,0.02C0.172,0.02 0.117,0.002 0.084,-0.033C0.052,-0.068 0.035,-0.112 0.032,-0.164L0.117,-0.164Z" style="fill-rule:nonzero;"/>
            </g>
            <g transform="matrix(24,0,0,24,209.722,78.8299)">
                <path d="M0.064,-0.521L0.154,-0.521L0.154,-0L0.064,-0L0.064,-0.521ZM0.064,-0.717L0.154,-0.717L0.154,-0.618L0.064,-0.618L0.064,-0.717Z" style="fill-rule:nonzero;"/>
            </g>
            <g transform="matrix(24,0,0,24,215.054,78.8299)">
                <path d="M0.082,-0.669L0.171,-0.669L0.171,-0.523L0.254,-0.523L0.254,-0.451L0.171,-0.451L0.171,-0.11C0.171,-0.092 0.177,-0.079 0.189,-0.073C0.196,-0.07 0.208,-0.068 0.224,-0.068C0.228,-0.068 0.232,-0.068 0.237,-0.068C0.242,-0.068 0.248,-0.069 0.254,-0.069L0.254,-0C0.244,0.003 0.234,0.005 0.223,0.006C0.212,0.008 0.2,0.008 0.188,0.008C0.146,0.008 0.119,-0.002 0.104,-0.023C0.089,-0.044 0.082,-0.071 0.082,-0.105L0.082,-0.451L0.011,-0.451L0.011,-0.523L0.082,-0.523L0.082,-0.669Z" style="fill-rule:nonzero;"/>
            </g>
            <g transform="matrix(24,0,0,24,221.722,78.8299)">
                <path d="M0.064,-0.521L0.154,-0.521L0.154,-0L0.064,-0L0.064,-0.521ZM0.064,-0.717L0.154,-0.717L0.154,-0.618L0.064,-0.618L0.064,-0.717Z" style="fill-rule:nonzero;"/>
            </g>
            <g transform="matrix(24,0,0,24,227.054,78.8299)">
                <path d="M0.272,-0.057C0.33,-0.057 0.37,-0.079 0.392,-0.123C0.413,-0.167 0.424,-0.216 0.424,-0.27C0.424,-0.319 0.417,-0.359 0.401,-0.389C0.376,-0.437 0.333,-0.461 0.273,-0.461C0.219,-0.461 0.18,-0.441 0.156,-0.4C0.131,-0.359 0.119,-0.309 0.119,-0.251C0.119,-0.196 0.131,-0.149 0.156,-0.112C0.18,-0.075 0.219,-0.057 0.272,-0.057ZM0.275,-0.538C0.343,-0.538 0.4,-0.516 0.446,-0.471C0.493,-0.426 0.516,-0.36 0.516,-0.272C0.516,-0.188 0.496,-0.118 0.455,-0.063C0.414,-0.008 0.35,0.019 0.264,0.019C0.192,0.019 0.135,-0.005 0.092,-0.054C0.05,-0.103 0.029,-0.168 0.029,-0.25C0.029,-0.338 0.051,-0.408 0.096,-0.46C0.14,-0.512 0.2,-0.538 0.275,-0.538Z" style="fill-rule:nonzero;"/>
            </g>
            <g transform="matrix(24,0,0,24,240.402,78.8299)">
                <path d="M0.064,-0.523L0.148,-0.523L0.148,-0.449C0.173,-0.479 0.199,-0.501 0.227,-0.515C0.254,-0.528 0.285,-0.535 0.319,-0.535C0.393,-0.535 0.443,-0.509 0.469,-0.457C0.484,-0.429 0.491,-0.388 0.491,-0.335L0.491,-0L0.401,-0L0.401,-0.33C0.401,-0.361 0.397,-0.387 0.387,-0.407C0.372,-0.439 0.343,-0.456 0.302,-0.456C0.281,-0.456 0.264,-0.453 0.251,-0.449C0.227,-0.442 0.206,-0.428 0.188,-0.406C0.173,-0.389 0.163,-0.371 0.159,-0.353C0.155,-0.334 0.152,-0.308 0.152,-0.274L0.152,-0L0.064,-0L0.064,-0.523Z" style="fill-rule:nonzero;"/>
            </g>
            <g transform="matrix(24,0,0,24,253.749,78.8299)">
                <path d="M0.117,-0.164C0.119,-0.135 0.127,-0.112 0.139,-0.097C0.161,-0.068 0.199,-0.054 0.254,-0.054C0.286,-0.054 0.315,-0.061 0.34,-0.075C0.365,-0.09 0.377,-0.111 0.377,-0.141C0.377,-0.164 0.367,-0.181 0.347,-0.192C0.334,-0.2 0.309,-0.208 0.272,-0.217L0.202,-0.235C0.158,-0.246 0.125,-0.258 0.104,-0.272C0.066,-0.296 0.047,-0.329 0.047,-0.371C0.047,-0.42 0.065,-0.46 0.1,-0.491C0.136,-0.521 0.184,-0.537 0.244,-0.537C0.323,-0.537 0.38,-0.514 0.415,-0.467C0.436,-0.438 0.447,-0.406 0.446,-0.373L0.363,-0.373C0.362,-0.392 0.355,-0.41 0.342,-0.427C0.322,-0.45 0.287,-0.461 0.237,-0.461C0.204,-0.461 0.179,-0.455 0.162,-0.442C0.145,-0.43 0.136,-0.413 0.136,-0.392C0.136,-0.369 0.147,-0.351 0.17,-0.337C0.183,-0.329 0.202,-0.322 0.228,-0.316L0.286,-0.302C0.349,-0.286 0.391,-0.272 0.413,-0.257C0.447,-0.235 0.464,-0.2 0.464,-0.151C0.464,-0.105 0.446,-0.065 0.411,-0.031C0.376,0.003 0.322,0.02 0.25,0.02C0.172,0.02 0.117,0.002 0.084,-0.033C0.052,-0.068 0.035,-0.112 0.032,-0.164L0.117,-0.164Z" style="fill-rule:nonzero;"/>
            </g>
        </g>
    </g>
    <g id="Dependencies" transform="matrix(1,0,0,1,330,1.42109e-14)">
        <g transform="matrix(1.17315,0,0,1.05894,55.0489,19.3026)">
            <path d="M183.226,-18.228L89.461,-18.228L-46.924,142.31L46.841,142.31L183.226,-18.228Z" style="fill:rgb(255,212,173);"/>
        </g>
        <g transform="matrix(0.687063,-0.726598,0.726598,0.687063,-58.6764,186.157)">
            <g transform="matrix(24,0,0,24,120.355,78.8299)">
                <path d="M0.352,-0.083C0.384,-0.083 0.411,-0.086 0.433,-0.093C0.47,-0.106 0.501,-0.13 0.525,-0.167C0.545,-0.195 0.558,-0.233 0.567,-0.278C0.572,-0.305 0.574,-0.33 0.574,-0.353C0.574,-0.442 0.557,-0.511 0.521,-0.56C0.486,-0.609 0.429,-0.634 0.351,-0.634L0.178,-0.634L0.178,-0.083L0.352,-0.083ZM0.081,-0.717L0.371,-0.717C0.47,-0.717 0.546,-0.682 0.601,-0.612C0.649,-0.549 0.673,-0.468 0.673,-0.37C0.673,-0.293 0.659,-0.225 0.63,-0.163C0.58,-0.054 0.493,-0 0.37,-0L0.081,-0L0.081,-0.717Z" style="fill-rule:nonzero;"/>
            </g>
            <g transform="matrix(24,0,0,24,137.687,78.8299)">
                <path d="M0.282,-0.535C0.319,-0.535 0.355,-0.526 0.39,-0.509C0.425,-0.491 0.451,-0.469 0.47,-0.441C0.487,-0.415 0.499,-0.384 0.505,-0.349C0.51,-0.325 0.513,-0.286 0.513,-0.233L0.129,-0.233C0.131,-0.18 0.144,-0.138 0.167,-0.106C0.19,-0.074 0.227,-0.058 0.276,-0.058C0.322,-0.058 0.358,-0.073 0.386,-0.103C0.401,-0.121 0.412,-0.141 0.419,-0.164L0.505,-0.164C0.503,-0.145 0.496,-0.123 0.483,-0.1C0.47,-0.076 0.455,-0.057 0.439,-0.042C0.413,-0.016 0.38,0.002 0.34,0.011C0.319,0.016 0.295,0.019 0.269,0.019C0.203,0.019 0.148,-0.005 0.103,-0.052C0.058,-0.1 0.035,-0.166 0.035,-0.251C0.035,-0.335 0.058,-0.404 0.104,-0.456C0.149,-0.508 0.209,-0.535 0.282,-0.535ZM0.422,-0.303C0.419,-0.341 0.41,-0.372 0.397,-0.395C0.373,-0.437 0.333,-0.458 0.277,-0.458C0.236,-0.458 0.203,-0.443 0.175,-0.414C0.148,-0.385 0.133,-0.348 0.132,-0.303L0.422,-0.303Z" style="fill-rule:nonzero;"/>
            </g>
            <g transform="matrix(24,0,0,24,151.034,78.8299)">
                <path d="M0.285,-0.059C0.326,-0.059 0.36,-0.076 0.387,-0.111C0.415,-0.145 0.428,-0.196 0.428,-0.265C0.428,-0.306 0.422,-0.342 0.41,-0.372C0.387,-0.43 0.346,-0.458 0.285,-0.458C0.224,-0.458 0.183,-0.428 0.16,-0.367C0.148,-0.335 0.142,-0.293 0.142,-0.243C0.142,-0.203 0.148,-0.168 0.16,-0.14C0.183,-0.086 0.225,-0.059 0.285,-0.059ZM0.058,-0.521L0.143,-0.521L0.143,-0.451C0.161,-0.475 0.18,-0.493 0.201,-0.506C0.23,-0.526 0.265,-0.536 0.305,-0.536C0.364,-0.536 0.415,-0.513 0.456,-0.468C0.497,-0.422 0.518,-0.357 0.518,-0.273C0.518,-0.159 0.488,-0.078 0.429,-0.029C0.391,0.002 0.347,0.018 0.297,0.018C0.257,0.018 0.224,0.009 0.198,-0.008C0.182,-0.018 0.165,-0.035 0.146,-0.059L0.146,0.208L0.058,0.208L0.058,-0.521Z" style="fill-rule:nonzero;"/>
            </g>
            <g transform="matrix(24,0,0,24,164.382,78.8299)">
                <path d="M0.282,-0.535C0.319,-0.535 0.355,-0.526 0.39,-0.509C0.425,-0.491 0.451,-0.469 0.47,-0.441C0.487,-0.415 0.499,-0.384 0.505,-0.349C0.51,-0.325 0.513,-0.286 0.513,-0.233L0.129,-0.233C0.131,-0.18 0.144,-0.138 0.167,-0.106C0.19,-0.074 0.227,-0.058 0.276,-0.058C0.322,-0.058 0.358,-0.073 0.386,-0.103C0.401,-0.121 0.412,-0.141 0.419,-0.164L0.505,-0.164C0.503,-0.145 0.496,-0.123 0.483,-0.1C0.47,-0.076 0.455,-0.057 0.439,-0.042C0.413,-0.016 0.38,0.002 0.34,0.011C0.319,0.016 0.295,0.019 0.269,0.019C0.203,0.019 0.148,-0.005 0.103,-0.052C0.058,-0.1 0.035,-0.166 0.035,-0.251C0.035,-0.335 0.058,-0.404 0.104,-0.456C0.149,-0.508 0.209,-0.535 0.282,-0.535ZM0.422,-0.303C0.419,-0.341 0.41,-0.372 0.397,-0.395C0.373,-0.437 0.333,-0.458 0.277,-0.458C0.236,-0.458 0.203,-0.443 0.175,-0.414C0.148,-0.385 0.133,-0.348 0.132,-0.303L0.422,-0.303Z" style="fill-rule:nonzero;"/>
            </g>
            <g transform="matrix(24,0,0,24,177.73,78.8299)">
                <path d="M0.064,-0.523L0.148,-0.523L0.148,-0.449C0.173,-0.479 0.199,-0.501 0.227,-0.515C0.254,-0.528 0.285,-0.535 0.319,-0.535C0.393,-0.535 0.443,-0.509 0.469,-0.457C0.484,-0.429 0.491,-0.388 0.491,-0.335L0.491,-0L0.401,-0L0.401,-0.33C0.401,-0.361 0.397,-0.387 0.387,-0.407C0.372,-0.439 0.343,-0.456 0.302,-0.456C0.281,-0.456 0.264,-0.453 0.251,-0.449C0.227,-0.442 0.206,-0.428 0.188,-0.406C0.173,-0.389 0.163,-0.371 0.159,-0.353C0.155,-0.334 0.152,-0.308 0.152,-0.274L0.152,-0L0.064,-0L0.064,-0.523Z" style="fill-rule:nonzero;"/>
            </g>
            <g transform="matrix(24,0,0,24,191.077,78.8299)">
                <path d="M0.12,-0.255C0.12,-0.199 0.132,-0.153 0.156,-0.115C0.18,-0.077 0.218,-0.058 0.27,-0.058C0.311,-0.058 0.344,-0.076 0.37,-0.111C0.397,-0.146 0.41,-0.196 0.41,-0.261C0.41,-0.327 0.396,-0.376 0.369,-0.408C0.342,-0.44 0.309,-0.456 0.269,-0.456C0.225,-0.456 0.189,-0.439 0.161,-0.405C0.134,-0.371 0.12,-0.321 0.12,-0.255ZM0.252,-0.532C0.292,-0.532 0.326,-0.524 0.353,-0.507C0.369,-0.497 0.386,-0.48 0.406,-0.456L0.406,-0.72L0.491,-0.72L0.491,-0L0.412,-0L0.412,-0.073C0.391,-0.041 0.367,-0.017 0.339,-0.003C0.311,0.011 0.279,0.019 0.243,0.019C0.184,0.019 0.134,-0.006 0.091,-0.055C0.049,-0.104 0.027,-0.169 0.027,-0.25C0.027,-0.327 0.047,-0.393 0.086,-0.448C0.125,-0.504 0.18,-0.532 0.252,-0.532Z" style="fill-rule:nonzero;"/>
            </g>
            <g transform="matrix(24,0,0,24,204.425,78.8299)">
                <path d="M0.282,-0.535C0.319,-0.535 0.355,-0.526 0.39,-0.509C0.425,-0.491 0.451,-0.469 0.47,-0.441C0.487,-0.415 0.499,-0.384 0.505,-0.349C0.51,-0.325 0.513,-0.286 0.513,-0.233L0.129,-0.233C0.131,-0.18 0.144,-0.138 0.167,-0.106C0.19,-0.074 0.227,-0.058 0.276,-0.058C0.322,-0.058 0.358,-0.073 0.386,-0.103C0.401,-0.121 0.412,-0.141 0.419,-0.164L0.505,-0.164C0.503,-0.145 0.496,-0.123 0.483,-0.1C0.47,-0.076 0.455,-0.057 0.439,-0.042C0.413,-0.016 0.38,0.002 0.34,0.011C0.319,0.016 0.295,0.019 0.269,0.019C0.203,0.019 0.148,-0.005 0.103,-0.052C0.058,-0.1 0.035,-0.166 0.035,-0.251C0.035,-0.335 0.058,-0.404 0.104,-0.456C0.149,-0.508 0.209,-0.535 0.282,-0.535ZM0.422,-0.303C0.419,-0.341 0.41,-0.372 0.397,-0.395C0.373,-0.437 0.333,-0.458 0.277,-0.458C0.236,-0.458 0.203,-0.443 0.175,-0.414C0.148,-0.385 0.133,-0.348 0.132,-0.303L0.422,-0.303Z" style="fill-rule:nonzero;"/>
            </g>
            <g transform="matrix(24,0,0,24,217.773,78.8299)">
                <path d="M0.064,-0.523L0.148,-0.523L0.148,-0.449C0.173,-0.479 0.199,-0.501 0.227,-0.515C0.254,-0.528 0.285,-0.535 0.319,-0.535C0.393,-0.535 0.443,-0.509 0.469,-0.457C0.484,-0.429 0.491,-0.388 0.491,-0.335L0.491,-0L0.401,-0L0.401,-0.33C0.401,-0.361 0.397,-0.387 0.387,-0.407C0.372,-0.439 0.343,-0.456 0.302,-0.456C0.281,-0.456 0.264,-0.453 0.251,-0.449C0.227,-0.442 0.206,-0.428 0.188,-0.406C0.173,-0.389 0.163,-0.371 0.159,-0.353C0.155,-0.334 0.152,-0.308 0.152,-0.274L0.152,-0L0.064,-0L0.064,-0.523Z" style="fill-rule:nonzero;"/>
            </g>
            <g transform="matrix(24,0,0,24,231.12,78.8299)">
                <path d="M0.266,-0.538C0.325,-0.538 0.373,-0.524 0.41,-0.495C0.447,-0.466 0.469,-0.417 0.477,-0.347L0.391,-0.347C0.386,-0.379 0.374,-0.406 0.355,-0.427C0.337,-0.449 0.307,-0.459 0.266,-0.459C0.21,-0.459 0.17,-0.432 0.146,-0.377C0.13,-0.342 0.123,-0.298 0.123,-0.246C0.123,-0.194 0.134,-0.15 0.156,-0.114C0.178,-0.078 0.213,-0.06 0.26,-0.06C0.297,-0.06 0.326,-0.071 0.347,-0.094C0.368,-0.116 0.383,-0.146 0.391,-0.185L0.477,-0.185C0.467,-0.116 0.442,-0.065 0.403,-0.033C0.364,-0.001 0.314,0.015 0.253,0.015C0.185,0.015 0.131,-0.01 0.09,-0.06C0.049,-0.11 0.029,-0.172 0.029,-0.247C0.029,-0.339 0.051,-0.41 0.096,-0.461C0.14,-0.513 0.197,-0.538 0.266,-0.538Z" style="fill-rule:nonzero;"/>
            </g>
            <g transform="matrix(24,0,0,24,243.12,78.8299)">
                <path d="M0.064,-0.521L0.154,-0.521L0.154,-0L0.064,-0L0.064,-0.521ZM0.064,-0.717L0.154,-0.717L0.154,-0.618L0.064,-0.618L0.064,-0.717Z" style="fill-rule:nonzero;"/>
            </g>
            <g transform="matrix(24,0,0,24,248.452,78.8299)">
                <path d="M0.282,-0.535C0.319,-0.535 0.355,-0.526 0.39,-0.509C0.425,-0.491 0.451,-0.469 0.47,-0.441C0.487,-0.415 0.499,-0.384 0.505,-0.349C0.51,-0.325 0.513,-0.286 0.513,-0.233L0.129,-0.233C0.131,-0.18 0.144,-0.138 0.167,-0.106C0.19,-0.074 0.227,-0.058 0.276,-0.058C0.322,-0.058 0.358,-0.073 0.386,-0.103C0.401,-0.121 0.412,-0.141 0.419,-0.164L0.505,-0.164C0.503,-0.145 0.496,-0.123 0.483,-0.1C0.47,-0.076 0.455,-0.057 0.439,-0.042C0.413,-0.016 0.38,0.002 0.34,0.011C0.319,0.016 0.295,0.019 0.269,0.019C0.203,0.019 0.148,-0.005 0.103,-0.052C0.058,-0.1 0.035,-0.166 0.035,-0.251C0.035,-0.335 0.058,-0.404 0.104,-0.456C0.149,-0.508 0.209,-0.535 0.282,-0.535ZM0.422,-0.303C0.419,-0.341 0.41,-0.372 0.397,-0.395C0.373,-0.437 0.333,-0.458 0.277,-0.458C0.236,-0.458 0.203,-0.443 0.175,-0.414C0.148,-0.385 0.133,-0.348 0.132,-0.303L0.422,-0.303Z" style="fill-rule:nonzero;"/>
            </g>
            <g transform="matrix(24,0,0,24,261.8,78.8299)">
                <path d="M0.117,-0.164C0.119,-0.135 0.127,-0.112 0.139,-0.097C0.161,-0.068 0.199,-0.054 0.254,-0.054C0.286,-0.054 0.315,-0.061 0.34,-0.075C0.365,-0.09 0.377,-0.111 0.377,-0.141C0.377,-0.164 0.367,-0.181 0.347,-0.192C0.334,-0.2 0.309,-0.208 0.272,-0.217L0.202,-0.235C0.158,-0.246 0.125,-0.258 0.104,-0.272C0.066,-0.296 0.047,-0.329 0.047,-0.371C0.047,-0.42 0.065,-0.46 0.1,-0.491C0.136,-0.521 0.184,-0.537 0.244,-0.537C0.323,-0.537 0.38,-0.514 0.415,-0.467C0.436,-0.438 0.447,-0.406 0.446,-0.373L0.363,-0.373C0.362,-0.392 0.355,-0.41 0.342,-0.427C0.322,-0.45 0.287,-0.461 0.237,-0.461C0.204,-0.461 0.179,-0.455 0.162,-0.442C0.145,-0.43 0.136,-0.413 0.136,-0.392C0.136,-0.369 0.147,-0.351 0.17,-0.337C0.183,-0.329 0.202,-0.322 0.228,-0.316L0.286,-0.302C0.349,-0.286 0.391,-0.272 0.413,-0.257C0.447,-0.235 0.464,-0.2 0.464,-0.151C0.464,-0.105 0.446,-0.065 0.411,-0.031C0.376,0.003 0.322,0.02 0.25,0.02C0.172,0.02 0.117,0.002 0.084,-0.033C0.052,-0.068 0.035,-0.112 0.032,-0.164L0.117,-0.164Z" style="fill-rule:nonzero;"/>
            </g>
        </g>
    </g>
    <g id="Services" transform="matrix(1,0,0,1,220,1.42109e-14)">
        <g transform="matrix(1.17315,0,0,1.05894,55.0489,19.3026)">
            <path d="M183.226,-18.228L89.461,-18.228L-46.924,142.31L46.841,142.31L183.226,-18.228Z" style="fill:rgb(175,220,205);"/>
        </g>
        <g transform="matrix(0.687063,-0.726598,0.726598,0.687063,-33.0679,158.616)">
            <g transform="matrix(24,0,0,24,120.355,78.8299)">
                <path d="M0.14,-0.231C0.142,-0.191 0.152,-0.158 0.168,-0.132C0.201,-0.085 0.257,-0.061 0.339,-0.061C0.375,-0.061 0.409,-0.066 0.438,-0.077C0.496,-0.097 0.525,-0.133 0.525,-0.185C0.525,-0.224 0.513,-0.252 0.489,-0.269C0.464,-0.285 0.425,-0.299 0.373,-0.311L0.275,-0.333C0.212,-0.347 0.167,-0.363 0.141,-0.38C0.095,-0.41 0.072,-0.455 0.072,-0.515C0.072,-0.579 0.095,-0.632 0.139,-0.673C0.184,-0.715 0.247,-0.735 0.329,-0.735C0.404,-0.735 0.468,-0.717 0.52,-0.681C0.573,-0.645 0.599,-0.587 0.599,-0.507L0.508,-0.507C0.503,-0.545 0.493,-0.575 0.477,-0.595C0.447,-0.633 0.397,-0.651 0.326,-0.651C0.268,-0.651 0.227,-0.639 0.202,-0.615C0.177,-0.591 0.165,-0.563 0.165,-0.531C0.165,-0.496 0.179,-0.47 0.208,-0.454C0.228,-0.444 0.271,-0.431 0.339,-0.415L0.439,-0.392C0.488,-0.381 0.525,-0.366 0.552,-0.347C0.597,-0.313 0.62,-0.264 0.62,-0.201C0.62,-0.121 0.591,-0.064 0.533,-0.03C0.476,0.004 0.409,0.021 0.332,0.021C0.243,0.021 0.173,-0.002 0.123,-0.047C0.072,-0.093 0.047,-0.154 0.048,-0.231L0.14,-0.231Z" style="fill-rule:nonzero;"/>
            </g>
            <g transform="matrix(24,0,0,24,136.363,78.8299)">
                <path d="M0.282,-0.535C0.319,-0.535 0.355,-0.526 0.39,-0.509C0.425,-0.491 0.451,-0.469 0.47,-0.441C0.487,-0.415 0.499,-0.384 0.505,-0.349C0.51,-0.325 0.513,-0.286 0.513,-0.233L0.129,-0.233C0.131,-0.18 0.144,-0.138 0.167,-0.106C0.19,-0.074 0.227,-0.058 0.276,-0.058C0.322,-0.058 0.358,-0.073 0.386,-0.103C0.401,-0.121 0.412,-0.141 0.419,-0.164L0.505,-0.164C0.503,-0.145 0.496,-0.123 0.483,-0.1C0.47,-0.076 0.455,-0.057 0.439,-0.042C0.413,-0.016 0.38,0.002 0.34,0.011C0.319,0.016 0.295,0.019 0.269,0.019C0.203,0.019 0.148,-0.005 0.103,-0.052C0.058,-0.1 0.035,-0.166 0.035,-0.251C0.035,-0.335 0.058,-0.404 0.104,-0.456C0.149,-0.508 0.209,-0.535 0.282,-0.535ZM0.422,-0.303C0.419,-0.341 0.41,-0.372 0.397,-0.395C0.373,-0.437 0.333,-0.458 0.277,-0.458C0.236,-0.458 0.203,-0.443 0.175,-0.414C0.148,-0.385 0.133,-0.348 0.132,-0.303L0.422,-0.303Z" style="fill-rule:nonzero;"/>
            </g>
            <g transform="matrix(24,0,0,24,149.71,78.8299)">
                <path d="M0.067,-0.523L0.15,-0.523L0.15,-0.433C0.157,-0.45 0.174,-0.472 0.201,-0.497C0.227,-0.522 0.258,-0.535 0.293,-0.535C0.295,-0.535 0.297,-0.535 0.301,-0.534C0.305,-0.534 0.312,-0.533 0.321,-0.532L0.321,-0.439C0.316,-0.44 0.311,-0.441 0.307,-0.441C0.302,-0.442 0.298,-0.442 0.292,-0.442C0.248,-0.442 0.214,-0.428 0.19,-0.399C0.167,-0.371 0.155,-0.338 0.155,-0.301L0.155,-0L0.067,-0L0.067,-0.523Z" style="fill-rule:nonzero;"/>
            </g>
            <g transform="matrix(24,0,0,24,157.702,78.8299)">
                <path d="M0.107,-0.523L0.247,-0.097L0.393,-0.523L0.489,-0.523L0.292,-0L0.198,-0L0.005,-0.523L0.107,-0.523Z" style="fill-rule:nonzero;"/>
            </g>
            <g transform="matrix(24,0,0,24,169.702,78.8299)">
                <path d="M0.064,-0.521L0.154,-0.521L0.154,-0L0.064,-0L0.064,-0.521ZM0.064,-0.717L0.154,-0.717L0.154,-0.618L0.064,-0.618L0.064,-0.717Z" style="fill-rule:nonzero;"/>
            </g>
            <g transform="matrix(24,0,0,24,175.034,78.8299)">
                <path d="M0.266,-0.538C0.325,-0.538 0.373,-0.524 0.41,-0.495C0.447,-0.466 0.469,-0.417 0.477,-0.347L0.391,-0.347C0.386,-0.379 0.374,-0.406 0.355,-0.427C0.337,-0.449 0.307,-0.459 0.266,-0.459C0.21,-0.459 0.17,-0.432 0.146,-0.377C0.13,-0.342 0.123,-0.298 0.123,-0.246C0.123,-0.194 0.134,-0.15 0.156,-0.114C0.178,-0.078 0.213,-0.06 0.26,-0.06C0.297,-0.06 0.326,-0.071 0.347,-0.094C0.368,-0.116 0.383,-0.146 0.391,-0.185L0.477,-0.185C0.467,-0.116 0.442,-0.065 0.403,-0.033C0.364,-0.001 0.314,0.015 0.253,0.015C0.185,0.015 0.131,-0.01 0.09,-0.06C0.049,-0.11 0.029,-0.172 0.029,-0.247C0.029,-0.339 0.051,-0.41 0.096,-0.461C0.14,-0.513 0.197,-0.538 0.266,-0.538Z" style="fill-rule:nonzero;"/>
            </g>
            <g transform="matrix(24,0,0,24,187.034,78.8299)">
                <path d="M0.282,-0.535C0.319,-0.535 0.355,-0.526 0.39,-0.509C0.425,-0.491 0.451,-0.469 0.47,-0.441C0.487,-0.415 0.499,-0.384 0.505,-0.349C0.51,-0.325 0.513,-0.286 0.513,-0.233L0.129,-0.233C0.131,-0.18 0.144,-0.138 0.167,-0.106C0.19,-0.074 0.227,-0.058 0.276,-0.058C0.322,-0.058 0.358,-0.073 0.386,-0.103C0.401,-0.121 0.412,-0.141 0.419,-0.164L0.505,-0.164C0.503,-0.145 0.496,-0.123 0.483,-0.1C0.47,-0.076 0.455,-0.057 0.439,-0.042C0.413,-0.016 0.38,0.002 0.34,0.011C0.319,0.016 0.295,0.019 0.269,0.019C0.203,0.019 0.148,-0.005 0.103,-0.052C0.058,-0.1 0.035,-0.166 0.035,-0.251C0.035,-0.335 0.058,-0.404 0.104,-0.456C0.149,-0.508 0.209,-0.535 0.282,-0.535ZM0.422,-0.303C0.419,-0.341 0.41,-0.372 0.397,-0.395C0.373,-0.437 0.333,-0.458 0.277,-0.458C0.236,-0.458 0.203,-0.443 0.175,-0.414C0.148,-0.385 0.133,-0.348 0.132,-0.303L0.422,-0.303Z" style="fill-rule:nonzero;"/>
            </g>
            <g transform="matrix(24,0,0,24,200.382,78.8299)">
                <path d="M0.117,-0.164C0.119,-0.135 0.127,-0.112 0.139,-0.097C0.161,-0.068 0.199,-0.054 0.254,-0.054C0.286,-0.054 0.315,-0.061 0.34,-0.075C0.365,-0.09 0.377,-0.111 0.377,-0.141C0.377,-0.164 0.367,-0.181 0.347,-0.192C0.334,-0.2 0.309,-0.208 0.272,-0.217L0.202,-0.235C0.158,-0.246 0.125,-0.258 0.104,-0.272C0.066,-0.296 0.047,-0.329 0.047,-0.371C0.047,-0.42 0.065,-0.46 0.1,-0.491C0.136,-0.521 0.184,-0.537 0.244,-0.537C0.323,-0.537 0.38,-0.514 0.415,-0.467C0.436,-0.438 0.447,-0.406 0.446,-0.373L0.363,-0.373C0.362,-0.392 0.355,-0.41 0.342,-0.427C0.322,-0.45 0.287,-0.461 0.237,-0.461C0.204,-0.461 0.179,-0.455 0.162,-0.442C0.145,-0.43 0.136,-0.413 0.136,-0.392C0.136,-0.369 0.147,-0.351 0.17,-0.337C0.183,-0.329 0.202,-0.322 0.228,-0.316L0.286,-0.302C0.349,-0.286 0.391,-0.272 0.413,-0.257C0.447,-0.235 0.464,-0.2 0.464,-0.151C0.464,-0.105 0.446,-0.065 0.411,-0.031C0.376,0.003 0.322,0.02 0.25,0.02C0.172,0.02 0.117,0.002 0.084,-0.033C0.052,-0.068 0.035,-0.112 0.032,-0.164L0.117,-0.164Z" style="fill-rule:nonzero;"/>
            </g>
        </g>
    </g>
    <g id="Components" transform="matrix(1,0,0,1,110,1.42109e-14)">
        <g transform="matrix(1.17315,0,0,1.05894,55.0489,19.3026)">
            <path d="M183.226,-18.228L89.461,-18.228L-46.924,142.31L46.841,142.31L183.226,-18.228Z" style="fill:rgb(188,213,244);"/>
        </g>
        <g transform="matrix(0.687063,-0.726598,0.726598,0.687063,-53.8896,180.998)">
            <g transform="matrix(24,0,0,24,120.355,78.8299)">
                <path d="M0.378,-0.737C0.469,-0.737 0.54,-0.713 0.59,-0.665C0.64,-0.617 0.668,-0.563 0.673,-0.502L0.579,-0.502C0.568,-0.548 0.546,-0.585 0.514,-0.612C0.482,-0.639 0.437,-0.652 0.379,-0.652C0.309,-0.652 0.252,-0.628 0.208,-0.578C0.165,-0.528 0.143,-0.452 0.143,-0.35C0.143,-0.266 0.163,-0.198 0.202,-0.145C0.241,-0.093 0.3,-0.067 0.377,-0.067C0.449,-0.067 0.504,-0.094 0.541,-0.149C0.561,-0.178 0.576,-0.216 0.585,-0.264L0.68,-0.264C0.672,-0.188 0.644,-0.125 0.596,-0.074C0.539,-0.012 0.462,0.019 0.366,0.019C0.282,0.019 0.212,-0.007 0.156,-0.057C0.081,-0.124 0.044,-0.227 0.044,-0.366C0.044,-0.472 0.072,-0.559 0.128,-0.626C0.188,-0.7 0.272,-0.737 0.378,-0.737Z" style="fill-rule:nonzero;"/>
            </g>
            <g transform="matrix(24,0,0,24,137.687,78.8299)">
                <path d="M0.272,-0.057C0.33,-0.057 0.37,-0.079 0.392,-0.123C0.413,-0.167 0.424,-0.216 0.424,-0.27C0.424,-0.319 0.417,-0.359 0.401,-0.389C0.376,-0.437 0.333,-0.461 0.273,-0.461C0.219,-0.461 0.18,-0.441 0.156,-0.4C0.131,-0.359 0.119,-0.309 0.119,-0.251C0.119,-0.196 0.131,-0.149 0.156,-0.112C0.18,-0.075 0.219,-0.057 0.272,-0.057ZM0.275,-0.538C0.343,-0.538 0.4,-0.516 0.446,-0.471C0.493,-0.426 0.516,-0.36 0.516,-0.272C0.516,-0.188 0.496,-0.118 0.455,-0.063C0.414,-0.008 0.35,0.019 0.264,0.019C0.192,0.019 0.135,-0.005 0.092,-0.054C0.05,-0.103 0.029,-0.168 0.029,-0.25C0.029,-0.338 0.051,-0.408 0.096,-0.46C0.14,-0.512 0.2,-0.538 0.275,-0.538Z" style="fill-rule:nonzero;"/>
            </g>
            <g transform="matrix(24,0,0,24,151.034,78.8299)">
                <path d="M0.064,-0.523L0.151,-0.523L0.151,-0.449C0.172,-0.474 0.191,-0.493 0.208,-0.505C0.237,-0.525 0.27,-0.535 0.307,-0.535C0.348,-0.535 0.382,-0.524 0.407,-0.504C0.422,-0.492 0.435,-0.475 0.446,-0.452C0.466,-0.48 0.489,-0.501 0.515,-0.514C0.542,-0.528 0.571,-0.535 0.604,-0.535C0.674,-0.535 0.722,-0.509 0.748,-0.458C0.761,-0.431 0.768,-0.394 0.768,-0.348L0.768,-0L0.677,-0L0.677,-0.363C0.677,-0.398 0.668,-0.422 0.651,-0.435C0.633,-0.448 0.612,-0.455 0.587,-0.455C0.552,-0.455 0.523,-0.443 0.498,-0.42C0.473,-0.397 0.46,-0.358 0.46,-0.304L0.46,-0L0.371,-0L0.371,-0.341C0.371,-0.377 0.367,-0.403 0.358,-0.419C0.345,-0.443 0.32,-0.456 0.284,-0.456C0.25,-0.456 0.22,-0.443 0.193,-0.417C0.166,-0.391 0.152,-0.345 0.152,-0.277L0.152,-0L0.064,-0L0.064,-0.523Z" style="fill-rule:nonzero;"/>
            </g>
            <g transform="matrix(24,0,0,24,171.027,78.8299)">
                <path d="M0.285,-0.059C0.326,-0.059 0.36,-0.076 0.387,-0.111C0.415,-0.145 0.428,-0.196 0.428,-0.265C0.428,-0.306 0.422,-0.342 0.41,-0.372C0.387,-0.43 0.346,-0.458 0.285,-0.458C0.224,-0.458 0.183,-0.428 0.16,-0.367C0.148,-0.335 0.142,-0.293 0.142,-0.243C0.142,-0.203 0.148,-0.168 0.16,-0.14C0.183,-0.086 0.225,-0.059 0.285,-0.059ZM0.058,-0.521L0.143,-0.521L0.143,-0.451C0.161,-0.475 0.18,-0.493 0.201,-0.506C0.23,-0.526 0.265,-0.536 0.305,-0.536C0.364,-0.536 0.415,-0.513 0.456,-0.468C0.497,-0.422 0.518,-0.357 0.518,-0.273C0.518,-0.159 0.488,-0.078 0.429,-0.029C0.391,0.002 0.347,0.018 0.297,0.018C0.257,0.018 0.224,0.009 0.198,-0.008C0.182,-0.018 0.165,-0.035 0.146,-0.059L0.146,0.208L0.058,0.208L0.058,-0.521Z" style="fill-rule:nonzero;"/>
            </g>
            <g transform="matrix(24,0,0,24,184.374,78.8299)">
                <path d="M0.272,-0.057C0.33,-0.057 0.37,-0.079 0.392,-0.123C0.413,-0.167 0.424,-0.216 0.424,-0.27C0.424,-0.319 0.417,-0.359 0.401,-0.389C0.376,-0.437 0.333,-0.461 0.273,-0.461C0.219,-0.461 0.18,-0.441 0.156,-0.4C0.131,-0.359 0.119,-0.309 0.119,-0.251C0.119,-0.196 0.131,-0.149 0.156,-0.112C0.18,-0.075 0.219,-0.057 0.272,-0.057ZM0.275,-0.538C0.343,-0.538 0.4,-0.516 0.446,-0.471C0.493,-0.426 0.516,-0.36 0.516,-0.272C0.516,-0.188 0.496,-0.118 0.455,-0.063C0.414,-0.008 0.35,0.019 0.264,0.019C0.192,0.019 0.135,-0.005 0.092,-0.054C0.05,-0.103 0.029,-0.168 0.029,-0.25C0.029,-0.338 0.051,-0.408 0.096,-0.46C0.14,-0.512 0.2,-0.538 0.275,-0.538Z" style="fill-rule:nonzero;"/>
            </g>
            <g transform="matrix(24,0,0,24,197.722,78.8299)">
                <path d="M0.064,-0.523L0.148,-0.523L0.148,-0.449C0.173,-0.479 0.199,-0.501 0.227,-0.515C0.254,-0.528 0.285,-0.535 0.319,-0.535C0.393,-0.535 0.443,-0.509 0.469,-0.457C0.484,-0.429 0.491,-0.388 0.491,-0.335L0.491,-0L0.401,-0L0.401,-0.33C0.401,-0.361 0.397,-0.387 0.387,-0.407C0.372,-0.439 0.343,-0.456 0.302,-0.456C0.281,-0.456 0.264,-0.453 0.251,-0.449C0.227,-0.442 0.206,-0.428 0.188,-0.406C0.173,-0.389 0.163,-0.371 0.159,-0.353C0.155,-0.334 0.152,-0.308 0.152,-0.274L0.152,-0L0.064,-0L0.064,-0.523Z" style="fill-rule:nonzero;"/>
            </g>
            <g transform="matrix(24,0,0,24,211.07,78.8299)">
                <path d="M0.282,-0.535C0.319,-0.535 0.355,-0.526 0.39,-0.509C0.425,-0.491 0.451,-0.469 0.47,-0.441C0.487,-0.415 0.499,-0.384 0.505,-0.349C0.51,-0.325 0.513,-0.286 0.513,-0.233L0.129,-0.233C0.131,-0.18 0.144,-0.138 0.167,-0.106C0.19,-0.074 0.227,-0.058 0.276,-0.058C0.322,-0.058 0.358,-0.073 0.386,-0.103C0.401,-0.121 0.412,-0.141 0.419,-0.164L0.505,-0.164C0.503,-0.145 0.496,-0.123 0.483,-0.1C0.47,-0.076 0.455,-0.057 0.439,-0.042C0.413,-0.016 0.38,0.002 0.34,0.011C0.319,0.016 0.295,0.019 0.269,0.019C0.203,0.019 0.148,-0.005 0.103,-0.052C0.058,-0.1 0.035,-0.166 0.035,-0.251C0.035,-0.335 0.058,-0.404 0.104,-0.456C0.149,-0.508 0.209,-0.535 0.282,-0.535ZM0.422,-0.303C0.419,-0.341 0.41,-0.372 0.397,-0.395C0.373,-0.437 0.333,-0.458 0.277,-0.458C0.236,-0.458 0.203,-0.443 0.175,-0.414C0.148,-0.385 0.133,-0.348 0.132,-0.303L0.422,-0.303Z" style="fill-rule:nonzero;"/>
            </g>
            <g transform="matrix(24,0,0,24,224.417,78.8299)">
                <path d="M0.064,-0.523L0.148,-0.523L0.148,-0.449C0.173,-0.479 0.199,-0.501 0.227,-0.515C0.254,-0.528 0.285,-0.535 0.319,-0.535C0.393,-0.535 0.443,-0.509 0.469,-0.457C0.484,-0.429 0.491,-0.388 0.491,-0.335L0.491,-0L0.401,-0L0.401,-0.33C0.401,-0.361 0.397,-0.387 0.387,-0.407C0.372,-0.439 0.343,-0.456 0.302,-0.456C0.281,-0.456 0.264,-0.453 0.251,-0.449C0.227,-0.442 0.206,-0.428 0.188,-0.406C0.173,-0.389 0.163,-0.371 0.159,-0.353C0.155,-0.334 0.152,-0.308 0.152,-0.274L0.152,-0L0.064,-0L0.064,-0.523Z" style="fill-rule:nonzero;"/>
            </g>
            <g transform="matrix(24,0,0,24,237.765,78.8299)">
                <path d="M0.082,-0.669L0.171,-0.669L0.171,-0.523L0.254,-0.523L0.254,-0.451L0.171,-0.451L0.171,-0.11C0.171,-0.092 0.177,-0.079 0.189,-0.073C0.196,-0.07 0.208,-0.068 0.224,-0.068C0.228,-0.068 0.232,-0.068 0.237,-0.068C0.242,-0.068 0.248,-0.069 0.254,-0.069L0.254,-0C0.244,0.003 0.234,0.005 0.223,0.006C0.212,0.008 0.2,0.008 0.188,0.008C0.146,0.008 0.119,-0.002 0.104,-0.023C0.089,-0.044 0.082,-0.071 0.082,-0.105L0.082,-0.451L0.011,-0.451L0.011,-0.523L0.082,-0.523L0.082,-0.669Z" style="fill-rule:nonzero;"/>
            </g>
            <g transform="matrix(24,0,0,24,244.433,78.8299)">
                <path d="M0.117,-0.164C0.119,-0.135 0.127,-0.112 0.139,-0.097C0.161,-0.068 0.199,-0.054 0.254,-0.054C0.286,-0.054 0.315,-0.061 0.34,-0.075C0.365,-0.09 0.377,-0.111 0.377,-0.141C0.377,-0.164 0.367,-0.181 0.347,-0.192C0.334,-0.2 0.309,-0.208 0.272,-0.217L0.202,-0.235C0.158,-0.246 0.125,-0.258 0.104,-0.272C0.066,-0.296 0.047,-0.329 0.047,-0.371C0.047,-0.42 0.065,-0.46 0.1,-0.491C0.136,-0.521 0.184,-0.537 0.244,-0.537C0.323,-0.537 0.38,-0.514 0.415,-0.467C0.436,-0.438 0.447,-0.406 0.446,-0.373L0.363,-0.373C0.362,-0.392 0.355,-0.41 0.342,-0.427C0.322,-0.45 0.287,-0.461 0.237,-0.461C0.204,-0.461 0.179,-0.455 0.162,-0.442C0.145,-0.43 0.136,-0.413 0.136,-0.392C0.136,-0.369 0.147,-0.351 0.17,-0.337C0.183,-0.329 0.202,-0.322 0.228,-0.316L0.286,-0.302C0.349,-0.286 0.391,-0.272 0.413,-0.257C0.447,-0.235 0.464,-0.2 0.464,-0.151C0.464,-0.105 0.446,-0.065 0.411,-0.031C0.376,0.003 0.322,0.02 0.25,0.02C0.172,0.02 0.117,0.002 0.084,-0.033C0.052,-0.068 0.035,-0.112 0.032,-0.164L0.117,-0.164Z" style="fill-rule:nonzero;"/>
            </g>
        </g>
    </g>
    <g id="Metadata">
        <g transform="matrix(1.17315,0,0,1.05894,55.0489,19.3026)">
            <path d="M183.226,-18.228L89.461,-18.228L-46.924,142.31L46.841,142.31L183.226,-18.228Z" style="fill:rgb(207,183,224);"/>
        </g>
        <g transform="matrix(0.687063,-0.726598,0.726598,0.687063,-38.7619,163.949)">
            <g transform="matrix(24,0,0,24,120.355,78.8299)">
                <path d="M0.074,-0.717L0.213,-0.717L0.419,-0.111L0.624,-0.717L0.761,-0.717L0.761,-0L0.669,-0L0.669,-0.423C0.669,-0.438 0.669,-0.462 0.67,-0.496C0.671,-0.53 0.671,-0.566 0.671,-0.605L0.466,-0L0.37,-0L0.164,-0.605L0.164,-0.583C0.164,-0.565 0.164,-0.539 0.165,-0.503C0.166,-0.467 0.167,-0.44 0.167,-0.423L0.167,-0L0.074,-0L0.074,-0.717Z" style="fill-rule:nonzero;"/>
            </g>
            <g transform="matrix(24,0,0,24,140.347,78.8299)">
                <path d="M0.282,-0.535C0.319,-0.535 0.355,-0.526 0.39,-0.509C0.425,-0.491 0.451,-0.469 0.47,-0.441C0.487,-0.415 0.499,-0.384 0.505,-0.349C0.51,-0.325 0.513,-0.286 0.513,-0.233L0.129,-0.233C0.131,-0.18 0.144,-0.138 0.167,-0.106C0.19,-0.074 0.227,-0.058 0.276,-0.058C0.322,-0.058 0.358,-0.073 0.386,-0.103C0.401,-0.121 0.412,-0.141 0.419,-0.164L0.505,-0.164C0.503,-0.145 0.496,-0.123 0.483,-0.1C0.47,-0.076 0.455,-0.057 0.439,-0.042C0.413,-0.016 0.38,0.002 0.34,0.011C0.319,0.016 0.295,0.019 0.269,0.019C0.203,0.019 0.148,-0.005 0.103,-0.052C0.058,-0.1 0.035,-0.166 0.035,-0.251C0.035,-0.335 0.058,-0.404 0.104,-0.456C0.149,-0.508 0.209,-0.535 0.282,-0.535ZM0.422,-0.303C0.419,-0.341 0.41,-0.372 0.397,-0.395C0.373,-0.437 0.333,-0.458 0.277,-0.458C0.236,-0.458 0.203,-0.443 0.175,-0.414C0.148,-0.385 0.133,-0.348 0.132,-0.303L0.422,-0.303Z" style="fill-rule:nonzero;"/>
            </g>
            <g transform="matrix(24,0,0,24,153.695,78.8299)">
                <path d="M0.082,-0.669L0.171,-0.669L0.171,-0.523L0.254,-0.523L0.254,-0.451L0.171,-0.451L0.171,-0.11C0.171,-0.092 0.177,-0.079 0.189,-0.073C0.196,-0.07 0.208,-0.068 0.224,-0.068C0.228,-0.068 0.232,-0.068 0.237,-0.068C0.242,-0.068 0.248,-0.069 0.254,-0.069L0.254,-0C0.244,0.003 0.234,0.005 0.223,0.006C0.212,0.008 0.2,0.008 0.188,0.008C0.146,0.008 0.119,-0.002 0.104,-0.023C0.089,-0.044 0.082,-0.071 0.082,-0.105L0.082,-0.451L0.011,-0.451L0.011,-0.523L0.082,-0.523L0.082,-0.669Z" style="fill-rule:nonzero;"/>
            </g>
            <g transform="matrix(24,0,0,24,160.363,78.8299)">
                <path d="M0.132,-0.139C0.132,-0.114 0.141,-0.094 0.16,-0.079C0.178,-0.064 0.2,-0.057 0.226,-0.057C0.257,-0.057 0.286,-0.064 0.315,-0.079C0.364,-0.102 0.389,-0.141 0.389,-0.195L0.389,-0.266C0.378,-0.259 0.364,-0.254 0.347,-0.249C0.33,-0.244 0.314,-0.241 0.297,-0.239L0.244,-0.232C0.212,-0.228 0.188,-0.222 0.172,-0.212C0.145,-0.197 0.132,-0.173 0.132,-0.139ZM0.345,-0.317C0.365,-0.319 0.378,-0.328 0.385,-0.342C0.389,-0.35 0.391,-0.361 0.391,-0.376C0.391,-0.406 0.38,-0.428 0.359,-0.441C0.338,-0.455 0.307,-0.461 0.268,-0.461C0.222,-0.461 0.189,-0.449 0.17,-0.424C0.159,-0.411 0.152,-0.39 0.149,-0.363L0.067,-0.363C0.069,-0.428 0.089,-0.473 0.13,-0.498C0.17,-0.523 0.216,-0.536 0.27,-0.536C0.331,-0.536 0.381,-0.524 0.419,-0.5C0.458,-0.477 0.477,-0.441 0.477,-0.391L0.477,-0.09C0.477,-0.081 0.478,-0.073 0.482,-0.068C0.486,-0.062 0.494,-0.06 0.506,-0.06C0.51,-0.06 0.514,-0.06 0.519,-0.06C0.524,-0.061 0.529,-0.062 0.535,-0.063L0.535,0.002C0.521,0.006 0.511,0.009 0.503,0.01C0.496,0.011 0.486,0.011 0.474,0.011C0.444,0.011 0.422,0 0.408,-0.021C0.401,-0.032 0.396,-0.049 0.393,-0.069C0.375,-0.046 0.349,-0.026 0.316,-0.008C0.282,0.009 0.245,0.018 0.205,0.018C0.157,0.018 0.117,0.003 0.086,-0.027C0.055,-0.056 0.04,-0.093 0.04,-0.137C0.04,-0.186 0.055,-0.223 0.085,-0.25C0.116,-0.277 0.155,-0.293 0.205,-0.299L0.345,-0.317Z" style="fill-rule:nonzero;"/>
            </g>
            <g transform="matrix(24,0,0,24,173.71,78.8299)">
                <path d="M0.12,-0.255C0.12,-0.199 0.132,-0.153 0.156,-0.115C0.18,-0.077 0.218,-0.058 0.27,-0.058C0.311,-0.058 0.344,-0.076 0.37,-0.111C0.397,-0.146 0.41,-0.196 0.41,-0.261C0.41,-0.327 0.396,-0.376 0.369,-0.408C0.342,-0.44 0.309,-0.456 0.269,-0.456C0.225,-0.456 0.189,-0.439 0.161,-0.405C0.134,-0.371 0.12,-0.321 0.12,-0.255ZM0.252,-0.532C0.292,-0.532 0.326,-0.524 0.353,-0.507C0.369,-0.497 0.386,-0.48 0.406,-0.456L0.406,-0.72L0.491,-0.72L0.491,-0L0.412,-0L0.412,-0.073C0.391,-0.041 0.367,-0.017 0.339,-0.003C0.311,0.011 0.279,0.019 0.243,0.019C0.184,0.019 0.134,-0.006 0.091,-0.055C0.049,-0.104 0.027,-0.169 0.027,-0.25C0.027,-0.327 0.047,-0.393 0.086,-0.448C0.125,-0.504 0.18,-0.532 0.252,-0.532Z" style="fill-rule:nonzero;"/>
            </g>
            <g transform="matrix(24,0,0,24,187.058,78.8299)">
                <path d="M0.132,-0.139C0.132,-0.114 0.141,-0.094 0.16,-0.079C0.178,-0.064 0.2,-0.057 0.226,-0.057C0.257,-0.057 0.286,-0.064 0.315,-0.079C0.364,-0.102 0.389,-0.141 0.389,-0.195L0.389,-0.266C0.378,-0.259 0.364,-0.254 0.347,-0.249C0.33,-0.244 0.314,-0.241 0.297,-0.239L0.244,-0.232C0.212,-0.228 0.188,-0.222 0.172,-0.212C0.145,-0.197 0.132,-0.173 0.132,-0.139ZM0.345,-0.317C0.365,-0.319 0.378,-0.328 0.385,-0.342C0.389,-0.35 0.391,-0.361 0.391,-0.376C0.391,-0.406 0.38,-0.428 0.359,-0.441C0.338,-0.455 0.307,-0.461 0.268,-0.461C0.222,-0.461 0.189,-0.449 0.17,-0.424C0.159,-0.411 0.152,-0.39 0.149,-0.363L0.067,-0.363C0.069,-0.428 0.089,-0.473 0.13,-0.498C0.17,-0.523 0.216,-0.536 0.27,-0.536C0.331,-0.536 0.381,-0.524 0.419,-0.5C0.458,-0.477 0.477,-0.441 0.477,-0.391L0.477,-0.09C0.477,-0.081 0.478,-0.073 0.482,-0.068C0.486,-0.062 0.494,-0.06 0.506,-0.06C0.51,-0.06 0.514,-0.06 0.519,-0.06C0.524,-0.061 0.529,-0.062 0.535,-0.063L0.535,0.002C0.521,0.006 0.511,0.009 0.503,0.01C0.496,0.011 0.486,0.011 0.474,0.011C0.444,0.011 0.422,0 0.408,-0.021C0.401,-0.032 0.396,-0.049 0.393,-0.069C0.375,-0.046 0.349,-0.026 0.316,-0.008C0.282,0.009 0.245,0.018 0.205,0.018C0.157,0.018 0.117,0.003 0.086,-0.027C0.055,-0.056 0.04,-0.093 0.04,-0.137C0.04,-0.186 0.055,-0.223 0.085,-0.25C0.116,-0.277 0.155,-0.293 0.205,-0.299L0.345,-0.317Z" style="fill-rule:nonzero;"/>
            </g>
            <g transform="matrix(24,0,0,24,200.405,78.8299)">
                <path d="M0.082,-0.669L0.171,-0.669L0.171,-0.523L0.254,-0.523L0.254,-0.451L0.171,-0.451L0.171,-0.11C0.171,-0.092 0.177,-0.079 0.189,-0.073C0.196,-0.07 0.208,-0.068 0.224,-0.068C0.228,-0.068 0.232,-0.068 0.237,-0.068C0.242,-0.068 0.248,-0.069 0.254,-0.069L0.254,-0C0.244,0.003 0.234,0.005 0.223,0.006C0.212,0.008 0.2,0.008 0.188,0.008C0.146,0.008 0.119,-0.002 0.104,-0.023C0.089,-0.044 0.082,-0.071 0.082,-0.105L0.082,-0.451L0.011,-0.451L0.011,-0.523L0.082,-0.523L0.082,-0.669Z" style="fill-rule:nonzero;"/>
            </g>
            <g transform="matrix(24,0,0,24,207.073,78.8299)">
                <path d="M0.132,-0.139C0.132,-0.114 0.141,-0.094 0.16,-0.079C0.178,-0.064 0.2,-0.057 0.226,-0.057C0.257,-0.057 0.286,-0.064 0.315,-0.079C0.364,-0.102 0.389,-0.141 0.389,-0.195L0.389,-0.266C0.378,-0.259 0.364,-0.254 0.347,-0.249C0.33,-0.244 0.314,-0.241 0.297,-0.239L0.244,-0.232C0.212,-0.228 0.188,-0.222 0.172,-0.212C0.145,-0.197 0.132,-0.173 0.132,-0.139ZM0.345,-0.317C0.365,-0.319 0.378,-0.328 0.385,-0.342C0.389,-0.35 0.391,-0.361 0.391,-0.376C0.391,-0.406 0.38,-0.428 0.359,-0.441C0.338,-0.455 0.307,-0.461 0.268,-0.461C0.222,-0.461 0.189,-0.449 0.17,-0.424C0.159,-0.411 0.152,-0.39 0.149,-0.363L0.067,-0.363C0.069,-0.428 0.089,-0.473 0.13,-0.498C0.17,-0.523 0.216,-0.536 0.27,-0.536C0.331,-0.536 0.381,-0.524 0.419,-0.5C0.458,-0.477 0.477,-0.441 0.477,-0.391L0.477,-0.09C0.477,-0.081 0.478,-0.073 0.482,-0.068C0.486,-0.062 0.494,-0.06 0.506,-0.06C0.51,-0.06 0.514,-0.06 0.519,-0.06C0.524,-0.061 0.529,-0.062 0.535,-0.063L0.535,0.002C0.521,0.006 0.511,0.009 0.503,0.01C0.496,0.011 0.486,0.011 0.474,0.011C0.444,0.011 0.422,0 0.408,-0.021C0.401,-0.032 0.396,-0.049 0.393,-0.069C0.375,-0.046 0.349,-0.026 0.316,-0.008C0.282,0.009 0.245,0.018 0.205,0.018C0.157,0.018 0.117,0.003 0.086,-0.027C0.055,-0.056 0.04,-0.093 0.04,-0.137C0.04,-0.186 0.055,-0.223 0.085,-0.25C0.116,-0.277 0.155,-0.293 0.205,-0.299L0.345,-0.317Z" style="fill-rule:nonzero;"/>
            </g>
        </g>
    </g>
    <g id="Seperators">
        <g transform="matrix(-1.02565,1.09155,1.03857,0.975872,927.62,-387.314)">
            <path d="M343.861,186.492L188.101,186.492L187.781,186.85L343.625,186.735L343.861,186.492Z" style="fill:rgb(35,35,35);"/>
        </g>
        <g transform="matrix(-1.02565,1.09155,1.03857,0.975872,1257,-387.314)">
            <path d="M343.861,186.492L188.101,186.492L187.781,186.85L343.625,186.735L343.861,186.492Z" style="fill:rgb(35,35,35);"/>
        </g>
        <g transform="matrix(-1.02565,1.09155,1.03857,0.975872,1147,-387.314)">
            <path d="M343.861,186.492L188.101,186.492L187.781,186.85L343.625,186.735L343.861,186.492Z" style="fill:rgb(35,35,35);"/>
        </g>
        <g transform="matrix(-1.02565,1.09155,1.03857,0.975872,1037.49,-387.314)">
            <path d="M343.861,186.492L188.101,186.492L187.781,186.85L343.625,186.735L343.861,186.492Z" style="fill:rgb(35,35,35);"/>
        </g>
        <g transform="matrix(-1.02565,1.09155,1.03857,0.975872,709.226,-387.314)">
            <path d="M343.861,186.492L188.101,186.492L187.781,186.85L343.625,186.735L343.861,186.492Z" style="fill:rgb(35,35,35);"/>
        </g>
        <g transform="matrix(-1.02565,1.09155,1.03857,0.975872,818.05,-387.314)">
            <path d="M343.861,186.492L188.101,186.492L187.781,186.85L343.625,186.735L343.861,186.492Z" style="fill:rgb(35,35,35);"/>
        </g>
        <g transform="matrix(-1.02565,1.09155,1.03857,0.975872,598.976,-387.314)">
            <path d="M343.861,186.492L188.101,186.492L187.781,186.85L343.625,186.735L343.861,186.492Z" style="fill:rgb(35,35,35);"/>
        </g>
        <g transform="matrix(-1.02565,1.09155,1.03857,0.975872,488.976,-387.314)">
            <path d="M343.861,186.492L188.101,186.492L187.781,186.85L343.625,186.735L343.861,186.492Z" style="fill:rgb(35,35,35);"/>
        </g>
        <g transform="matrix(-1.02565,1.09155,1.03857,0.975872,268.976,-387.314)">
            <path d="M343.861,186.492L188.101,186.492L187.781,186.85L343.625,186.735L343.861,186.492Z" style="fill:rgb(35,35,35);"/>
        </g>
        <g transform="matrix(-1.02565,1.09155,1.03857,0.975872,378.976,-387.314)">
            <path d="M343.861,186.492L188.101,186.492L187.781,186.85L343.625,186.735L343.861,186.492Z" style="fill:rgb(35,35,35);"/>
        </g>
    </g>
</svg>
