<?xml version="1.0" encoding="UTF-8" standalone="no"?>
<!DOCTYPE svg PUBLIC "-//W3C//DTD SVG 1.1//EN" "http://www.w3.org/Graphics/SVG/1.1/DTD/svg11.dtd">
<svg width="100%" height="100%" viewBox="0 0 970 80" version="1.1" xmlns="http://www.w3.org/2000/svg" xmlns:xlink="http://www.w3.org/1999/xlink" xml:space="preserve" xmlns:serif="http://www.serif.com/" style="fill-rule:evenodd;clip-rule:evenodd;stroke-linejoin:round;stroke-miterlimit:2;">
    <g id="Formulation" transform="matrix(1,0,0,1,-100,-370.234)">
        <g transform="matrix(0.8545,0,0,1.01705,69.4127,283.647)">
            <rect x="35.796" y="85.135" width="175.541" height="78.659" style="fill:rgb(181,227,236);"/>
        </g>
        <g transform="matrix(4.67127,0,0,1.01705,82.7894,283.647)">
            <rect x="35.796" y="85.135" width="175.541" height="78.659" style="fill:rgb(220,242,246);"/>
        </g>
        <g transform="matrix(1,0,0,1,4.73329,337.3)">
            <g transform="matrix(16,0,0,16,120.355,78.8299)">
                <path d="M0.188,-0.636L0.188,-0.361L0.55,-0.361L0.55,-0.297L0.188,-0.297L0.188,-0L0.114,-0L0.114,-0.7L0.594,-0.7L0.594,-0.636L0.188,-0.636Z" style="fill-rule:nonzero;"/>
            </g>
            <g transform="matrix(16,0,0,16,130.195,78.8299)">
                <path d="M0.314,0.005C0.263,0.005 0.218,-0.007 0.177,-0.03C0.136,-0.053 0.104,-0.084 0.081,-0.125C0.058,-0.166 0.046,-0.212 0.046,-0.263C0.046,-0.314 0.058,-0.36 0.081,-0.401C0.104,-0.442 0.136,-0.473 0.177,-0.496C0.218,-0.519 0.263,-0.53 0.314,-0.53C0.365,-0.53 0.41,-0.519 0.451,-0.496C0.492,-0.473 0.524,-0.442 0.547,-0.401C0.57,-0.36 0.581,-0.314 0.581,-0.263C0.581,-0.212 0.57,-0.166 0.547,-0.125C0.524,-0.084 0.492,-0.053 0.451,-0.03C0.41,-0.007 0.365,0.005 0.314,0.005ZM0.314,-0.058C0.351,-0.058 0.385,-0.067 0.415,-0.084C0.444,-0.1 0.467,-0.125 0.484,-0.156C0.501,-0.187 0.509,-0.223 0.509,-0.263C0.509,-0.303 0.501,-0.339 0.484,-0.37C0.467,-0.401 0.444,-0.426 0.415,-0.443C0.385,-0.46 0.351,-0.468 0.314,-0.468C0.277,-0.468 0.243,-0.46 0.214,-0.443C0.184,-0.426 0.161,-0.401 0.144,-0.37C0.127,-0.339 0.118,-0.303 0.118,-0.263C0.118,-0.223 0.127,-0.187 0.144,-0.156C0.161,-0.125 0.184,-0.1 0.214,-0.084C0.243,-0.067 0.277,-0.058 0.314,-0.058Z" style="fill-rule:nonzero;"/>
            </g>
            <g transform="matrix(16,0,0,16,140.227,78.8299)">
                <path d="M0.167,-0.423C0.184,-0.458 0.209,-0.485 0.242,-0.503C0.274,-0.521 0.315,-0.53 0.364,-0.53L0.364,-0.461L0.347,-0.462C0.292,-0.462 0.248,-0.445 0.217,-0.411C0.186,-0.377 0.17,-0.329 0.17,-0.268L0.17,-0L0.099,-0L0.099,-0.526L0.167,-0.526L0.167,-0.423Z" style="fill-rule:nonzero;"/>
            </g>
            <g transform="matrix(16,0,0,16,146.515,78.8299)">
                <path d="M0.755,-0.53C0.821,-0.53 0.873,-0.511 0.911,-0.473C0.948,-0.435 0.967,-0.379 0.967,-0.305L0.967,-0L0.896,-0L0.896,-0.298C0.896,-0.353 0.883,-0.394 0.857,-0.423C0.83,-0.452 0.793,-0.466 0.745,-0.466C0.69,-0.466 0.647,-0.449 0.616,-0.416C0.585,-0.382 0.569,-0.335 0.569,-0.276L0.569,-0L0.498,-0L0.498,-0.298C0.498,-0.353 0.485,-0.394 0.459,-0.423C0.432,-0.452 0.395,-0.466 0.346,-0.466C0.292,-0.466 0.249,-0.449 0.218,-0.416C0.186,-0.382 0.17,-0.335 0.17,-0.276L0.17,-0L0.099,-0L0.099,-0.526L0.167,-0.526L0.167,-0.43C0.186,-0.462 0.212,-0.487 0.245,-0.504C0.278,-0.521 0.317,-0.53 0.36,-0.53C0.404,-0.53 0.442,-0.521 0.475,-0.502C0.507,-0.483 0.531,-0.456 0.547,-0.419C0.566,-0.454 0.594,-0.481 0.631,-0.501C0.667,-0.52 0.708,-0.53 0.755,-0.53Z" style="fill-rule:nonzero;"/>
            </g>
            <g transform="matrix(16,0,0,16,163.491,78.8299)">
                <path d="M0.573,-0.526L0.573,-0L0.505,-0L0.505,-0.096C0.486,-0.064 0.461,-0.039 0.428,-0.022C0.395,-0.004 0.358,0.005 0.316,0.005C0.247,0.005 0.193,-0.014 0.154,-0.053C0.114,-0.091 0.094,-0.147 0.094,-0.221L0.094,-0.526L0.165,-0.526L0.165,-0.228C0.165,-0.173 0.179,-0.131 0.206,-0.102C0.233,-0.073 0.272,-0.059 0.323,-0.059C0.378,-0.059 0.422,-0.076 0.454,-0.11C0.486,-0.143 0.502,-0.19 0.502,-0.25L0.502,-0.526L0.573,-0.526Z" style="fill-rule:nonzero;"/>
            </g>
            <g transform="matrix(16,0,0,16,174.259,78.8299)">
                <rect x="0.099" y="-0.742" width="0.071" height="0.742" style="fill-rule:nonzero;"/>
            </g>
            <g transform="matrix(16,0,0,16,178.563,78.8299)">
                <path d="M0.283,-0.53C0.352,-0.53 0.404,-0.513 0.441,-0.479C0.478,-0.444 0.496,-0.393 0.496,-0.326L0.496,-0L0.428,-0L0.428,-0.082C0.412,-0.055 0.389,-0.033 0.358,-0.018C0.327,-0.003 0.29,0.005 0.247,0.005C0.188,0.005 0.142,-0.009 0.107,-0.037C0.072,-0.065 0.055,-0.102 0.055,-0.148C0.055,-0.193 0.071,-0.229 0.104,-0.256C0.136,-0.283 0.187,-0.297 0.258,-0.297L0.425,-0.297L0.425,-0.329C0.425,-0.374 0.412,-0.409 0.387,-0.433C0.362,-0.456 0.325,-0.468 0.276,-0.468C0.243,-0.468 0.211,-0.463 0.18,-0.452C0.149,-0.44 0.123,-0.425 0.101,-0.406L0.069,-0.459C0.096,-0.482 0.128,-0.499 0.165,-0.512C0.202,-0.524 0.242,-0.53 0.283,-0.53ZM0.258,-0.051C0.298,-0.051 0.332,-0.06 0.361,-0.079C0.39,-0.097 0.411,-0.123 0.425,-0.158L0.425,-0.244L0.26,-0.244C0.17,-0.244 0.125,-0.213 0.125,-0.15C0.125,-0.119 0.137,-0.095 0.16,-0.078C0.183,-0.06 0.216,-0.051 0.258,-0.051Z" style="fill-rule:nonzero;"/>
            </g>
            <g transform="matrix(16,0,0,16,188.003,78.8299)">
                <path d="M0.376,-0.032C0.363,-0.02 0.346,-0.011 0.327,-0.005C0.307,0.002 0.286,0.005 0.265,0.005C0.216,0.005 0.178,-0.008 0.151,-0.035C0.124,-0.062 0.111,-0.099 0.111,-0.148L0.111,-0.466L0.017,-0.466L0.017,-0.526L0.111,-0.526L0.111,-0.641L0.182,-0.641L0.182,-0.526L0.342,-0.526L0.342,-0.466L0.182,-0.466L0.182,-0.152C0.182,-0.121 0.19,-0.097 0.206,-0.081C0.221,-0.064 0.244,-0.056 0.273,-0.056C0.288,-0.056 0.302,-0.058 0.316,-0.063C0.329,-0.068 0.341,-0.074 0.351,-0.083L0.376,-0.032Z" style="fill-rule:nonzero;"/>
            </g>
            <g transform="matrix(16,0,0,16,194.499,78.8299)">
                <path d="M0.099,-0.526L0.17,-0.526L0.17,-0L0.099,-0L0.099,-0.526ZM0.135,-0.641C0.12,-0.641 0.108,-0.646 0.098,-0.656C0.088,-0.666 0.083,-0.678 0.083,-0.692C0.083,-0.705 0.088,-0.717 0.098,-0.727C0.108,-0.737 0.12,-0.742 0.135,-0.742C0.15,-0.742 0.162,-0.737 0.172,-0.728C0.182,-0.718 0.187,-0.706 0.187,-0.693C0.187,-0.678 0.182,-0.666 0.172,-0.656C0.162,-0.646 0.15,-0.641 0.135,-0.641Z" style="fill-rule:nonzero;"/>
            </g>
            <g transform="matrix(16,0,0,16,198.803,78.8299)">
                <path d="M0.314,0.005C0.263,0.005 0.218,-0.007 0.177,-0.03C0.136,-0.053 0.104,-0.084 0.081,-0.125C0.058,-0.166 0.046,-0.212 0.046,-0.263C0.046,-0.314 0.058,-0.36 0.081,-0.401C0.104,-0.442 0.136,-0.473 0.177,-0.496C0.218,-0.519 0.263,-0.53 0.314,-0.53C0.365,-0.53 0.41,-0.519 0.451,-0.496C0.492,-0.473 0.524,-0.442 0.547,-0.401C0.57,-0.36 0.581,-0.314 0.581,-0.263C0.581,-0.212 0.57,-0.166 0.547,-0.125C0.524,-0.084 0.492,-0.053 0.451,-0.03C0.41,-0.007 0.365,0.005 0.314,0.005ZM0.314,-0.058C0.351,-0.058 0.385,-0.067 0.415,-0.084C0.444,-0.1 0.467,-0.125 0.484,-0.156C0.501,-0.187 0.509,-0.223 0.509,-0.263C0.509,-0.303 0.501,-0.339 0.484,-0.37C0.467,-0.401 0.444,-0.426 0.415,-0.443C0.385,-0.46 0.351,-0.468 0.314,-0.468C0.277,-0.468 0.243,-0.46 0.214,-0.443C0.184,-0.426 0.161,-0.401 0.144,-0.37C0.127,-0.339 0.118,-0.303 0.118,-0.263C0.118,-0.223 0.127,-0.187 0.144,-0.156C0.161,-0.125 0.184,-0.1 0.214,-0.084C0.243,-0.067 0.277,-0.058 0.314,-0.058Z" style="fill-rule:nonzero;"/>
            </g>
            <g transform="matrix(16,0,0,16,208.835,78.8299)">
                <path d="M0.367,-0.53C0.433,-0.53 0.486,-0.511 0.525,-0.473C0.564,-0.434 0.583,-0.378 0.583,-0.305L0.583,-0L0.512,-0L0.512,-0.298C0.512,-0.353 0.498,-0.394 0.471,-0.423C0.444,-0.452 0.405,-0.466 0.354,-0.466C0.297,-0.466 0.253,-0.449 0.22,-0.416C0.187,-0.382 0.17,-0.335 0.17,-0.276L0.17,-0L0.099,-0L0.099,-0.526L0.167,-0.526L0.167,-0.429C0.186,-0.461 0.213,-0.486 0.248,-0.504C0.282,-0.521 0.322,-0.53 0.367,-0.53Z" style="fill-rule:nonzero;"/>
            </g>
        </g>
        <g id="Tag:-Properties" serif:id="Tag: Properties" transform="matrix(4.59945,0,0,4.59945,-98.6552,57.2374)">
            <g transform="matrix(0.000853892,-1.01803,1.08168,0.000907279,3.01566,159.061)">
                <path d="M85.094,71.106L87.553,72.307L82.635,72.307L85.094,71.106Z" style="fill:rgb(181,227,236);"/>
            </g>
            <g transform="matrix(7.90449,0,0,1.73436,-569.57,-53.359)">
                <rect x="82.342" y="71.124" width="3.906" height="2.887" style="fill:rgb(181,227,236);"/>
            </g>
            <g transform="matrix(0.217417,0,0,0.217417,21.6776,52.17)">
                <g transform="matrix(14,0,0,14,284.851,97.333)">
                    <path d="M0.25,-0.636L0.004,-0.636L0.004,-0.7L0.57,-0.7L0.57,-0.636L0.324,-0.636L0.324,-0L0.25,-0L0.25,-0.636Z" style="fill:rgb(51,51,51);fill-rule:nonzero;"/>
                </g>
                <g transform="matrix(14,0,0,14,292.747,97.333)">
                    <path d="M0.42,0.006C0.351,0.006 0.288,-0.01 0.232,-0.041C0.175,-0.072 0.131,-0.114 0.1,-0.168C0.068,-0.222 0.052,-0.283 0.052,-0.35C0.052,-0.417 0.068,-0.478 0.1,-0.532C0.131,-0.586 0.175,-0.628 0.232,-0.66C0.288,-0.691 0.351,-0.706 0.42,-0.706C0.489,-0.706 0.552,-0.691 0.608,-0.66C0.663,-0.629 0.707,-0.587 0.739,-0.533C0.771,-0.478 0.787,-0.417 0.787,-0.35C0.787,-0.283 0.771,-0.222 0.739,-0.168C0.707,-0.113 0.663,-0.071 0.608,-0.04C0.552,-0.009 0.489,0.006 0.42,0.006ZM0.42,-0.06C0.475,-0.06 0.525,-0.073 0.57,-0.098C0.615,-0.123 0.65,-0.157 0.675,-0.202C0.7,-0.246 0.713,-0.295 0.713,-0.35C0.713,-0.405 0.7,-0.454 0.675,-0.499C0.65,-0.543 0.615,-0.578 0.57,-0.603C0.525,-0.628 0.475,-0.64 0.42,-0.64C0.365,-0.64 0.315,-0.628 0.27,-0.603C0.225,-0.578 0.189,-0.543 0.164,-0.499C0.138,-0.454 0.125,-0.405 0.125,-0.35C0.125,-0.295 0.138,-0.246 0.164,-0.202C0.189,-0.157 0.225,-0.123 0.27,-0.098C0.315,-0.073 0.365,-0.06 0.42,-0.06Z" style="fill:rgb(51,51,51);fill-rule:nonzero;"/>
                </g>
                <g transform="matrix(14,0,0,14,304.493,97.333)">
                    <path d="M0.114,-0.7L0.399,-0.7C0.473,-0.7 0.538,-0.685 0.595,-0.656C0.652,-0.626 0.696,-0.584 0.727,-0.532C0.758,-0.478 0.774,-0.418 0.774,-0.35C0.774,-0.282 0.758,-0.222 0.727,-0.169C0.696,-0.116 0.652,-0.074 0.595,-0.045C0.538,-0.015 0.473,-0 0.399,-0L0.114,-0L0.114,-0.7ZM0.395,-0.064C0.456,-0.064 0.51,-0.076 0.556,-0.101C0.602,-0.125 0.638,-0.159 0.663,-0.202C0.688,-0.245 0.701,-0.294 0.701,-0.35C0.701,-0.406 0.688,-0.456 0.663,-0.499C0.638,-0.542 0.602,-0.575 0.556,-0.6C0.51,-0.624 0.456,-0.636 0.395,-0.636L0.188,-0.636L0.188,-0.064L0.395,-0.064Z" style="fill:rgb(51,51,51);fill-rule:nonzero;"/>
                </g>
                <g transform="matrix(14,0,0,14,316.057,97.333)">
                    <path d="M0.42,0.006C0.351,0.006 0.288,-0.01 0.232,-0.041C0.175,-0.072 0.131,-0.114 0.1,-0.168C0.068,-0.222 0.052,-0.283 0.052,-0.35C0.052,-0.417 0.068,-0.478 0.1,-0.532C0.131,-0.586 0.175,-0.628 0.232,-0.66C0.288,-0.691 0.351,-0.706 0.42,-0.706C0.489,-0.706 0.552,-0.691 0.608,-0.66C0.663,-0.629 0.707,-0.587 0.739,-0.533C0.771,-0.478 0.787,-0.417 0.787,-0.35C0.787,-0.283 0.771,-0.222 0.739,-0.168C0.707,-0.113 0.663,-0.071 0.608,-0.04C0.552,-0.009 0.489,0.006 0.42,0.006ZM0.42,-0.06C0.475,-0.06 0.525,-0.073 0.57,-0.098C0.615,-0.123 0.65,-0.157 0.675,-0.202C0.7,-0.246 0.713,-0.295 0.713,-0.35C0.713,-0.405 0.7,-0.454 0.675,-0.499C0.65,-0.543 0.615,-0.578 0.57,-0.603C0.525,-0.628 0.475,-0.64 0.42,-0.64C0.365,-0.64 0.315,-0.628 0.27,-0.603C0.225,-0.578 0.189,-0.543 0.164,-0.499C0.138,-0.454 0.125,-0.405 0.125,-0.35C0.125,-0.295 0.138,-0.246 0.164,-0.202C0.189,-0.157 0.225,-0.123 0.27,-0.098C0.315,-0.073 0.365,-0.06 0.42,-0.06Z" style="fill:rgb(51,51,51);fill-rule:nonzero;"/>
                </g>
            </g>
        </g>
        <g id="Tag:-Per-Organization" serif:id="Tag: Per Organization" transform="matrix(4.59945,0,0,4.59945,-98.6552,96.4598)">
            <g transform="matrix(0.000853892,-1.01803,1.08168,0.000907279,3.01566,159.061)">
                <path d="M85.094,71.106L87.553,72.307L82.635,72.307L85.094,71.106Z" style="fill:rgb(181,227,236);"/>
            </g>
            <g transform="matrix(7.90449,0,0,1.73436,-569.57,-53.359)">
                <rect x="82.342" y="71.124" width="3.906" height="2.887" style="fill:rgb(181,227,236);"/>
            </g>
            <g transform="matrix(0.217417,0,0,0.217417,21.6776,52.17)">
                <g transform="matrix(14,0,0,14,284.851,97.333)">
                    <path d="M0.25,-0.636L0.004,-0.636L0.004,-0.7L0.57,-0.7L0.57,-0.636L0.324,-0.636L0.324,-0L0.25,-0L0.25,-0.636Z" style="fill:rgb(51,51,51);fill-rule:nonzero;"/>
                </g>
                <g transform="matrix(14,0,0,14,292.747,97.333)">
                    <path d="M0.42,0.006C0.351,0.006 0.288,-0.01 0.232,-0.041C0.175,-0.072 0.131,-0.114 0.1,-0.168C0.068,-0.222 0.052,-0.283 0.052,-0.35C0.052,-0.417 0.068,-0.478 0.1,-0.532C0.131,-0.586 0.175,-0.628 0.232,-0.66C0.288,-0.691 0.351,-0.706 0.42,-0.706C0.489,-0.706 0.552,-0.691 0.608,-0.66C0.663,-0.629 0.707,-0.587 0.739,-0.533C0.771,-0.478 0.787,-0.417 0.787,-0.35C0.787,-0.283 0.771,-0.222 0.739,-0.168C0.707,-0.113 0.663,-0.071 0.608,-0.04C0.552,-0.009 0.489,0.006 0.42,0.006ZM0.42,-0.06C0.475,-0.06 0.525,-0.073 0.57,-0.098C0.615,-0.123 0.65,-0.157 0.675,-0.202C0.7,-0.246 0.713,-0.295 0.713,-0.35C0.713,-0.405 0.7,-0.454 0.675,-0.499C0.65,-0.543 0.615,-0.578 0.57,-0.603C0.525,-0.628 0.475,-0.64 0.42,-0.64C0.365,-0.64 0.315,-0.628 0.27,-0.603C0.225,-0.578 0.189,-0.543 0.164,-0.499C0.138,-0.454 0.125,-0.405 0.125,-0.35C0.125,-0.295 0.138,-0.246 0.164,-0.202C0.189,-0.157 0.225,-0.123 0.27,-0.098C0.315,-0.073 0.365,-0.06 0.42,-0.06Z" style="fill:rgb(51,51,51);fill-rule:nonzero;"/>
                </g>
                <g transform="matrix(14,0,0,14,304.493,97.333)">
                    <path d="M0.114,-0.7L0.399,-0.7C0.473,-0.7 0.538,-0.685 0.595,-0.656C0.652,-0.626 0.696,-0.584 0.727,-0.532C0.758,-0.478 0.774,-0.418 0.774,-0.35C0.774,-0.282 0.758,-0.222 0.727,-0.169C0.696,-0.116 0.652,-0.074 0.595,-0.045C0.538,-0.015 0.473,-0 0.399,-0L0.114,-0L0.114,-0.7ZM0.395,-0.064C0.456,-0.064 0.51,-0.076 0.556,-0.101C0.602,-0.125 0.638,-0.159 0.663,-0.202C0.688,-0.245 0.701,-0.294 0.701,-0.35C0.701,-0.406 0.688,-0.456 0.663,-0.499C0.638,-0.542 0.602,-0.575 0.556,-0.6C0.51,-0.624 0.456,-0.636 0.395,-0.636L0.188,-0.636L0.188,-0.064L0.395,-0.064Z" style="fill:rgb(51,51,51);fill-rule:nonzero;"/>
                </g>
                <g transform="matrix(14,0,0,14,316.057,97.333)">
                    <path d="M0.42,0.006C0.351,0.006 0.288,-0.01 0.232,-0.041C0.175,-0.072 0.131,-0.114 0.1,-0.168C0.068,-0.222 0.052,-0.283 0.052,-0.35C0.052,-0.417 0.068,-0.478 0.1,-0.532C0.131,-0.586 0.175,-0.628 0.232,-0.66C0.288,-0.691 0.351,-0.706 0.42,-0.706C0.489,-0.706 0.552,-0.691 0.608,-0.66C0.663,-0.629 0.707,-0.587 0.739,-0.533C0.771,-0.478 0.787,-0.417 0.787,-0.35C0.787,-0.283 0.771,-0.222 0.739,-0.168C0.707,-0.113 0.663,-0.071 0.608,-0.04C0.552,-0.009 0.489,0.006 0.42,0.006ZM0.42,-0.06C0.475,-0.06 0.525,-0.073 0.57,-0.098C0.615,-0.123 0.65,-0.157 0.675,-0.202C0.7,-0.246 0.713,-0.295 0.713,-0.35C0.713,-0.405 0.7,-0.454 0.675,-0.499C0.65,-0.543 0.615,-0.578 0.57,-0.603C0.525,-0.628 0.475,-0.64 0.42,-0.64C0.365,-0.64 0.315,-0.628 0.27,-0.603C0.225,-0.578 0.189,-0.543 0.164,-0.499C0.138,-0.454 0.125,-0.405 0.125,-0.35C0.125,-0.295 0.138,-0.246 0.164,-0.202C0.189,-0.157 0.225,-0.123 0.27,-0.098C0.315,-0.073 0.365,-0.06 0.42,-0.06Z" style="fill:rgb(51,51,51);fill-rule:nonzero;"/>
                </g>
            </g>
        </g>
        <g id="Tag:-Per-Industry" serif:id="Tag: Per Industry" transform="matrix(4.59945,0,0,4.59945,61.3836,96.4598)">
            <g transform="matrix(0.000853892,-1.01803,1.08168,0.000907279,3.01566,159.061)">
                <path d="M85.094,71.106L87.553,72.307L82.635,72.307L85.094,71.106Z" style="fill:rgb(181,227,236);"/>
            </g>
            <g transform="matrix(7.90449,0,0,1.73436,-569.57,-53.359)">
                <rect x="82.342" y="71.124" width="3.906" height="2.887" style="fill:rgb(181,227,236);"/>
            </g>
            <g transform="matrix(0.217417,0,0,0.217417,21.6776,52.17)">
                <g transform="matrix(14,0,0,14,284.851,97.333)">
                    <path d="M0.25,-0.636L0.004,-0.636L0.004,-0.7L0.57,-0.7L0.57,-0.636L0.324,-0.636L0.324,-0L0.25,-0L0.25,-0.636Z" style="fill:rgb(51,51,51);fill-rule:nonzero;"/>
                </g>
                <g transform="matrix(14,0,0,14,292.747,97.333)">
                    <path d="M0.42,0.006C0.351,0.006 0.288,-0.01 0.232,-0.041C0.175,-0.072 0.131,-0.114 0.1,-0.168C0.068,-0.222 0.052,-0.283 0.052,-0.35C0.052,-0.417 0.068,-0.478 0.1,-0.532C0.131,-0.586 0.175,-0.628 0.232,-0.66C0.288,-0.691 0.351,-0.706 0.42,-0.706C0.489,-0.706 0.552,-0.691 0.608,-0.66C0.663,-0.629 0.707,-0.587 0.739,-0.533C0.771,-0.478 0.787,-0.417 0.787,-0.35C0.787,-0.283 0.771,-0.222 0.739,-0.168C0.707,-0.113 0.663,-0.071 0.608,-0.04C0.552,-0.009 0.489,0.006 0.42,0.006ZM0.42,-0.06C0.475,-0.06 0.525,-0.073 0.57,-0.098C0.615,-0.123 0.65,-0.157 0.675,-0.202C0.7,-0.246 0.713,-0.295 0.713,-0.35C0.713,-0.405 0.7,-0.454 0.675,-0.499C0.65,-0.543 0.615,-0.578 0.57,-0.603C0.525,-0.628 0.475,-0.64 0.42,-0.64C0.365,-0.64 0.315,-0.628 0.27,-0.603C0.225,-0.578 0.189,-0.543 0.164,-0.499C0.138,-0.454 0.125,-0.405 0.125,-0.35C0.125,-0.295 0.138,-0.246 0.164,-0.202C0.189,-0.157 0.225,-0.123 0.27,-0.098C0.315,-0.073 0.365,-0.06 0.42,-0.06Z" style="fill:rgb(51,51,51);fill-rule:nonzero;"/>
                </g>
                <g transform="matrix(14,0,0,14,304.493,97.333)">
                    <path d="M0.114,-0.7L0.399,-0.7C0.473,-0.7 0.538,-0.685 0.595,-0.656C0.652,-0.626 0.696,-0.584 0.727,-0.532C0.758,-0.478 0.774,-0.418 0.774,-0.35C0.774,-0.282 0.758,-0.222 0.727,-0.169C0.696,-0.116 0.652,-0.074 0.595,-0.045C0.538,-0.015 0.473,-0 0.399,-0L0.114,-0L0.114,-0.7ZM0.395,-0.064C0.456,-0.064 0.51,-0.076 0.556,-0.101C0.602,-0.125 0.638,-0.159 0.663,-0.202C0.688,-0.245 0.701,-0.294 0.701,-0.35C0.701,-0.406 0.688,-0.456 0.663,-0.499C0.638,-0.542 0.602,-0.575 0.556,-0.6C0.51,-0.624 0.456,-0.636 0.395,-0.636L0.188,-0.636L0.188,-0.064L0.395,-0.064Z" style="fill:rgb(51,51,51);fill-rule:nonzero;"/>
                </g>
                <g transform="matrix(14,0,0,14,316.057,97.333)">
                    <path d="M0.42,0.006C0.351,0.006 0.288,-0.01 0.232,-0.041C0.175,-0.072 0.131,-0.114 0.1,-0.168C0.068,-0.222 0.052,-0.283 0.052,-0.35C0.052,-0.417 0.068,-0.478 0.1,-0.532C0.131,-0.586 0.175,-0.628 0.232,-0.66C0.288,-0.691 0.351,-0.706 0.42,-0.706C0.489,-0.706 0.552,-0.691 0.608,-0.66C0.663,-0.629 0.707,-0.587 0.739,-0.533C0.771,-0.478 0.787,-0.417 0.787,-0.35C0.787,-0.283 0.771,-0.222 0.739,-0.168C0.707,-0.113 0.663,-0.071 0.608,-0.04C0.552,-0.009 0.489,0.006 0.42,0.006ZM0.42,-0.06C0.475,-0.06 0.525,-0.073 0.57,-0.098C0.615,-0.123 0.65,-0.157 0.675,-0.202C0.7,-0.246 0.713,-0.295 0.713,-0.35C0.713,-0.405 0.7,-0.454 0.675,-0.499C0.65,-0.543 0.615,-0.578 0.57,-0.603C0.525,-0.628 0.475,-0.64 0.42,-0.64C0.365,-0.64 0.315,-0.628 0.27,-0.603C0.225,-0.578 0.189,-0.543 0.164,-0.499C0.138,-0.454 0.125,-0.405 0.125,-0.35C0.125,-0.295 0.138,-0.246 0.164,-0.202C0.189,-0.157 0.225,-0.123 0.27,-0.098C0.315,-0.073 0.365,-0.06 0.42,-0.06Z" style="fill:rgb(51,51,51);fill-rule:nonzero;"/>
                </g>
            </g>
        </g>
        <g id="Tag:-Team" serif:id="Tag: Team" transform="matrix(4.59945,0,0,4.59945,221.309,57.2374)">
            <g transform="matrix(0.000853892,-1.01803,1.08168,0.000907279,3.01566,159.061)">
                <path d="M85.094,71.106L87.553,72.307L82.635,72.307L85.094,71.106Z" style="fill:rgb(181,227,236);"/>
            </g>
            <g transform="matrix(7.90449,0,0,1.73436,-569.57,-53.359)">
                <rect x="82.342" y="71.124" width="3.906" height="2.887" style="fill:rgb(181,227,236);"/>
            </g>
            <g transform="matrix(0.217417,0,0,0.217417,21.6776,52.17)">
                <g transform="matrix(14,0,0,14,284.851,97.333)">
                    <path d="M0.25,-0.636L0.004,-0.636L0.004,-0.7L0.57,-0.7L0.57,-0.636L0.324,-0.636L0.324,-0L0.25,-0L0.25,-0.636Z" style="fill:rgb(51,51,51);fill-rule:nonzero;"/>
                </g>
                <g transform="matrix(14,0,0,14,292.747,97.333)">
                    <path d="M0.42,0.006C0.351,0.006 0.288,-0.01 0.232,-0.041C0.175,-0.072 0.131,-0.114 0.1,-0.168C0.068,-0.222 0.052,-0.283 0.052,-0.35C0.052,-0.417 0.068,-0.478 0.1,-0.532C0.131,-0.586 0.175,-0.628 0.232,-0.66C0.288,-0.691 0.351,-0.706 0.42,-0.706C0.489,-0.706 0.552,-0.691 0.608,-0.66C0.663,-0.629 0.707,-0.587 0.739,-0.533C0.771,-0.478 0.787,-0.417 0.787,-0.35C0.787,-0.283 0.771,-0.222 0.739,-0.168C0.707,-0.113 0.663,-0.071 0.608,-0.04C0.552,-0.009 0.489,0.006 0.42,0.006ZM0.42,-0.06C0.475,-0.06 0.525,-0.073 0.57,-0.098C0.615,-0.123 0.65,-0.157 0.675,-0.202C0.7,-0.246 0.713,-0.295 0.713,-0.35C0.713,-0.405 0.7,-0.454 0.675,-0.499C0.65,-0.543 0.615,-0.578 0.57,-0.603C0.525,-0.628 0.475,-0.64 0.42,-0.64C0.365,-0.64 0.315,-0.628 0.27,-0.603C0.225,-0.578 0.189,-0.543 0.164,-0.499C0.138,-0.454 0.125,-0.405 0.125,-0.35C0.125,-0.295 0.138,-0.246 0.164,-0.202C0.189,-0.157 0.225,-0.123 0.27,-0.098C0.315,-0.073 0.365,-0.06 0.42,-0.06Z" style="fill:rgb(51,51,51);fill-rule:nonzero;"/>
                </g>
                <g transform="matrix(14,0,0,14,304.493,97.333)">
                    <path d="M0.114,-0.7L0.399,-0.7C0.473,-0.7 0.538,-0.685 0.595,-0.656C0.652,-0.626 0.696,-0.584 0.727,-0.532C0.758,-0.478 0.774,-0.418 0.774,-0.35C0.774,-0.282 0.758,-0.222 0.727,-0.169C0.696,-0.116 0.652,-0.074 0.595,-0.045C0.538,-0.015 0.473,-0 0.399,-0L0.114,-0L0.114,-0.7ZM0.395,-0.064C0.456,-0.064 0.51,-0.076 0.556,-0.101C0.602,-0.125 0.638,-0.159 0.663,-0.202C0.688,-0.245 0.701,-0.294 0.701,-0.35C0.701,-0.406 0.688,-0.456 0.663,-0.499C0.638,-0.542 0.602,-0.575 0.556,-0.6C0.51,-0.624 0.456,-0.636 0.395,-0.636L0.188,-0.636L0.188,-0.064L0.395,-0.064Z" style="fill:rgb(51,51,51);fill-rule:nonzero;"/>
                </g>
                <g transform="matrix(14,0,0,14,316.057,97.333)">
                    <path d="M0.42,0.006C0.351,0.006 0.288,-0.01 0.232,-0.041C0.175,-0.072 0.131,-0.114 0.1,-0.168C0.068,-0.222 0.052,-0.283 0.052,-0.35C0.052,-0.417 0.068,-0.478 0.1,-0.532C0.131,-0.586 0.175,-0.628 0.232,-0.66C0.288,-0.691 0.351,-0.706 0.42,-0.706C0.489,-0.706 0.552,-0.691 0.608,-0.66C0.663,-0.629 0.707,-0.587 0.739,-0.533C0.771,-0.478 0.787,-0.417 0.787,-0.35C0.787,-0.283 0.771,-0.222 0.739,-0.168C0.707,-0.113 0.663,-0.071 0.608,-0.04C0.552,-0.009 0.489,0.006 0.42,0.006ZM0.42,-0.06C0.475,-0.06 0.525,-0.073 0.57,-0.098C0.615,-0.123 0.65,-0.157 0.675,-0.202C0.7,-0.246 0.713,-0.295 0.713,-0.35C0.713,-0.405 0.7,-0.454 0.675,-0.499C0.65,-0.543 0.615,-0.578 0.57,-0.603C0.525,-0.628 0.475,-0.64 0.42,-0.64C0.365,-0.64 0.315,-0.628 0.27,-0.603C0.225,-0.578 0.189,-0.543 0.164,-0.499C0.138,-0.454 0.125,-0.405 0.125,-0.35C0.125,-0.295 0.138,-0.246 0.164,-0.202C0.189,-0.157 0.225,-0.123 0.27,-0.098C0.315,-0.073 0.365,-0.06 0.42,-0.06Z" style="fill:rgb(51,51,51);fill-rule:nonzero;"/>
                </g>
            </g>
        </g>
        <g id="Tag:-..." serif:id="Tag: ..." transform="matrix(4.59945,0,0,4.59945,221.309,96.4598)">
            <g transform="matrix(0.000853892,-1.01803,1.08168,0.000907279,3.01566,159.061)">
                <path d="M85.094,71.106L87.553,72.307L82.635,72.307L85.094,71.106Z" style="fill:rgb(181,227,236);"/>
            </g>
            <g transform="matrix(7.90449,0,0,1.73436,-569.57,-53.359)">
                <rect x="82.342" y="71.124" width="3.906" height="2.887" style="fill:rgb(181,227,236);"/>
            </g>
            <g transform="matrix(0.217417,0,0,0.217417,21.6776,52.17)">
                <g transform="matrix(14,0,0,14,284.851,97.333)">
                    <path d="M0.25,-0.636L0.004,-0.636L0.004,-0.7L0.57,-0.7L0.57,-0.636L0.324,-0.636L0.324,-0L0.25,-0L0.25,-0.636Z" style="fill:rgb(51,51,51);fill-rule:nonzero;"/>
                </g>
                <g transform="matrix(14,0,0,14,292.747,97.333)">
                    <path d="M0.42,0.006C0.351,0.006 0.288,-0.01 0.232,-0.041C0.175,-0.072 0.131,-0.114 0.1,-0.168C0.068,-0.222 0.052,-0.283 0.052,-0.35C0.052,-0.417 0.068,-0.478 0.1,-0.532C0.131,-0.586 0.175,-0.628 0.232,-0.66C0.288,-0.691 0.351,-0.706 0.42,-0.706C0.489,-0.706 0.552,-0.691 0.608,-0.66C0.663,-0.629 0.707,-0.587 0.739,-0.533C0.771,-0.478 0.787,-0.417 0.787,-0.35C0.787,-0.283 0.771,-0.222 0.739,-0.168C0.707,-0.113 0.663,-0.071 0.608,-0.04C0.552,-0.009 0.489,0.006 0.42,0.006ZM0.42,-0.06C0.475,-0.06 0.525,-0.073 0.57,-0.098C0.615,-0.123 0.65,-0.157 0.675,-0.202C0.7,-0.246 0.713,-0.295 0.713,-0.35C0.713,-0.405 0.7,-0.454 0.675,-0.499C0.65,-0.543 0.615,-0.578 0.57,-0.603C0.525,-0.628 0.475,-0.64 0.42,-0.64C0.365,-0.64 0.315,-0.628 0.27,-0.603C0.225,-0.578 0.189,-0.543 0.164,-0.499C0.138,-0.454 0.125,-0.405 0.125,-0.35C0.125,-0.295 0.138,-0.246 0.164,-0.202C0.189,-0.157 0.225,-0.123 0.27,-0.098C0.315,-0.073 0.365,-0.06 0.42,-0.06Z" style="fill:rgb(51,51,51);fill-rule:nonzero;"/>
                </g>
                <g transform="matrix(14,0,0,14,304.493,97.333)">
                    <path d="M0.114,-0.7L0.399,-0.7C0.473,-0.7 0.538,-0.685 0.595,-0.656C0.652,-0.626 0.696,-0.584 0.727,-0.532C0.758,-0.478 0.774,-0.418 0.774,-0.35C0.774,-0.282 0.758,-0.222 0.727,-0.169C0.696,-0.116 0.652,-0.074 0.595,-0.045C0.538,-0.015 0.473,-0 0.399,-0L0.114,-0L0.114,-0.7ZM0.395,-0.064C0.456,-0.064 0.51,-0.076 0.556,-0.101C0.602,-0.125 0.638,-0.159 0.663,-0.202C0.688,-0.245 0.701,-0.294 0.701,-0.35C0.701,-0.406 0.688,-0.456 0.663,-0.499C0.638,-0.542 0.602,-0.575 0.556,-0.6C0.51,-0.624 0.456,-0.636 0.395,-0.636L0.188,-0.636L0.188,-0.064L0.395,-0.064Z" style="fill:rgb(51,51,51);fill-rule:nonzero;"/>
                </g>
                <g transform="matrix(14,0,0,14,316.057,97.333)">
                    <path d="M0.42,0.006C0.351,0.006 0.288,-0.01 0.232,-0.041C0.175,-0.072 0.131,-0.114 0.1,-0.168C0.068,-0.222 0.052,-0.283 0.052,-0.35C0.052,-0.417 0.068,-0.478 0.1,-0.532C0.131,-0.586 0.175,-0.628 0.232,-0.66C0.288,-0.691 0.351,-0.706 0.42,-0.706C0.489,-0.706 0.552,-0.691 0.608,-0.66C0.663,-0.629 0.707,-0.587 0.739,-0.533C0.771,-0.478 0.787,-0.417 0.787,-0.35C0.787,-0.283 0.771,-0.222 0.739,-0.168C0.707,-0.113 0.663,-0.071 0.608,-0.04C0.552,-0.009 0.489,0.006 0.42,0.006ZM0.42,-0.06C0.475,-0.06 0.525,-0.073 0.57,-0.098C0.615,-0.123 0.65,-0.157 0.675,-0.202C0.7,-0.246 0.713,-0.295 0.713,-0.35C0.713,-0.405 0.7,-0.454 0.675,-0.499C0.65,-0.543 0.615,-0.578 0.57,-0.603C0.525,-0.628 0.475,-0.64 0.42,-0.64C0.365,-0.64 0.315,-0.628 0.27,-0.603C0.225,-0.578 0.189,-0.543 0.164,-0.499C0.138,-0.454 0.125,-0.405 0.125,-0.35C0.125,-0.295 0.138,-0.246 0.164,-0.202C0.189,-0.157 0.225,-0.123 0.27,-0.098C0.315,-0.073 0.365,-0.06 0.42,-0.06Z" style="fill:rgb(51,51,51);fill-rule:nonzero;"/>
                </g>
            </g>
        </g>
        <g id="Tag:-Per-Organization1" serif:id="Tag: Per Organization" transform="matrix(4.59945,0,0,4.59945,61.3493,57.2374)">
            <g transform="matrix(0.000853892,-1.01803,1.08168,0.000907279,3.01566,159.061)">
                <path d="M85.094,71.106L87.553,72.307L82.635,72.307L85.094,71.106Z" style="fill:rgb(181,227,236);"/>
            </g>
            <g transform="matrix(7.90449,0,0,1.73436,-569.57,-53.359)">
                <rect x="82.342" y="71.124" width="3.906" height="2.887" style="fill:rgb(181,227,236);"/>
            </g>
            <g transform="matrix(0.217417,0,0,0.217417,21.6776,52.17)">
                <g transform="matrix(14,0,0,14,284.851,97.333)">
                    <path d="M0.25,-0.636L0.004,-0.636L0.004,-0.7L0.57,-0.7L0.57,-0.636L0.324,-0.636L0.324,-0L0.25,-0L0.25,-0.636Z" style="fill:rgb(51,51,51);fill-rule:nonzero;"/>
                </g>
                <g transform="matrix(14,0,0,14,292.747,97.333)">
                    <path d="M0.42,0.006C0.351,0.006 0.288,-0.01 0.232,-0.041C0.175,-0.072 0.131,-0.114 0.1,-0.168C0.068,-0.222 0.052,-0.283 0.052,-0.35C0.052,-0.417 0.068,-0.478 0.1,-0.532C0.131,-0.586 0.175,-0.628 0.232,-0.66C0.288,-0.691 0.351,-0.706 0.42,-0.706C0.489,-0.706 0.552,-0.691 0.608,-0.66C0.663,-0.629 0.707,-0.587 0.739,-0.533C0.771,-0.478 0.787,-0.417 0.787,-0.35C0.787,-0.283 0.771,-0.222 0.739,-0.168C0.707,-0.113 0.663,-0.071 0.608,-0.04C0.552,-0.009 0.489,0.006 0.42,0.006ZM0.42,-0.06C0.475,-0.06 0.525,-0.073 0.57,-0.098C0.615,-0.123 0.65,-0.157 0.675,-0.202C0.7,-0.246 0.713,-0.295 0.713,-0.35C0.713,-0.405 0.7,-0.454 0.675,-0.499C0.65,-0.543 0.615,-0.578 0.57,-0.603C0.525,-0.628 0.475,-0.64 0.42,-0.64C0.365,-0.64 0.315,-0.628 0.27,-0.603C0.225,-0.578 0.189,-0.543 0.164,-0.499C0.138,-0.454 0.125,-0.405 0.125,-0.35C0.125,-0.295 0.138,-0.246 0.164,-0.202C0.189,-0.157 0.225,-0.123 0.27,-0.098C0.315,-0.073 0.365,-0.06 0.42,-0.06Z" style="fill:rgb(51,51,51);fill-rule:nonzero;"/>
                </g>
                <g transform="matrix(14,0,0,14,304.493,97.333)">
                    <path d="M0.114,-0.7L0.399,-0.7C0.473,-0.7 0.538,-0.685 0.595,-0.656C0.652,-0.626 0.696,-0.584 0.727,-0.532C0.758,-0.478 0.774,-0.418 0.774,-0.35C0.774,-0.282 0.758,-0.222 0.727,-0.169C0.696,-0.116 0.652,-0.074 0.595,-0.045C0.538,-0.015 0.473,-0 0.399,-0L0.114,-0L0.114,-0.7ZM0.395,-0.064C0.456,-0.064 0.51,-0.076 0.556,-0.101C0.602,-0.125 0.638,-0.159 0.663,-0.202C0.688,-0.245 0.701,-0.294 0.701,-0.35C0.701,-0.406 0.688,-0.456 0.663,-0.499C0.638,-0.542 0.602,-0.575 0.556,-0.6C0.51,-0.624 0.456,-0.636 0.395,-0.636L0.188,-0.636L0.188,-0.064L0.395,-0.064Z" style="fill:rgb(51,51,51);fill-rule:nonzero;"/>
                </g>
                <g transform="matrix(14,0,0,14,316.057,97.333)">
                    <path d="M0.42,0.006C0.351,0.006 0.288,-0.01 0.232,-0.041C0.175,-0.072 0.131,-0.114 0.1,-0.168C0.068,-0.222 0.052,-0.283 0.052,-0.35C0.052,-0.417 0.068,-0.478 0.1,-0.532C0.131,-0.586 0.175,-0.628 0.232,-0.66C0.288,-0.691 0.351,-0.706 0.42,-0.706C0.489,-0.706 0.552,-0.691 0.608,-0.66C0.663,-0.629 0.707,-0.587 0.739,-0.533C0.771,-0.478 0.787,-0.417 0.787,-0.35C0.787,-0.283 0.771,-0.222 0.739,-0.168C0.707,-0.113 0.663,-0.071 0.608,-0.04C0.552,-0.009 0.489,0.006 0.42,0.006ZM0.42,-0.06C0.475,-0.06 0.525,-0.073 0.57,-0.098C0.615,-0.123 0.65,-0.157 0.675,-0.202C0.7,-0.246 0.713,-0.295 0.713,-0.35C0.713,-0.405 0.7,-0.454 0.675,-0.499C0.65,-0.543 0.615,-0.578 0.57,-0.603C0.525,-0.628 0.475,-0.64 0.42,-0.64C0.365,-0.64 0.315,-0.628 0.27,-0.603C0.225,-0.578 0.189,-0.543 0.164,-0.499C0.138,-0.454 0.125,-0.405 0.125,-0.35C0.125,-0.295 0.138,-0.246 0.164,-0.202C0.189,-0.157 0.225,-0.123 0.27,-0.098C0.315,-0.073 0.365,-0.06 0.42,-0.06Z" style="fill:rgb(51,51,51);fill-rule:nonzero;"/>
                </g>
            </g>
        </g>
    </g>
</svg>
