<?xml version="1.0" encoding="UTF-8" standalone="no"?>
<!DOCTYPE svg PUBLIC "-//W3C//DTD SVG 1.1//EN" "http://www.w3.org/Graphics/SVG/1.1/DTD/svg11.dtd">
<svg width="100%" height="100%" viewBox="0 0 970 80" version="1.1" xmlns="http://www.w3.org/2000/svg" xmlns:xlink="http://www.w3.org/1999/xlink" xml:space="preserve" xmlns:serif="http://www.serif.com/" style="fill-rule:evenodd;clip-rule:evenodd;stroke-linejoin:round;stroke-miterlimit:2;">
    <g id="Formulation" transform="matrix(1,0,0,1,-100,-370.234)">
        <g transform="matrix(0.8545,0,0,1.01705,69.4127,283.647)">
            <rect x="35.796" y="85.135" width="175.541" height="78.659" style="fill:rgb(181,227,236);"/>
        </g>
        <g transform="matrix(4.67127,0,0,1.01705,82.7894,283.647)">
            <rect x="35.796" y="85.135" width="175.541" height="78.659" style="fill:rgb(220,242,246);"/>
        </g>
        <g transform="matrix(1,0,0,1,4.73329,337.3)">
            <g transform="matrix(16,0,0,16,120.355,78.8299)">
                <path d="M0.092,-0.7L0.092,-0L0.21,-0L0.21,-0.287L0.528,-0.287L0.528,-0.392L0.21,-0.392L0.21,-0.594L0.561,-0.594L0.562,-0.7L0.092,-0.7Z" style="fill-rule:nonzero;"/>
            </g>
            <g transform="matrix(16,0,0,16,129.555,78.8299)">
                <path d="M0.313,-0.536C0.148,-0.536 0.035,-0.427 0.035,-0.267C0.035,-0.106 0.148,0.004 0.313,0.004C0.477,0.004 0.59,-0.106 0.59,-0.267C0.59,-0.427 0.477,-0.536 0.313,-0.536ZM0.313,-0.438C0.408,-0.438 0.475,-0.367 0.475,-0.265C0.475,-0.162 0.408,-0.092 0.313,-0.092C0.217,-0.092 0.15,-0.162 0.15,-0.265C0.15,-0.367 0.217,-0.438 0.313,-0.438Z" style="fill-rule:nonzero;"/>
            </g>
            <g transform="matrix(16,0,0,16,139.555,78.8299)">
                <path d="M0.2,-0.426L0.2,-0.532L0.085,-0.532L0.085,-0L0.2,-0L0.2,-0.278C0.209,-0.369 0.277,-0.432 0.384,-0.426L0.384,-0.536C0.3,-0.536 0.236,-0.498 0.2,-0.426Z" style="fill-rule:nonzero;"/>
            </g>
            <g transform="matrix(16,0,0,16,145.859,78.8299)">
                <path d="M0.779,-0.536C0.682,-0.536 0.611,-0.497 0.577,-0.408C0.552,-0.489 0.487,-0.536 0.392,-0.536C0.304,-0.536 0.236,-0.504 0.199,-0.429L0.199,-0.532L0.085,-0.532L0.085,-0L0.199,-0L0.199,-0.263C0.199,-0.356 0.255,-0.426 0.347,-0.429C0.425,-0.429 0.472,-0.38 0.472,-0.299L0.472,-0L0.587,-0L0.587,-0.263C0.587,-0.356 0.642,-0.426 0.733,-0.429C0.811,-0.429 0.859,-0.38 0.859,-0.299L0.859,-0L0.974,-0L0.974,-0.331C0.974,-0.458 0.901,-0.536 0.779,-0.536Z" style="fill-rule:nonzero;"/>
            </g>
            <g transform="matrix(16,0,0,16,162.547,78.8299)">
                <path d="M0.453,-0.532L0.453,-0.27C0.453,-0.177 0.399,-0.106 0.307,-0.104C0.23,-0.104 0.183,-0.153 0.183,-0.233L0.183,-0.532L0.068,-0.532L0.068,-0.201C0.068,-0.074 0.141,0.004 0.263,0.004C0.35,0.003 0.417,-0.03 0.453,-0.104L0.453,-0L0.568,-0L0.568,-0.532L0.453,-0.532Z" style="fill-rule:nonzero;"/>
            </g>
            <g transform="matrix(16,0,0,16,172.995,78.8299)">
                <rect x="0.09" y="-0.742" width="0.115" height="0.742" style="fill-rule:nonzero;"/>
            </g>
            <g transform="matrix(16,0,0,16,177.715,78.8299)">
                <path d="M0.517,-0L0.516,-0.349C0.515,-0.466 0.438,-0.536 0.301,-0.536C0.2,-0.536 0.146,-0.513 0.072,-0.469L0.119,-0.389C0.172,-0.425 0.225,-0.443 0.276,-0.443C0.36,-0.443 0.403,-0.403 0.403,-0.336L0.403,-0.32L0.242,-0.32C0.114,-0.319 0.041,-0.257 0.041,-0.16C0.041,-0.066 0.113,0.005 0.228,0.005C0.305,0.005 0.366,-0.018 0.404,-0.065L0.404,-0L0.517,-0ZM0.252,-0.086C0.188,-0.086 0.149,-0.117 0.149,-0.165C0.149,-0.216 0.184,-0.236 0.259,-0.236L0.403,-0.236L0.403,-0.187C0.397,-0.129 0.334,-0.086 0.252,-0.086Z" style="fill-rule:nonzero;"/>
            </g>
            <g transform="matrix(16,0,0,16,187.091,78.8299)">
                <path d="M0.357,-0.122C0.326,-0.107 0.301,-0.099 0.277,-0.099C0.241,-0.099 0.22,-0.116 0.22,-0.171L0.22,-0.426L0.377,-0.426L0.377,-0.512L0.22,-0.512L0.22,-0.658L0.106,-0.658L0.106,-0.512L0.031,-0.512L0.031,-0.426L0.106,-0.426L0.106,-0.15C0.106,-0.041 0.175,0.005 0.255,0.005C0.3,0.005 0.344,-0.009 0.386,-0.034L0.357,-0.122Z" style="fill-rule:nonzero;"/>
            </g>
            <g transform="matrix(16,0,0,16,193.603,78.8299)">
                <path d="M0.142,-0.753C0.104,-0.753 0.075,-0.724 0.075,-0.684C0.075,-0.645 0.104,-0.616 0.142,-0.616C0.18,-0.616 0.209,-0.645 0.209,-0.684C0.209,-0.724 0.18,-0.753 0.142,-0.753ZM0.085,-0.532L0.085,-0L0.199,-0L0.199,-0.532L0.085,-0.532Z" style="fill-rule:nonzero;"/>
            </g>
            <g transform="matrix(16,0,0,16,198.147,78.8299)">
                <path d="M0.313,-0.536C0.148,-0.536 0.035,-0.427 0.035,-0.267C0.035,-0.106 0.148,0.004 0.313,0.004C0.477,0.004 0.59,-0.106 0.59,-0.267C0.59,-0.427 0.477,-0.536 0.313,-0.536ZM0.313,-0.438C0.408,-0.438 0.475,-0.367 0.475,-0.265C0.475,-0.162 0.408,-0.092 0.313,-0.092C0.217,-0.092 0.15,-0.162 0.15,-0.265C0.15,-0.367 0.217,-0.438 0.313,-0.438Z" style="fill-rule:nonzero;"/>
            </g>
            <g transform="matrix(16,0,0,16,208.147,78.8299)">
                <path d="M0.396,-0.536C0.306,-0.536 0.238,-0.504 0.2,-0.43L0.2,-0.532L0.085,-0.532L0.085,-0L0.2,-0L0.2,-0.283C0.208,-0.366 0.263,-0.427 0.351,-0.428C0.431,-0.428 0.479,-0.379 0.479,-0.299L0.479,-0L0.594,-0L0.594,-0.331C0.594,-0.458 0.52,-0.536 0.396,-0.536Z" style="fill-rule:nonzero;"/>
            </g>
        </g>
        <g id="Tag:-Properties" serif:id="Tag: Properties" transform="matrix(4.59945,0,0,4.59945,-98.6552,57.2374)">
            <g transform="matrix(0.000853892,-1.01803,1.08168,0.000907279,3.01566,159.061)">
                <path d="M85.094,71.106L87.553,72.307L82.635,72.307L85.094,71.106Z" style="fill:rgb(181,227,236);"/>
            </g>
            <g transform="matrix(7.90449,0,0,1.73436,-569.57,-53.359)">
                <rect x="82.342" y="71.124" width="3.906" height="2.887" style="fill:rgb(181,227,236);"/>
            </g>
            <g transform="matrix(0.217417,0,0,0.217417,21.6776,52.17)">
                <g transform="matrix(14,0,0,14,284.851,97.333)">
                    <path d="M0.009,-0.7L0.009,-0.594L0.23,-0.594L0.23,-0L0.348,-0L0.348,-0.594L0.57,-0.594L0.57,-0.7L0.009,-0.7Z" style="fill:rgb(51,51,51);fill-rule:nonzero;"/>
                </g>
                <g transform="matrix(14,0,0,14,292.369,97.333)">
                    <path d="M0.405,-0.703C0.196,-0.703 0.034,-0.551 0.034,-0.35C0.034,-0.15 0.196,0.005 0.405,0.005C0.614,0.005 0.776,-0.15 0.776,-0.35C0.776,-0.55 0.614,-0.703 0.405,-0.703ZM0.406,-0.597C0.543,-0.597 0.655,-0.489 0.655,-0.35C0.655,-0.211 0.543,-0.101 0.406,-0.101C0.269,-0.101 0.154,-0.211 0.154,-0.35C0.154,-0.489 0.268,-0.597 0.406,-0.597Z" style="fill:rgb(51,51,51);fill-rule:nonzero;"/>
                </g>
                <g transform="matrix(14,0,0,14,303.709,97.333)">
                    <path d="M0.379,-0.7L0.092,-0.7L0.092,-0L0.376,-0C0.588,-0 0.741,-0.148 0.741,-0.35C0.741,-0.553 0.589,-0.7 0.379,-0.7ZM0.382,-0.106L0.21,-0.106L0.21,-0.594L0.377,-0.594C0.515,-0.594 0.622,-0.492 0.622,-0.349C0.622,-0.207 0.518,-0.106 0.382,-0.106Z" style="fill:rgb(51,51,51);fill-rule:nonzero;"/>
                </g>
                <g transform="matrix(14,0,0,14,314.167,97.333)">
                    <path d="M0.405,-0.703C0.196,-0.703 0.034,-0.551 0.034,-0.35C0.034,-0.15 0.196,0.005 0.405,0.005C0.614,0.005 0.776,-0.15 0.776,-0.35C0.776,-0.55 0.614,-0.703 0.405,-0.703ZM0.406,-0.597C0.543,-0.597 0.655,-0.489 0.655,-0.35C0.655,-0.211 0.543,-0.101 0.406,-0.101C0.269,-0.101 0.154,-0.211 0.154,-0.35C0.154,-0.489 0.268,-0.597 0.406,-0.597Z" style="fill:rgb(51,51,51);fill-rule:nonzero;"/>
                </g>
            </g>
        </g>
        <g id="Tag:-Per-Organization" serif:id="Tag: Per Organization" transform="matrix(4.59945,0,0,4.59945,-98.6552,96.4598)">
            <g transform="matrix(0.000853892,-1.01803,1.08168,0.000907279,3.01566,159.061)">
                <path d="M85.094,71.106L87.553,72.307L82.635,72.307L85.094,71.106Z" style="fill:rgb(181,227,236);"/>
            </g>
            <g transform="matrix(7.90449,0,0,1.73436,-569.57,-53.359)">
                <rect x="82.342" y="71.124" width="3.906" height="2.887" style="fill:rgb(181,227,236);"/>
            </g>
            <g transform="matrix(0.217417,0,0,0.217417,21.6776,52.17)">
                <g transform="matrix(14,0,0,14,284.851,97.333)">
                    <path d="M0.009,-0.7L0.009,-0.594L0.23,-0.594L0.23,-0L0.348,-0L0.348,-0.594L0.57,-0.594L0.57,-0.7L0.009,-0.7Z" style="fill:rgb(51,51,51);fill-rule:nonzero;"/>
                </g>
                <g transform="matrix(14,0,0,14,292.369,97.333)">
                    <path d="M0.405,-0.703C0.196,-0.703 0.034,-0.551 0.034,-0.35C0.034,-0.15 0.196,0.005 0.405,0.005C0.614,0.005 0.776,-0.15 0.776,-0.35C0.776,-0.55 0.614,-0.703 0.405,-0.703ZM0.406,-0.597C0.543,-0.597 0.655,-0.489 0.655,-0.35C0.655,-0.211 0.543,-0.101 0.406,-0.101C0.269,-0.101 0.154,-0.211 0.154,-0.35C0.154,-0.489 0.268,-0.597 0.406,-0.597Z" style="fill:rgb(51,51,51);fill-rule:nonzero;"/>
                </g>
                <g transform="matrix(14,0,0,14,303.709,97.333)">
                    <path d="M0.379,-0.7L0.092,-0.7L0.092,-0L0.376,-0C0.588,-0 0.741,-0.148 0.741,-0.35C0.741,-0.553 0.589,-0.7 0.379,-0.7ZM0.382,-0.106L0.21,-0.106L0.21,-0.594L0.377,-0.594C0.515,-0.594 0.622,-0.492 0.622,-0.349C0.622,-0.207 0.518,-0.106 0.382,-0.106Z" style="fill:rgb(51,51,51);fill-rule:nonzero;"/>
                </g>
                <g transform="matrix(14,0,0,14,314.167,97.333)">
                    <path d="M0.405,-0.703C0.196,-0.703 0.034,-0.551 0.034,-0.35C0.034,-0.15 0.196,0.005 0.405,0.005C0.614,0.005 0.776,-0.15 0.776,-0.35C0.776,-0.55 0.614,-0.703 0.405,-0.703ZM0.406,-0.597C0.543,-0.597 0.655,-0.489 0.655,-0.35C0.655,-0.211 0.543,-0.101 0.406,-0.101C0.269,-0.101 0.154,-0.211 0.154,-0.35C0.154,-0.489 0.268,-0.597 0.406,-0.597Z" style="fill:rgb(51,51,51);fill-rule:nonzero;"/>
                </g>
            </g>
        </g>
        <g id="Tag:-Per-Industry" serif:id="Tag: Per Industry" transform="matrix(4.59945,0,0,4.59945,61.3836,96.4598)">
            <g transform="matrix(0.000853892,-1.01803,1.08168,0.000907279,3.01566,159.061)">
                <path d="M85.094,71.106L87.553,72.307L82.635,72.307L85.094,71.106Z" style="fill:rgb(181,227,236);"/>
            </g>
            <g transform="matrix(7.90449,0,0,1.73436,-569.57,-53.359)">
                <rect x="82.342" y="71.124" width="3.906" height="2.887" style="fill:rgb(181,227,236);"/>
            </g>
            <g transform="matrix(0.217417,0,0,0.217417,21.6776,52.17)">
                <g transform="matrix(14,0,0,14,284.851,97.333)">
                    <path d="M0.009,-0.7L0.009,-0.594L0.23,-0.594L0.23,-0L0.348,-0L0.348,-0.594L0.57,-0.594L0.57,-0.7L0.009,-0.7Z" style="fill:rgb(51,51,51);fill-rule:nonzero;"/>
                </g>
                <g transform="matrix(14,0,0,14,292.369,97.333)">
                    <path d="M0.405,-0.703C0.196,-0.703 0.034,-0.551 0.034,-0.35C0.034,-0.15 0.196,0.005 0.405,0.005C0.614,0.005 0.776,-0.15 0.776,-0.35C0.776,-0.55 0.614,-0.703 0.405,-0.703ZM0.406,-0.597C0.543,-0.597 0.655,-0.489 0.655,-0.35C0.655,-0.211 0.543,-0.101 0.406,-0.101C0.269,-0.101 0.154,-0.211 0.154,-0.35C0.154,-0.489 0.268,-0.597 0.406,-0.597Z" style="fill:rgb(51,51,51);fill-rule:nonzero;"/>
                </g>
                <g transform="matrix(14,0,0,14,303.709,97.333)">
                    <path d="M0.379,-0.7L0.092,-0.7L0.092,-0L0.376,-0C0.588,-0 0.741,-0.148 0.741,-0.35C0.741,-0.553 0.589,-0.7 0.379,-0.7ZM0.382,-0.106L0.21,-0.106L0.21,-0.594L0.377,-0.594C0.515,-0.594 0.622,-0.492 0.622,-0.349C0.622,-0.207 0.518,-0.106 0.382,-0.106Z" style="fill:rgb(51,51,51);fill-rule:nonzero;"/>
                </g>
                <g transform="matrix(14,0,0,14,314.167,97.333)">
                    <path d="M0.405,-0.703C0.196,-0.703 0.034,-0.551 0.034,-0.35C0.034,-0.15 0.196,0.005 0.405,0.005C0.614,0.005 0.776,-0.15 0.776,-0.35C0.776,-0.55 0.614,-0.703 0.405,-0.703ZM0.406,-0.597C0.543,-0.597 0.655,-0.489 0.655,-0.35C0.655,-0.211 0.543,-0.101 0.406,-0.101C0.269,-0.101 0.154,-0.211 0.154,-0.35C0.154,-0.489 0.268,-0.597 0.406,-0.597Z" style="fill:rgb(51,51,51);fill-rule:nonzero;"/>
                </g>
            </g>
        </g>
        <g id="Tag:-Team" serif:id="Tag: Team" transform="matrix(4.59945,0,0,4.59945,221.309,57.2374)">
            <g transform="matrix(0.000853892,-1.01803,1.08168,0.000907279,3.01566,159.061)">
                <path d="M85.094,71.106L87.553,72.307L82.635,72.307L85.094,71.106Z" style="fill:rgb(181,227,236);"/>
            </g>
            <g transform="matrix(7.90449,0,0,1.73436,-569.57,-53.359)">
                <rect x="82.342" y="71.124" width="3.906" height="2.887" style="fill:rgb(181,227,236);"/>
            </g>
            <g transform="matrix(0.217417,0,0,0.217417,21.6776,52.17)">
                <g transform="matrix(14,0,0,14,284.851,97.333)">
                    <path d="M0.009,-0.7L0.009,-0.594L0.23,-0.594L0.23,-0L0.348,-0L0.348,-0.594L0.57,-0.594L0.57,-0.7L0.009,-0.7Z" style="fill:rgb(51,51,51);fill-rule:nonzero;"/>
                </g>
                <g transform="matrix(14,0,0,14,292.369,97.333)">
                    <path d="M0.405,-0.703C0.196,-0.703 0.034,-0.551 0.034,-0.35C0.034,-0.15 0.196,0.005 0.405,0.005C0.614,0.005 0.776,-0.15 0.776,-0.35C0.776,-0.55 0.614,-0.703 0.405,-0.703ZM0.406,-0.597C0.543,-0.597 0.655,-0.489 0.655,-0.35C0.655,-0.211 0.543,-0.101 0.406,-0.101C0.269,-0.101 0.154,-0.211 0.154,-0.35C0.154,-0.489 0.268,-0.597 0.406,-0.597Z" style="fill:rgb(51,51,51);fill-rule:nonzero;"/>
                </g>
                <g transform="matrix(14,0,0,14,303.709,97.333)">
                    <path d="M0.379,-0.7L0.092,-0.7L0.092,-0L0.376,-0C0.588,-0 0.741,-0.148 0.741,-0.35C0.741,-0.553 0.589,-0.7 0.379,-0.7ZM0.382,-0.106L0.21,-0.106L0.21,-0.594L0.377,-0.594C0.515,-0.594 0.622,-0.492 0.622,-0.349C0.622,-0.207 0.518,-0.106 0.382,-0.106Z" style="fill:rgb(51,51,51);fill-rule:nonzero;"/>
                </g>
                <g transform="matrix(14,0,0,14,314.167,97.333)">
                    <path d="M0.405,-0.703C0.196,-0.703 0.034,-0.551 0.034,-0.35C0.034,-0.15 0.196,0.005 0.405,0.005C0.614,0.005 0.776,-0.15 0.776,-0.35C0.776,-0.55 0.614,-0.703 0.405,-0.703ZM0.406,-0.597C0.543,-0.597 0.655,-0.489 0.655,-0.35C0.655,-0.211 0.543,-0.101 0.406,-0.101C0.269,-0.101 0.154,-0.211 0.154,-0.35C0.154,-0.489 0.268,-0.597 0.406,-0.597Z" style="fill:rgb(51,51,51);fill-rule:nonzero;"/>
                </g>
            </g>
        </g>
        <g id="Tag:-..." serif:id="Tag: ..." transform="matrix(4.59945,0,0,4.59945,221.309,96.4598)">
            <g transform="matrix(0.000853892,-1.01803,1.08168,0.000907279,3.01566,159.061)">
                <path d="M85.094,71.106L87.553,72.307L82.635,72.307L85.094,71.106Z" style="fill:rgb(181,227,236);"/>
            </g>
            <g transform="matrix(7.90449,0,0,1.73436,-569.57,-53.359)">
                <rect x="82.342" y="71.124" width="3.906" height="2.887" style="fill:rgb(181,227,236);"/>
            </g>
            <g transform="matrix(0.217417,0,0,0.217417,21.6776,52.17)">
                <g transform="matrix(14,0,0,14,284.851,97.333)">
                    <path d="M0.009,-0.7L0.009,-0.594L0.23,-0.594L0.23,-0L0.348,-0L0.348,-0.594L0.57,-0.594L0.57,-0.7L0.009,-0.7Z" style="fill:rgb(51,51,51);fill-rule:nonzero;"/>
                </g>
                <g transform="matrix(14,0,0,14,292.369,97.333)">
                    <path d="M0.405,-0.703C0.196,-0.703 0.034,-0.551 0.034,-0.35C0.034,-0.15 0.196,0.005 0.405,0.005C0.614,0.005 0.776,-0.15 0.776,-0.35C0.776,-0.55 0.614,-0.703 0.405,-0.703ZM0.406,-0.597C0.543,-0.597 0.655,-0.489 0.655,-0.35C0.655,-0.211 0.543,-0.101 0.406,-0.101C0.269,-0.101 0.154,-0.211 0.154,-0.35C0.154,-0.489 0.268,-0.597 0.406,-0.597Z" style="fill:rgb(51,51,51);fill-rule:nonzero;"/>
                </g>
                <g transform="matrix(14,0,0,14,303.709,97.333)">
                    <path d="M0.379,-0.7L0.092,-0.7L0.092,-0L0.376,-0C0.588,-0 0.741,-0.148 0.741,-0.35C0.741,-0.553 0.589,-0.7 0.379,-0.7ZM0.382,-0.106L0.21,-0.106L0.21,-0.594L0.377,-0.594C0.515,-0.594 0.622,-0.492 0.622,-0.349C0.622,-0.207 0.518,-0.106 0.382,-0.106Z" style="fill:rgb(51,51,51);fill-rule:nonzero;"/>
                </g>
                <g transform="matrix(14,0,0,14,314.167,97.333)">
                    <path d="M0.405,-0.703C0.196,-0.703 0.034,-0.551 0.034,-0.35C0.034,-0.15 0.196,0.005 0.405,0.005C0.614,0.005 0.776,-0.15 0.776,-0.35C0.776,-0.55 0.614,-0.703 0.405,-0.703ZM0.406,-0.597C0.543,-0.597 0.655,-0.489 0.655,-0.35C0.655,-0.211 0.543,-0.101 0.406,-0.101C0.269,-0.101 0.154,-0.211 0.154,-0.35C0.154,-0.489 0.268,-0.597 0.406,-0.597Z" style="fill:rgb(51,51,51);fill-rule:nonzero;"/>
                </g>
            </g>
        </g>
        <g id="Tag:-Per-Organization1" serif:id="Tag: Per Organization" transform="matrix(4.59945,0,0,4.59945,61.3493,57.2374)">
            <g transform="matrix(0.000853892,-1.01803,1.08168,0.000907279,3.01566,159.061)">
                <path d="M85.094,71.106L87.553,72.307L82.635,72.307L85.094,71.106Z" style="fill:rgb(181,227,236);"/>
            </g>
            <g transform="matrix(7.90449,0,0,1.73436,-569.57,-53.359)">
                <rect x="82.342" y="71.124" width="3.906" height="2.887" style="fill:rgb(181,227,236);"/>
            </g>
            <g transform="matrix(0.217417,0,0,0.217417,21.6776,52.17)">
                <g transform="matrix(14,0,0,14,284.851,97.333)">
                    <path d="M0.009,-0.7L0.009,-0.594L0.23,-0.594L0.23,-0L0.348,-0L0.348,-0.594L0.57,-0.594L0.57,-0.7L0.009,-0.7Z" style="fill:rgb(51,51,51);fill-rule:nonzero;"/>
                </g>
                <g transform="matrix(14,0,0,14,292.369,97.333)">
                    <path d="M0.405,-0.703C0.196,-0.703 0.034,-0.551 0.034,-0.35C0.034,-0.15 0.196,0.005 0.405,0.005C0.614,0.005 0.776,-0.15 0.776,-0.35C0.776,-0.55 0.614,-0.703 0.405,-0.703ZM0.406,-0.597C0.543,-0.597 0.655,-0.489 0.655,-0.35C0.655,-0.211 0.543,-0.101 0.406,-0.101C0.269,-0.101 0.154,-0.211 0.154,-0.35C0.154,-0.489 0.268,-0.597 0.406,-0.597Z" style="fill:rgb(51,51,51);fill-rule:nonzero;"/>
                </g>
                <g transform="matrix(14,0,0,14,303.709,97.333)">
                    <path d="M0.379,-0.7L0.092,-0.7L0.092,-0L0.376,-0C0.588,-0 0.741,-0.148 0.741,-0.35C0.741,-0.553 0.589,-0.7 0.379,-0.7ZM0.382,-0.106L0.21,-0.106L0.21,-0.594L0.377,-0.594C0.515,-0.594 0.622,-0.492 0.622,-0.349C0.622,-0.207 0.518,-0.106 0.382,-0.106Z" style="fill:rgb(51,51,51);fill-rule:nonzero;"/>
                </g>
                <g transform="matrix(14,0,0,14,314.167,97.333)">
                    <path d="M0.405,-0.703C0.196,-0.703 0.034,-0.551 0.034,-0.35C0.034,-0.15 0.196,0.005 0.405,0.005C0.614,0.005 0.776,-0.15 0.776,-0.35C0.776,-0.55 0.614,-0.703 0.405,-0.703ZM0.406,-0.597C0.543,-0.597 0.655,-0.489 0.655,-0.35C0.655,-0.211 0.543,-0.101 0.406,-0.101C0.269,-0.101 0.154,-0.211 0.154,-0.35C0.154,-0.489 0.268,-0.597 0.406,-0.597Z" style="fill:rgb(51,51,51);fill-rule:nonzero;"/>
                </g>
            </g>
        </g>
    </g>
</svg>
