<?xml version="1.0" encoding="UTF-8" standalone="no"?>
<!DOCTYPE svg PUBLIC "-//W3C//DTD SVG 1.1//EN" "http://www.w3.org/Graphics/SVG/1.1/DTD/svg11.dtd">
<svg width="100%" height="100%" viewBox="0 0 970 80" version="1.1" xmlns="http://www.w3.org/2000/svg" xmlns:xlink="http://www.w3.org/1999/xlink" xml:space="preserve" xmlns:serif="http://www.serif.com/" style="fill-rule:evenodd;clip-rule:evenodd;stroke-linejoin:round;stroke-miterlimit:2;">
    <g id="Formulation" transform="matrix(1,0,0,1,-100,-370.234)">
        <g transform="matrix(0.8545,0,0,1.01705,69.4127,283.647)">
            <rect x="35.796" y="85.135" width="175.541" height="78.659" style="fill:rgb(181,227,236);"/>
        </g>
        <g transform="matrix(4.67127,0,0,1.01705,82.7894,283.647)">
            <rect x="35.796" y="85.135" width="175.541" height="78.659" style="fill:rgb(220,242,246);"/>
        </g>
        <g transform="matrix(1,0,0,1,10.7333,337.3)">
            <g transform="matrix(16,0,0,16,120.355,78.8299)">
                <path d="M0.085,-0.717L0.583,-0.717L0.583,-0.629L0.183,-0.629L0.183,-0.412L0.535,-0.412L0.535,-0.326L0.183,-0.326L0.183,-0L0.085,-0L0.085,-0.717Z" style="fill-rule:nonzero;"/>
            </g>
            <g transform="matrix(16,0,0,16,130.128,78.8299)">
                <path d="M0.272,-0.057C0.33,-0.057 0.37,-0.079 0.392,-0.123C0.413,-0.167 0.424,-0.216 0.424,-0.27C0.424,-0.319 0.417,-0.359 0.401,-0.389C0.376,-0.437 0.333,-0.461 0.273,-0.461C0.219,-0.461 0.18,-0.441 0.156,-0.4C0.131,-0.359 0.119,-0.309 0.119,-0.251C0.119,-0.196 0.131,-0.149 0.156,-0.112C0.18,-0.075 0.219,-0.057 0.272,-0.057ZM0.275,-0.538C0.343,-0.538 0.4,-0.516 0.446,-0.471C0.493,-0.426 0.516,-0.36 0.516,-0.272C0.516,-0.188 0.496,-0.118 0.455,-0.063C0.414,-0.008 0.35,0.019 0.264,0.019C0.192,0.019 0.135,-0.005 0.092,-0.054C0.05,-0.103 0.029,-0.168 0.029,-0.25C0.029,-0.338 0.051,-0.408 0.096,-0.46C0.14,-0.512 0.2,-0.538 0.275,-0.538Z" style="fill-rule:nonzero;"/>
            </g>
            <g transform="matrix(16,0,0,16,139.027,78.8299)">
                <path d="M0.067,-0.523L0.15,-0.523L0.15,-0.433C0.157,-0.45 0.174,-0.472 0.201,-0.497C0.227,-0.522 0.258,-0.535 0.293,-0.535C0.295,-0.535 0.297,-0.535 0.301,-0.534C0.305,-0.534 0.312,-0.533 0.321,-0.532L0.321,-0.439C0.316,-0.44 0.311,-0.441 0.307,-0.441C0.302,-0.442 0.298,-0.442 0.292,-0.442C0.248,-0.442 0.214,-0.428 0.19,-0.399C0.167,-0.371 0.155,-0.338 0.155,-0.301L0.155,-0L0.067,-0L0.067,-0.523Z" style="fill-rule:nonzero;"/>
            </g>
            <g transform="matrix(16,0,0,16,144.355,78.8299)">
                <path d="M0.064,-0.523L0.151,-0.523L0.151,-0.449C0.172,-0.474 0.191,-0.493 0.208,-0.505C0.237,-0.525 0.27,-0.535 0.307,-0.535C0.348,-0.535 0.382,-0.524 0.407,-0.504C0.422,-0.492 0.435,-0.475 0.446,-0.452C0.466,-0.48 0.489,-0.501 0.515,-0.514C0.542,-0.528 0.571,-0.535 0.604,-0.535C0.674,-0.535 0.722,-0.509 0.748,-0.458C0.761,-0.431 0.768,-0.394 0.768,-0.348L0.768,-0L0.677,-0L0.677,-0.363C0.677,-0.398 0.668,-0.422 0.651,-0.435C0.633,-0.448 0.612,-0.455 0.587,-0.455C0.552,-0.455 0.523,-0.443 0.498,-0.42C0.473,-0.397 0.46,-0.358 0.46,-0.304L0.46,-0L0.371,-0L0.371,-0.341C0.371,-0.377 0.367,-0.403 0.358,-0.419C0.345,-0.443 0.32,-0.456 0.284,-0.456C0.25,-0.456 0.22,-0.443 0.193,-0.417C0.166,-0.391 0.152,-0.345 0.152,-0.277L0.152,-0L0.064,-0L0.064,-0.523Z" style="fill-rule:nonzero;"/>
            </g>
            <g transform="matrix(16,0,0,16,157.683,78.8299)">
                <path d="M0.152,-0.523L0.152,-0.176C0.152,-0.149 0.157,-0.127 0.165,-0.11C0.181,-0.079 0.21,-0.063 0.252,-0.063C0.314,-0.063 0.355,-0.091 0.377,-0.146C0.389,-0.175 0.396,-0.215 0.396,-0.266L0.396,-0.523L0.483,-0.523L0.483,-0L0.4,-0L0.401,-0.077C0.39,-0.057 0.376,-0.041 0.359,-0.027C0.325,0 0.285,0.014 0.237,0.014C0.162,0.014 0.111,-0.011 0.084,-0.061C0.07,-0.087 0.063,-0.123 0.063,-0.167L0.063,-0.523L0.152,-0.523Z" style="fill-rule:nonzero;"/>
            </g>
            <g transform="matrix(16,0,0,16,166.581,78.8299)">
                <rect x="0.067" y="-0.717" width="0.088" height="0.717" style="fill-rule:nonzero;"/>
            </g>
            <g transform="matrix(16,0,0,16,170.136,78.8299)">
                <path d="M0.132,-0.139C0.132,-0.114 0.141,-0.094 0.16,-0.079C0.178,-0.064 0.2,-0.057 0.226,-0.057C0.257,-0.057 0.286,-0.064 0.315,-0.079C0.364,-0.102 0.389,-0.141 0.389,-0.195L0.389,-0.266C0.378,-0.259 0.364,-0.254 0.347,-0.249C0.33,-0.244 0.314,-0.241 0.297,-0.239L0.244,-0.232C0.212,-0.228 0.188,-0.222 0.172,-0.212C0.145,-0.197 0.132,-0.173 0.132,-0.139ZM0.345,-0.317C0.365,-0.319 0.378,-0.328 0.385,-0.342C0.389,-0.35 0.391,-0.361 0.391,-0.376C0.391,-0.406 0.38,-0.428 0.359,-0.441C0.338,-0.455 0.307,-0.461 0.268,-0.461C0.222,-0.461 0.189,-0.449 0.17,-0.424C0.159,-0.411 0.152,-0.39 0.149,-0.363L0.067,-0.363C0.069,-0.428 0.089,-0.473 0.13,-0.498C0.17,-0.523 0.216,-0.536 0.27,-0.536C0.331,-0.536 0.381,-0.524 0.419,-0.5C0.458,-0.477 0.477,-0.441 0.477,-0.391L0.477,-0.09C0.477,-0.081 0.478,-0.073 0.482,-0.068C0.486,-0.062 0.494,-0.06 0.506,-0.06C0.51,-0.06 0.514,-0.06 0.519,-0.06C0.524,-0.061 0.529,-0.062 0.535,-0.063L0.535,0.002C0.521,0.006 0.511,0.009 0.503,0.01C0.496,0.011 0.486,0.011 0.474,0.011C0.444,0.011 0.422,0 0.408,-0.021C0.401,-0.032 0.396,-0.049 0.393,-0.069C0.375,-0.046 0.349,-0.026 0.316,-0.008C0.282,0.009 0.245,0.018 0.205,0.018C0.157,0.018 0.117,0.003 0.086,-0.027C0.055,-0.056 0.04,-0.093 0.04,-0.137C0.04,-0.186 0.055,-0.223 0.085,-0.25C0.116,-0.277 0.155,-0.293 0.205,-0.299L0.345,-0.317Z" style="fill-rule:nonzero;"/>
            </g>
            <g transform="matrix(16,0,0,16,179.034,78.8299)">
                <path d="M0.082,-0.669L0.171,-0.669L0.171,-0.523L0.254,-0.523L0.254,-0.451L0.171,-0.451L0.171,-0.11C0.171,-0.092 0.177,-0.079 0.189,-0.073C0.196,-0.07 0.208,-0.068 0.224,-0.068C0.228,-0.068 0.232,-0.068 0.237,-0.068C0.242,-0.068 0.248,-0.069 0.254,-0.069L0.254,-0C0.244,0.003 0.234,0.005 0.223,0.006C0.212,0.008 0.2,0.008 0.188,0.008C0.146,0.008 0.119,-0.002 0.104,-0.023C0.089,-0.044 0.082,-0.071 0.082,-0.105L0.082,-0.451L0.011,-0.451L0.011,-0.523L0.082,-0.523L0.082,-0.669Z" style="fill-rule:nonzero;"/>
            </g>
            <g transform="matrix(16,0,0,16,183.48,78.8299)">
                <path d="M0.064,-0.521L0.154,-0.521L0.154,-0L0.064,-0L0.064,-0.521ZM0.064,-0.717L0.154,-0.717L0.154,-0.618L0.064,-0.618L0.064,-0.717Z" style="fill-rule:nonzero;"/>
            </g>
            <g transform="matrix(16,0,0,16,187.034,78.8299)">
                <path d="M0.272,-0.057C0.33,-0.057 0.37,-0.079 0.392,-0.123C0.413,-0.167 0.424,-0.216 0.424,-0.27C0.424,-0.319 0.417,-0.359 0.401,-0.389C0.376,-0.437 0.333,-0.461 0.273,-0.461C0.219,-0.461 0.18,-0.441 0.156,-0.4C0.131,-0.359 0.119,-0.309 0.119,-0.251C0.119,-0.196 0.131,-0.149 0.156,-0.112C0.18,-0.075 0.219,-0.057 0.272,-0.057ZM0.275,-0.538C0.343,-0.538 0.4,-0.516 0.446,-0.471C0.493,-0.426 0.516,-0.36 0.516,-0.272C0.516,-0.188 0.496,-0.118 0.455,-0.063C0.414,-0.008 0.35,0.019 0.264,0.019C0.192,0.019 0.135,-0.005 0.092,-0.054C0.05,-0.103 0.029,-0.168 0.029,-0.25C0.029,-0.338 0.051,-0.408 0.096,-0.46C0.14,-0.512 0.2,-0.538 0.275,-0.538Z" style="fill-rule:nonzero;"/>
            </g>
            <g transform="matrix(16,0,0,16,195.933,78.8299)">
                <path d="M0.064,-0.523L0.148,-0.523L0.148,-0.449C0.173,-0.479 0.199,-0.501 0.227,-0.515C0.254,-0.528 0.285,-0.535 0.319,-0.535C0.393,-0.535 0.443,-0.509 0.469,-0.457C0.484,-0.429 0.491,-0.388 0.491,-0.335L0.491,-0L0.401,-0L0.401,-0.33C0.401,-0.361 0.397,-0.387 0.387,-0.407C0.372,-0.439 0.343,-0.456 0.302,-0.456C0.281,-0.456 0.264,-0.453 0.251,-0.449C0.227,-0.442 0.206,-0.428 0.188,-0.406C0.173,-0.389 0.163,-0.371 0.159,-0.353C0.155,-0.334 0.152,-0.308 0.152,-0.274L0.152,-0L0.064,-0L0.064,-0.523Z" style="fill-rule:nonzero;"/>
            </g>
        </g>
        <g id="Tag:-Formulas" serif:id="Tag: Formulas" transform="matrix(4.59945,0,0,4.59945,-98.6552,57.2374)">
            <g transform="matrix(0.000853892,-1.01803,1.08168,0.000907279,3.01566,159.061)">
                <path d="M85.094,71.106L87.553,72.307L82.635,72.307L85.094,71.106Z" style="fill:rgb(181,227,236);"/>
            </g>
            <g transform="matrix(7.90449,0,0,1.73436,-569.57,-53.359)">
                <rect x="82.342" y="71.124" width="3.906" height="2.887" style="fill:rgb(181,227,236);"/>
            </g>
            <g transform="matrix(0.217417,0,0,0.217417,21.6776,52.17)">
                <g transform="matrix(14,0,0,14,284.851,97.333)">
                    <path d="M0.085,-0.717L0.583,-0.717L0.583,-0.629L0.183,-0.629L0.183,-0.412L0.535,-0.412L0.535,-0.326L0.183,-0.326L0.183,-0L0.085,-0L0.085,-0.717Z" style="fill:rgb(51,51,51);fill-rule:nonzero;"/>
                </g>
                <g transform="matrix(14,0,0,14,293.403,97.333)">
                    <path d="M0.272,-0.057C0.33,-0.057 0.37,-0.079 0.392,-0.123C0.413,-0.167 0.424,-0.216 0.424,-0.27C0.424,-0.319 0.417,-0.359 0.401,-0.389C0.376,-0.437 0.333,-0.461 0.273,-0.461C0.219,-0.461 0.18,-0.441 0.156,-0.4C0.131,-0.359 0.119,-0.309 0.119,-0.251C0.119,-0.196 0.131,-0.149 0.156,-0.112C0.18,-0.075 0.219,-0.057 0.272,-0.057ZM0.275,-0.538C0.343,-0.538 0.4,-0.516 0.446,-0.471C0.493,-0.426 0.516,-0.36 0.516,-0.272C0.516,-0.188 0.496,-0.118 0.455,-0.063C0.414,-0.008 0.35,0.019 0.264,0.019C0.192,0.019 0.135,-0.005 0.092,-0.054C0.05,-0.103 0.029,-0.168 0.029,-0.25C0.029,-0.338 0.051,-0.408 0.096,-0.46C0.14,-0.512 0.2,-0.538 0.275,-0.538Z" style="fill:rgb(51,51,51);fill-rule:nonzero;"/>
                </g>
                <g transform="matrix(14,0,0,14,301.189,97.333)">
                    <path d="M0.067,-0.523L0.15,-0.523L0.15,-0.433C0.157,-0.45 0.174,-0.472 0.201,-0.497C0.227,-0.522 0.258,-0.535 0.293,-0.535C0.295,-0.535 0.297,-0.535 0.301,-0.534C0.305,-0.534 0.312,-0.533 0.321,-0.532L0.321,-0.439C0.316,-0.44 0.311,-0.441 0.307,-0.441C0.302,-0.442 0.298,-0.442 0.292,-0.442C0.248,-0.442 0.214,-0.428 0.19,-0.399C0.167,-0.371 0.155,-0.338 0.155,-0.301L0.155,-0L0.067,-0L0.067,-0.523Z" style="fill:rgb(51,51,51);fill-rule:nonzero;"/>
                </g>
                <g transform="matrix(14,0,0,14,305.851,97.333)">
                    <path d="M0.064,-0.523L0.151,-0.523L0.151,-0.449C0.172,-0.474 0.191,-0.493 0.208,-0.505C0.237,-0.525 0.27,-0.535 0.307,-0.535C0.348,-0.535 0.382,-0.524 0.407,-0.504C0.422,-0.492 0.435,-0.475 0.446,-0.452C0.466,-0.48 0.489,-0.501 0.515,-0.514C0.542,-0.528 0.571,-0.535 0.604,-0.535C0.674,-0.535 0.722,-0.509 0.748,-0.458C0.761,-0.431 0.768,-0.394 0.768,-0.348L0.768,-0L0.677,-0L0.677,-0.363C0.677,-0.398 0.668,-0.422 0.651,-0.435C0.633,-0.448 0.612,-0.455 0.587,-0.455C0.552,-0.455 0.523,-0.443 0.498,-0.42C0.473,-0.397 0.46,-0.358 0.46,-0.304L0.46,-0L0.371,-0L0.371,-0.341C0.371,-0.377 0.367,-0.403 0.358,-0.419C0.345,-0.443 0.32,-0.456 0.284,-0.456C0.25,-0.456 0.22,-0.443 0.193,-0.417C0.166,-0.391 0.152,-0.345 0.152,-0.277L0.152,-0L0.064,-0L0.064,-0.523Z" style="fill:rgb(51,51,51);fill-rule:nonzero;"/>
                </g>
                <g transform="matrix(14,0,0,14,317.513,97.333)">
                    <path d="M0.152,-0.523L0.152,-0.176C0.152,-0.149 0.157,-0.127 0.165,-0.11C0.181,-0.079 0.21,-0.063 0.252,-0.063C0.314,-0.063 0.355,-0.091 0.377,-0.146C0.389,-0.175 0.396,-0.215 0.396,-0.266L0.396,-0.523L0.483,-0.523L0.483,-0L0.4,-0L0.401,-0.077C0.39,-0.057 0.376,-0.041 0.359,-0.027C0.325,0 0.285,0.014 0.237,0.014C0.162,0.014 0.111,-0.011 0.084,-0.061C0.07,-0.087 0.063,-0.123 0.063,-0.167L0.063,-0.523L0.152,-0.523Z" style="fill:rgb(51,51,51);fill-rule:nonzero;"/>
                </g>
                <g transform="matrix(14,0,0,14,325.299,97.333)">
                    <rect x="0.067" y="-0.717" width="0.088" height="0.717" style="fill:rgb(51,51,51);fill-rule:nonzero;"/>
                </g>
                <g transform="matrix(14,0,0,14,328.41,97.333)">
                    <path d="M0.132,-0.139C0.132,-0.114 0.141,-0.094 0.16,-0.079C0.178,-0.064 0.2,-0.057 0.226,-0.057C0.257,-0.057 0.286,-0.064 0.315,-0.079C0.364,-0.102 0.389,-0.141 0.389,-0.195L0.389,-0.266C0.378,-0.259 0.364,-0.254 0.347,-0.249C0.33,-0.244 0.314,-0.241 0.297,-0.239L0.244,-0.232C0.212,-0.228 0.188,-0.222 0.172,-0.212C0.145,-0.197 0.132,-0.173 0.132,-0.139ZM0.345,-0.317C0.365,-0.319 0.378,-0.328 0.385,-0.342C0.389,-0.35 0.391,-0.361 0.391,-0.376C0.391,-0.406 0.38,-0.428 0.359,-0.441C0.338,-0.455 0.307,-0.461 0.268,-0.461C0.222,-0.461 0.189,-0.449 0.17,-0.424C0.159,-0.411 0.152,-0.39 0.149,-0.363L0.067,-0.363C0.069,-0.428 0.089,-0.473 0.13,-0.498C0.17,-0.523 0.216,-0.536 0.27,-0.536C0.331,-0.536 0.381,-0.524 0.419,-0.5C0.458,-0.477 0.477,-0.441 0.477,-0.391L0.477,-0.09C0.477,-0.081 0.478,-0.073 0.482,-0.068C0.486,-0.062 0.494,-0.06 0.506,-0.06C0.51,-0.06 0.514,-0.06 0.519,-0.06C0.524,-0.061 0.529,-0.062 0.535,-0.063L0.535,0.002C0.521,0.006 0.511,0.009 0.503,0.01C0.496,0.011 0.486,0.011 0.474,0.011C0.444,0.011 0.422,0 0.408,-0.021C0.401,-0.032 0.396,-0.049 0.393,-0.069C0.375,-0.046 0.349,-0.026 0.316,-0.008C0.282,0.009 0.245,0.018 0.205,0.018C0.157,0.018 0.117,0.003 0.086,-0.027C0.055,-0.056 0.04,-0.093 0.04,-0.137C0.04,-0.186 0.055,-0.223 0.085,-0.25C0.116,-0.277 0.155,-0.293 0.205,-0.299L0.345,-0.317Z" style="fill:rgb(51,51,51);fill-rule:nonzero;"/>
                </g>
                <g transform="matrix(14,0,0,14,336.196,97.333)">
                    <path d="M0.117,-0.164C0.119,-0.135 0.127,-0.112 0.139,-0.097C0.161,-0.068 0.199,-0.054 0.254,-0.054C0.286,-0.054 0.315,-0.061 0.34,-0.075C0.365,-0.09 0.377,-0.111 0.377,-0.141C0.377,-0.164 0.367,-0.181 0.347,-0.192C0.334,-0.2 0.309,-0.208 0.272,-0.217L0.202,-0.235C0.158,-0.246 0.125,-0.258 0.104,-0.272C0.066,-0.296 0.047,-0.329 0.047,-0.371C0.047,-0.42 0.065,-0.46 0.1,-0.491C0.136,-0.521 0.184,-0.537 0.244,-0.537C0.323,-0.537 0.38,-0.514 0.415,-0.467C0.436,-0.438 0.447,-0.406 0.446,-0.373L0.363,-0.373C0.362,-0.392 0.355,-0.41 0.342,-0.427C0.322,-0.45 0.287,-0.461 0.237,-0.461C0.204,-0.461 0.179,-0.455 0.162,-0.442C0.145,-0.43 0.136,-0.413 0.136,-0.392C0.136,-0.369 0.147,-0.351 0.17,-0.337C0.183,-0.329 0.202,-0.322 0.228,-0.316L0.286,-0.302C0.349,-0.286 0.391,-0.272 0.413,-0.257C0.447,-0.235 0.464,-0.2 0.464,-0.151C0.464,-0.105 0.446,-0.065 0.411,-0.031C0.376,0.003 0.322,0.02 0.25,0.02C0.172,0.02 0.117,0.002 0.084,-0.033C0.052,-0.068 0.035,-0.112 0.032,-0.164L0.117,-0.164Z" style="fill:rgb(51,51,51);fill-rule:nonzero;"/>
                </g>
            </g>
        </g>
        <g id="Tag:-Workflows" serif:id="Tag: Workflows" transform="matrix(4.59945,0,0,4.59945,-98.6552,96.4598)">
            <g transform="matrix(0.000853892,-1.01803,1.08168,0.000907279,3.01566,159.061)">
                <path d="M85.094,71.106L87.553,72.307L82.635,72.307L85.094,71.106Z" style="fill:rgb(181,227,236);"/>
            </g>
            <g transform="matrix(7.90449,0,0,1.73436,-569.57,-53.359)">
                <rect x="82.342" y="71.124" width="3.906" height="2.887" style="fill:rgb(181,227,236);"/>
            </g>
            <g transform="matrix(0.217417,0,0,0.217417,21.6776,52.17)">
                <g transform="matrix(14,0,0,14,284.851,97.333)">
                    <path d="M0.124,-0.717L0.259,-0.134L0.421,-0.717L0.526,-0.717L0.688,-0.134L0.824,-0.717L0.93,-0.717L0.742,-0L0.64,-0L0.474,-0.595L0.308,-0L0.206,-0L0.018,-0.717L0.124,-0.717Z" style="fill:rgb(51,51,51);fill-rule:nonzero;"/>
                </g>
                <g transform="matrix(14,0,0,14,297.819,97.333)">
                    <path d="M0.272,-0.057C0.33,-0.057 0.37,-0.079 0.392,-0.123C0.413,-0.167 0.424,-0.216 0.424,-0.27C0.424,-0.319 0.417,-0.359 0.401,-0.389C0.376,-0.437 0.333,-0.461 0.273,-0.461C0.219,-0.461 0.18,-0.441 0.156,-0.4C0.131,-0.359 0.119,-0.309 0.119,-0.251C0.119,-0.196 0.131,-0.149 0.156,-0.112C0.18,-0.075 0.219,-0.057 0.272,-0.057ZM0.275,-0.538C0.343,-0.538 0.4,-0.516 0.446,-0.471C0.493,-0.426 0.516,-0.36 0.516,-0.272C0.516,-0.188 0.496,-0.118 0.455,-0.063C0.414,-0.008 0.35,0.019 0.264,0.019C0.192,0.019 0.135,-0.005 0.092,-0.054C0.05,-0.103 0.029,-0.168 0.029,-0.25C0.029,-0.338 0.051,-0.408 0.096,-0.46C0.14,-0.512 0.2,-0.538 0.275,-0.538Z" style="fill:rgb(51,51,51);fill-rule:nonzero;"/>
                </g>
                <g transform="matrix(14,0,0,14,305.605,97.333)">
                    <path d="M0.067,-0.523L0.15,-0.523L0.15,-0.433C0.157,-0.45 0.174,-0.472 0.201,-0.497C0.227,-0.522 0.258,-0.535 0.293,-0.535C0.295,-0.535 0.297,-0.535 0.301,-0.534C0.305,-0.534 0.312,-0.533 0.321,-0.532L0.321,-0.439C0.316,-0.44 0.311,-0.441 0.307,-0.441C0.302,-0.442 0.298,-0.442 0.292,-0.442C0.248,-0.442 0.214,-0.428 0.19,-0.399C0.167,-0.371 0.155,-0.338 0.155,-0.301L0.155,-0L0.067,-0L0.067,-0.523Z" style="fill:rgb(51,51,51);fill-rule:nonzero;"/>
                </g>
                <g transform="matrix(14,0,0,14,310.267,97.333)">
                    <path d="M0.063,-0.717L0.147,-0.717L0.147,-0.301L0.373,-0.523L0.485,-0.523L0.285,-0.327L0.496,-0L0.384,-0L0.221,-0.264L0.147,-0.196L0.147,-0L0.063,-0L0.063,-0.717Z" style="fill:rgb(51,51,51);fill-rule:nonzero;"/>
                </g>
                <g transform="matrix(14,0,0,14,317.267,97.333)">
                    <path d="M0.432,-0L0.344,-0L0.344,-0.717L0.432,-0.717L0.432,-0ZM0.173,-0L0.086,-0L0.086,-0.451L0.014,-0.451L0.014,-0.521L0.086,-0.521L0.086,-0.613C0.086,-0.652 0.098,-0.681 0.122,-0.699C0.146,-0.718 0.178,-0.728 0.218,-0.728C0.226,-0.728 0.233,-0.727 0.24,-0.727C0.246,-0.726 0.253,-0.725 0.261,-0.724L0.261,-0.646C0.252,-0.646 0.246,-0.647 0.241,-0.647C0.237,-0.647 0.234,-0.647 0.23,-0.647C0.205,-0.647 0.189,-0.64 0.181,-0.625C0.176,-0.617 0.173,-0.604 0.173,-0.585L0.173,-0.521L0.261,-0.521L0.261,-0.451L0.173,-0.451L0.173,-0Z" style="fill:rgb(51,51,51);fill-rule:nonzero;"/>
                </g>
                <g transform="matrix(14,0,0,14,324.267,97.333)">
                    <path d="M0.272,-0.057C0.33,-0.057 0.37,-0.079 0.392,-0.123C0.413,-0.167 0.424,-0.216 0.424,-0.27C0.424,-0.319 0.417,-0.359 0.401,-0.389C0.376,-0.437 0.333,-0.461 0.273,-0.461C0.219,-0.461 0.18,-0.441 0.156,-0.4C0.131,-0.359 0.119,-0.309 0.119,-0.251C0.119,-0.196 0.131,-0.149 0.156,-0.112C0.18,-0.075 0.219,-0.057 0.272,-0.057ZM0.275,-0.538C0.343,-0.538 0.4,-0.516 0.446,-0.471C0.493,-0.426 0.516,-0.36 0.516,-0.272C0.516,-0.188 0.496,-0.118 0.455,-0.063C0.414,-0.008 0.35,0.019 0.264,0.019C0.192,0.019 0.135,-0.005 0.092,-0.054C0.05,-0.103 0.029,-0.168 0.029,-0.25C0.029,-0.338 0.051,-0.408 0.096,-0.46C0.14,-0.512 0.2,-0.538 0.275,-0.538Z" style="fill:rgb(51,51,51);fill-rule:nonzero;"/>
                </g>
                <g transform="matrix(14,0,0,14,332.053,97.333)">
                    <path d="M0.105,-0.523L0.206,-0.111L0.308,-0.523L0.406,-0.523L0.509,-0.113L0.616,-0.523L0.704,-0.523L0.552,-0L0.46,-0L0.354,-0.405L0.251,-0L0.16,-0L0.009,-0.523L0.105,-0.523Z" style="fill:rgb(51,51,51);fill-rule:nonzero;"/>
                </g>
                <g transform="matrix(14,0,0,14,342.163,97.333)">
                    <path d="M0.117,-0.164C0.119,-0.135 0.127,-0.112 0.139,-0.097C0.161,-0.068 0.199,-0.054 0.254,-0.054C0.286,-0.054 0.315,-0.061 0.34,-0.075C0.365,-0.09 0.377,-0.111 0.377,-0.141C0.377,-0.164 0.367,-0.181 0.347,-0.192C0.334,-0.2 0.309,-0.208 0.272,-0.217L0.202,-0.235C0.158,-0.246 0.125,-0.258 0.104,-0.272C0.066,-0.296 0.047,-0.329 0.047,-0.371C0.047,-0.42 0.065,-0.46 0.1,-0.491C0.136,-0.521 0.184,-0.537 0.244,-0.537C0.323,-0.537 0.38,-0.514 0.415,-0.467C0.436,-0.438 0.447,-0.406 0.446,-0.373L0.363,-0.373C0.362,-0.392 0.355,-0.41 0.342,-0.427C0.322,-0.45 0.287,-0.461 0.237,-0.461C0.204,-0.461 0.179,-0.455 0.162,-0.442C0.145,-0.43 0.136,-0.413 0.136,-0.392C0.136,-0.369 0.147,-0.351 0.17,-0.337C0.183,-0.329 0.202,-0.322 0.228,-0.316L0.286,-0.302C0.349,-0.286 0.391,-0.272 0.413,-0.257C0.447,-0.235 0.464,-0.2 0.464,-0.151C0.464,-0.105 0.446,-0.065 0.411,-0.031C0.376,0.003 0.322,0.02 0.25,0.02C0.172,0.02 0.117,0.002 0.084,-0.033C0.052,-0.068 0.035,-0.112 0.032,-0.164L0.117,-0.164Z" style="fill:rgb(51,51,51);fill-rule:nonzero;"/>
                </g>
            </g>
        </g>
        <g id="Tag:-Tasks" serif:id="Tag: Tasks" transform="matrix(4.59945,0,0,4.59945,61.3836,96.4598)">
            <g transform="matrix(0.000853892,-1.01803,1.08168,0.000907279,3.01566,159.061)">
                <path d="M85.094,71.106L87.553,72.307L82.635,72.307L85.094,71.106Z" style="fill:rgb(181,227,236);"/>
            </g>
            <g transform="matrix(7.90449,0,0,1.73436,-569.57,-53.359)">
                <rect x="82.342" y="71.124" width="3.906" height="2.887" style="fill:rgb(181,227,236);"/>
            </g>
            <g transform="matrix(0.217417,0,0,0.217417,21.6776,52.17)">
                <g transform="matrix(14,0,0,14,284.851,97.333)">
                    <path d="M0.598,-0.717L0.598,-0.632L0.356,-0.632L0.356,-0L0.258,-0L0.258,-0.632L0.016,-0.632L0.016,-0.717L0.598,-0.717Z" style="fill:rgb(51,51,51);fill-rule:nonzero;"/>
                </g>
                <g transform="matrix(14,0,0,14,291.851,97.333)">
                    <path d="M0.132,-0.139C0.132,-0.114 0.141,-0.094 0.16,-0.079C0.178,-0.064 0.2,-0.057 0.226,-0.057C0.257,-0.057 0.286,-0.064 0.315,-0.079C0.364,-0.102 0.389,-0.141 0.389,-0.195L0.389,-0.266C0.378,-0.259 0.364,-0.254 0.347,-0.249C0.33,-0.244 0.314,-0.241 0.297,-0.239L0.244,-0.232C0.212,-0.228 0.188,-0.222 0.172,-0.212C0.145,-0.197 0.132,-0.173 0.132,-0.139ZM0.345,-0.317C0.365,-0.319 0.378,-0.328 0.385,-0.342C0.389,-0.35 0.391,-0.361 0.391,-0.376C0.391,-0.406 0.38,-0.428 0.359,-0.441C0.338,-0.455 0.307,-0.461 0.268,-0.461C0.222,-0.461 0.189,-0.449 0.17,-0.424C0.159,-0.411 0.152,-0.39 0.149,-0.363L0.067,-0.363C0.069,-0.428 0.089,-0.473 0.13,-0.498C0.17,-0.523 0.216,-0.536 0.27,-0.536C0.331,-0.536 0.381,-0.524 0.419,-0.5C0.458,-0.477 0.477,-0.441 0.477,-0.391L0.477,-0.09C0.477,-0.081 0.478,-0.073 0.482,-0.068C0.486,-0.062 0.494,-0.06 0.506,-0.06C0.51,-0.06 0.514,-0.06 0.519,-0.06C0.524,-0.061 0.529,-0.062 0.535,-0.063L0.535,0.002C0.521,0.006 0.511,0.009 0.503,0.01C0.496,0.011 0.486,0.011 0.474,0.011C0.444,0.011 0.422,0 0.408,-0.021C0.401,-0.032 0.396,-0.049 0.393,-0.069C0.375,-0.046 0.349,-0.026 0.316,-0.008C0.282,0.009 0.245,0.018 0.205,0.018C0.157,0.018 0.117,0.003 0.086,-0.027C0.055,-0.056 0.04,-0.093 0.04,-0.137C0.04,-0.186 0.055,-0.223 0.085,-0.25C0.116,-0.277 0.155,-0.293 0.205,-0.299L0.345,-0.317Z" style="fill:rgb(51,51,51);fill-rule:nonzero;"/>
                </g>
                <g transform="matrix(14,0,0,14,299.637,97.333)">
                    <path d="M0.117,-0.164C0.119,-0.135 0.127,-0.112 0.139,-0.097C0.161,-0.068 0.199,-0.054 0.254,-0.054C0.286,-0.054 0.315,-0.061 0.34,-0.075C0.365,-0.09 0.377,-0.111 0.377,-0.141C0.377,-0.164 0.367,-0.181 0.347,-0.192C0.334,-0.2 0.309,-0.208 0.272,-0.217L0.202,-0.235C0.158,-0.246 0.125,-0.258 0.104,-0.272C0.066,-0.296 0.047,-0.329 0.047,-0.371C0.047,-0.42 0.065,-0.46 0.1,-0.491C0.136,-0.521 0.184,-0.537 0.244,-0.537C0.323,-0.537 0.38,-0.514 0.415,-0.467C0.436,-0.438 0.447,-0.406 0.446,-0.373L0.363,-0.373C0.362,-0.392 0.355,-0.41 0.342,-0.427C0.322,-0.45 0.287,-0.461 0.237,-0.461C0.204,-0.461 0.179,-0.455 0.162,-0.442C0.145,-0.43 0.136,-0.413 0.136,-0.392C0.136,-0.369 0.147,-0.351 0.17,-0.337C0.183,-0.329 0.202,-0.322 0.228,-0.316L0.286,-0.302C0.349,-0.286 0.391,-0.272 0.413,-0.257C0.447,-0.235 0.464,-0.2 0.464,-0.151C0.464,-0.105 0.446,-0.065 0.411,-0.031C0.376,0.003 0.322,0.02 0.25,0.02C0.172,0.02 0.117,0.002 0.084,-0.033C0.052,-0.068 0.035,-0.112 0.032,-0.164L0.117,-0.164Z" style="fill:rgb(51,51,51);fill-rule:nonzero;"/>
                </g>
                <g transform="matrix(14,0,0,14,306.637,97.333)">
                    <path d="M0.063,-0.717L0.147,-0.717L0.147,-0.301L0.373,-0.523L0.485,-0.523L0.285,-0.327L0.496,-0L0.384,-0L0.221,-0.264L0.147,-0.196L0.147,-0L0.063,-0L0.063,-0.717Z" style="fill:rgb(51,51,51);fill-rule:nonzero;"/>
                </g>
                <g transform="matrix(14,0,0,14,313.637,97.333)">
                    <path d="M0.117,-0.164C0.119,-0.135 0.127,-0.112 0.139,-0.097C0.161,-0.068 0.199,-0.054 0.254,-0.054C0.286,-0.054 0.315,-0.061 0.34,-0.075C0.365,-0.09 0.377,-0.111 0.377,-0.141C0.377,-0.164 0.367,-0.181 0.347,-0.192C0.334,-0.2 0.309,-0.208 0.272,-0.217L0.202,-0.235C0.158,-0.246 0.125,-0.258 0.104,-0.272C0.066,-0.296 0.047,-0.329 0.047,-0.371C0.047,-0.42 0.065,-0.46 0.1,-0.491C0.136,-0.521 0.184,-0.537 0.244,-0.537C0.323,-0.537 0.38,-0.514 0.415,-0.467C0.436,-0.438 0.447,-0.406 0.446,-0.373L0.363,-0.373C0.362,-0.392 0.355,-0.41 0.342,-0.427C0.322,-0.45 0.287,-0.461 0.237,-0.461C0.204,-0.461 0.179,-0.455 0.162,-0.442C0.145,-0.43 0.136,-0.413 0.136,-0.392C0.136,-0.369 0.147,-0.351 0.17,-0.337C0.183,-0.329 0.202,-0.322 0.228,-0.316L0.286,-0.302C0.349,-0.286 0.391,-0.272 0.413,-0.257C0.447,-0.235 0.464,-0.2 0.464,-0.151C0.464,-0.105 0.446,-0.065 0.411,-0.031C0.376,0.003 0.322,0.02 0.25,0.02C0.172,0.02 0.117,0.002 0.084,-0.033C0.052,-0.068 0.035,-0.112 0.032,-0.164L0.117,-0.164Z" style="fill:rgb(51,51,51);fill-rule:nonzero;"/>
                </g>
            </g>
        </g>
        <g id="Tag:-Runtime" serif:id="Tag: Runtime" transform="matrix(4.59945,0,0,4.59945,221.309,57.2374)">
            <g transform="matrix(0.000853892,-1.01803,1.08168,0.000907279,3.01566,159.061)">
                <path d="M85.094,71.106L87.553,72.307L82.635,72.307L85.094,71.106Z" style="fill:rgb(181,227,236);"/>
            </g>
            <g transform="matrix(7.90449,0,0,1.73436,-569.57,-53.359)">
                <rect x="82.342" y="71.124" width="3.906" height="2.887" style="fill:rgb(181,227,236);"/>
            </g>
            <g transform="matrix(0.217417,0,0,0.217417,21.6776,52.17)">
                <g transform="matrix(14,0,0,14,284.851,97.333)">
                    <path d="M0.41,-0.389C0.455,-0.389 0.491,-0.398 0.518,-0.416C0.544,-0.434 0.558,-0.467 0.558,-0.515C0.558,-0.566 0.539,-0.601 0.502,-0.619C0.482,-0.629 0.456,-0.634 0.422,-0.634L0.185,-0.634L0.185,-0.389L0.41,-0.389ZM0.088,-0.717L0.42,-0.717C0.475,-0.717 0.52,-0.709 0.555,-0.693C0.623,-0.663 0.656,-0.606 0.656,-0.524C0.656,-0.481 0.647,-0.446 0.63,-0.418C0.612,-0.391 0.587,-0.369 0.555,-0.353C0.583,-0.341 0.604,-0.326 0.618,-0.308C0.633,-0.289 0.64,-0.259 0.642,-0.217L0.646,-0.121C0.646,-0.094 0.649,-0.073 0.652,-0.06C0.658,-0.037 0.669,-0.023 0.684,-0.016L0.684,-0L0.564,-0C0.561,-0.006 0.559,-0.014 0.557,-0.024C0.555,-0.034 0.553,-0.053 0.552,-0.081L0.546,-0.2C0.544,-0.247 0.526,-0.278 0.494,-0.294C0.475,-0.303 0.446,-0.308 0.406,-0.308L0.185,-0.308L0.185,-0L0.088,-0L0.088,-0.717Z" style="fill:rgb(51,51,51);fill-rule:nonzero;"/>
                </g>
                <g transform="matrix(14,0,0,14,294.961,97.333)">
                    <path d="M0.152,-0.523L0.152,-0.176C0.152,-0.149 0.157,-0.127 0.165,-0.11C0.181,-0.079 0.21,-0.063 0.252,-0.063C0.314,-0.063 0.355,-0.091 0.377,-0.146C0.389,-0.175 0.396,-0.215 0.396,-0.266L0.396,-0.523L0.483,-0.523L0.483,-0L0.4,-0L0.401,-0.077C0.39,-0.057 0.376,-0.041 0.359,-0.027C0.325,0 0.285,0.014 0.237,0.014C0.162,0.014 0.111,-0.011 0.084,-0.061C0.07,-0.087 0.063,-0.123 0.063,-0.167L0.063,-0.523L0.152,-0.523Z" style="fill:rgb(51,51,51);fill-rule:nonzero;"/>
                </g>
                <g transform="matrix(14,0,0,14,302.747,97.333)">
                    <path d="M0.064,-0.523L0.148,-0.523L0.148,-0.449C0.173,-0.479 0.199,-0.501 0.227,-0.515C0.254,-0.528 0.285,-0.535 0.319,-0.535C0.393,-0.535 0.443,-0.509 0.469,-0.457C0.484,-0.429 0.491,-0.388 0.491,-0.335L0.491,-0L0.401,-0L0.401,-0.33C0.401,-0.361 0.397,-0.387 0.387,-0.407C0.372,-0.439 0.343,-0.456 0.302,-0.456C0.281,-0.456 0.264,-0.453 0.251,-0.449C0.227,-0.442 0.206,-0.428 0.188,-0.406C0.173,-0.389 0.163,-0.371 0.159,-0.353C0.155,-0.334 0.152,-0.308 0.152,-0.274L0.152,-0L0.064,-0L0.064,-0.523Z" style="fill:rgb(51,51,51);fill-rule:nonzero;"/>
                </g>
                <g transform="matrix(14,0,0,14,310.534,97.333)">
                    <path d="M0.082,-0.669L0.171,-0.669L0.171,-0.523L0.254,-0.523L0.254,-0.451L0.171,-0.451L0.171,-0.11C0.171,-0.092 0.177,-0.079 0.189,-0.073C0.196,-0.07 0.208,-0.068 0.224,-0.068C0.228,-0.068 0.232,-0.068 0.237,-0.068C0.242,-0.068 0.248,-0.069 0.254,-0.069L0.254,-0C0.244,0.003 0.234,0.005 0.223,0.006C0.212,0.008 0.2,0.008 0.188,0.008C0.146,0.008 0.119,-0.002 0.104,-0.023C0.089,-0.044 0.082,-0.071 0.082,-0.105L0.082,-0.451L0.011,-0.451L0.011,-0.523L0.082,-0.523L0.082,-0.669Z" style="fill:rgb(51,51,51);fill-rule:nonzero;"/>
                </g>
                <g transform="matrix(14,0,0,14,314.423,97.333)">
                    <path d="M0.064,-0.521L0.154,-0.521L0.154,-0L0.064,-0L0.064,-0.521ZM0.064,-0.717L0.154,-0.717L0.154,-0.618L0.064,-0.618L0.064,-0.717Z" style="fill:rgb(51,51,51);fill-rule:nonzero;"/>
                </g>
                <g transform="matrix(14,0,0,14,317.534,97.333)">
                    <path d="M0.064,-0.523L0.151,-0.523L0.151,-0.449C0.172,-0.474 0.191,-0.493 0.208,-0.505C0.237,-0.525 0.27,-0.535 0.307,-0.535C0.348,-0.535 0.382,-0.524 0.407,-0.504C0.422,-0.492 0.435,-0.475 0.446,-0.452C0.466,-0.48 0.489,-0.501 0.515,-0.514C0.542,-0.528 0.571,-0.535 0.604,-0.535C0.674,-0.535 0.722,-0.509 0.748,-0.458C0.761,-0.431 0.768,-0.394 0.768,-0.348L0.768,-0L0.677,-0L0.677,-0.363C0.677,-0.398 0.668,-0.422 0.651,-0.435C0.633,-0.448 0.612,-0.455 0.587,-0.455C0.552,-0.455 0.523,-0.443 0.498,-0.42C0.473,-0.397 0.46,-0.358 0.46,-0.304L0.46,-0L0.371,-0L0.371,-0.341C0.371,-0.377 0.367,-0.403 0.358,-0.419C0.345,-0.443 0.32,-0.456 0.284,-0.456C0.25,-0.456 0.22,-0.443 0.193,-0.417C0.166,-0.391 0.152,-0.345 0.152,-0.277L0.152,-0L0.064,-0L0.064,-0.523Z" style="fill:rgb(51,51,51);fill-rule:nonzero;"/>
                </g>
                <g transform="matrix(14,0,0,14,329.196,97.333)">
                    <path d="M0.282,-0.535C0.319,-0.535 0.355,-0.526 0.39,-0.509C0.425,-0.491 0.451,-0.469 0.47,-0.441C0.487,-0.415 0.499,-0.384 0.505,-0.349C0.51,-0.325 0.513,-0.286 0.513,-0.233L0.129,-0.233C0.131,-0.18 0.144,-0.138 0.167,-0.106C0.19,-0.074 0.227,-0.058 0.276,-0.058C0.322,-0.058 0.358,-0.073 0.386,-0.103C0.401,-0.121 0.412,-0.141 0.419,-0.164L0.505,-0.164C0.503,-0.145 0.496,-0.123 0.483,-0.1C0.47,-0.076 0.455,-0.057 0.439,-0.042C0.413,-0.016 0.38,0.002 0.34,0.011C0.319,0.016 0.295,0.019 0.269,0.019C0.203,0.019 0.148,-0.005 0.103,-0.052C0.058,-0.1 0.035,-0.166 0.035,-0.251C0.035,-0.335 0.058,-0.404 0.104,-0.456C0.149,-0.508 0.209,-0.535 0.282,-0.535ZM0.422,-0.303C0.419,-0.341 0.41,-0.372 0.397,-0.395C0.373,-0.437 0.333,-0.458 0.277,-0.458C0.236,-0.458 0.203,-0.443 0.175,-0.414C0.148,-0.385 0.133,-0.348 0.132,-0.303L0.422,-0.303Z" style="fill:rgb(51,51,51);fill-rule:nonzero;"/>
                </g>
            </g>
        </g>
        <g id="Tag:-Steps" serif:id="Tag: Steps" transform="matrix(4.59945,0,0,4.59945,221.309,96.4598)">
            <g transform="matrix(0.000853892,-1.01803,1.08168,0.000907279,3.01566,159.061)">
                <path d="M85.094,71.106L87.553,72.307L82.635,72.307L85.094,71.106Z" style="fill:rgb(181,227,236);"/>
            </g>
            <g transform="matrix(7.90449,0,0,1.73436,-569.57,-53.359)">
                <rect x="82.342" y="71.124" width="3.906" height="2.887" style="fill:rgb(181,227,236);"/>
            </g>
            <g transform="matrix(0.217417,0,0,0.217417,21.6776,52.17)">
                <g transform="matrix(14,0,0,14,284.851,97.333)">
                    <path d="M0.14,-0.231C0.142,-0.191 0.152,-0.158 0.168,-0.132C0.201,-0.085 0.257,-0.061 0.339,-0.061C0.375,-0.061 0.409,-0.066 0.438,-0.077C0.496,-0.097 0.525,-0.133 0.525,-0.185C0.525,-0.224 0.513,-0.252 0.489,-0.269C0.464,-0.285 0.425,-0.299 0.373,-0.311L0.275,-0.333C0.212,-0.347 0.167,-0.363 0.141,-0.38C0.095,-0.41 0.072,-0.455 0.072,-0.515C0.072,-0.579 0.095,-0.632 0.139,-0.673C0.184,-0.715 0.247,-0.735 0.329,-0.735C0.404,-0.735 0.468,-0.717 0.52,-0.681C0.573,-0.645 0.599,-0.587 0.599,-0.507L0.508,-0.507C0.503,-0.545 0.493,-0.575 0.477,-0.595C0.447,-0.633 0.397,-0.651 0.326,-0.651C0.268,-0.651 0.227,-0.639 0.202,-0.615C0.177,-0.591 0.165,-0.563 0.165,-0.531C0.165,-0.496 0.179,-0.47 0.208,-0.454C0.228,-0.444 0.271,-0.431 0.339,-0.415L0.439,-0.392C0.488,-0.381 0.525,-0.366 0.552,-0.347C0.597,-0.313 0.62,-0.264 0.62,-0.201C0.62,-0.121 0.591,-0.064 0.533,-0.03C0.476,0.004 0.409,0.021 0.332,0.021C0.243,0.021 0.173,-0.002 0.123,-0.047C0.072,-0.093 0.047,-0.154 0.048,-0.231L0.14,-0.231Z" style="fill:rgb(51,51,51);fill-rule:nonzero;"/>
                </g>
                <g transform="matrix(14,0,0,14,294.189,97.333)">
                    <path d="M0.082,-0.669L0.171,-0.669L0.171,-0.523L0.254,-0.523L0.254,-0.451L0.171,-0.451L0.171,-0.11C0.171,-0.092 0.177,-0.079 0.189,-0.073C0.196,-0.07 0.208,-0.068 0.224,-0.068C0.228,-0.068 0.232,-0.068 0.237,-0.068C0.242,-0.068 0.248,-0.069 0.254,-0.069L0.254,-0C0.244,0.003 0.234,0.005 0.223,0.006C0.212,0.008 0.2,0.008 0.188,0.008C0.146,0.008 0.119,-0.002 0.104,-0.023C0.089,-0.044 0.082,-0.071 0.082,-0.105L0.082,-0.451L0.011,-0.451L0.011,-0.523L0.082,-0.523L0.082,-0.669Z" style="fill:rgb(51,51,51);fill-rule:nonzero;"/>
                </g>
                <g transform="matrix(14,0,0,14,298.079,97.333)">
                    <path d="M0.282,-0.535C0.319,-0.535 0.355,-0.526 0.39,-0.509C0.425,-0.491 0.451,-0.469 0.47,-0.441C0.487,-0.415 0.499,-0.384 0.505,-0.349C0.51,-0.325 0.513,-0.286 0.513,-0.233L0.129,-0.233C0.131,-0.18 0.144,-0.138 0.167,-0.106C0.19,-0.074 0.227,-0.058 0.276,-0.058C0.322,-0.058 0.358,-0.073 0.386,-0.103C0.401,-0.121 0.412,-0.141 0.419,-0.164L0.505,-0.164C0.503,-0.145 0.496,-0.123 0.483,-0.1C0.47,-0.076 0.455,-0.057 0.439,-0.042C0.413,-0.016 0.38,0.002 0.34,0.011C0.319,0.016 0.295,0.019 0.269,0.019C0.203,0.019 0.148,-0.005 0.103,-0.052C0.058,-0.1 0.035,-0.166 0.035,-0.251C0.035,-0.335 0.058,-0.404 0.104,-0.456C0.149,-0.508 0.209,-0.535 0.282,-0.535ZM0.422,-0.303C0.419,-0.341 0.41,-0.372 0.397,-0.395C0.373,-0.437 0.333,-0.458 0.277,-0.458C0.236,-0.458 0.203,-0.443 0.175,-0.414C0.148,-0.385 0.133,-0.348 0.132,-0.303L0.422,-0.303Z" style="fill:rgb(51,51,51);fill-rule:nonzero;"/>
                </g>
                <g transform="matrix(14,0,0,14,305.865,97.333)">
                    <path d="M0.285,-0.059C0.326,-0.059 0.36,-0.076 0.387,-0.111C0.415,-0.145 0.428,-0.196 0.428,-0.265C0.428,-0.306 0.422,-0.342 0.41,-0.372C0.387,-0.43 0.346,-0.458 0.285,-0.458C0.224,-0.458 0.183,-0.428 0.16,-0.367C0.148,-0.335 0.142,-0.293 0.142,-0.243C0.142,-0.203 0.148,-0.168 0.16,-0.14C0.183,-0.086 0.225,-0.059 0.285,-0.059ZM0.058,-0.521L0.143,-0.521L0.143,-0.451C0.161,-0.475 0.18,-0.493 0.201,-0.506C0.23,-0.526 0.265,-0.536 0.305,-0.536C0.364,-0.536 0.415,-0.513 0.456,-0.468C0.497,-0.422 0.518,-0.357 0.518,-0.273C0.518,-0.159 0.488,-0.078 0.429,-0.029C0.391,0.002 0.347,0.018 0.297,0.018C0.257,0.018 0.224,0.009 0.198,-0.008C0.182,-0.018 0.165,-0.035 0.146,-0.059L0.146,0.208L0.058,0.208L0.058,-0.521Z" style="fill:rgb(51,51,51);fill-rule:nonzero;"/>
                </g>
                <g transform="matrix(14,0,0,14,313.651,97.333)">
                    <path d="M0.117,-0.164C0.119,-0.135 0.127,-0.112 0.139,-0.097C0.161,-0.068 0.199,-0.054 0.254,-0.054C0.286,-0.054 0.315,-0.061 0.34,-0.075C0.365,-0.09 0.377,-0.111 0.377,-0.141C0.377,-0.164 0.367,-0.181 0.347,-0.192C0.334,-0.2 0.309,-0.208 0.272,-0.217L0.202,-0.235C0.158,-0.246 0.125,-0.258 0.104,-0.272C0.066,-0.296 0.047,-0.329 0.047,-0.371C0.047,-0.42 0.065,-0.46 0.1,-0.491C0.136,-0.521 0.184,-0.537 0.244,-0.537C0.323,-0.537 0.38,-0.514 0.415,-0.467C0.436,-0.438 0.447,-0.406 0.446,-0.373L0.363,-0.373C0.362,-0.392 0.355,-0.41 0.342,-0.427C0.322,-0.45 0.287,-0.461 0.237,-0.461C0.204,-0.461 0.179,-0.455 0.162,-0.442C0.145,-0.43 0.136,-0.413 0.136,-0.392C0.136,-0.369 0.147,-0.351 0.17,-0.337C0.183,-0.329 0.202,-0.322 0.228,-0.316L0.286,-0.302C0.349,-0.286 0.391,-0.272 0.413,-0.257C0.447,-0.235 0.464,-0.2 0.464,-0.151C0.464,-0.105 0.446,-0.065 0.411,-0.031C0.376,0.003 0.322,0.02 0.25,0.02C0.172,0.02 0.117,0.002 0.084,-0.033C0.052,-0.068 0.035,-0.112 0.032,-0.164L0.117,-0.164Z" style="fill:rgb(51,51,51);fill-rule:nonzero;"/>
                </g>
            </g>
        </g>
        <g id="Tag:-Components" serif:id="Tag: Components" transform="matrix(4.59945,0,0,4.59945,381.377,57.2374)">
            <g transform="matrix(0.000853892,-1.01803,1.08168,0.000907279,3.01566,159.061)">
                <path d="M85.094,71.106L87.553,72.307L82.635,72.307L85.094,71.106Z" style="fill:rgb(181,227,236);"/>
            </g>
            <g transform="matrix(7.90449,0,0,1.73436,-569.569,-53.359)">
                <rect x="82.342" y="71.124" width="3.906" height="2.887" style="fill:rgb(181,227,236);"/>
            </g>
            <g transform="matrix(0.217417,0,0,0.217417,21.6776,52.17)">
                <g transform="matrix(14,0,0,14,284.851,97.333)">
                    <path d="M0.378,-0.737C0.469,-0.737 0.54,-0.713 0.59,-0.665C0.64,-0.617 0.668,-0.563 0.673,-0.502L0.579,-0.502C0.568,-0.548 0.546,-0.585 0.514,-0.612C0.482,-0.639 0.437,-0.652 0.379,-0.652C0.309,-0.652 0.252,-0.628 0.208,-0.578C0.165,-0.528 0.143,-0.452 0.143,-0.35C0.143,-0.266 0.163,-0.198 0.202,-0.145C0.241,-0.093 0.3,-0.067 0.377,-0.067C0.449,-0.067 0.504,-0.094 0.541,-0.149C0.561,-0.178 0.576,-0.216 0.585,-0.264L0.68,-0.264C0.672,-0.188 0.644,-0.125 0.596,-0.074C0.539,-0.012 0.462,0.019 0.366,0.019C0.282,0.019 0.212,-0.007 0.156,-0.057C0.081,-0.124 0.044,-0.227 0.044,-0.366C0.044,-0.472 0.072,-0.559 0.128,-0.626C0.188,-0.7 0.272,-0.737 0.378,-0.737Z" style="fill:rgb(51,51,51);fill-rule:nonzero;"/>
                </g>
                <g transform="matrix(14,0,0,14,294.961,97.333)">
                    <path d="M0.272,-0.057C0.33,-0.057 0.37,-0.079 0.392,-0.123C0.413,-0.167 0.424,-0.216 0.424,-0.27C0.424,-0.319 0.417,-0.359 0.401,-0.389C0.376,-0.437 0.333,-0.461 0.273,-0.461C0.219,-0.461 0.18,-0.441 0.156,-0.4C0.131,-0.359 0.119,-0.309 0.119,-0.251C0.119,-0.196 0.131,-0.149 0.156,-0.112C0.18,-0.075 0.219,-0.057 0.272,-0.057ZM0.275,-0.538C0.343,-0.538 0.4,-0.516 0.446,-0.471C0.493,-0.426 0.516,-0.36 0.516,-0.272C0.516,-0.188 0.496,-0.118 0.455,-0.063C0.414,-0.008 0.35,0.019 0.264,0.019C0.192,0.019 0.135,-0.005 0.092,-0.054C0.05,-0.103 0.029,-0.168 0.029,-0.25C0.029,-0.338 0.051,-0.408 0.096,-0.46C0.14,-0.512 0.2,-0.538 0.275,-0.538Z" style="fill:rgb(51,51,51);fill-rule:nonzero;"/>
                </g>
                <g transform="matrix(14,0,0,14,302.747,97.333)">
                    <path d="M0.064,-0.523L0.151,-0.523L0.151,-0.449C0.172,-0.474 0.191,-0.493 0.208,-0.505C0.237,-0.525 0.27,-0.535 0.307,-0.535C0.348,-0.535 0.382,-0.524 0.407,-0.504C0.422,-0.492 0.435,-0.475 0.446,-0.452C0.466,-0.48 0.489,-0.501 0.515,-0.514C0.542,-0.528 0.571,-0.535 0.604,-0.535C0.674,-0.535 0.722,-0.509 0.748,-0.458C0.761,-0.431 0.768,-0.394 0.768,-0.348L0.768,-0L0.677,-0L0.677,-0.363C0.677,-0.398 0.668,-0.422 0.651,-0.435C0.633,-0.448 0.612,-0.455 0.587,-0.455C0.552,-0.455 0.523,-0.443 0.498,-0.42C0.473,-0.397 0.46,-0.358 0.46,-0.304L0.46,-0L0.371,-0L0.371,-0.341C0.371,-0.377 0.367,-0.403 0.358,-0.419C0.345,-0.443 0.32,-0.456 0.284,-0.456C0.25,-0.456 0.22,-0.443 0.193,-0.417C0.166,-0.391 0.152,-0.345 0.152,-0.277L0.152,-0L0.064,-0L0.064,-0.523Z" style="fill:rgb(51,51,51);fill-rule:nonzero;"/>
                </g>
                <g transform="matrix(14,0,0,14,314.41,97.333)">
                    <path d="M0.285,-0.059C0.326,-0.059 0.36,-0.076 0.387,-0.111C0.415,-0.145 0.428,-0.196 0.428,-0.265C0.428,-0.306 0.422,-0.342 0.41,-0.372C0.387,-0.43 0.346,-0.458 0.285,-0.458C0.224,-0.458 0.183,-0.428 0.16,-0.367C0.148,-0.335 0.142,-0.293 0.142,-0.243C0.142,-0.203 0.148,-0.168 0.16,-0.14C0.183,-0.086 0.225,-0.059 0.285,-0.059ZM0.058,-0.521L0.143,-0.521L0.143,-0.451C0.161,-0.475 0.18,-0.493 0.201,-0.506C0.23,-0.526 0.265,-0.536 0.305,-0.536C0.364,-0.536 0.415,-0.513 0.456,-0.468C0.497,-0.422 0.518,-0.357 0.518,-0.273C0.518,-0.159 0.488,-0.078 0.429,-0.029C0.391,0.002 0.347,0.018 0.297,0.018C0.257,0.018 0.224,0.009 0.198,-0.008C0.182,-0.018 0.165,-0.035 0.146,-0.059L0.146,0.208L0.058,0.208L0.058,-0.521Z" style="fill:rgb(51,51,51);fill-rule:nonzero;"/>
                </g>
                <g transform="matrix(14,0,0,14,322.196,97.333)">
                    <path d="M0.272,-0.057C0.33,-0.057 0.37,-0.079 0.392,-0.123C0.413,-0.167 0.424,-0.216 0.424,-0.27C0.424,-0.319 0.417,-0.359 0.401,-0.389C0.376,-0.437 0.333,-0.461 0.273,-0.461C0.219,-0.461 0.18,-0.441 0.156,-0.4C0.131,-0.359 0.119,-0.309 0.119,-0.251C0.119,-0.196 0.131,-0.149 0.156,-0.112C0.18,-0.075 0.219,-0.057 0.272,-0.057ZM0.275,-0.538C0.343,-0.538 0.4,-0.516 0.446,-0.471C0.493,-0.426 0.516,-0.36 0.516,-0.272C0.516,-0.188 0.496,-0.118 0.455,-0.063C0.414,-0.008 0.35,0.019 0.264,0.019C0.192,0.019 0.135,-0.005 0.092,-0.054C0.05,-0.103 0.029,-0.168 0.029,-0.25C0.029,-0.338 0.051,-0.408 0.096,-0.46C0.14,-0.512 0.2,-0.538 0.275,-0.538Z" style="fill:rgb(51,51,51);fill-rule:nonzero;"/>
                </g>
                <g transform="matrix(14,0,0,14,329.982,97.333)">
                    <path d="M0.064,-0.523L0.148,-0.523L0.148,-0.449C0.173,-0.479 0.199,-0.501 0.227,-0.515C0.254,-0.528 0.285,-0.535 0.319,-0.535C0.393,-0.535 0.443,-0.509 0.469,-0.457C0.484,-0.429 0.491,-0.388 0.491,-0.335L0.491,-0L0.401,-0L0.401,-0.33C0.401,-0.361 0.397,-0.387 0.387,-0.407C0.372,-0.439 0.343,-0.456 0.302,-0.456C0.281,-0.456 0.264,-0.453 0.251,-0.449C0.227,-0.442 0.206,-0.428 0.188,-0.406C0.173,-0.389 0.163,-0.371 0.159,-0.353C0.155,-0.334 0.152,-0.308 0.152,-0.274L0.152,-0L0.064,-0L0.064,-0.523Z" style="fill:rgb(51,51,51);fill-rule:nonzero;"/>
                </g>
                <g transform="matrix(14,0,0,14,337.768,97.333)">
                    <path d="M0.282,-0.535C0.319,-0.535 0.355,-0.526 0.39,-0.509C0.425,-0.491 0.451,-0.469 0.47,-0.441C0.487,-0.415 0.499,-0.384 0.505,-0.349C0.51,-0.325 0.513,-0.286 0.513,-0.233L0.129,-0.233C0.131,-0.18 0.144,-0.138 0.167,-0.106C0.19,-0.074 0.227,-0.058 0.276,-0.058C0.322,-0.058 0.358,-0.073 0.386,-0.103C0.401,-0.121 0.412,-0.141 0.419,-0.164L0.505,-0.164C0.503,-0.145 0.496,-0.123 0.483,-0.1C0.47,-0.076 0.455,-0.057 0.439,-0.042C0.413,-0.016 0.38,0.002 0.34,0.011C0.319,0.016 0.295,0.019 0.269,0.019C0.203,0.019 0.148,-0.005 0.103,-0.052C0.058,-0.1 0.035,-0.166 0.035,-0.251C0.035,-0.335 0.058,-0.404 0.104,-0.456C0.149,-0.508 0.209,-0.535 0.282,-0.535ZM0.422,-0.303C0.419,-0.341 0.41,-0.372 0.397,-0.395C0.373,-0.437 0.333,-0.458 0.277,-0.458C0.236,-0.458 0.203,-0.443 0.175,-0.414C0.148,-0.385 0.133,-0.348 0.132,-0.303L0.422,-0.303Z" style="fill:rgb(51,51,51);fill-rule:nonzero;"/>
                </g>
                <g transform="matrix(14,0,0,14,345.554,97.333)">
                    <path d="M0.064,-0.523L0.148,-0.523L0.148,-0.449C0.173,-0.479 0.199,-0.501 0.227,-0.515C0.254,-0.528 0.285,-0.535 0.319,-0.535C0.393,-0.535 0.443,-0.509 0.469,-0.457C0.484,-0.429 0.491,-0.388 0.491,-0.335L0.491,-0L0.401,-0L0.401,-0.33C0.401,-0.361 0.397,-0.387 0.387,-0.407C0.372,-0.439 0.343,-0.456 0.302,-0.456C0.281,-0.456 0.264,-0.453 0.251,-0.449C0.227,-0.442 0.206,-0.428 0.188,-0.406C0.173,-0.389 0.163,-0.371 0.159,-0.353C0.155,-0.334 0.152,-0.308 0.152,-0.274L0.152,-0L0.064,-0L0.064,-0.523Z" style="fill:rgb(51,51,51);fill-rule:nonzero;"/>
                </g>
                <g transform="matrix(14,0,0,14,353.34,97.333)">
                    <path d="M0.082,-0.669L0.171,-0.669L0.171,-0.523L0.254,-0.523L0.254,-0.451L0.171,-0.451L0.171,-0.11C0.171,-0.092 0.177,-0.079 0.189,-0.073C0.196,-0.07 0.208,-0.068 0.224,-0.068C0.228,-0.068 0.232,-0.068 0.237,-0.068C0.242,-0.068 0.248,-0.069 0.254,-0.069L0.254,-0C0.244,0.003 0.234,0.005 0.223,0.006C0.212,0.008 0.2,0.008 0.188,0.008C0.146,0.008 0.119,-0.002 0.104,-0.023C0.089,-0.044 0.082,-0.071 0.082,-0.105L0.082,-0.451L0.011,-0.451L0.011,-0.523L0.082,-0.523L0.082,-0.669Z" style="fill:rgb(51,51,51);fill-rule:nonzero;"/>
                </g>
                <g transform="matrix(14,0,0,14,357.23,97.333)">
                    <path d="M0.117,-0.164C0.119,-0.135 0.127,-0.112 0.139,-0.097C0.161,-0.068 0.199,-0.054 0.254,-0.054C0.286,-0.054 0.315,-0.061 0.34,-0.075C0.365,-0.09 0.377,-0.111 0.377,-0.141C0.377,-0.164 0.367,-0.181 0.347,-0.192C0.334,-0.2 0.309,-0.208 0.272,-0.217L0.202,-0.235C0.158,-0.246 0.125,-0.258 0.104,-0.272C0.066,-0.296 0.047,-0.329 0.047,-0.371C0.047,-0.42 0.065,-0.46 0.1,-0.491C0.136,-0.521 0.184,-0.537 0.244,-0.537C0.323,-0.537 0.38,-0.514 0.415,-0.467C0.436,-0.438 0.447,-0.406 0.446,-0.373L0.363,-0.373C0.362,-0.392 0.355,-0.41 0.342,-0.427C0.322,-0.45 0.287,-0.461 0.237,-0.461C0.204,-0.461 0.179,-0.455 0.162,-0.442C0.145,-0.43 0.136,-0.413 0.136,-0.392C0.136,-0.369 0.147,-0.351 0.17,-0.337C0.183,-0.329 0.202,-0.322 0.228,-0.316L0.286,-0.302C0.349,-0.286 0.391,-0.272 0.413,-0.257C0.447,-0.235 0.464,-0.2 0.464,-0.151C0.464,-0.105 0.446,-0.065 0.411,-0.031C0.376,0.003 0.322,0.02 0.25,0.02C0.172,0.02 0.117,0.002 0.084,-0.033C0.052,-0.068 0.035,-0.112 0.032,-0.164L0.117,-0.164Z" style="fill:rgb(51,51,51);fill-rule:nonzero;"/>
                </g>
            </g>
        </g>
        <g id="Tag:-Services" serif:id="Tag: Services" transform="matrix(4.59945,0,0,4.59945,382.299,96.4598)">
            <g transform="matrix(0.000853892,-1.01803,1.08168,0.000907279,2.81298,159.061)">
                <path d="M85.094,71.106L87.553,72.307L82.635,72.307L85.094,71.106Z" style="fill:rgb(181,227,236);"/>
            </g>
            <g transform="matrix(7.90449,0,0,1.73436,-569.772,-53.359)">
                <rect x="82.342" y="71.124" width="3.906" height="2.887" style="fill:rgb(181,227,236);"/>
            </g>
            <g transform="matrix(0.217417,0,0,0.217417,21.6776,52.17)">
                <g transform="matrix(14,0,0,14,284.851,97.333)">
                    <path d="M0.14,-0.231C0.142,-0.191 0.152,-0.158 0.168,-0.132C0.201,-0.085 0.257,-0.061 0.339,-0.061C0.375,-0.061 0.409,-0.066 0.438,-0.077C0.496,-0.097 0.525,-0.133 0.525,-0.185C0.525,-0.224 0.513,-0.252 0.489,-0.269C0.464,-0.285 0.425,-0.299 0.373,-0.311L0.275,-0.333C0.212,-0.347 0.167,-0.363 0.141,-0.38C0.095,-0.41 0.072,-0.455 0.072,-0.515C0.072,-0.579 0.095,-0.632 0.139,-0.673C0.184,-0.715 0.247,-0.735 0.329,-0.735C0.404,-0.735 0.468,-0.717 0.52,-0.681C0.573,-0.645 0.599,-0.587 0.599,-0.507L0.508,-0.507C0.503,-0.545 0.493,-0.575 0.477,-0.595C0.447,-0.633 0.397,-0.651 0.326,-0.651C0.268,-0.651 0.227,-0.639 0.202,-0.615C0.177,-0.591 0.165,-0.563 0.165,-0.531C0.165,-0.496 0.179,-0.47 0.208,-0.454C0.228,-0.444 0.271,-0.431 0.339,-0.415L0.439,-0.392C0.488,-0.381 0.525,-0.366 0.552,-0.347C0.597,-0.313 0.62,-0.264 0.62,-0.201C0.62,-0.121 0.591,-0.064 0.533,-0.03C0.476,0.004 0.409,0.021 0.332,0.021C0.243,0.021 0.173,-0.002 0.123,-0.047C0.072,-0.093 0.047,-0.154 0.048,-0.231L0.14,-0.231Z" style="fill:rgb(51,51,51);fill-rule:nonzero;"/>
                </g>
                <g transform="matrix(14,0,0,14,294.189,97.333)">
                    <path d="M0.282,-0.535C0.319,-0.535 0.355,-0.526 0.39,-0.509C0.425,-0.491 0.451,-0.469 0.47,-0.441C0.487,-0.415 0.499,-0.384 0.505,-0.349C0.51,-0.325 0.513,-0.286 0.513,-0.233L0.129,-0.233C0.131,-0.18 0.144,-0.138 0.167,-0.106C0.19,-0.074 0.227,-0.058 0.276,-0.058C0.322,-0.058 0.358,-0.073 0.386,-0.103C0.401,-0.121 0.412,-0.141 0.419,-0.164L0.505,-0.164C0.503,-0.145 0.496,-0.123 0.483,-0.1C0.47,-0.076 0.455,-0.057 0.439,-0.042C0.413,-0.016 0.38,0.002 0.34,0.011C0.319,0.016 0.295,0.019 0.269,0.019C0.203,0.019 0.148,-0.005 0.103,-0.052C0.058,-0.1 0.035,-0.166 0.035,-0.251C0.035,-0.335 0.058,-0.404 0.104,-0.456C0.149,-0.508 0.209,-0.535 0.282,-0.535ZM0.422,-0.303C0.419,-0.341 0.41,-0.372 0.397,-0.395C0.373,-0.437 0.333,-0.458 0.277,-0.458C0.236,-0.458 0.203,-0.443 0.175,-0.414C0.148,-0.385 0.133,-0.348 0.132,-0.303L0.422,-0.303Z" style="fill:rgb(51,51,51);fill-rule:nonzero;"/>
                </g>
                <g transform="matrix(14,0,0,14,301.975,97.333)">
                    <path d="M0.067,-0.523L0.15,-0.523L0.15,-0.433C0.157,-0.45 0.174,-0.472 0.201,-0.497C0.227,-0.522 0.258,-0.535 0.293,-0.535C0.295,-0.535 0.297,-0.535 0.301,-0.534C0.305,-0.534 0.312,-0.533 0.321,-0.532L0.321,-0.439C0.316,-0.44 0.311,-0.441 0.307,-0.441C0.302,-0.442 0.298,-0.442 0.292,-0.442C0.248,-0.442 0.214,-0.428 0.19,-0.399C0.167,-0.371 0.155,-0.338 0.155,-0.301L0.155,-0L0.067,-0L0.067,-0.523Z" style="fill:rgb(51,51,51);fill-rule:nonzero;"/>
                </g>
                <g transform="matrix(14,0,0,14,306.637,97.333)">
                    <path d="M0.107,-0.523L0.247,-0.097L0.393,-0.523L0.489,-0.523L0.292,-0L0.198,-0L0.005,-0.523L0.107,-0.523Z" style="fill:rgb(51,51,51);fill-rule:nonzero;"/>
                </g>
                <g transform="matrix(14,0,0,14,313.637,97.333)">
                    <path d="M0.064,-0.521L0.154,-0.521L0.154,-0L0.064,-0L0.064,-0.521ZM0.064,-0.717L0.154,-0.717L0.154,-0.618L0.064,-0.618L0.064,-0.717Z" style="fill:rgb(51,51,51);fill-rule:nonzero;"/>
                </g>
                <g transform="matrix(14,0,0,14,316.747,97.333)">
                    <path d="M0.266,-0.538C0.325,-0.538 0.373,-0.524 0.41,-0.495C0.447,-0.466 0.469,-0.417 0.477,-0.347L0.391,-0.347C0.386,-0.379 0.374,-0.406 0.355,-0.427C0.337,-0.449 0.307,-0.459 0.266,-0.459C0.21,-0.459 0.17,-0.432 0.146,-0.377C0.13,-0.342 0.123,-0.298 0.123,-0.246C0.123,-0.194 0.134,-0.15 0.156,-0.114C0.178,-0.078 0.213,-0.06 0.26,-0.06C0.297,-0.06 0.326,-0.071 0.347,-0.094C0.368,-0.116 0.383,-0.146 0.391,-0.185L0.477,-0.185C0.467,-0.116 0.442,-0.065 0.403,-0.033C0.364,-0.001 0.314,0.015 0.253,0.015C0.185,0.015 0.131,-0.01 0.09,-0.06C0.049,-0.11 0.029,-0.172 0.029,-0.247C0.029,-0.339 0.051,-0.41 0.096,-0.461C0.14,-0.513 0.197,-0.538 0.266,-0.538Z" style="fill:rgb(51,51,51);fill-rule:nonzero;"/>
                </g>
                <g transform="matrix(14,0,0,14,323.747,97.333)">
                    <path d="M0.282,-0.535C0.319,-0.535 0.355,-0.526 0.39,-0.509C0.425,-0.491 0.451,-0.469 0.47,-0.441C0.487,-0.415 0.499,-0.384 0.505,-0.349C0.51,-0.325 0.513,-0.286 0.513,-0.233L0.129,-0.233C0.131,-0.18 0.144,-0.138 0.167,-0.106C0.19,-0.074 0.227,-0.058 0.276,-0.058C0.322,-0.058 0.358,-0.073 0.386,-0.103C0.401,-0.121 0.412,-0.141 0.419,-0.164L0.505,-0.164C0.503,-0.145 0.496,-0.123 0.483,-0.1C0.47,-0.076 0.455,-0.057 0.439,-0.042C0.413,-0.016 0.38,0.002 0.34,0.011C0.319,0.016 0.295,0.019 0.269,0.019C0.203,0.019 0.148,-0.005 0.103,-0.052C0.058,-0.1 0.035,-0.166 0.035,-0.251C0.035,-0.335 0.058,-0.404 0.104,-0.456C0.149,-0.508 0.209,-0.535 0.282,-0.535ZM0.422,-0.303C0.419,-0.341 0.41,-0.372 0.397,-0.395C0.373,-0.437 0.333,-0.458 0.277,-0.458C0.236,-0.458 0.203,-0.443 0.175,-0.414C0.148,-0.385 0.133,-0.348 0.132,-0.303L0.422,-0.303Z" style="fill:rgb(51,51,51);fill-rule:nonzero;"/>
                </g>
                <g transform="matrix(14,0,0,14,331.534,97.333)">
                    <path d="M0.117,-0.164C0.119,-0.135 0.127,-0.112 0.139,-0.097C0.161,-0.068 0.199,-0.054 0.254,-0.054C0.286,-0.054 0.315,-0.061 0.34,-0.075C0.365,-0.09 0.377,-0.111 0.377,-0.141C0.377,-0.164 0.367,-0.181 0.347,-0.192C0.334,-0.2 0.309,-0.208 0.272,-0.217L0.202,-0.235C0.158,-0.246 0.125,-0.258 0.104,-0.272C0.066,-0.296 0.047,-0.329 0.047,-0.371C0.047,-0.42 0.065,-0.46 0.1,-0.491C0.136,-0.521 0.184,-0.537 0.244,-0.537C0.323,-0.537 0.38,-0.514 0.415,-0.467C0.436,-0.438 0.447,-0.406 0.446,-0.373L0.363,-0.373C0.362,-0.392 0.355,-0.41 0.342,-0.427C0.322,-0.45 0.287,-0.461 0.237,-0.461C0.204,-0.461 0.179,-0.455 0.162,-0.442C0.145,-0.43 0.136,-0.413 0.136,-0.392C0.136,-0.369 0.147,-0.351 0.17,-0.337C0.183,-0.329 0.202,-0.322 0.228,-0.316L0.286,-0.302C0.349,-0.286 0.391,-0.272 0.413,-0.257C0.447,-0.235 0.464,-0.2 0.464,-0.151C0.464,-0.105 0.446,-0.065 0.411,-0.031C0.376,0.003 0.322,0.02 0.25,0.02C0.172,0.02 0.117,0.002 0.084,-0.033C0.052,-0.068 0.035,-0.112 0.032,-0.164L0.117,-0.164Z" style="fill:rgb(51,51,51);fill-rule:nonzero;"/>
                </g>
            </g>
        </g>
        <g id="Tag:-Trigger" serif:id="Tag: Trigger" transform="matrix(4.59945,0,0,4.59945,61.3493,57.2374)">
            <g transform="matrix(0.000853892,-1.01803,1.08168,0.000907279,3.01566,159.061)">
                <path d="M85.094,71.106L87.553,72.307L82.635,72.307L85.094,71.106Z" style="fill:rgb(181,227,236);"/>
            </g>
            <g transform="matrix(7.90449,0,0,1.73436,-569.57,-53.359)">
                <rect x="82.342" y="71.124" width="3.906" height="2.887" style="fill:rgb(181,227,236);"/>
            </g>
            <g transform="matrix(0.217417,0,0,0.217417,21.6776,52.17)">
                <g transform="matrix(14,0,0,14,284.851,97.333)">
                    <path d="M0.598,-0.717L0.598,-0.632L0.356,-0.632L0.356,-0L0.258,-0L0.258,-0.632L0.016,-0.632L0.016,-0.717L0.598,-0.717Z" style="fill:rgb(51,51,51);fill-rule:nonzero;"/>
                </g>
                <g transform="matrix(14,0,0,14,292.89,97.333)">
                    <path d="M0.067,-0.523L0.15,-0.523L0.15,-0.433C0.157,-0.45 0.174,-0.472 0.201,-0.497C0.227,-0.522 0.258,-0.535 0.293,-0.535C0.295,-0.535 0.297,-0.535 0.301,-0.534C0.305,-0.534 0.312,-0.533 0.321,-0.532L0.321,-0.439C0.316,-0.44 0.311,-0.441 0.307,-0.441C0.302,-0.442 0.298,-0.442 0.292,-0.442C0.248,-0.442 0.214,-0.428 0.19,-0.399C0.167,-0.371 0.155,-0.338 0.155,-0.301L0.155,-0L0.067,-0L0.067,-0.523Z" style="fill:rgb(51,51,51);fill-rule:nonzero;"/>
                </g>
                <g transform="matrix(14,0,0,14,297.552,97.333)">
                    <path d="M0.064,-0.521L0.154,-0.521L0.154,-0L0.064,-0L0.064,-0.521ZM0.064,-0.717L0.154,-0.717L0.154,-0.618L0.064,-0.618L0.064,-0.717Z" style="fill:rgb(51,51,51);fill-rule:nonzero;"/>
                </g>
                <g transform="matrix(14,0,0,14,300.662,97.333)">
                    <path d="M0.249,-0.532C0.29,-0.532 0.326,-0.522 0.356,-0.502C0.373,-0.491 0.39,-0.474 0.407,-0.452L0.407,-0.518L0.488,-0.518L0.488,-0.042C0.488,0.024 0.479,0.076 0.459,0.115C0.423,0.186 0.354,0.221 0.252,0.221C0.196,0.221 0.149,0.209 0.11,0.183C0.072,0.158 0.05,0.119 0.046,0.065L0.135,0.065C0.139,0.088 0.148,0.106 0.161,0.119C0.181,0.139 0.212,0.148 0.254,0.148C0.322,0.148 0.366,0.125 0.387,0.077C0.399,0.049 0.405,-0.001 0.404,-0.073C0.386,-0.046 0.365,-0.026 0.34,-0.013C0.316,-0 0.283,0.006 0.242,0.006C0.186,0.006 0.136,-0.014 0.094,-0.054C0.051,-0.094 0.03,-0.161 0.03,-0.253C0.03,-0.341 0.051,-0.409 0.094,-0.458C0.137,-0.508 0.188,-0.532 0.249,-0.532ZM0.407,-0.264C0.407,-0.328 0.394,-0.376 0.367,-0.408C0.34,-0.439 0.306,-0.455 0.265,-0.455C0.203,-0.455 0.161,-0.426 0.138,-0.368C0.126,-0.337 0.12,-0.296 0.12,-0.246C0.12,-0.187 0.132,-0.142 0.156,-0.112C0.18,-0.081 0.212,-0.065 0.252,-0.065C0.316,-0.065 0.36,-0.094 0.386,-0.151C0.4,-0.183 0.407,-0.221 0.407,-0.264Z" style="fill:rgb(51,51,51);fill-rule:nonzero;"/>
                </g>
                <g transform="matrix(14,0,0,14,308.449,97.333)">
                    <path d="M0.249,-0.532C0.29,-0.532 0.326,-0.522 0.356,-0.502C0.373,-0.491 0.39,-0.474 0.407,-0.452L0.407,-0.518L0.488,-0.518L0.488,-0.042C0.488,0.024 0.479,0.076 0.459,0.115C0.423,0.186 0.354,0.221 0.252,0.221C0.196,0.221 0.149,0.209 0.11,0.183C0.072,0.158 0.05,0.119 0.046,0.065L0.135,0.065C0.139,0.088 0.148,0.106 0.161,0.119C0.181,0.139 0.212,0.148 0.254,0.148C0.322,0.148 0.366,0.125 0.387,0.077C0.399,0.049 0.405,-0.001 0.404,-0.073C0.386,-0.046 0.365,-0.026 0.34,-0.013C0.316,-0 0.283,0.006 0.242,0.006C0.186,0.006 0.136,-0.014 0.094,-0.054C0.051,-0.094 0.03,-0.161 0.03,-0.253C0.03,-0.341 0.051,-0.409 0.094,-0.458C0.137,-0.508 0.188,-0.532 0.249,-0.532ZM0.407,-0.264C0.407,-0.328 0.394,-0.376 0.367,-0.408C0.34,-0.439 0.306,-0.455 0.265,-0.455C0.203,-0.455 0.161,-0.426 0.138,-0.368C0.126,-0.337 0.12,-0.296 0.12,-0.246C0.12,-0.187 0.132,-0.142 0.156,-0.112C0.18,-0.081 0.212,-0.065 0.252,-0.065C0.316,-0.065 0.36,-0.094 0.386,-0.151C0.4,-0.183 0.407,-0.221 0.407,-0.264Z" style="fill:rgb(51,51,51);fill-rule:nonzero;"/>
                </g>
                <g transform="matrix(14,0,0,14,316.235,97.333)">
                    <path d="M0.282,-0.535C0.319,-0.535 0.355,-0.526 0.39,-0.509C0.425,-0.491 0.451,-0.469 0.47,-0.441C0.487,-0.415 0.499,-0.384 0.505,-0.349C0.51,-0.325 0.513,-0.286 0.513,-0.233L0.129,-0.233C0.131,-0.18 0.144,-0.138 0.167,-0.106C0.19,-0.074 0.227,-0.058 0.276,-0.058C0.322,-0.058 0.358,-0.073 0.386,-0.103C0.401,-0.121 0.412,-0.141 0.419,-0.164L0.505,-0.164C0.503,-0.145 0.496,-0.123 0.483,-0.1C0.47,-0.076 0.455,-0.057 0.439,-0.042C0.413,-0.016 0.38,0.002 0.34,0.011C0.319,0.016 0.295,0.019 0.269,0.019C0.203,0.019 0.148,-0.005 0.103,-0.052C0.058,-0.1 0.035,-0.166 0.035,-0.251C0.035,-0.335 0.058,-0.404 0.104,-0.456C0.149,-0.508 0.209,-0.535 0.282,-0.535ZM0.422,-0.303C0.419,-0.341 0.41,-0.372 0.397,-0.395C0.373,-0.437 0.333,-0.458 0.277,-0.458C0.236,-0.458 0.203,-0.443 0.175,-0.414C0.148,-0.385 0.133,-0.348 0.132,-0.303L0.422,-0.303Z" style="fill:rgb(51,51,51);fill-rule:nonzero;"/>
                </g>
                <g transform="matrix(14,0,0,14,324.021,97.333)">
                    <path d="M0.067,-0.523L0.15,-0.523L0.15,-0.433C0.157,-0.45 0.174,-0.472 0.201,-0.497C0.227,-0.522 0.258,-0.535 0.293,-0.535C0.295,-0.535 0.297,-0.535 0.301,-0.534C0.305,-0.534 0.312,-0.533 0.321,-0.532L0.321,-0.439C0.316,-0.44 0.311,-0.441 0.307,-0.441C0.302,-0.442 0.298,-0.442 0.292,-0.442C0.248,-0.442 0.214,-0.428 0.19,-0.399C0.167,-0.371 0.155,-0.338 0.155,-0.301L0.155,-0L0.067,-0L0.067,-0.523Z" style="fill:rgb(51,51,51);fill-rule:nonzero;"/>
                </g>
            </g>
        </g>
    </g>
</svg>
