<?xml version="1.0" encoding="UTF-8" standalone="no"?>
<!DOCTYPE svg PUBLIC "-//W3C//DTD SVG 1.1//EN" "http://www.w3.org/Graphics/SVG/1.1/DTD/svg11.dtd">
<svg width="100%" height="100%" viewBox="0 0 970 80" version="1.1" xmlns="http://www.w3.org/2000/svg" xmlns:xlink="http://www.w3.org/1999/xlink" xml:space="preserve" xmlns:serif="http://www.serif.com/" style="fill-rule:evenodd;clip-rule:evenodd;stroke-linejoin:round;stroke-miterlimit:2;">
    <g id="Services" transform="matrix(1,0,0,1,-100,-280.174)">
        <g transform="matrix(0.8545,0,0,1.01705,69.4127,193.587)">
            <rect x="35.796" y="85.135" width="175.541" height="78.659" style="fill:rgb(175,220,205);"/>
        </g>
        <g transform="matrix(4.67127,0,0,1.01705,82.7894,193.587)">
            <rect x="35.796" y="85.135" width="175.541" height="78.659" style="fill:rgb(229,255,242);"/>
        </g>
        <g transform="matrix(1,0,0,1,21.7813,247.233)">
            <g transform="matrix(16,0,0,16,120.355,78.8299)">
                <path d="M0.518,-0.529L0.567,-0.633C0.502,-0.676 0.413,-0.705 0.322,-0.705C0.17,-0.705 0.067,-0.63 0.067,-0.51C0.067,-0.261 0.445,-0.348 0.445,-0.192C0.445,-0.138 0.396,-0.107 0.314,-0.107C0.239,-0.107 0.149,-0.143 0.077,-0.209L0.026,-0.107C0.098,-0.041 0.202,0.004 0.312,0.004C0.466,0.004 0.576,-0.073 0.576,-0.198C0.577,-0.45 0.199,-0.368 0.199,-0.521C0.199,-0.568 0.244,-0.594 0.313,-0.594C0.366,-0.594 0.442,-0.575 0.518,-0.529Z" style="fill-rule:nonzero;"/>
            </g>
            <g transform="matrix(16,0,0,16,130.307,78.8299)">
                <path d="M0.304,-0.536C0.146,-0.535 0.035,-0.426 0.035,-0.265C0.035,-0.105 0.143,0.004 0.307,0.004C0.399,0.004 0.475,-0.029 0.527,-0.086L0.466,-0.151C0.427,-0.111 0.374,-0.089 0.316,-0.089C0.232,-0.089 0.169,-0.14 0.151,-0.222L0.553,-0.222C0.567,-0.414 0.491,-0.536 0.304,-0.536ZM0.149,-0.306C0.161,-0.391 0.221,-0.444 0.305,-0.444C0.392,-0.444 0.449,-0.392 0.453,-0.306L0.149,-0.306Z" style="fill-rule:nonzero;"/>
            </g>
            <g transform="matrix(16,0,0,16,139.715,78.8299)">
                <path d="M0.2,-0.426L0.2,-0.532L0.085,-0.532L0.085,-0L0.2,-0L0.2,-0.278C0.209,-0.369 0.277,-0.432 0.384,-0.426L0.384,-0.536C0.3,-0.536 0.236,-0.498 0.2,-0.426Z" style="fill-rule:nonzero;"/>
            </g>
            <g transform="matrix(16,0,0,16,146.435,78.8299)">
                <path d="M0.001,-0.532L0.207,-0L0.326,-0L0.53,-0.532L0.415,-0.532L0.269,-0.113L0.121,-0.532L0.001,-0.532Z" style="fill-rule:nonzero;"/>
            </g>
            <g transform="matrix(16,0,0,16,154.835,78.8299)">
                <path d="M0.142,-0.753C0.104,-0.753 0.075,-0.724 0.075,-0.684C0.075,-0.645 0.104,-0.616 0.142,-0.616C0.18,-0.616 0.209,-0.645 0.209,-0.684C0.209,-0.724 0.18,-0.753 0.142,-0.753ZM0.085,-0.532L0.085,-0L0.199,-0L0.199,-0.532L0.085,-0.532Z" style="fill-rule:nonzero;"/>
            </g>
            <g transform="matrix(16,0,0,16,159.379,78.8299)">
                <path d="M0.46,-0.375L0.523,-0.449C0.474,-0.505 0.399,-0.536 0.303,-0.536C0.145,-0.536 0.035,-0.426 0.035,-0.265C0.035,-0.105 0.145,0.004 0.303,0.004C0.404,0.004 0.481,-0.032 0.529,-0.095L0.465,-0.159C0.429,-0.117 0.375,-0.095 0.308,-0.095C0.216,-0.095 0.15,-0.164 0.15,-0.265C0.15,-0.366 0.216,-0.435 0.308,-0.435C0.372,-0.436 0.423,-0.413 0.46,-0.375Z" style="fill-rule:nonzero;"/>
            </g>
            <g transform="matrix(16,0,0,16,168.067,78.8299)">
                <path d="M0.304,-0.536C0.146,-0.535 0.035,-0.426 0.035,-0.265C0.035,-0.105 0.143,0.004 0.307,0.004C0.399,0.004 0.475,-0.029 0.527,-0.086L0.466,-0.151C0.427,-0.111 0.374,-0.089 0.316,-0.089C0.232,-0.089 0.169,-0.14 0.151,-0.222L0.553,-0.222C0.567,-0.414 0.491,-0.536 0.304,-0.536ZM0.149,-0.306C0.161,-0.391 0.221,-0.444 0.305,-0.444C0.392,-0.444 0.449,-0.392 0.453,-0.306L0.149,-0.306Z" style="fill-rule:nonzero;"/>
            </g>
            <g transform="matrix(16,0,0,16,177.475,78.8299)">
                <path d="M0.388,-0.398L0.43,-0.483C0.382,-0.517 0.311,-0.537 0.244,-0.537C0.142,-0.537 0.048,-0.491 0.048,-0.383C0.047,-0.191 0.327,-0.252 0.327,-0.143C0.327,-0.103 0.289,-0.086 0.24,-0.086C0.182,-0.086 0.108,-0.111 0.062,-0.152L0.021,-0.07C0.074,-0.022 0.157,0.004 0.235,0.004C0.342,0.004 0.439,-0.045 0.439,-0.154C0.44,-0.347 0.157,-0.294 0.157,-0.392C0.157,-0.43 0.19,-0.445 0.235,-0.445C0.282,-0.445 0.341,-0.427 0.388,-0.398Z" style="fill-rule:nonzero;"/>
            </g>
        </g>
        <g id="Tag:-Provider" serif:id="Tag: Provider" transform="matrix(4.59945,0,0,4.59945,-98.6595,-33.4501)">
            <g transform="matrix(0.000853892,-1.01803,1.08168,0.000907279,3.01566,159.061)">
                <path d="M85.094,71.106L87.553,72.307L82.635,72.307L85.094,71.106Z" style="fill:rgb(175,220,205);"/>
            </g>
            <g transform="matrix(7.90449,0,0,1.73436,-569.57,-53.359)">
                <rect x="82.342" y="71.124" width="3.906" height="2.887" style="fill:rgb(175,220,205);"/>
            </g>
            <g transform="matrix(0.217417,0,0,0.217417,21.6776,52.17)">
                <g transform="matrix(14,0,0,14,284.851,97.333)">
                    <path d="M0.371,-0.7L0.092,-0.7L0.092,-0L0.21,-0L0.21,-0.211L0.371,-0.211C0.547,-0.211 0.648,-0.303 0.648,-0.461C0.648,-0.613 0.547,-0.7 0.371,-0.7ZM0.366,-0.317L0.21,-0.317L0.21,-0.594L0.366,-0.594C0.474,-0.594 0.535,-0.55 0.535,-0.458C0.535,-0.363 0.474,-0.317 0.366,-0.317Z" style="fill:rgb(51,51,51);fill-rule:nonzero;"/>
                </g>
                <g transform="matrix(14,0,0,14,294.273,97.333)">
                    <path d="M0.2,-0.426L0.2,-0.532L0.085,-0.532L0.085,-0L0.2,-0L0.2,-0.278C0.209,-0.369 0.277,-0.432 0.384,-0.426L0.384,-0.536C0.3,-0.536 0.236,-0.498 0.2,-0.426Z" style="fill:rgb(51,51,51);fill-rule:nonzero;"/>
                </g>
                <g transform="matrix(14,0,0,14,299.789,97.333)">
                    <path d="M0.313,-0.536C0.148,-0.536 0.035,-0.427 0.035,-0.267C0.035,-0.106 0.148,0.004 0.313,0.004C0.477,0.004 0.59,-0.106 0.59,-0.267C0.59,-0.427 0.477,-0.536 0.313,-0.536ZM0.313,-0.438C0.408,-0.438 0.475,-0.367 0.475,-0.265C0.475,-0.162 0.408,-0.092 0.313,-0.092C0.217,-0.092 0.15,-0.162 0.15,-0.265C0.15,-0.367 0.217,-0.438 0.313,-0.438Z" style="fill:rgb(51,51,51);fill-rule:nonzero;"/>
                </g>
                <g transform="matrix(14,0,0,14,308.259,97.333)">
                    <path d="M0.001,-0.532L0.207,-0L0.326,-0L0.53,-0.532L0.415,-0.532L0.269,-0.113L0.121,-0.532L0.001,-0.532Z" style="fill:rgb(51,51,51);fill-rule:nonzero;"/>
                </g>
                <g transform="matrix(14,0,0,14,315.609,97.333)">
                    <path d="M0.142,-0.753C0.104,-0.753 0.075,-0.724 0.075,-0.684C0.075,-0.645 0.104,-0.616 0.142,-0.616C0.18,-0.616 0.209,-0.645 0.209,-0.684C0.209,-0.724 0.18,-0.753 0.142,-0.753ZM0.085,-0.532L0.085,-0L0.199,-0L0.199,-0.532L0.085,-0.532Z" style="fill:rgb(51,51,51);fill-rule:nonzero;"/>
                </g>
                <g transform="matrix(14,0,0,14,319.585,97.333)">
                    <path d="M0.477,-0.742L0.477,-0.44C0.438,-0.502 0.374,-0.537 0.288,-0.537C0.138,-0.537 0.035,-0.428 0.035,-0.268C0.035,-0.106 0.137,0.005 0.29,0.005C0.375,0.005 0.439,-0.029 0.477,-0.091L0.477,-0L0.592,-0L0.592,-0.742L0.477,-0.742ZM0.314,-0.091C0.217,-0.091 0.151,-0.163 0.15,-0.264C0.151,-0.366 0.218,-0.439 0.314,-0.439C0.41,-0.439 0.477,-0.367 0.477,-0.264C0.477,-0.163 0.41,-0.091 0.314,-0.091Z" style="fill:rgb(51,51,51);fill-rule:nonzero;"/>
                </g>
                <g transform="matrix(14,0,0,14,329.133,97.333)">
                    <path d="M0.304,-0.536C0.146,-0.535 0.035,-0.426 0.035,-0.265C0.035,-0.105 0.143,0.004 0.307,0.004C0.399,0.004 0.475,-0.029 0.527,-0.086L0.466,-0.151C0.427,-0.111 0.374,-0.089 0.316,-0.089C0.232,-0.089 0.169,-0.14 0.151,-0.222L0.553,-0.222C0.567,-0.414 0.491,-0.536 0.304,-0.536ZM0.149,-0.306C0.161,-0.391 0.221,-0.444 0.305,-0.444C0.392,-0.444 0.449,-0.392 0.453,-0.306L0.149,-0.306Z" style="fill:rgb(51,51,51);fill-rule:nonzero;"/>
                </g>
                <g transform="matrix(14,0,0,14,337.365,97.333)">
                    <path d="M0.2,-0.426L0.2,-0.532L0.085,-0.532L0.085,-0L0.2,-0L0.2,-0.278C0.209,-0.369 0.277,-0.432 0.384,-0.426L0.384,-0.536C0.3,-0.536 0.236,-0.498 0.2,-0.426Z" style="fill:rgb(51,51,51);fill-rule:nonzero;"/>
                </g>
            </g>
        </g>
        <g id="Tag:-Endpoints" serif:id="Tag: Endpoints" transform="matrix(4.59945,0,0,4.59945,-98.6595,7.16673)">
            <g transform="matrix(0.000853892,-1.01803,1.08168,0.000907279,3.01566,159.061)">
                <path d="M85.094,71.106L87.553,72.307L82.635,72.307L85.094,71.106Z" style="fill:rgb(175,220,205);"/>
            </g>
            <g transform="matrix(7.90449,0,0,1.73436,-569.57,-53.359)">
                <rect x="82.342" y="71.124" width="3.906" height="2.887" style="fill:rgb(175,220,205);"/>
            </g>
            <g transform="matrix(0.217417,0,0,0.217417,21.6776,52.17)">
                <g transform="matrix(14,0,0,14,284.851,97.333)">
                    <path d="M0.092,-0.7L0.092,-0L0.604,-0L0.604,-0.106L0.21,-0.106L0.21,-0.299L0.552,-0.299L0.552,-0.404L0.21,-0.404L0.21,-0.594L0.592,-0.594L0.592,-0.7L0.092,-0.7Z" style="fill:rgb(51,51,51);fill-rule:nonzero;"/>
                </g>
                <g transform="matrix(14,0,0,14,294.035,97.333)">
                    <path d="M0.396,-0.536C0.306,-0.536 0.238,-0.504 0.2,-0.43L0.2,-0.532L0.085,-0.532L0.085,-0L0.2,-0L0.2,-0.283C0.208,-0.366 0.263,-0.427 0.351,-0.428C0.431,-0.428 0.479,-0.379 0.479,-0.299L0.479,-0L0.594,-0L0.594,-0.331C0.594,-0.458 0.52,-0.536 0.396,-0.536Z" style="fill:rgb(51,51,51);fill-rule:nonzero;"/>
                </g>
                <g transform="matrix(14,0,0,14,303.317,97.333)">
                    <path d="M0.477,-0.742L0.477,-0.44C0.438,-0.502 0.374,-0.537 0.288,-0.537C0.138,-0.537 0.035,-0.428 0.035,-0.268C0.035,-0.106 0.137,0.005 0.29,0.005C0.375,0.005 0.439,-0.029 0.477,-0.091L0.477,-0L0.592,-0L0.592,-0.742L0.477,-0.742ZM0.314,-0.091C0.217,-0.091 0.151,-0.163 0.15,-0.264C0.151,-0.366 0.218,-0.439 0.314,-0.439C0.41,-0.439 0.477,-0.367 0.477,-0.264C0.477,-0.163 0.41,-0.091 0.314,-0.091Z" style="fill:rgb(51,51,51);fill-rule:nonzero;"/>
                </g>
                <g transform="matrix(14,0,0,14,312.865,97.333)">
                    <path d="M0.391,-0.536C0.308,-0.536 0.244,-0.502 0.205,-0.44L0.205,-0.532L0.09,-0.532L0.09,0.194L0.205,0.194L0.205,-0.092C0.244,-0.03 0.308,0.004 0.393,0.004C0.545,0.004 0.645,-0.105 0.645,-0.264C0.645,-0.426 0.542,-0.536 0.391,-0.536ZM0.367,-0.094C0.272,-0.094 0.205,-0.165 0.205,-0.268C0.205,-0.368 0.272,-0.44 0.367,-0.44C0.462,-0.44 0.529,-0.367 0.529,-0.268C0.529,-0.166 0.462,-0.094 0.367,-0.094Z" style="fill:rgb(51,51,51);fill-rule:nonzero;"/>
                </g>
                <g transform="matrix(14,0,0,14,322.385,97.333)">
                    <path d="M0.313,-0.536C0.148,-0.536 0.035,-0.427 0.035,-0.267C0.035,-0.106 0.148,0.004 0.313,0.004C0.477,0.004 0.59,-0.106 0.59,-0.267C0.59,-0.427 0.477,-0.536 0.313,-0.536ZM0.313,-0.438C0.408,-0.438 0.475,-0.367 0.475,-0.265C0.475,-0.162 0.408,-0.092 0.313,-0.092C0.217,-0.092 0.15,-0.162 0.15,-0.265C0.15,-0.367 0.217,-0.438 0.313,-0.438Z" style="fill:rgb(51,51,51);fill-rule:nonzero;"/>
                </g>
                <g transform="matrix(14,0,0,14,331.135,97.333)">
                    <path d="M0.142,-0.753C0.104,-0.753 0.075,-0.724 0.075,-0.684C0.075,-0.645 0.104,-0.616 0.142,-0.616C0.18,-0.616 0.209,-0.645 0.209,-0.684C0.209,-0.724 0.18,-0.753 0.142,-0.753ZM0.085,-0.532L0.085,-0L0.199,-0L0.199,-0.532L0.085,-0.532Z" style="fill:rgb(51,51,51);fill-rule:nonzero;"/>
                </g>
                <g transform="matrix(14,0,0,14,335.111,97.333)">
                    <path d="M0.396,-0.536C0.306,-0.536 0.238,-0.504 0.2,-0.43L0.2,-0.532L0.085,-0.532L0.085,-0L0.2,-0L0.2,-0.283C0.208,-0.366 0.263,-0.427 0.351,-0.428C0.431,-0.428 0.479,-0.379 0.479,-0.299L0.479,-0L0.594,-0L0.594,-0.331C0.594,-0.458 0.52,-0.536 0.396,-0.536Z" style="fill:rgb(51,51,51);fill-rule:nonzero;"/>
                </g>
                <g transform="matrix(14,0,0,14,344.393,97.333)">
                    <path d="M0.357,-0.122C0.326,-0.107 0.301,-0.099 0.277,-0.099C0.241,-0.099 0.22,-0.116 0.22,-0.171L0.22,-0.426L0.377,-0.426L0.377,-0.512L0.22,-0.512L0.22,-0.658L0.106,-0.658L0.106,-0.512L0.031,-0.512L0.031,-0.426L0.106,-0.426L0.106,-0.15C0.106,-0.041 0.175,0.005 0.255,0.005C0.3,0.005 0.344,-0.009 0.386,-0.034L0.357,-0.122Z" style="fill:rgb(51,51,51);fill-rule:nonzero;"/>
                </g>
                <g transform="matrix(14,0,0,14,350.091,97.333)">
                    <path d="M0.388,-0.398L0.43,-0.483C0.382,-0.517 0.311,-0.537 0.244,-0.537C0.142,-0.537 0.048,-0.491 0.048,-0.383C0.047,-0.191 0.327,-0.252 0.327,-0.143C0.327,-0.103 0.289,-0.086 0.24,-0.086C0.182,-0.086 0.108,-0.111 0.062,-0.152L0.021,-0.07C0.074,-0.022 0.157,0.004 0.235,0.004C0.342,0.004 0.439,-0.045 0.439,-0.154C0.44,-0.347 0.157,-0.294 0.157,-0.392C0.157,-0.43 0.19,-0.445 0.235,-0.445C0.282,-0.445 0.341,-0.427 0.388,-0.398Z" style="fill:rgb(51,51,51);fill-rule:nonzero;"/>
                </g>
            </g>
        </g>
        <g id="Tag:-Data" serif:id="Tag: Data" transform="matrix(4.59945,0,0,4.59945,61.3265,-33.4501)">
            <g transform="matrix(0.000853892,-1.01803,1.08168,0.000907279,3.01566,159.061)">
                <path d="M85.094,71.106L87.553,72.307L82.635,72.307L85.094,71.106Z" style="fill:rgb(175,220,205);"/>
            </g>
            <g transform="matrix(7.90449,0,0,1.73436,-569.57,-53.359)">
                <rect x="82.342" y="71.124" width="3.906" height="2.887" style="fill:rgb(175,220,205);"/>
            </g>
            <g transform="matrix(0.217417,0,0,0.217417,21.6776,52.17)">
                <g transform="matrix(14,0,0,14,284.851,97.333)">
                    <path d="M0.379,-0.7L0.092,-0.7L0.092,-0L0.376,-0C0.588,-0 0.741,-0.148 0.741,-0.35C0.741,-0.553 0.589,-0.7 0.379,-0.7ZM0.382,-0.106L0.21,-0.106L0.21,-0.594L0.377,-0.594C0.515,-0.594 0.622,-0.492 0.622,-0.349C0.622,-0.207 0.518,-0.106 0.382,-0.106Z" style="fill:rgb(51,51,51);fill-rule:nonzero;"/>
                </g>
                <g transform="matrix(14,0,0,14,295.701,97.333)">
                    <path d="M0.517,-0L0.516,-0.349C0.515,-0.466 0.438,-0.536 0.301,-0.536C0.2,-0.536 0.146,-0.513 0.072,-0.469L0.119,-0.389C0.172,-0.425 0.225,-0.443 0.276,-0.443C0.36,-0.443 0.403,-0.403 0.403,-0.336L0.403,-0.32L0.242,-0.32C0.114,-0.319 0.041,-0.257 0.041,-0.16C0.041,-0.066 0.113,0.005 0.228,0.005C0.305,0.005 0.366,-0.018 0.404,-0.065L0.404,-0L0.517,-0ZM0.252,-0.086C0.188,-0.086 0.149,-0.117 0.149,-0.165C0.149,-0.216 0.184,-0.236 0.259,-0.236L0.403,-0.236L0.403,-0.187C0.397,-0.129 0.334,-0.086 0.252,-0.086Z" style="fill:rgb(51,51,51);fill-rule:nonzero;"/>
                </g>
                <g transform="matrix(14,0,0,14,303.905,97.333)">
                    <path d="M0.357,-0.122C0.326,-0.107 0.301,-0.099 0.277,-0.099C0.241,-0.099 0.22,-0.116 0.22,-0.171L0.22,-0.426L0.377,-0.426L0.377,-0.512L0.22,-0.512L0.22,-0.658L0.106,-0.658L0.106,-0.512L0.031,-0.512L0.031,-0.426L0.106,-0.426L0.106,-0.15C0.106,-0.041 0.175,0.005 0.255,0.005C0.3,0.005 0.344,-0.009 0.386,-0.034L0.357,-0.122Z" style="fill:rgb(51,51,51);fill-rule:nonzero;"/>
                </g>
                <g transform="matrix(14,0,0,14,309.603,97.333)">
                    <path d="M0.517,-0L0.516,-0.349C0.515,-0.466 0.438,-0.536 0.301,-0.536C0.2,-0.536 0.146,-0.513 0.072,-0.469L0.119,-0.389C0.172,-0.425 0.225,-0.443 0.276,-0.443C0.36,-0.443 0.403,-0.403 0.403,-0.336L0.403,-0.32L0.242,-0.32C0.114,-0.319 0.041,-0.257 0.041,-0.16C0.041,-0.066 0.113,0.005 0.228,0.005C0.305,0.005 0.366,-0.018 0.404,-0.065L0.404,-0L0.517,-0ZM0.252,-0.086C0.188,-0.086 0.149,-0.117 0.149,-0.165C0.149,-0.216 0.184,-0.236 0.259,-0.236L0.403,-0.236L0.403,-0.187C0.397,-0.129 0.334,-0.086 0.252,-0.086Z" style="fill:rgb(51,51,51);fill-rule:nonzero;"/>
                </g>
            </g>
        </g>
        <g id="Tag:-Trust-Boundary" serif:id="Tag: Trust Boundary" transform="matrix(4.59945,0,0,4.59945,61.3265,7.16673)">
            <g transform="matrix(0.000853892,-1.01803,1.08168,0.000907279,3.01566,159.061)">
                <path d="M85.094,71.106L87.553,72.307L82.635,72.307L85.094,71.106Z" style="fill:rgb(175,220,205);"/>
            </g>
            <g transform="matrix(7.90449,0,0,1.73436,-569.57,-53.359)">
                <rect x="82.342" y="71.124" width="3.906" height="2.887" style="fill:rgb(175,220,205);"/>
            </g>
            <g transform="matrix(0.217417,0,0,0.217417,21.6776,52.17)">
                <g transform="matrix(14,0,0,14,284.851,97.333)">
                    <path d="M0.009,-0.7L0.009,-0.594L0.23,-0.594L0.23,-0L0.348,-0L0.348,-0.594L0.57,-0.594L0.57,-0.7L0.009,-0.7Z" style="fill:rgb(51,51,51);fill-rule:nonzero;"/>
                </g>
                <g transform="matrix(14,0,0,14,292.425,97.333)">
                    <path d="M0.2,-0.426L0.2,-0.532L0.085,-0.532L0.085,-0L0.2,-0L0.2,-0.278C0.209,-0.369 0.277,-0.432 0.384,-0.426L0.384,-0.536C0.3,-0.536 0.236,-0.498 0.2,-0.426Z" style="fill:rgb(51,51,51);fill-rule:nonzero;"/>
                </g>
                <g transform="matrix(14,0,0,14,297.941,97.333)">
                    <path d="M0.453,-0.532L0.453,-0.27C0.453,-0.177 0.399,-0.106 0.307,-0.104C0.23,-0.104 0.183,-0.153 0.183,-0.233L0.183,-0.532L0.068,-0.532L0.068,-0.201C0.068,-0.074 0.141,0.004 0.263,0.004C0.35,0.003 0.417,-0.03 0.453,-0.104L0.453,-0L0.568,-0L0.568,-0.532L0.453,-0.532Z" style="fill:rgb(51,51,51);fill-rule:nonzero;"/>
                </g>
                <g transform="matrix(14,0,0,14,307.083,97.333)">
                    <path d="M0.388,-0.398L0.43,-0.483C0.382,-0.517 0.311,-0.537 0.244,-0.537C0.142,-0.537 0.048,-0.491 0.048,-0.383C0.047,-0.191 0.327,-0.252 0.327,-0.143C0.327,-0.103 0.289,-0.086 0.24,-0.086C0.182,-0.086 0.108,-0.111 0.062,-0.152L0.021,-0.07C0.074,-0.022 0.157,0.004 0.235,0.004C0.342,0.004 0.439,-0.045 0.439,-0.154C0.44,-0.347 0.157,-0.294 0.157,-0.392C0.157,-0.43 0.19,-0.445 0.235,-0.445C0.282,-0.445 0.341,-0.427 0.388,-0.398Z" style="fill:rgb(51,51,51);fill-rule:nonzero;"/>
                </g>
                <g transform="matrix(14,0,0,14,313.663,97.333)">
                    <path d="M0.357,-0.122C0.326,-0.107 0.301,-0.099 0.277,-0.099C0.241,-0.099 0.22,-0.116 0.22,-0.171L0.22,-0.426L0.377,-0.426L0.377,-0.512L0.22,-0.512L0.22,-0.658L0.106,-0.658L0.106,-0.512L0.031,-0.512L0.031,-0.426L0.106,-0.426L0.106,-0.15C0.106,-0.041 0.175,0.005 0.255,0.005C0.3,0.005 0.344,-0.009 0.386,-0.034L0.357,-0.122Z" style="fill:rgb(51,51,51);fill-rule:nonzero;"/>
                </g>
                <g transform="matrix(14,0,0,14,323.561,97.333)">
                    <path d="M0.396,-0.7L0.092,-0.7L0.092,-0L0.403,-0C0.561,-0 0.658,-0.072 0.658,-0.192C0.658,-0.286 0.602,-0.353 0.508,-0.369C0.584,-0.388 0.631,-0.447 0.631,-0.525C0.631,-0.634 0.541,-0.7 0.396,-0.7ZM0.39,-0.41L0.21,-0.41L0.21,-0.594L0.39,-0.594C0.465,-0.595 0.51,-0.562 0.51,-0.504C0.51,-0.444 0.465,-0.41 0.39,-0.41ZM0.39,-0.106L0.21,-0.106L0.21,-0.306L0.39,-0.306C0.482,-0.307 0.537,-0.269 0.537,-0.207C0.537,-0.142 0.482,-0.105 0.39,-0.106Z" style="fill:rgb(51,51,51);fill-rule:nonzero;"/>
                </g>
                <g transform="matrix(14,0,0,14,333.445,97.333)">
                    <path d="M0.313,-0.536C0.148,-0.536 0.035,-0.427 0.035,-0.267C0.035,-0.106 0.148,0.004 0.313,0.004C0.477,0.004 0.59,-0.106 0.59,-0.267C0.59,-0.427 0.477,-0.536 0.313,-0.536ZM0.313,-0.438C0.408,-0.438 0.475,-0.367 0.475,-0.265C0.475,-0.162 0.408,-0.092 0.313,-0.092C0.217,-0.092 0.15,-0.162 0.15,-0.265C0.15,-0.367 0.217,-0.438 0.313,-0.438Z" style="fill:rgb(51,51,51);fill-rule:nonzero;"/>
                </g>
                <g transform="matrix(14,0,0,14,342.195,97.333)">
                    <path d="M0.453,-0.532L0.453,-0.27C0.453,-0.177 0.399,-0.106 0.307,-0.104C0.23,-0.104 0.183,-0.153 0.183,-0.233L0.183,-0.532L0.068,-0.532L0.068,-0.201C0.068,-0.074 0.141,0.004 0.263,0.004C0.35,0.003 0.417,-0.03 0.453,-0.104L0.453,-0L0.568,-0L0.568,-0.532L0.453,-0.532Z" style="fill:rgb(51,51,51);fill-rule:nonzero;"/>
                </g>
                <g transform="matrix(14,0,0,14,351.337,97.333)">
                    <path d="M0.396,-0.536C0.306,-0.536 0.238,-0.504 0.2,-0.43L0.2,-0.532L0.085,-0.532L0.085,-0L0.2,-0L0.2,-0.283C0.208,-0.366 0.263,-0.427 0.351,-0.428C0.431,-0.428 0.479,-0.379 0.479,-0.299L0.479,-0L0.594,-0L0.594,-0.331C0.594,-0.458 0.52,-0.536 0.396,-0.536Z" style="fill:rgb(51,51,51);fill-rule:nonzero;"/>
                </g>
                <g transform="matrix(14,0,0,14,360.619,97.333)">
                    <path d="M0.477,-0.742L0.477,-0.44C0.438,-0.502 0.374,-0.537 0.288,-0.537C0.138,-0.537 0.035,-0.428 0.035,-0.268C0.035,-0.106 0.137,0.005 0.29,0.005C0.375,0.005 0.439,-0.029 0.477,-0.091L0.477,-0L0.592,-0L0.592,-0.742L0.477,-0.742ZM0.314,-0.091C0.217,-0.091 0.151,-0.163 0.15,-0.264C0.151,-0.366 0.218,-0.439 0.314,-0.439C0.41,-0.439 0.477,-0.367 0.477,-0.264C0.477,-0.163 0.41,-0.091 0.314,-0.091Z" style="fill:rgb(51,51,51);fill-rule:nonzero;"/>
                </g>
                <g transform="matrix(14,0,0,14,370.167,97.333)">
                    <path d="M0.517,-0L0.516,-0.349C0.515,-0.466 0.438,-0.536 0.301,-0.536C0.2,-0.536 0.146,-0.513 0.072,-0.469L0.119,-0.389C0.172,-0.425 0.225,-0.443 0.276,-0.443C0.36,-0.443 0.403,-0.403 0.403,-0.336L0.403,-0.32L0.242,-0.32C0.114,-0.319 0.041,-0.257 0.041,-0.16C0.041,-0.066 0.113,0.005 0.228,0.005C0.305,0.005 0.366,-0.018 0.404,-0.065L0.404,-0L0.517,-0ZM0.252,-0.086C0.188,-0.086 0.149,-0.117 0.149,-0.165C0.149,-0.216 0.184,-0.236 0.259,-0.236L0.403,-0.236L0.403,-0.187C0.397,-0.129 0.334,-0.086 0.252,-0.086Z" style="fill:rgb(51,51,51);fill-rule:nonzero;"/>
                </g>
                <g transform="matrix(14,0,0,14,378.371,97.333)">
                    <path d="M0.2,-0.426L0.2,-0.532L0.085,-0.532L0.085,-0L0.2,-0L0.2,-0.278C0.209,-0.369 0.277,-0.432 0.384,-0.426L0.384,-0.536C0.3,-0.536 0.236,-0.498 0.2,-0.426Z" style="fill:rgb(51,51,51);fill-rule:nonzero;"/>
                </g>
                <g transform="matrix(14,0,0,14,384.251,97.333)">
                    <path d="M0.294,0.073L0.536,-0.532L0.421,-0.532L0.273,-0.129L0.114,-0.532L-0.005,-0.532L0.215,-0.008L0.197,0.032C0.179,0.072 0.151,0.091 0.116,0.091C0.092,0.091 0.072,0.083 0.047,0.065L-0.002,0.154C0.035,0.185 0.073,0.199 0.121,0.199C0.201,0.199 0.261,0.157 0.294,0.073Z" style="fill:rgb(51,51,51);fill-rule:nonzero;"/>
                </g>
            </g>
        </g>
    </g>
</svg>
