<?xml version="1.0" encoding="UTF-8" standalone="no"?>
<svg
   width="100%"
   height="100%"
   viewBox="0 0 4042 4080"
   version="1.1"
   xml:space="preserve"
   style="fill-rule:evenodd;clip-rule:evenodd;stroke-linejoin:round;stroke-miterlimit:2;"
   id="svg881"
   sodipodi:docname="CycloneDX-Formulation-Object-Model-Swimlane.svg"
   inkscape:version="1.3.2 (091e20e, 2023-11-25)"
   xmlns:inkscape="http://www.inkscape.org/namespaces/inkscape"
   xmlns:sodipodi="http://sodipodi.sourceforge.net/DTD/sodipodi-0.dtd"
   xmlns="http://www.w3.org/2000/svg"
   xmlns:svg="http://www.w3.org/2000/svg"
   xmlns:serif="http://www.serif.com/"><defs
     id="defs881" /><sodipodi:namedview
     id="namedview881"
     pagecolor="#ffffff"
     bordercolor="#000000"
     borderopacity="0.25"
     inkscape:showpageshadow="2"
     inkscape:pageopacity="0.0"
     inkscape:pagecheckerboard="0"
     inkscape:deskcolor="#d1d1d1"
     inkscape:zoom="0.18351202"
     inkscape:cx="2160.6214"
     inkscape:cy="2373.1415"
     inkscape:window-width="1504"
     inkscape:window-height="928"
     inkscape:window-x="97"
     inkscape:window-y="86"
     inkscape:window-maximized="0"
     inkscape:current-layer="svg881" /><rect
     x="-0.13500001"
     y="2248.22"
     width="625"
     height="333.33301"
     style="fill:#b5e3ec"
     id="rect315" /><rect
     x="624.86499"
     y="2248.22"
     width="3416.6699"
     height="333.33301"
     style="fill:#dcf2f6"
     id="rect316" /><path
     d="m 135.095,2391.63 h 33.17 v 5.86 h -26.693 v 14.518 h 23.47 v 5.696 h -23.47 v 21.745 h -6.477 z"
     style="fill-rule:nonzero"
     id="path316" /><path
     d="m 188.252,2435.67 c 3.885,0 6.548,-1.47 7.992,-4.411 1.443,-2.94 2.164,-6.212 2.164,-9.814 0,-3.255 -0.52,-5.903 -1.562,-7.943 -1.649,-3.212 -4.492,-4.818 -8.529,-4.818 -3.581,0 -6.185,1.368 -7.812,4.102 -1.628,2.734 -2.442,6.033 -2.442,9.896 0,3.711 0.814,6.803 2.442,9.277 1.627,2.474 4.21,3.711 7.747,3.711 z m 0.228,-32.096 c 4.492,0 8.29,1.497 11.393,4.492 3.103,2.995 4.655,7.4 4.655,13.216 0,5.621 -1.367,10.265 -4.101,13.932 -2.735,3.668 -6.977,5.502 -12.728,5.502 -4.796,0 -8.605,-1.622 -11.426,-4.867 -2.821,-3.244 -4.232,-7.601 -4.232,-13.069 0,-5.86 1.487,-10.526 4.46,-13.998 2.973,-3.472 6.966,-5.208 11.979,-5.208 z"
     style="fill-rule:nonzero"
     id="path317" /><path
     d="m 211.657,2404.59 h 5.566 v 6.022 c 0.456,-1.172 1.574,-2.599 3.353,-4.281 1.78,-1.681 3.831,-2.522 6.153,-2.522 0.108,0 0.293,0.01 0.553,0.032 0.26,0.022 0.705,0.065 1.335,0.13 v 6.185 c -0.348,-0.065 -0.668,-0.108 -0.961,-0.13 -0.293,-0.022 -0.613,-0.032 -0.96,-0.032 -2.951,0 -5.219,0.949 -6.803,2.848 -1.584,1.899 -2.377,4.085 -2.377,6.559 v 20.052 h -5.859 z"
     style="fill-rule:nonzero"
     id="path318" /><path
     d="m 233.695,2404.59 h 5.794 v 4.948 c 1.389,-1.715 2.648,-2.962 3.776,-3.744 1.932,-1.323 4.123,-1.985 6.576,-1.985 2.777,0 5.013,0.683 6.705,2.05 0.955,0.782 1.823,1.932 2.605,3.451 1.302,-1.866 2.832,-3.25 4.589,-4.15 1.758,-0.901 3.733,-1.351 5.925,-1.351 4.687,0 7.877,1.692 9.57,5.078 0.912,1.823 1.367,4.275 1.367,7.357 v 23.209 h -6.087 v -24.219 c 0,-2.322 -0.58,-3.917 -1.741,-4.785 -1.161,-0.868 -2.577,-1.302 -4.248,-1.302 -2.301,0 -4.281,0.771 -5.941,2.311 -1.66,1.541 -2.49,4.113 -2.49,7.715 v 20.28 h -5.957 v -22.754 c 0,-2.365 -0.283,-4.09 -0.847,-5.176 -0.89,-1.627 -2.55,-2.441 -4.98,-2.441 -2.214,0 -4.227,0.857 -6.039,2.572 -1.812,1.714 -2.718,4.817 -2.718,9.31 v 18.489 h -5.859 z"
     style="fill-rule:nonzero"
     id="path319" /><path
     d="m 295.088,2404.59 v 23.144 c 0,1.78 0.282,3.234 0.846,4.362 1.042,2.084 2.984,3.125 5.827,3.125 4.08,0 6.858,-1.823 8.334,-5.468 0.802,-1.953 1.204,-4.634 1.204,-8.041 v -17.122 h 5.859 v 34.863 h -5.534 l 0.066,-5.143 c -0.76,1.324 -1.704,2.441 -2.832,3.353 -2.236,1.823 -4.948,2.734 -8.138,2.734 -4.97,0 -8.355,-1.66 -10.157,-4.98 -0.976,-1.78 -1.465,-4.156 -1.465,-7.129 v -23.698 z"
     style="fill-rule:nonzero"
     id="path320" /><rect
     x="326.46799"
     y="2391.6299"
     width="5.8590002"
     height="47.819"
     style="fill-rule:nonzero"
     id="rect320" /><path
     d="m 345.609,2430.17 c 0,1.693 0.618,3.027 1.855,4.004 1.237,0.976 2.702,1.465 4.395,1.465 2.062,0 4.058,-0.478 5.989,-1.433 3.256,-1.584 4.883,-4.177 4.883,-7.78 v -4.72 c -0.716,0.456 -1.638,0.836 -2.767,1.14 -1.128,0.303 -2.235,0.52 -3.32,0.651 l -3.548,0.455 c -2.127,0.282 -3.722,0.727 -4.785,1.335 -1.802,1.02 -2.702,2.648 -2.702,4.883 z m 14.193,-11.849 c 1.345,-0.174 2.246,-0.738 2.701,-1.693 0.261,-0.521 0.391,-1.269 0.391,-2.246 0,-1.996 -0.711,-3.445 -2.132,-4.346 -1.422,-0.9 -3.456,-1.351 -6.104,-1.351 -3.06,0 -5.23,0.825 -6.51,2.474 -0.716,0.912 -1.183,2.268 -1.4,4.069 h -5.469 c 0.109,-4.296 1.503,-7.286 4.183,-8.968 2.681,-1.682 5.789,-2.522 9.327,-2.522 4.101,0 7.432,0.781 9.993,2.343 2.539,1.563 3.809,3.993 3.809,7.292 v 20.085 c 0,0.607 0.124,1.096 0.374,1.464 0.25,0.369 0.776,0.554 1.579,0.554 0.26,0 0.553,-0.016 0.879,-0.049 0.325,-0.033 0.672,-0.081 1.041,-0.146 v 4.329 c -0.911,0.26 -1.606,0.423 -2.083,0.488 -0.477,0.065 -1.128,0.098 -1.953,0.098 -2.018,0 -3.483,-0.716 -4.395,-2.149 -0.477,-0.759 -0.813,-1.833 -1.009,-3.222 -1.193,1.562 -2.908,2.919 -5.143,4.069 -2.235,1.15 -4.698,1.725 -7.389,1.725 -3.234,0 -5.876,-0.982 -7.927,-2.946 -2.051,-1.964 -3.076,-4.422 -3.076,-7.373 0,-3.233 1.009,-5.74 3.027,-7.519 2.019,-1.78 4.666,-2.876 7.943,-3.288 z"
     style="fill-rule:nonzero"
     id="path321" /><path
     d="m 379.365,2394.85 h 5.925 v 9.733 h 5.566 v 4.785 h -5.566 v 22.754 c 0,1.215 0.412,2.029 1.237,2.441 0.456,0.239 1.215,0.358 2.278,0.358 0.283,0 0.586,0 0.912,-0.016 0.325,-0.011 0.705,-0.038 1.139,-0.081 v 4.622 c -0.672,0.195 -1.372,0.337 -2.099,0.423 -0.727,0.087 -1.514,0.131 -2.36,0.131 -2.735,0 -4.59,-0.7 -5.567,-2.1 -0.976,-1.4 -1.465,-3.217 -1.465,-5.453 v -23.079 h -4.72 v -4.785 h 4.72 z"
     style="fill-rule:nonzero"
     id="path322" /><path
     d="m 396.716,2404.75 h 5.957 v 34.7 h -5.957 z m 0,-13.119 h 5.957 v 6.641 h -5.957 z"
     style="fill-rule:nonzero"
     id="path323" /><path
     d="m 425.361,2435.67 c 3.885,0 6.549,-1.47 7.992,-4.411 1.443,-2.94 2.165,-6.212 2.165,-9.814 0,-3.255 -0.521,-5.903 -1.563,-7.943 -1.649,-3.212 -4.492,-4.818 -8.528,-4.818 -3.581,0 -6.185,1.368 -7.813,4.102 -1.628,2.734 -2.441,6.033 -2.441,9.896 0,3.711 0.813,6.803 2.441,9.277 1.628,2.474 4.21,3.711 7.747,3.711 z m 0.228,-32.096 c 4.493,0 8.29,1.497 11.394,4.492 3.103,2.995 4.655,7.4 4.655,13.216 0,5.621 -1.368,10.265 -4.102,13.932 -2.734,3.668 -6.977,5.502 -12.728,5.502 -4.796,0 -8.605,-1.622 -11.426,-4.867 -2.821,-3.244 -4.231,-7.601 -4.231,-13.069 0,-5.86 1.486,-10.526 4.459,-13.998 2.973,-3.472 6.966,-5.208 11.979,-5.208 z"
     style="fill-rule:nonzero"
     id="path324" /><path
     d="m 448.604,2404.59 h 5.566 v 4.948 c 1.649,-2.04 3.396,-3.505 5.241,-4.395 1.845,-0.889 3.895,-1.334 6.152,-1.334 4.948,0 8.29,1.725 10.026,5.175 0.955,1.888 1.433,4.59 1.433,8.106 v 22.363 h -5.957 v -21.972 c 0,-2.127 -0.315,-3.842 -0.944,-5.144 -1.042,-2.17 -2.93,-3.255 -5.664,-3.255 -1.389,0 -2.529,0.141 -3.418,0.423 -1.606,0.478 -3.017,1.433 -4.232,2.865 -0.977,1.15 -1.612,2.338 -1.905,3.564 -0.292,1.226 -0.439,2.979 -0.439,5.257 v 18.262 h -5.859 z"
     style="fill-rule:nonzero"
     id="path325" /><g
     id="Tag:-Declared"
     serif:id="Tag: Declared"
     transform="translate(667.96224,10.898469)"><path
       d="m 705.324,2333.42 24.954,-47.953 -0.08,95.946 z"
       style="fill:#b5e3ec"
       id="path326" /><rect
       x="730.27802"
       y="2285.47"
       width="591.66699"
       height="95.945999"
       style="fill:#b5e3ec"
       id="rect326" /></g><g
     id="Tag:-Observed"
     serif:id="Tag: Observed"
     transform="translate(1334.0491,-152.52253)"><path
       d="m 705.324,2496.84 24.954,-47.952 -0.08,95.946 z"
       style="fill:#b5e3ec"
       id="path334" /><rect
       x="730.27802"
       y="2448.8899"
       width="591.66699"
       height="95.945999"
       style="fill:#b5e3ec"
       id="rect334" /></g><g
     id="Tag:-Workflows"
     serif:id="Tag: Workflows"
     transform="translate(-664.80659,-10.898469)"><path
       d="m 1372.15,2496.84 24.954,-47.952 -0.08,95.946 z"
       style="fill:#b5e3ec"
       id="path343" /><rect
       x="1397.11"
       y="2448.8899"
       width="591.66699"
       height="95.945999"
       style="fill:#b5e3ec"
       id="rect343" /><path
       d="m 1448.49,2471.01 7.89,34.037 9.456,-34.037 h 6.152 l 9.457,34.037 7.89,-34.037 h 6.209 l -10.995,41.841 h -5.953 l -9.655,-34.692 -9.713,34.692 h -5.953 l -10.937,-41.841 z"
       style="fill:#333333;fill-rule:nonzero"
       id="path344" /><path
       d="m 1511.18,2509.54 c 3.399,0 5.73,-1.286 6.993,-3.859 1.262,-2.573 1.894,-5.436 1.894,-8.588 0,-2.848 -0.456,-5.165 -1.367,-6.95 -1.443,-2.81 -3.931,-4.215 -7.463,-4.215 -3.133,0 -5.412,1.196 -6.836,3.589 -1.424,2.392 -2.136,5.279 -2.136,8.659 0,3.247 0.712,5.952 2.136,8.117 1.424,2.165 3.684,3.247 6.779,3.247 z m 0.2,-28.084 c 3.93,0 7.253,1.31 9.969,3.931 2.715,2.62 4.073,6.475 4.073,11.564 0,4.918 -1.197,8.981 -3.589,12.191 -2.393,3.209 -6.105,4.813 -11.137,4.813 -4.197,0 -7.529,-1.419 -9.998,-4.258 -2.468,-2.839 -3.702,-6.651 -3.702,-11.436 0,-5.127 1.3,-9.21 3.902,-12.248 2.601,-3.038 6.095,-4.557 10.482,-4.557 z"
       style="fill:#333333;fill-rule:nonzero"
       id="path345" /><path
       d="m 1531.65,2482.34 h 4.871 v 5.269 c 0.399,-1.025 1.377,-2.274 2.934,-3.745 1.557,-1.472 3.351,-2.208 5.383,-2.208 0.095,0 0.256,0.01 0.484,0.029 0.228,0.019 0.617,0.057 1.168,0.114 v 5.412 c -0.304,-0.057 -0.584,-0.095 -0.84,-0.114 -0.256,-0.019 -0.537,-0.029 -0.84,-0.029 -2.583,0 -4.567,0.831 -5.953,2.492 -1.386,1.662 -2.08,3.575 -2.08,5.74 v 17.545 h -5.127 z"
       style="fill:#333333;fill-rule:nonzero"
       id="path346" /><path
       d="m 1550.83,2471.01 h 4.927 v 24.296 l 13.159,-12.96 h 6.551 l -11.678,11.422 12.334,19.083 h -6.552 l -9.513,-15.381 -4.301,3.931 v 11.45 h -4.927 z"
       style="fill:#333333;fill-rule:nonzero"
       id="path347" /><path
       d="m 1601.52,2512.85 h -5.127 v -41.841 h 5.127 z m -15.067,0 h -5.07 v -26.318 h -4.244 v -4.045 h 4.244 v -5.411 c 0,-2.26 0.698,-3.936 2.093,-5.028 1.396,-1.092 3.262,-1.637 5.597,-1.637 0.456,0 0.869,0.014 1.239,0.042 0.371,0.029 0.793,0.081 1.268,0.157 v 4.586 c -0.532,-0.038 -0.916,-0.062 -1.154,-0.072 -0.237,-0.01 -0.46,-0.014 -0.669,-0.014 -1.443,0 -2.402,0.418 -2.877,1.253 -0.285,0.475 -0.427,1.254 -0.427,2.336 v 3.788 h 5.127 v 4.045 h -5.127 z"
       style="fill:#333333;fill-rule:nonzero"
       id="path348" /><path
       d="m 1621.38,2509.54 c 3.399,0 5.73,-1.286 6.993,-3.859 1.262,-2.573 1.894,-5.436 1.894,-8.588 0,-2.848 -0.456,-5.165 -1.367,-6.95 -1.443,-2.81 -3.931,-4.215 -7.463,-4.215 -3.133,0 -5.412,1.196 -6.836,3.589 -1.424,2.392 -2.136,5.279 -2.136,8.659 0,3.247 0.712,5.952 2.136,8.117 1.424,2.165 3.684,3.247 6.779,3.247 z m 0.2,-28.084 c 3.93,0 7.253,1.31 9.969,3.931 2.715,2.62 4.073,6.475 4.073,11.564 0,4.918 -1.197,8.981 -3.589,12.191 -2.393,3.209 -6.105,4.813 -11.137,4.813 -4.197,0 -7.529,-1.419 -9.998,-4.258 -2.468,-2.839 -3.702,-6.651 -3.702,-11.436 0,-5.127 1.3,-9.21 3.902,-12.248 2.601,-3.038 6.095,-4.557 10.482,-4.557 z"
       style="fill:#333333;fill-rule:nonzero"
       id="path349" /><path
       d="m 1644.08,2482.34 5.868,24.04 5.953,-24.04 h 5.753 l 5.982,23.897 6.237,-23.897 H 1679 l -8.858,30.505 h -5.326 l -6.209,-23.612 -6.01,23.612 h -5.327 l -8.801,-30.505 z"
       style="fill:#333333;fill-rule:nonzero"
       id="path350" /><path
       d="m 1686.89,2503.28 c 0.152,1.709 0.579,3.019 1.282,3.931 1.291,1.652 3.532,2.478 6.722,2.478 1.899,0 3.57,-0.413 5.013,-1.239 1.443,-0.826 2.165,-2.103 2.165,-3.831 0,-1.311 -0.579,-2.307 -1.738,-2.991 -0.74,-0.418 -2.202,-0.902 -4.386,-1.453 l -4.073,-1.025 c -2.602,-0.646 -4.52,-1.367 -5.754,-2.165 -2.203,-1.386 -3.304,-3.304 -3.304,-5.753 0,-2.887 1.04,-5.222 3.119,-7.007 2.079,-1.785 4.875,-2.678 8.388,-2.678 4.596,0 7.909,1.349 9.941,4.045 1.272,1.709 1.889,3.551 1.851,5.526 h -4.842 c -0.095,-1.159 -0.503,-2.212 -1.225,-3.162 -1.177,-1.348 -3.218,-2.022 -6.123,-2.022 -1.937,0 -3.404,0.37 -4.401,1.111 -0.997,0.74 -1.495,1.718 -1.495,2.933 0,1.33 0.655,2.393 1.965,3.19 0.759,0.475 1.88,0.893 3.361,1.254 l 3.389,0.826 c 3.684,0.892 6.153,1.756 7.406,2.592 1.994,1.31 2.991,3.37 2.991,6.181 0,2.715 -1.03,5.06 -3.091,7.035 -2.06,1.975 -5.198,2.962 -9.413,2.962 -4.539,0 -7.753,-1.03 -9.642,-3.09 -1.889,-2.061 -2.9,-4.61 -3.033,-7.648 z"
       style="fill:#333333;fill-rule:nonzero"
       id="path351" /></g><g
     id="Tag:-Tasks"
     serif:id="Tag: Tasks"
     transform="translate(-665.12104,152.52253)"><path
       d="m 2038.51,2333.42 24.954,-47.953 -0.081,95.946 z"
       style="fill:#b5e3ec"
       id="path352" /><rect
       x="2063.46"
       y="2285.47"
       width="591.66699"
       height="95.945999"
       style="fill:#b5e3ec"
       id="rect352" /><path
       d="m 2142.53,2307.58 v 4.985 h -14.099 v 36.857 h -5.754 v -36.857 h -14.099 v -4.985 z"
       style="fill:#333333;fill-rule:nonzero"
       id="path353" /><path
       d="m 2144.49,2341.3 c 0,1.481 0.541,2.649 1.624,3.504 1.082,0.854 2.364,1.281 3.845,1.281 1.804,0 3.551,-0.417 5.241,-1.253 2.848,-1.386 4.272,-3.655 4.272,-6.807 v -4.13 c -0.627,0.398 -1.434,0.731 -2.421,0.996 -0.987,0.266 -1.956,0.456 -2.905,0.57 l -3.105,0.399 c -1.861,0.247 -3.256,0.636 -4.187,1.168 -1.576,0.892 -2.364,2.316 -2.364,4.272 z m 12.419,-10.368 c 1.177,-0.152 1.965,-0.645 2.364,-1.481 0.228,-0.456 0.342,-1.111 0.342,-1.965 0,-1.747 -0.622,-3.015 -1.866,-3.803 -1.244,-0.788 -3.024,-1.182 -5.341,-1.182 -2.677,0 -4.576,0.722 -5.696,2.165 -0.627,0.798 -1.035,1.984 -1.225,3.56 h -4.785 c 0.095,-3.759 1.315,-6.375 3.66,-7.847 2.345,-1.471 5.065,-2.207 8.16,-2.207 3.589,0 6.504,0.683 8.745,2.051 2.221,1.367 3.332,3.494 3.332,6.38 v 17.574 c 0,0.532 0.109,0.959 0.328,1.282 0.218,0.322 0.678,0.484 1.381,0.484 0.228,0 0.484,-0.014 0.769,-0.043 0.285,-0.028 0.589,-0.071 0.912,-0.128 v 3.788 c -0.798,0.228 -1.406,0.37 -1.823,0.427 -0.418,0.057 -0.988,0.086 -1.709,0.086 -1.766,0 -3.048,-0.627 -3.846,-1.88 -0.417,-0.665 -0.712,-1.605 -0.883,-2.82 -1.044,1.367 -2.544,2.554 -4.5,3.561 -1.956,1.006 -4.111,1.509 -6.466,1.509 -2.829,0 -5.141,-0.859 -6.935,-2.578 -1.795,-1.718 -2.692,-3.869 -2.692,-6.451 0,-2.829 0.883,-5.022 2.649,-6.58 1.766,-1.557 4.083,-2.516 6.95,-2.876 z"
       style="fill:#333333;fill-rule:nonzero"
       id="path354" /><path
       d="m 2176.05,2339.85 c 0.152,1.709 0.579,3.02 1.282,3.931 1.291,1.652 3.532,2.478 6.722,2.478 1.899,0 3.57,-0.413 5.013,-1.239 1.443,-0.826 2.165,-2.103 2.165,-3.831 0,-1.31 -0.579,-2.307 -1.738,-2.991 -0.74,-0.417 -2.202,-0.902 -4.386,-1.452 l -4.073,-1.026 c -2.602,-0.645 -4.52,-1.367 -5.754,-2.164 -2.202,-1.386 -3.304,-3.304 -3.304,-5.754 0,-2.886 1.04,-5.222 3.119,-7.007 2.079,-1.785 4.875,-2.677 8.388,-2.677 4.596,0 7.909,1.348 9.941,4.044 1.272,1.709 1.889,3.551 1.851,5.526 h -4.842 c -0.095,-1.158 -0.503,-2.212 -1.225,-3.161 -1.177,-1.349 -3.218,-2.023 -6.123,-2.023 -1.937,0 -3.404,0.371 -4.401,1.111 -0.997,0.741 -1.495,1.719 -1.495,2.934 0,1.329 0.655,2.392 1.965,3.19 0.759,0.475 1.88,0.892 3.361,1.253 l 3.389,0.826 c 3.684,0.893 6.153,1.757 7.406,2.592 1.994,1.31 2.991,3.371 2.991,6.181 0,2.715 -1.03,5.061 -3.091,7.035 -2.06,1.975 -5.198,2.963 -9.413,2.963 -4.539,0 -7.752,-1.031 -9.642,-3.091 -1.889,-2.06 -2.9,-4.609 -3.033,-7.648 z"
       style="fill:#333333;fill-rule:nonzero"
       id="path355" /><path
       d="m 2202.05,2307.58 h 4.928 v 24.296 l 13.159,-12.96 h 6.551 l -11.678,11.422 12.333,19.084 h -6.551 l -9.513,-15.381 -4.301,3.931 v 11.45 h -4.928 z"
       style="fill:#333333;fill-rule:nonzero"
       id="path356" /><path
       d="m 2234.38,2339.85 c 0.152,1.709 0.579,3.02 1.281,3.931 1.292,1.652 3.532,2.478 6.722,2.478 1.899,0 3.57,-0.413 5.013,-1.239 1.444,-0.826 2.165,-2.103 2.165,-3.831 0,-1.31 -0.579,-2.307 -1.737,-2.991 -0.741,-0.417 -2.203,-0.902 -4.387,-1.452 l -4.073,-1.026 c -2.601,-0.645 -4.519,-1.367 -5.753,-2.164 -2.203,-1.386 -3.304,-3.304 -3.304,-5.754 0,-2.886 1.039,-5.222 3.118,-7.007 2.08,-1.785 4.876,-2.677 8.389,-2.677 4.595,0 7.908,1.348 9.94,4.044 1.273,1.709 1.89,3.551 1.852,5.526 h -4.842 c -0.095,-1.158 -0.504,-2.212 -1.225,-3.161 -1.178,-1.349 -3.219,-2.023 -6.124,-2.023 -1.937,0 -3.404,0.371 -4.401,1.111 -0.997,0.741 -1.495,1.719 -1.495,2.934 0,1.329 0.655,2.392 1.965,3.19 0.76,0.475 1.88,0.892 3.361,1.253 l 3.39,0.826 c 3.684,0.893 6.152,1.757 7.405,2.592 1.994,1.31 2.991,3.371 2.991,6.181 0,2.715 -1.03,5.061 -3.09,7.035 -2.061,1.975 -5.199,2.963 -9.414,2.963 -4.538,0 -7.752,-1.031 -9.642,-3.091 -1.889,-2.06 -2.9,-4.609 -3.033,-7.648 z"
       style="fill:#333333;fill-rule:nonzero"
       id="path357" /></g><g
     id="Tag:-Steps"
     serif:id="Tag: Steps"
     transform="translate(0.91447814,-10.898469)"><path
       d="m 2038.51,2496.84 24.954,-47.952 -0.081,95.946 z"
       style="fill:#b5e3ec"
       id="path358" /><rect
       x="2063.46"
       y="2448.8899"
       width="591.66699"
       height="95.945999"
       style="fill:#b5e3ec"
       id="rect358" /><path
       d="m 2115.78,2499.35 c 0.133,2.374 0.693,4.301 1.681,5.782 1.879,2.773 5.193,4.159 9.94,4.159 2.127,0 4.064,-0.304 5.811,-0.912 3.38,-1.177 5.07,-3.285 5.07,-6.323 0,-2.278 -0.712,-3.902 -2.137,-4.87 -1.443,-0.95 -3.702,-1.776 -6.778,-2.478 l -5.669,-1.282 c -3.702,-0.836 -6.323,-1.757 -7.861,-2.763 -2.658,-1.747 -3.988,-4.358 -3.988,-7.833 0,-3.76 1.301,-6.845 3.903,-9.257 2.601,-2.411 6.285,-3.617 11.051,-3.617 4.386,0 8.113,1.058 11.18,3.176 3.066,2.117 4.6,5.502 4.6,10.154 h -5.327 c -0.285,-2.241 -0.892,-3.959 -1.823,-5.156 -1.728,-2.183 -4.661,-3.275 -8.801,-3.275 -3.342,0 -5.744,0.702 -7.206,2.108 -1.462,1.405 -2.193,3.038 -2.193,4.899 0,2.05 0.854,3.551 2.563,4.5 1.121,0.608 3.656,1.367 7.605,2.279 l 5.868,1.338 c 2.829,0.646 5.013,1.529 6.551,2.649 2.658,1.956 3.987,4.795 3.987,8.517 0,4.633 -1.685,7.947 -5.055,9.94 -3.371,1.994 -7.287,2.991 -11.75,2.991 -5.202,0 -9.276,-1.329 -12.219,-3.988 -2.943,-2.639 -4.386,-6.218 -4.329,-10.738 z"
       style="fill:#333333;fill-rule:nonzero"
       id="path359" /><path
       d="m 2151.33,2473.83 h 5.184 v 8.517 h 4.87 v 4.187 h -4.87 v 19.91 c 0,1.063 0.361,1.775 1.082,2.136 0.399,0.209 1.064,0.313 1.994,0.313 0.247,0 0.513,-0.01 0.798,-0.014 0.284,-0.01 0.617,-0.033 0.996,-0.071 v 4.044 c -0.588,0.171 -1.201,0.295 -1.837,0.371 -0.636,0.076 -1.324,0.114 -2.065,0.114 -2.392,0 -4.016,-0.613 -4.87,-1.838 -0.855,-1.224 -1.282,-2.815 -1.282,-4.771 v -20.194 h -4.13 v -4.187 h 4.13 z"
       style="fill:#333333;fill-rule:nonzero"
       id="path360" /><path
       d="m 2179.21,2481.66 c 2.165,0 4.263,0.508 6.295,1.524 2.031,1.016 3.579,2.331 4.642,3.945 1.026,1.538 1.709,3.333 2.051,5.383 0.304,1.406 0.456,3.646 0.456,6.722 h -22.359 c 0.095,3.096 0.826,5.578 2.193,7.449 1.367,1.87 3.484,2.805 6.352,2.805 2.677,0 4.813,-0.883 6.408,-2.649 0.912,-1.025 1.557,-2.212 1.937,-3.56 h 5.042 c -0.133,1.12 -0.575,2.369 -1.325,3.746 -0.75,1.376 -1.59,2.501 -2.521,3.375 -1.557,1.519 -3.484,2.544 -5.782,3.076 -1.234,0.304 -2.63,0.456 -4.187,0.456 -3.797,0 -7.016,-1.382 -9.655,-4.145 -2.64,-2.762 -3.96,-6.631 -3.96,-11.606 0,-4.9 1.33,-8.878 3.988,-11.935 2.659,-3.057 6.133,-4.586 10.425,-4.586 z m 8.175,13.501 c -0.209,-2.221 -0.694,-3.997 -1.453,-5.326 -1.405,-2.469 -3.75,-3.703 -7.035,-3.703 -2.355,0 -4.33,0.85 -5.925,2.549 -1.595,1.7 -2.44,3.86 -2.535,6.48 z"
       style="fill:#333333;fill-rule:nonzero"
       id="path361" /><path
       d="m 2211.83,2509.4 c 2.393,0 4.382,-1.002 5.967,-3.005 1.586,-2.003 2.379,-4.999 2.379,-8.987 0,-2.43 -0.352,-4.519 -1.054,-6.266 -1.33,-3.361 -3.76,-5.041 -7.292,-5.041 -3.551,0 -5.981,1.775 -7.292,5.326 -0.702,1.899 -1.054,4.31 -1.054,7.235 0,2.354 0.352,4.358 1.054,6.01 1.33,3.152 3.76,4.728 7.292,4.728 z m -13.273,-26.917 h 4.984 v 4.045 c 1.026,-1.386 2.146,-2.459 3.361,-3.219 1.728,-1.139 3.76,-1.709 6.096,-1.709 3.456,0 6.39,1.325 8.801,3.974 2.412,2.649 3.617,6.432 3.617,11.35 0,6.646 -1.737,11.393 -5.212,14.242 -2.203,1.804 -4.766,2.706 -7.69,2.706 -2.298,0 -4.225,-0.504 -5.782,-1.51 -0.912,-0.57 -1.928,-1.547 -3.048,-2.934 v 15.581 h -5.127 z"
       style="fill:#333333;fill-rule:nonzero"
       id="path362" /><path
       d="m 2234.44,2503.28 c 0.151,1.709 0.579,3.019 1.281,3.931 1.292,1.652 3.532,2.478 6.722,2.478 1.899,0 3.57,-0.413 5.013,-1.239 1.443,-0.826 2.165,-2.103 2.165,-3.831 0,-1.311 -0.579,-2.307 -1.737,-2.991 -0.741,-0.418 -2.203,-0.902 -4.387,-1.453 l -4.073,-1.025 c -2.601,-0.646 -4.519,-1.367 -5.753,-2.165 -2.203,-1.386 -3.305,-3.304 -3.305,-5.753 0,-2.887 1.04,-5.222 3.119,-7.007 2.08,-1.785 4.876,-2.678 8.389,-2.678 4.595,0 7.908,1.349 9.94,4.045 1.272,1.709 1.89,3.551 1.852,5.526 h -4.842 c -0.095,-1.159 -0.504,-2.212 -1.225,-3.162 -1.178,-1.348 -3.219,-2.022 -6.124,-2.022 -1.937,0 -3.404,0.37 -4.401,1.111 -0.997,0.74 -1.495,1.718 -1.495,2.933 0,1.33 0.655,2.393 1.965,3.19 0.76,0.475 1.88,0.893 3.361,1.254 l 3.39,0.826 c 3.684,0.892 6.152,1.756 7.405,2.592 1.994,1.31 2.991,3.37 2.991,6.181 0,2.715 -1.03,5.06 -3.09,7.035 -2.061,1.975 -5.199,2.962 -9.414,2.962 -4.538,0 -7.752,-1.03 -9.642,-3.09 -1.889,-2.061 -2.9,-4.61 -3.033,-7.648 z"
       style="fill:#333333;fill-rule:nonzero"
       id="path363" /></g><g
     id="Tag:-Components"
     serif:id="Tag: Components"
     transform="translate(0,10.898469)"><path
       d="m 2705.46,2333.42 24.954,-47.953 -0.081,95.946 z"
       style="fill:#b5e3ec"
       id="path364" /><rect
       x="2730.4199"
       y="2285.47"
       width="591.66699"
       height="95.945999"
       style="fill:#b5e3ec"
       id="rect364" /><path
       d="m 2796.66,2306.44 c 5.298,0 9.409,1.395 12.334,4.187 2.924,2.791 4.547,5.962 4.87,9.513 h -5.525 c -0.627,-2.696 -1.876,-4.832 -3.746,-6.409 -1.87,-1.576 -4.496,-2.364 -7.876,-2.364 -4.12,0 -7.448,1.448 -9.983,4.344 -2.535,2.896 -3.802,7.334 -3.802,13.316 0,4.899 1.144,8.872 3.432,11.92 2.288,3.048 5.701,4.572 10.24,4.572 4.177,0 7.358,-1.605 9.541,-4.814 1.159,-1.69 2.023,-3.912 2.592,-6.665 h 5.526 c -0.494,4.405 -2.127,8.099 -4.899,11.08 -3.323,3.589 -7.804,5.383 -13.444,5.383 -4.861,0 -8.944,-1.471 -12.248,-4.415 -4.348,-3.892 -6.522,-9.902 -6.522,-18.03 0,-6.171 1.633,-11.231 4.899,-15.181 3.532,-4.291 8.402,-6.437 14.611,-6.437 z"
       style="fill:#333333;fill-rule:nonzero"
       id="path365" /><path
       d="m 2832.58,2346.12 c 3.399,0 5.729,-1.287 6.992,-3.86 1.263,-2.573 1.894,-5.435 1.894,-8.587 0,-2.849 -0.455,-5.165 -1.367,-6.95 -1.443,-2.811 -3.931,-4.216 -7.462,-4.216 -3.134,0 -5.412,1.197 -6.836,3.589 -1.424,2.393 -2.137,5.279 -2.137,8.659 0,3.247 0.713,5.953 2.137,8.118 1.424,2.164 3.683,3.247 6.779,3.247 z m 0.199,-28.085 c 3.931,0 7.254,1.311 9.969,3.931 2.715,2.621 4.073,6.475 4.073,11.564 0,4.918 -1.196,8.982 -3.589,12.191 -2.392,3.209 -6.105,4.814 -11.137,4.814 -4.196,0 -7.529,-1.42 -9.997,-4.259 -2.469,-2.838 -3.703,-6.65 -3.703,-11.436 0,-5.127 1.301,-9.209 3.902,-12.247 2.602,-3.038 6.096,-4.558 10.482,-4.558 z"
       style="fill:#333333;fill-rule:nonzero"
       id="path366" /><path
       d="m 2852.91,2318.92 h 5.07 v 4.33 c 1.215,-1.5 2.316,-2.592 3.304,-3.276 1.69,-1.158 3.607,-1.737 5.753,-1.737 2.431,0 4.387,0.598 5.868,1.794 0.835,0.684 1.595,1.69 2.278,3.019 1.14,-1.633 2.478,-2.843 4.016,-3.631 1.539,-0.788 3.266,-1.182 5.184,-1.182 4.102,0 6.893,1.481 8.374,4.443 0.798,1.595 1.197,3.741 1.197,6.437 v 20.309 h -5.327 v -21.192 c 0,-2.031 -0.508,-3.427 -1.524,-4.187 -1.015,-0.759 -2.254,-1.139 -3.717,-1.139 -2.012,0 -3.745,0.674 -5.198,2.022 -1.452,1.349 -2.179,3.599 -2.179,6.751 v 17.745 h -5.212 v -19.91 c 0,-2.07 -0.247,-3.579 -0.741,-4.529 -0.778,-1.424 -2.231,-2.136 -4.358,-2.136 -1.936,0 -3.698,0.75 -5.283,2.25 -1.586,1.5 -2.379,4.216 -2.379,8.146 v 16.179 h -5.126 z"
       style="fill:#333333;fill-rule:nonzero"
       id="path367" /><path
       d="m 2914.38,2345.97 c 2.393,0 4.382,-1.001 5.967,-3.005 1.586,-2.003 2.379,-4.998 2.379,-8.986 0,-2.431 -0.352,-4.519 -1.054,-6.266 -1.33,-3.361 -3.76,-5.042 -7.292,-5.042 -3.551,0 -5.981,1.776 -7.292,5.327 -0.702,1.898 -1.054,4.31 -1.054,7.234 0,2.355 0.352,4.358 1.054,6.01 1.33,3.152 3.76,4.728 7.292,4.728 z m -13.273,-26.916 h 4.984 v 4.044 c 1.026,-1.386 2.146,-2.459 3.361,-3.218 1.728,-1.139 3.76,-1.709 6.096,-1.709 3.456,0 6.39,1.324 8.801,3.973 2.412,2.649 3.617,6.433 3.617,11.351 0,6.646 -1.737,11.393 -5.212,14.241 -2.203,1.804 -4.766,2.706 -7.69,2.706 -2.298,0 -4.225,-0.503 -5.782,-1.509 -0.912,-0.57 -1.928,-1.548 -3.048,-2.934 v 15.58 h -5.127 z"
       style="fill:#333333;fill-rule:nonzero"
       id="path368" /><path
       d="m 2946.05,2346.12 c 3.399,0 5.73,-1.287 6.993,-3.86 1.263,-2.573 1.894,-5.435 1.894,-8.587 0,-2.849 -0.456,-5.165 -1.367,-6.95 -1.443,-2.811 -3.931,-4.216 -7.463,-4.216 -3.133,0 -5.412,1.197 -6.836,3.589 -1.424,2.393 -2.136,5.279 -2.136,8.659 0,3.247 0.712,5.953 2.136,8.118 1.424,2.164 3.684,3.247 6.779,3.247 z m 0.2,-28.085 c 3.93,0 7.253,1.311 9.969,3.931 2.715,2.621 4.073,6.475 4.073,11.564 0,4.918 -1.197,8.982 -3.589,12.191 -2.393,3.209 -6.105,4.814 -11.137,4.814 -4.197,0 -7.529,-1.42 -9.998,-4.259 -2.468,-2.838 -3.702,-6.65 -3.702,-11.436 0,-5.127 1.3,-9.209 3.902,-12.247 2.601,-3.038 6.095,-4.558 10.482,-4.558 z"
       style="fill:#333333;fill-rule:nonzero"
       id="path369" /><path
       d="m 2966.39,2318.92 h 4.871 v 4.33 c 1.443,-1.785 2.971,-3.067 4.585,-3.845 1.615,-0.779 3.409,-1.168 5.384,-1.168 4.329,0 7.253,1.509 8.773,4.529 0.835,1.652 1.253,4.016 1.253,7.092 v 19.568 h -5.213 V 2330.2 c 0,-1.861 -0.275,-3.361 -0.826,-4.501 -0.911,-1.898 -2.563,-2.848 -4.956,-2.848 -1.215,0 -2.212,0.123 -2.99,0.37 -1.406,0.418 -2.64,1.254 -3.703,2.507 -0.855,1.006 -1.41,2.046 -1.666,3.119 -0.257,1.073 -0.385,2.606 -0.385,4.6 v 15.979 h -5.127 z"
       style="fill:#333333;fill-rule:nonzero"
       id="path370" /><path
       d="m 3011.53,2318.23 c 2.164,0 4.263,0.508 6.295,1.524 2.031,1.016 3.579,2.331 4.642,3.945 1.026,1.538 1.709,3.332 2.051,5.383 0.304,1.405 0.456,3.646 0.456,6.722 h -22.359 c 0.095,3.095 0.826,5.578 2.193,7.448 1.367,1.871 3.484,2.806 6.351,2.806 2.678,0 4.814,-0.883 6.409,-2.649 0.912,-1.026 1.557,-2.212 1.937,-3.561 h 5.042 c -0.133,1.121 -0.575,2.369 -1.325,3.746 -0.75,1.377 -1.59,2.502 -2.521,3.375 -1.557,1.519 -3.484,2.545 -5.782,3.076 -1.234,0.304 -2.63,0.456 -4.187,0.456 -3.797,0 -7.016,-1.381 -9.656,-4.144 -2.639,-2.763 -3.959,-6.632 -3.959,-11.607 0,-4.899 1.33,-8.877 3.988,-11.934 2.658,-3.058 6.133,-4.586 10.425,-4.586 z m 8.174,13.501 c -0.208,-2.222 -0.693,-3.997 -1.452,-5.327 -1.405,-2.468 -3.75,-3.702 -7.036,-3.702 -2.354,0 -4.329,0.849 -5.924,2.549 -1.595,1.699 -2.44,3.859 -2.535,6.48 z"
       style="fill:#333333;fill-rule:nonzero"
       id="path371" /><path
       d="m 3031.27,2318.92 h 4.87 v 4.33 c 1.443,-1.785 2.972,-3.067 4.586,-3.845 1.614,-0.779 3.408,-1.168 5.383,-1.168 4.33,0 7.254,1.509 8.773,4.529 0.836,1.652 1.253,4.016 1.253,7.092 v 19.568 h -5.212 V 2330.2 c 0,-1.861 -0.275,-3.361 -0.826,-4.501 -0.912,-1.898 -2.564,-2.848 -4.956,-2.848 -1.215,0 -2.212,0.123 -2.991,0.37 -1.405,0.418 -2.639,1.254 -3.703,2.507 -0.854,1.006 -1.41,2.046 -1.666,3.119 -0.256,1.073 -0.385,2.606 -0.385,4.6 v 15.979 h -5.126 z"
       style="fill:#333333;fill-rule:nonzero"
       id="path372" /><path
       d="m 3064.74,2310.4 h 5.184 v 8.516 h 4.871 v 4.187 h -4.871 v 19.91 c 0,1.063 0.361,1.776 1.082,2.136 0.399,0.209 1.064,0.314 1.994,0.314 0.247,0 0.513,-0.01 0.798,-0.015 0.285,-0.01 0.617,-0.033 0.997,-0.071 v 4.045 c -0.589,0.171 -1.201,0.294 -1.837,0.37 -0.637,0.076 -1.325,0.114 -2.066,0.114 -2.392,0 -4.016,-0.612 -4.87,-1.837 -0.855,-1.225 -1.282,-2.815 -1.282,-4.771 v -20.195 h -4.13 v -4.187 h 4.13 z"
       style="fill:#333333;fill-rule:nonzero"
       id="path373" /><path
       d="m 3082.97,2339.85 c 0.152,1.709 0.579,3.02 1.282,3.931 1.291,1.652 3.532,2.478 6.722,2.478 1.899,0 3.57,-0.413 5.013,-1.239 1.443,-0.826 2.165,-2.103 2.165,-3.831 0,-1.31 -0.579,-2.307 -1.738,-2.991 -0.74,-0.417 -2.202,-0.902 -4.386,-1.452 l -4.073,-1.026 c -2.602,-0.645 -4.519,-1.367 -5.754,-2.164 -2.202,-1.386 -3.304,-3.304 -3.304,-5.754 0,-2.886 1.04,-5.222 3.119,-7.007 2.079,-1.785 4.875,-2.677 8.388,-2.677 4.596,0 7.909,1.348 9.941,4.044 1.272,1.709 1.889,3.551 1.851,5.526 h -4.842 c -0.095,-1.158 -0.503,-2.212 -1.225,-3.161 -1.177,-1.349 -3.218,-2.023 -6.123,-2.023 -1.937,0 -3.404,0.371 -4.401,1.111 -0.997,0.741 -1.495,1.719 -1.495,2.934 0,1.329 0.655,2.392 1.965,3.19 0.76,0.475 1.88,0.892 3.361,1.253 l 3.389,0.826 c 3.684,0.893 6.153,1.757 7.406,2.592 1.994,1.31 2.991,3.371 2.991,6.181 0,2.715 -1.03,5.061 -3.091,7.035 -2.06,1.975 -5.198,2.963 -9.413,2.963 -4.539,0 -7.752,-1.031 -9.642,-3.091 -1.889,-2.06 -2.9,-4.609 -3.033,-7.648 z"
       style="fill:#333333;fill-rule:nonzero"
       id="path374" /></g><g
     id="Tag:-Services"
     serif:id="Tag: Services"
     transform="translate(0,-10.898469)"><path
       d="m 2705.46,2496.84 24.954,-47.952 -0.081,95.946 z"
       style="fill:#b5e3ec"
       id="path375" /><rect
       x="2730.4199"
       y="2448.8899"
       width="591.66699"
       height="95.945999"
       style="fill:#b5e3ec"
       id="rect375" /><path
       d="m 2786.61,2499.35 c 0.133,2.374 0.694,4.301 1.681,5.782 1.88,2.773 5.193,4.159 9.941,4.159 2.126,0 4.063,-0.304 5.81,-0.912 3.38,-1.177 5.07,-3.285 5.07,-6.323 0,-2.278 -0.712,-3.902 -2.136,-4.87 -1.443,-0.95 -3.703,-1.776 -6.779,-2.478 l -5.668,-1.282 c -3.703,-0.836 -6.324,-1.757 -7.862,-2.763 -2.658,-1.747 -3.987,-4.358 -3.987,-7.833 0,-3.76 1.3,-6.845 3.902,-9.257 2.601,-2.411 6.285,-3.617 11.051,-3.617 4.387,0 8.113,1.058 11.18,3.176 3.067,2.117 4.6,5.502 4.6,10.154 h -5.326 c -0.285,-2.241 -0.893,-3.959 -1.823,-5.156 -1.728,-2.183 -4.662,-3.275 -8.802,-3.275 -3.342,0 -5.744,0.702 -7.206,2.108 -1.462,1.405 -2.193,3.038 -2.193,4.899 0,2.05 0.855,3.551 2.564,4.5 1.12,0.608 3.655,1.367 7.605,2.279 l 5.867,1.338 c 2.829,0.646 5.013,1.529 6.551,2.649 2.659,1.956 3.988,4.795 3.988,8.517 0,4.633 -1.685,7.947 -5.056,9.94 -3.37,1.994 -7.287,2.991 -11.749,2.991 -5.203,0 -9.276,-1.329 -12.219,-3.988 -2.944,-2.639 -4.387,-6.218 -4.33,-10.738 z"
       style="fill:#333333;fill-rule:nonzero"
       id="path376" /><path
       d="m 2833.84,2481.66 c 2.165,0 4.263,0.508 6.295,1.524 2.032,1.016 3.579,2.331 4.643,3.945 1.025,1.538 1.709,3.333 2.051,5.383 0.303,1.406 0.455,3.646 0.455,6.722 h -22.359 c 0.095,3.096 0.826,5.578 2.193,7.449 1.368,1.87 3.485,2.805 6.352,2.805 2.677,0 4.814,-0.883 6.409,-2.649 0.911,-1.025 1.557,-2.212 1.937,-3.56 h 5.041 c -0.133,1.12 -0.574,2.369 -1.324,3.746 -0.75,1.376 -1.591,2.501 -2.521,3.375 -1.557,1.519 -3.485,2.544 -5.782,3.076 -1.234,0.304 -2.63,0.456 -4.187,0.456 -3.798,0 -7.017,-1.382 -9.656,-4.145 -2.639,-2.762 -3.959,-6.631 -3.959,-11.606 0,-4.9 1.329,-8.878 3.988,-11.935 2.658,-3.057 6.133,-4.586 10.424,-4.586 z m 8.175,13.501 c -0.209,-2.221 -0.693,-3.997 -1.453,-5.326 -1.405,-2.469 -3.75,-3.703 -7.035,-3.703 -2.355,0 -4.329,0.85 -5.924,2.549 -1.595,1.7 -2.44,3.86 -2.535,6.48 z"
       style="fill:#333333;fill-rule:nonzero"
       id="path377" /><path
       d="m 2853.72,2482.34 h 4.87 v 5.269 c 0.399,-1.025 1.377,-2.274 2.934,-3.745 1.557,-1.472 3.351,-2.208 5.383,-2.208 0.095,0 0.257,0.01 0.484,0.029 0.228,0.019 0.618,0.057 1.168,0.114 v 5.412 c -0.304,-0.057 -0.584,-0.095 -0.84,-0.114 -0.256,-0.019 -0.536,-0.029 -0.84,-0.029 -2.583,0 -4.567,0.831 -5.953,2.492 -1.386,1.662 -2.08,3.575 -2.08,5.74 v 17.545 h -5.126 z"
       style="fill:#333333;fill-rule:nonzero"
       id="path378" /><path
       d="m 2875.51,2482.34 8.146,24.837 8.517,-24.837 h 5.611 l -11.507,30.505 h -5.469 l -11.251,-30.505 z"
       style="fill:#333333;fill-rule:nonzero"
       id="path379" /><path
       d="m 2902.17,2482.49 h 5.213 v 30.363 h -5.213 z m 0,-11.478 h 5.213 v 5.81 h -5.213 z"
       style="fill:#333333;fill-rule:nonzero"
       id="path380" /><path
       d="m 2926.89,2481.46 c 3.437,0 6.233,0.835 8.388,2.506 2.155,1.671 3.451,4.548 3.888,8.631 h -4.985 c -0.304,-1.88 -0.997,-3.442 -2.079,-4.686 -1.082,-1.243 -2.82,-1.865 -5.212,-1.865 -3.267,0 -5.602,1.595 -7.007,4.785 -0.912,2.07 -1.367,4.624 -1.367,7.662 0,3.057 0.645,5.63 1.936,7.719 1.292,2.089 3.323,3.133 6.096,3.133 2.126,0 3.812,-0.65 5.056,-1.951 1.243,-1.301 2.103,-3.081 2.577,-5.341 h 4.985 c -0.57,4.045 -1.994,7.002 -4.273,8.873 -2.278,1.87 -5.193,2.805 -8.744,2.805 -3.988,0 -7.168,-1.457 -9.542,-4.372 -2.373,-2.915 -3.56,-6.556 -3.56,-10.923 0,-5.355 1.301,-9.523 3.902,-12.504 2.601,-2.981 5.915,-4.472 9.941,-4.472 z"
       style="fill:#333333;fill-rule:nonzero"
       id="path381" /><path
       d="m 2957,2481.66 c 2.165,0 4.263,0.508 6.295,1.524 2.032,1.016 3.579,2.331 4.643,3.945 1.025,1.538 1.709,3.333 2.05,5.383 0.304,1.406 0.456,3.646 0.456,6.722 h -22.359 c 0.095,3.096 0.826,5.578 2.193,7.449 1.367,1.87 3.485,2.805 6.352,2.805 2.677,0 4.814,-0.883 6.409,-2.649 0.911,-1.025 1.557,-2.212 1.936,-3.56 h 5.042 c -0.133,1.12 -0.574,2.369 -1.325,3.746 -0.75,1.376 -1.59,2.501 -2.52,3.375 -1.557,1.519 -3.485,2.544 -5.782,3.076 -1.235,0.304 -2.63,0.456 -4.187,0.456 -3.798,0 -7.017,-1.382 -9.656,-4.145 -2.64,-2.762 -3.959,-6.631 -3.959,-11.606 0,-4.9 1.329,-8.878 3.987,-11.935 2.659,-3.057 6.134,-4.586 10.425,-4.586 z m 8.175,13.501 c -0.209,-2.221 -0.693,-3.997 -1.453,-5.326 -1.405,-2.469 -3.75,-3.703 -7.035,-3.703 -2.355,0 -4.33,0.85 -5.925,2.549 -1.595,1.7 -2.44,3.86 -2.535,6.48 z"
       style="fill:#333333;fill-rule:nonzero"
       id="path382" /><path
       d="m 2979.79,2503.28 c 0.152,1.709 0.579,3.019 1.281,3.931 1.292,1.652 3.532,2.478 6.722,2.478 1.899,0 3.57,-0.413 5.013,-1.239 1.444,-0.826 2.165,-2.103 2.165,-3.831 0,-1.311 -0.579,-2.307 -1.737,-2.991 -0.741,-0.418 -2.203,-0.902 -4.387,-1.453 l -4.073,-1.025 c -2.601,-0.646 -4.519,-1.367 -5.753,-2.165 -2.203,-1.386 -3.304,-3.304 -3.304,-5.753 0,-2.887 1.039,-5.222 3.118,-7.007 2.08,-1.785 4.876,-2.678 8.389,-2.678 4.595,0 7.908,1.349 9.94,4.045 1.273,1.709 1.89,3.551 1.852,5.526 h -4.842 c -0.095,-1.159 -0.504,-2.212 -1.225,-3.162 -1.178,-1.348 -3.219,-2.022 -6.124,-2.022 -1.937,0 -3.404,0.37 -4.401,1.111 -0.997,0.74 -1.495,1.718 -1.495,2.933 0,1.33 0.655,2.393 1.965,3.19 0.76,0.475 1.88,0.893 3.361,1.254 l 3.39,0.826 c 3.684,0.892 6.152,1.756 7.405,2.592 1.994,1.31 2.991,3.37 2.991,6.181 0,2.715 -1.03,5.06 -3.09,7.035 -2.061,1.975 -5.198,2.962 -9.414,2.962 -4.538,0 -7.752,-1.03 -9.642,-3.09 -1.889,-2.061 -2.9,-4.61 -3.033,-7.648 z"
       style="fill:#333333;fill-rule:nonzero"
       id="path383" /></g><g
     id="Tag:-Formulas"
     serif:id="Tag: Formulas"
     transform="translate(-664.80659,10.898469)"><path
       d="m 1372.01,2333.42 24.953,-47.953 -0.08,95.946 z"
       style="fill:#b5e3ec"
       id="path384" /><rect
       x="1396.96"
       y="2285.47"
       width="591.66699"
       height="95.945999"
       style="fill:#b5e3ec"
       id="rect384" /><path
       d="m 1446.12,2307.58 h 29.025 v 5.127 h -23.357 v 12.704 h 20.537 v 4.984 h -20.537 v 19.027 h -5.668 z"
       style="fill:#333333;fill-rule:nonzero"
       id="path385" /><path
       d="m 1492.63,2346.12 c 3.399,0 5.73,-1.287 6.993,-3.86 1.263,-2.573 1.894,-5.435 1.894,-8.587 0,-2.849 -0.456,-5.165 -1.367,-6.95 -1.443,-2.811 -3.931,-4.216 -7.463,-4.216 -3.133,0 -5.412,1.197 -6.836,3.589 -1.424,2.393 -2.136,5.279 -2.136,8.659 0,3.247 0.712,5.953 2.136,8.118 1.424,2.164 3.684,3.247 6.779,3.247 z m 0.2,-28.085 c 3.93,0 7.253,1.311 9.969,3.931 2.715,2.621 4.073,6.475 4.073,11.564 0,4.918 -1.197,8.982 -3.589,12.191 -2.393,3.209 -6.105,4.814 -11.137,4.814 -4.197,0 -7.529,-1.42 -9.998,-4.259 -2.468,-2.838 -3.702,-6.65 -3.702,-11.436 0,-5.127 1.3,-9.209 3.902,-12.247 2.601,-3.038 6.095,-4.558 10.482,-4.558 z"
       style="fill:#333333;fill-rule:nonzero"
       id="path386" /><path
       d="m 1513.11,2318.92 h 4.871 v 5.27 c 0.399,-1.026 1.377,-2.274 2.934,-3.746 1.557,-1.471 3.351,-2.207 5.383,-2.207 0.095,0 0.257,0.01 0.484,0.028 0.228,0.019 0.617,0.057 1.168,0.114 v 5.412 c -0.304,-0.057 -0.584,-0.095 -0.84,-0.114 -0.256,-0.019 -0.537,-0.028 -0.84,-0.028 -2.583,0 -4.567,0.83 -5.953,2.492 -1.386,1.661 -2.08,3.574 -2.08,5.739 v 17.546 h -5.127 z"
       style="fill:#333333;fill-rule:nonzero"
       id="path387" /><path
       d="m 1532.4,2318.92 h 5.07 v 4.33 c 1.215,-1.5 2.316,-2.592 3.304,-3.276 1.69,-1.158 3.607,-1.737 5.753,-1.737 2.431,0 4.387,0.598 5.868,1.794 0.835,0.684 1.595,1.69 2.278,3.019 1.14,-1.633 2.478,-2.843 4.016,-3.631 1.538,-0.788 3.266,-1.182 5.184,-1.182 4.102,0 6.893,1.481 8.374,4.443 0.798,1.595 1.197,3.741 1.197,6.437 v 20.309 h -5.327 v -21.192 c 0,-2.031 -0.508,-3.427 -1.524,-4.187 -1.015,-0.759 -2.254,-1.139 -3.717,-1.139 -2.012,0 -3.745,0.674 -5.198,2.022 -1.452,1.349 -2.179,3.599 -2.179,6.751 v 17.745 h -5.212 v -19.91 c 0,-2.07 -0.247,-3.579 -0.741,-4.529 -0.778,-1.424 -2.231,-2.136 -4.358,-2.136 -1.936,0 -3.698,0.75 -5.283,2.25 -1.586,1.5 -2.379,4.216 -2.379,8.146 v 16.179 h -5.126 z"
       style="fill:#333333;fill-rule:nonzero"
       id="path388" /><path
       d="m 1586.12,2318.92 v 20.252 c 0,1.557 0.246,2.829 0.74,3.817 0.912,1.823 2.611,2.734 5.099,2.734 3.57,0 6,-1.595 7.291,-4.785 0.703,-1.709 1.054,-4.054 1.054,-7.035 v -14.983 h 5.127 v 30.506 h -4.842 l 0.057,-4.501 c -0.665,1.159 -1.491,2.137 -2.478,2.934 -1.956,1.595 -4.329,2.393 -7.121,2.393 -4.348,0 -7.31,-1.453 -8.887,-4.358 -0.854,-1.557 -1.281,-3.636 -1.281,-6.238 v -20.736 z"
       style="fill:#333333;fill-rule:nonzero"
       id="path389" /><rect
       x="1613.5699"
       y="2307.5801"
       width="5.1269999"
       height="41.841999"
       style="fill:#333333;fill-rule:nonzero"
       id="rect389" /><path
       d="m 1630.32,2341.3 c 0,1.481 0.542,2.649 1.624,3.504 1.082,0.854 2.364,1.281 3.845,1.281 1.804,0 3.551,-0.417 5.241,-1.253 2.848,-1.386 4.272,-3.655 4.272,-6.807 v -4.13 c -0.626,0.398 -1.433,0.731 -2.421,0.996 -0.987,0.266 -1.955,0.456 -2.905,0.57 l -3.105,0.399 c -1.86,0.247 -3.256,0.636 -4.187,1.168 -1.576,0.892 -2.364,2.316 -2.364,4.272 z m 12.419,-10.368 c 1.177,-0.152 1.965,-0.645 2.364,-1.481 0.228,-0.456 0.342,-1.111 0.342,-1.965 0,-1.747 -0.622,-3.015 -1.866,-3.803 -1.244,-0.788 -3.024,-1.182 -5.34,-1.182 -2.678,0 -4.577,0.722 -5.697,2.165 -0.627,0.798 -1.035,1.984 -1.225,3.56 h -4.785 c 0.095,-3.759 1.315,-6.375 3.66,-7.847 2.345,-1.471 5.065,-2.207 8.161,-2.207 3.588,0 6.503,0.683 8.744,2.051 2.222,1.367 3.332,3.494 3.332,6.38 v 17.574 c 0,0.532 0.11,0.959 0.328,1.282 0.218,0.322 0.679,0.484 1.381,0.484 0.228,0 0.485,-0.014 0.769,-0.043 0.285,-0.028 0.589,-0.071 0.912,-0.128 v 3.788 c -0.798,0.228 -1.405,0.37 -1.823,0.427 -0.418,0.057 -0.987,0.086 -1.709,0.086 -1.766,0 -3.048,-0.627 -3.845,-1.88 -0.418,-0.665 -0.712,-1.605 -0.883,-2.82 -1.045,1.367 -2.545,2.554 -4.501,3.561 -1.955,1.006 -4.111,1.509 -6.465,1.509 -2.83,0 -5.141,-0.859 -6.936,-2.578 -1.794,-1.718 -2.691,-3.869 -2.691,-6.451 0,-2.829 0.882,-5.022 2.648,-6.58 1.766,-1.557 4.083,-2.516 6.95,-2.876 z"
       style="fill:#333333;fill-rule:nonzero"
       id="path390" /><path
       d="m 1661.88,2339.85 c 0.151,1.709 0.579,3.02 1.281,3.931 1.292,1.652 3.532,2.478 6.722,2.478 1.899,0 3.57,-0.413 5.013,-1.239 1.443,-0.826 2.165,-2.103 2.165,-3.831 0,-1.31 -0.579,-2.307 -1.737,-2.991 -0.741,-0.417 -2.203,-0.902 -4.387,-1.452 l -4.073,-1.026 c -2.601,-0.645 -4.519,-1.367 -5.753,-2.164 -2.203,-1.386 -3.304,-3.304 -3.304,-5.754 0,-2.886 1.039,-5.222 3.118,-7.007 2.08,-1.785 4.876,-2.677 8.389,-2.677 4.595,0 7.908,1.348 9.94,4.044 1.272,1.709 1.89,3.551 1.852,5.526 h -4.842 c -0.095,-1.158 -0.504,-2.212 -1.225,-3.161 -1.178,-1.349 -3.219,-2.023 -6.124,-2.023 -1.937,0 -3.404,0.371 -4.401,1.111 -0.997,0.741 -1.495,1.719 -1.495,2.934 0,1.329 0.655,2.392 1.965,3.19 0.76,0.475 1.88,0.892 3.361,1.253 l 3.39,0.826 c 3.684,0.893 6.152,1.757 7.405,2.592 1.994,1.31 2.991,3.371 2.991,6.181 0,2.715 -1.03,5.061 -3.09,7.035 -2.061,1.975 -5.199,2.963 -9.414,2.963 -4.538,0 -7.752,-1.031 -9.642,-3.091 -1.889,-2.06 -2.9,-4.609 -3.033,-7.648 z"
       style="fill:#333333;fill-rule:nonzero"
       id="path391" /></g><text
     xml:space="preserve"
     style="font-weight:500;font-size:58.6667px;font-family:'IBM Plex Sans';-inkscape-font-specification:'IBM Plex Sans, Medium';fill:#333333;fill-opacity:1;stroke:#333333;stroke-width:1.13446;stroke-dasharray:none;stroke-opacity:1"
     x="1439.1953"
     y="2362.1233"
     id="text881"
     transform="scale(0.99931866,1.0006818)"><tspan
       sodipodi:role="line"
       id="tspan881"
       x="1439.1953"
       y="2362.1233"
       style="font-style:normal;font-variant:normal;font-weight:normal;font-stretch:normal;font-size:58.6667px;font-family:'IBM Plex Sans';-inkscape-font-specification:'IBM Plex Sans, Normal';font-variant-ligatures:normal;font-variant-caps:normal;font-variant-numeric:normal;font-variant-east-asian:normal;fill:#333333;fill-opacity:1;stroke:#333333;stroke-width:1.13446;stroke-dasharray:none;stroke-opacity:1">Trigger</tspan></text><text
     xml:space="preserve"
     style="font-weight:500;font-size:58.6667px;font-family:'IBM Plex Sans';-inkscape-font-specification:'IBM Plex Sans, Medium';clip-rule:evenodd;fill:#333333;fill-opacity:1;fill-rule:evenodd;stroke:#333333;stroke-width:1.13446;stroke-linejoin:round;stroke-miterlimit:2;stroke-dasharray:none;stroke-opacity:1"
     x="2104.3223"
     y="2363.4993"
     id="text881-2"
     transform="scale(0.99931866,1.0006818)"><tspan
       sodipodi:role="line"
       id="tspan881-5"
       x="2104.3223"
       y="2363.4993"
       style="font-style:normal;font-variant:normal;font-weight:normal;font-stretch:normal;font-size:58.6667px;font-family:'IBM Plex Sans';-inkscape-font-specification:'IBM Plex Sans, Normal';font-variant-ligatures:normal;font-variant-caps:normal;font-variant-numeric:normal;font-variant-east-asian:normal;fill:#333333;fill-opacity:1;stroke:#333333;stroke-width:1.13446;stroke-dasharray:none;stroke-opacity:1">Runtime</tspan></text></svg>
