<?xml version="1.0" encoding="UTF-8" standalone="no"?>
<!DOCTYPE svg PUBLIC "-//W3C//DTD SVG 1.1//EN" "http://www.w3.org/Graphics/SVG/1.1/DTD/svg11.dtd">
<svg width="100%" height="100%" viewBox="0 0 1200 300" version="1.1" xmlns="http://www.w3.org/2000/svg" xmlns:xlink="http://www.w3.org/1999/xlink" xml:space="preserve" xmlns:serif="http://www.serif.com/" style="fill-rule:evenodd;clip-rule:evenodd;">
    <g id="sbsvgG1007">
        <g id="sbsvgG1009">
            <g id="sbsvgG1012">
                <g id="sbsvgG1115">
                    <path id="sbsvgPath2284" d="M545.61,158L545.61,102.5L560.61,102.5" style="fill:none;fill-rule:nonzero;stroke:rgb(255,123,49);stroke-width:1px;"/>
                    <path id="sbsvgPath2616" d="M532.61,158L545.61,158L545.61,264.5L560.61,264.5" style="fill:none;fill-rule:nonzero;stroke:rgb(74,81,217);stroke-width:1px;"/>
                    <path id="sbsvgPath2658" d="M545.61,158L545.61,51.5L560.61,51.5" style="fill:none;fill-rule:nonzero;stroke:rgb(255,171,170);stroke-width:1px;"/>
                    <path id="sbsvgPath2990" d="M545.61,158L545.61,178.5L560.61,178.5" style="fill:none;fill-rule:nonzero;stroke:rgb(140,181,255);stroke-width:1px;"/>
                    <path id="sbsvgPath2999" d="M720.192,178.5L720.192,141.5L729.192,141.5" style="fill:none;fill-rule:nonzero;stroke:rgb(140,181,255);stroke-width:1px;"/>
                    <path id="sbsvgPath3018" d="M720.192,178.5L729.192,178.5" style="fill:none;fill-rule:nonzero;stroke:rgb(140,181,255);stroke-width:1px;"/>
                    <path id="sbsvgPath3037" d="M707.192,178.5L720.192,178.5L720.192,215.5L729.192,215.5" style="fill:none;fill-rule:nonzero;stroke:rgb(140,181,255);stroke-width:1px;"/>
                </g>
            </g>
            <g id="sbsvgG1014">
                <g id="sbsvgG1020">
                    <g id="sbsvgG1021">
                        <g id="sbsvgG1022">
                            <path id="sbsvgPath1023" d="M391.61,127.5L524.61,127.5C529.943,127.5 532.61,130.167 532.61,135.5L532.61,180.5C532.61,185.833 529.943,188.5 524.61,188.5L391.61,188.5C386.277,188.5 383.61,185.833 383.61,180.5L383.61,135.5C383.61,130.167 386.277,127.5 391.61,127.5Z" style="fill:none;fill-rule:nonzero;"/>
                            <path id="sbsvgPath1024" d="M391.61,127.5L524.61,127.5C529.943,127.5 532.61,130.167 532.61,135.5L532.61,180.5C532.61,185.833 529.943,188.5 524.61,188.5L391.61,188.5C386.277,188.5 383.61,185.833 383.61,180.5L383.61,135.5C383.61,130.167 386.277,127.5 391.61,127.5Z" style="fill:none;fill-rule:nonzero;"/>
                            <path id="sbsvgPath1025" d="M391.61,127.5L524.61,127.5C529.943,127.5 532.61,130.167 532.61,135.5L532.61,180.5C532.61,185.833 529.943,188.5 524.61,188.5L391.61,188.5C386.277,188.5 383.61,185.833 383.61,180.5L383.61,135.5C383.61,130.167 386.277,127.5 391.61,127.5Z" style="fill:none;fill-rule:nonzero;"/>
                            <g>
                                <g id="sbsvgG1026">
                                    <g id="sbsvgG1027">
                                        <g id="sbsvgG1106">
                                            <g id="sbsvgText1105">
                                                <g>
                                                    <rect x="410.622" y="147.508" width="3.276" height="19.992" style="fill:rgb(25,25,89);"/>
                                                </g>
                                                <g>
                                                    <path d="M427.842,147.116L427.842,155.012C426.638,153.416 425.21,152.632 423.53,152.632C421.458,152.632 419.806,153.388 418.63,154.9C417.51,156.3 416.978,158.064 416.978,160.192C416.978,162.404 417.538,164.224 418.658,165.624C419.862,167.136 421.542,167.892 423.698,167.892C425.602,167.892 427.058,167.248 428.066,165.96L428.066,167.5L431.034,167.5L431.034,147.116L427.842,147.116ZM424.286,155.208C425.294,155.208 426.162,155.628 426.834,156.468C427.562,157.364 427.954,158.596 427.954,160.136L427.954,160.36C427.954,161.76 427.646,162.936 427.058,163.832C426.386,164.812 425.406,165.316 424.174,165.316C422.746,165.316 421.71,164.812 421.066,163.804C420.506,162.964 420.254,161.76 420.254,160.192C420.254,158.624 420.534,157.448 421.122,156.636C421.794,155.684 422.83,155.208 424.286,155.208Z" style="fill:rgb(25,25,89);fill-rule:nonzero;"/>
                                                </g>
                                                <g>
                                                    <path d="M440.554,152.632C438.398,152.632 436.69,153.36 435.458,154.844C434.17,156.3 433.554,158.092 433.554,160.248C433.554,162.656 434.226,164.532 435.57,165.904C436.83,167.22 438.538,167.892 440.694,167.892C442.626,167.892 444.222,167.332 445.51,166.24C446.518,165.344 447.19,164.196 447.526,162.852L444.334,162.852C443.942,163.664 443.522,164.252 443.046,164.616C442.43,165.064 441.646,165.288 440.666,165.288C439.518,165.288 438.622,164.924 438.006,164.224C437.39,163.524 437.026,162.488 436.914,161.144L447.75,161.144C447.75,158.54 447.162,156.496 446.014,155.04C444.754,153.416 442.934,152.632 440.554,152.632ZM440.638,155.236C442.878,155.236 444.138,156.384 444.418,158.736L436.97,158.736C437.166,157.588 437.558,156.72 438.146,156.132C438.762,155.516 439.574,155.236 440.638,155.236Z" style="fill:rgb(25,25,89);fill-rule:nonzero;"/>
                                                </g>
                                                <g>
                                                    <path d="M457.746,152.632C456.878,152.632 456.094,152.8 455.366,153.164C454.666,153.5 454.022,154.032 453.462,154.704L453.462,153.024L450.27,153.024L450.27,167.5L453.462,167.5L453.462,158.792C453.574,157.644 453.966,156.748 454.638,156.132C455.226,155.572 455.926,155.292 456.71,155.292C458.894,155.292 459.986,156.468 459.986,158.848L459.986,167.5L463.178,167.5L463.178,158.568C463.178,154.592 461.358,152.632 457.746,152.632Z" style="fill:rgb(25,25,89);fill-rule:nonzero;"/>
                                                </g>
                                                <g>
                                                    <path d="M471.074,148.348L467.882,149.664L467.882,153.024L465.278,153.024L465.278,155.656L467.882,155.656L467.882,163.832C467.882,165.008 468.162,165.876 468.722,166.492C469.31,167.164 470.234,167.5 471.494,167.5L473.93,167.5L473.93,164.868L472.026,164.868C471.69,164.868 471.466,164.784 471.298,164.616C471.13,164.42 471.074,164.168 471.074,163.832L471.074,155.656L474.294,155.656L474.294,153.024L471.074,153.024L471.074,148.348Z" style="fill:rgb(25,25,89);fill-rule:nonzero;"/>
                                                </g>
                                                <g>
                                                    <path d="M478.83,147.116C478.214,147.116 477.71,147.312 477.29,147.704C476.87,148.096 476.674,148.6 476.674,149.216C476.674,149.832 476.87,150.336 477.29,150.756C477.71,151.148 478.214,151.344 478.83,151.344C479.446,151.344 479.95,151.148 480.37,150.756C480.79,150.364 481.014,149.832 481.014,149.216C481.014,148.6 480.79,148.096 480.398,147.704C479.978,147.312 479.446,147.116 478.83,147.116ZM477.234,153.024L477.234,167.5L480.426,167.5L480.426,153.024L477.234,153.024Z" style="fill:rgb(25,25,89);fill-rule:nonzero;"/>
                                                </g>
                                                <g>
                                                    <path d="M488.91,148.348L485.718,149.664L485.718,153.024L483.114,153.024L483.114,155.656L485.718,155.656L485.718,163.832C485.718,165.008 485.998,165.876 486.558,166.492C487.146,167.164 488.07,167.5 489.33,167.5L491.766,167.5L491.766,164.868L489.862,164.868C489.526,164.868 489.302,164.784 489.134,164.616C488.966,164.42 488.91,164.168 488.91,163.832L488.91,155.656L492.13,155.656L492.13,153.024L488.91,153.024L488.91,148.348Z" style="fill:rgb(25,25,89);fill-rule:nonzero;"/>
                                                </g>
                                                <g>
                                                    <path d="M492.97,153.024L498.71,167.164L496.162,173.044L499.578,173.044L507.418,153.024L503.946,153.024L500.278,163.328L496.442,153.024L492.97,153.024Z" style="fill:rgb(25,25,89);fill-rule:nonzero;"/>
                                                </g>
                                            </g>
                                        </g>
                                    </g>
                                </g>
                            </g>
                        </g>
                    </g>
                </g>
                <g id="sbsvgG2276">
                    <g id="sbsvgG2277">
                        <g id="sbsvgG2278">
                            <rect id="sbsvgPath2279" x="560.61" y="64" width="146.582" height="38.5" style="fill:none;"/>
                            <rect id="sbsvgPath2280" x="560.61" y="64" width="146.582" height="38.5" style="fill:none;"/>
                            <path id="sbsvgPath2281" d="M560.61,102.5L707.192,102.5" style="fill:none;fill-rule:nonzero;stroke:rgb(255,123,49);stroke-width:5px;"/>
                            <g>
                                <g id="sbsvgG2282">
                                    <g id="sbsvgG2283">
                                        <g id="sbsvgG2286">
                                            <g id="sbsvgText2285">
                                                <g>
                                                    <path d="M586.571,72.556C583.804,72.56 581.717,73.461 580.263,75.308C578.955,76.936 578.326,79.025 578.33,81.598C578.334,84.22 578.944,86.307 580.208,87.859C581.643,89.653 583.78,90.573 586.621,90.569C588.49,90.566 590.091,90.03 591.425,88.96C592.856,87.817 593.752,86.238 594.137,84.222L591.564,84.226C591.226,85.586 590.621,86.606 589.748,87.287C588.923,87.919 587.855,88.236 586.593,88.238C584.651,88.241 583.218,87.636 582.294,86.424C581.418,85.284 580.979,83.682 580.976,81.595C580.973,79.58 581.408,77.977 582.305,76.81C583.25,75.522 584.657,74.889 586.526,74.887C587.788,74.885 588.808,75.151 589.634,75.708C590.46,76.265 591.02,77.138 591.313,78.303L593.886,78.299C593.617,76.552 592.838,75.145 591.574,74.127C590.262,73.061 588.586,72.553 586.571,72.556Z" style="fill-rule:nonzero;"/>
                                                </g>
                                                <g>
                                                    <path d="M602.333,77.316C600.439,77.319 598.911,77.952 597.772,79.216C596.632,80.456 596.076,82.035 596.079,83.952C596.082,85.846 596.642,87.423 597.76,88.635C598.927,89.896 600.458,90.549 602.351,90.547C604.245,90.544 605.773,89.886 606.937,88.622C608.052,87.407 608.608,85.828 608.605,83.935C608.602,82.017 608.018,80.44 606.899,79.204C605.756,77.943 604.226,77.314 602.333,77.316ZM602.336,79.428C603.525,79.427 604.448,79.887 605.129,80.833C605.713,81.633 606.006,82.676 606.008,83.939C606.009,85.177 605.719,86.197 605.138,87.023C604.46,87.946 603.538,88.433 602.348,88.435C601.159,88.436 600.236,87.952 599.579,87.031C598.995,86.23 598.727,85.211 598.725,83.949C598.723,82.686 598.989,81.642 599.57,80.84C600.224,79.893 601.146,79.43 602.336,79.428Z" style="fill-rule:nonzero;"/>
                                                </g>
                                                <g>
                                                    <path d="M617.408,77.295C616.631,77.296 615.927,77.443 615.297,77.784C614.666,78.1 614.108,78.562 613.624,79.194L613.621,77.641L611.048,77.644L611.066,90.195L613.639,90.191L613.628,82.641C613.724,81.622 614.087,80.82 614.669,80.237C615.202,79.702 615.857,79.458 616.586,79.457C618.528,79.454 619.524,80.521 619.527,82.657L619.538,90.183L622.111,90.179L622.1,82.435C622.095,78.988 620.515,77.291 617.408,77.295Z" style="fill-rule:nonzero;"/>
                                                </g>
                                                <g>
                                                    <path d="M629.976,72.835C628.86,72.837 628.035,73.129 627.453,73.761C626.871,74.345 626.581,75.195 626.583,76.263L626.585,77.622L623.696,77.626L623.699,79.738L626.588,79.734L626.602,90.173L629.151,90.169L629.136,79.731L634.259,79.724L634.273,90.162L636.846,90.159L636.829,77.608L629.134,77.619L629.132,76.332C629.131,75.871 629.228,75.531 629.422,75.337C629.616,75.118 629.931,75.02 630.344,75.02L632.601,75.016L632.598,72.832L629.976,72.835Z" style="fill-rule:nonzero;"/>
                                                </g>
                                                <g>
                                                    <path d="M649.057,72.469L649.066,79.46C648.045,77.981 646.757,77.254 645.228,77.256C643.431,77.259 642,77.916 640.982,79.229C640.013,80.444 639.554,81.974 639.556,83.819C639.559,85.737 640.047,87.314 641.02,88.526C642.065,89.836 643.523,90.489 645.368,90.487C647.067,90.484 648.377,89.851 649.249,88.636L649.251,90.141L651.655,90.138L651.63,72.465L649.057,72.469ZM645.813,79.343C646.76,79.342 647.537,79.705 648.17,80.481C648.802,81.305 649.143,82.397 649.145,83.757L649.146,83.975C649.147,85.238 648.882,86.258 648.349,87.059C647.719,87.934 646.87,88.397 645.753,88.398C644.491,88.4 643.543,87.94 642.96,87.043C642.449,86.267 642.204,85.199 642.203,83.815C642.201,82.431 642.466,81.363 642.999,80.634C643.605,79.759 644.551,79.345 645.813,79.343Z" style="fill-rule:nonzero;"/>
                                                </g>
                                                <g>
                                                    <path d="M659.866,77.236C658.021,77.239 656.541,77.872 655.475,79.16C654.36,80.424 653.828,81.978 653.831,83.847C653.834,85.911 654.418,87.536 655.585,88.749C656.655,89.888 658.137,90.469 659.982,90.466C661.657,90.464 663.04,89.976 664.131,89.028C665.004,88.25 665.561,87.254 665.85,86.088L663.277,86.092C662.938,86.821 662.575,87.379 662.138,87.72C661.581,88.133 660.853,88.353 659.954,88.354C658.935,88.356 658.133,88.017 657.55,87.386C656.966,86.732 656.649,85.786 656.551,84.572L666.067,84.559C666.039,82.325 665.527,80.578 664.554,79.317C663.484,77.911 661.905,77.233 659.866,77.236ZM659.942,79.348C661.981,79.345 663.123,80.436 663.369,82.62L656.596,82.63C656.741,81.561 657.104,80.76 657.637,80.201C658.219,79.617 658.971,79.349 659.942,79.348Z" style="fill-rule:nonzero;"/>
                                                </g>
                                                <g>
                                                    <path d="M674.601,77.215C673.825,77.216 673.121,77.363 672.49,77.704C671.859,78.02 671.302,78.482 670.817,79.114L670.815,77.561L668.242,77.564L668.259,90.115L670.832,90.111L670.822,82.561C670.918,81.542 671.281,80.74 671.862,80.157C672.396,79.622 673.051,79.378 673.779,79.377C675.721,79.374 676.718,80.441 676.721,82.577L676.731,90.103L679.305,90.099L679.294,82.355C679.289,78.908 677.709,77.211 674.601,77.215Z" style="fill-rule:nonzero;"/>
                                                </g>
                                                <g>
                                                    <path d="M687.807,77.197C685.865,77.2 684.361,77.857 683.271,79.17C682.253,80.385 681.745,81.939 681.748,83.833C681.75,85.775 682.262,87.328 683.308,88.54C684.378,89.801 685.86,90.43 687.777,90.427C689.379,90.425 690.69,90.01 691.66,89.208C692.63,88.381 693.283,87.118 693.572,85.443L691.023,85.446C690.783,87.34 689.716,88.312 687.799,88.315C686.682,88.317 685.856,87.905 685.297,87.129C684.689,86.329 684.396,85.213 684.394,83.805C684.392,82.397 684.681,81.28 685.312,80.502C685.917,79.7 686.742,79.31 687.81,79.309C688.684,79.308 689.388,79.501 689.923,79.913C690.458,80.3 690.798,80.931 690.97,81.781L693.519,81.777C693.274,80.224 692.641,79.059 691.669,78.284C690.697,77.557 689.41,77.195 687.807,77.197Z" style="fill-rule:nonzero;"/>
                                                </g>
                                                <g>
                                                    <path d="M701.086,77.178C699.241,77.181 697.761,77.814 696.695,79.102C695.58,80.366 695.048,81.921 695.051,83.79C695.054,85.853 695.638,87.479 696.805,88.691C697.875,89.83 699.357,90.411 701.202,90.408C702.877,90.406 704.26,89.919 705.351,88.97C706.224,88.192 706.781,87.196 707.07,86.031L704.497,86.034C704.158,86.763 703.795,87.322 703.358,87.662C702.801,88.076 702.073,88.295 701.175,88.296C700.155,88.298 699.353,87.959 698.77,87.329C698.186,86.674 697.869,85.728 697.771,84.514L707.287,84.501C707.259,82.268 706.747,80.52 705.774,79.259C704.704,77.853 703.125,77.175 701.086,77.178ZM701.162,79.29C703.201,79.287 704.344,80.378 704.589,82.563L697.816,82.572C697.961,81.504 698.324,80.702 698.857,80.143C699.439,79.56 700.191,79.292 701.162,79.29Z" style="fill-rule:nonzero;"/>
                                                </g>
                                            </g>
                                        </g>
                                    </g>
                                </g>
                            </g>
                        </g>
                    </g>
                </g>
                <g id="sbsvgG2608">
                    <g id="sbsvgG2609">
                        <g id="sbsvgG2610">
                            <rect id="sbsvgPath2611" x="560.61" y="226" width="146.582" height="38.5" style="fill:none;"/>
                            <rect id="sbsvgPath2612" x="560.61" y="226" width="146.582" height="38.5" style="fill:none;"/>
                            <path id="sbsvgPath2613" d="M560.61,264.5L707.192,264.5" style="fill:none;fill-rule:nonzero;stroke:rgb(74,81,217);stroke-width:5px;"/>
                            <g>
                                <g id="sbsvgG2614">
                                    <g id="sbsvgG2615">
                                        <g id="sbsvgG2618">
                                            <g id="sbsvgText2617">
                                                <g>
                                                    <path d="M577.958,234.912L577.938,237.168L583.737,237.22L583.601,252.289L586.222,252.312L586.357,237.244L592.132,237.296L592.153,235.039L577.958,234.912Z" style="fill-rule:nonzero;"/>
                                                </g>
                                                <g>
                                                    <path d="M599.732,239.548C597.839,239.531 596.305,240.148 595.153,241.4C594.001,242.627 593.429,244.199 593.412,246.116C593.395,248.009 593.939,249.591 595.044,250.814C596.197,252.087 597.72,252.756 599.613,252.773C601.505,252.79 603.04,252.148 604.216,250.897C605.343,249.694 605.915,248.122 605.932,246.229C605.95,244.312 605.382,242.73 604.277,241.482C603.147,240.21 601.624,239.565 599.732,239.548ZM599.713,241.659C600.902,241.67 601.82,242.139 602.491,243.092C603.066,243.898 603.347,244.944 603.336,246.206C603.325,247.443 603.025,248.46 602.435,249.279C601.747,250.195 600.821,250.672 599.632,250.662C598.443,250.651 597.525,250.157 596.878,249.229C596.303,248.423 596.045,247.402 596.057,246.14C596.068,244.878 596.344,243.837 596.934,243.042C597.598,242.101 598.524,241.649 599.713,241.659Z" style="fill-rule:nonzero;"/>
                                                </g>
                                                <g>
                                                    <path d="M614.218,239.679C612.325,239.662 610.791,240.279 609.639,241.53C608.487,242.758 607.915,244.33 607.898,246.247C607.881,248.139 608.425,249.722 609.53,250.945C610.683,252.217 612.206,252.886 614.099,252.903C615.991,252.92 617.526,252.279 618.702,251.027C619.829,249.824 620.401,248.252 620.418,246.359C620.436,244.442 619.867,242.86 618.762,241.613C617.633,240.34 616.11,239.696 614.218,239.679ZM614.199,241.79C615.388,241.801 616.306,242.27 616.977,243.222C617.552,244.028 617.833,245.074 617.822,246.336C617.811,247.574 617.511,248.59 616.921,249.41C616.233,250.326 615.307,250.803 614.118,250.792C612.929,250.781 612.011,250.288 611.364,249.36C610.789,248.554 610.531,247.532 610.543,246.27C610.554,245.009 610.83,243.968 611.42,243.172C612.084,242.232 613.01,241.779 614.199,241.79Z" style="fill-rule:nonzero;"/>
                                                </g>
                                                <g>
                                                    <path d="M625.835,235.003L625.676,252.667L623.104,252.644L623.263,234.98L625.835,235.003Z"/>
                                                </g>
                                                <g>
                                                    <path d="M633.678,239.854C632.174,239.84 630.933,240.145 629.981,240.791C629.029,241.414 628.56,242.307 628.55,243.448C628.54,244.515 629.018,245.369 629.983,245.984C630.562,246.378 631.602,246.751 633.079,247.104C634.362,247.407 635.209,247.657 635.596,247.855C636.321,248.201 636.704,248.69 636.699,249.297C636.689,250.413 635.665,250.986 633.675,250.968C632.704,250.959 632.026,250.783 631.593,250.464C631.159,250.12 630.849,249.511 630.711,248.66L628.187,248.638C628.452,251.552 630.283,253.049 633.729,253.08C637.441,253.113 639.322,251.795 639.345,249.151C639.355,248.034 638.854,247.156 637.865,246.516C637.189,246.074 636.125,245.651 634.697,245.299C633.438,244.972 632.615,244.722 632.18,244.524C631.503,244.202 631.167,243.835 631.171,243.399C631.175,242.913 631.397,242.527 631.86,242.289C632.251,242.049 632.834,241.958 633.61,241.965C634.484,241.972 635.162,242.124 635.596,242.419C636.006,242.69 636.293,243.154 636.481,243.835L638.981,243.857C638.713,241.21 636.929,239.883 633.678,239.854Z" style="fill-rule:nonzero;"/>
                                                </g>
                                            </g>
                                        </g>
                                    </g>
                                </g>
                            </g>
                        </g>
                    </g>
                </g>
                <g id="sbsvgG2650">
                    <g id="sbsvgG2651">
                        <g id="sbsvgG2652">
                            <rect id="sbsvgPath2653" x="560.61" y="13" width="146.582" height="38.5" style="fill:none;"/>
                            <rect id="sbsvgPath2654" x="560.61" y="13" width="146.582" height="38.5" style="fill:none;"/>
                            <path id="sbsvgPath2655" d="M560.61,51.5L707.192,51.5" style="fill:none;fill-rule:nonzero;stroke:rgb(255,171,170);stroke-width:5px;"/>
                            <g>
                                <g id="sbsvgG2656">
                                    <g id="sbsvgG2657">
                                        <g id="sbsvgG2660">
                                            <g id="sbsvgText2659">
                                                <g>
                                                    <path d="M578.797,21.916L578.943,39.232L581.586,39.21L581.521,31.449L590.131,31.377L590.112,29.121L581.502,29.194L581.46,24.149L590.579,24.072L590.56,21.817L578.797,21.916Z" style="fill-rule:nonzero;"/>
                                                </g>
                                                <g>
                                                    <path d="M594.463,21.541C593.953,21.546 593.542,21.695 593.205,22.037C592.869,22.355 592.702,22.769 592.707,23.278C592.711,23.763 592.884,24.198 593.226,24.535C593.569,24.847 593.982,25.014 594.492,25.009C594.977,25.005 595.412,24.832 595.749,24.514C596.085,24.171 596.276,23.757 596.272,23.248C596.267,22.739 596.094,22.328 595.752,22.015C595.41,21.679 594.972,21.537 594.463,21.541ZM593.219,26.572L593.325,39.111L595.896,39.09L595.79,26.551L593.219,26.572Z" style="fill-rule:nonzero;"/>
                                                </g>
                                                <g>
                                                    <path d="M604.567,26.137C602.724,26.153 601.25,26.796 600.193,28.09C599.088,29.361 598.568,30.918 598.583,32.785C598.601,34.847 599.197,36.467 600.371,37.669C601.448,38.8 602.932,39.37 604.775,39.354C606.449,39.34 607.827,38.844 608.91,37.889C609.777,37.105 610.326,36.106 610.608,34.939L608.037,34.961C607.703,35.692 607.344,36.252 606.911,36.596C606.356,37.013 605.631,37.237 604.733,37.245C603.715,37.253 602.911,36.92 602.324,36.295C601.736,35.645 601.413,34.702 601.306,33.49L610.813,33.41C610.77,31.179 610.246,29.437 609.265,28.184C608.186,26.786 606.604,26.12 604.567,26.137ZM604.657,28.247C606.695,28.23 607.844,29.311 608.105,31.492L601.338,31.549C601.475,30.481 601.832,29.677 602.361,29.115C602.938,28.528 603.687,28.255 604.657,28.247Z" style="fill-rule:nonzero;"/>
                                                </g>
                                                <g>
                                                    <path d="M615.756,21.265L615.904,38.921L613.334,38.943L613.185,21.287L615.756,21.265Z"/>
                                                </g>
                                                <g>
                                                    <path d="M627.979,21.162L628.038,28.147C627.007,26.676 625.716,25.959 624.188,25.972C622.393,25.987 620.967,26.654 619.96,27.972C619,29.193 618.552,30.725 618.568,32.568C618.584,34.484 619.082,36.057 620.062,37.261C621.116,38.562 622.577,39.205 624.42,39.189C626.118,39.175 627.422,38.533 628.285,37.313L628.298,38.817L630.699,38.797L630.55,21.14L627.979,21.162ZM624.787,28.053C625.733,28.045 626.512,28.402 627.149,29.173C627.787,29.992 628.136,31.081 628.147,32.439L628.149,32.657C628.16,33.919 627.901,34.939 627.374,35.744C626.751,36.623 625.906,37.091 624.791,37.1C623.529,37.111 622.58,36.658 621.99,35.765C621.474,34.994 621.223,33.928 621.211,32.546C621.199,31.164 621.457,30.094 621.985,29.362C622.584,28.484 623.526,28.064 624.787,28.053Z" style="fill-rule:nonzero;"/>
                                                </g>
                                            </g>
                                        </g>
                                    </g>
                                </g>
                            </g>
                        </g>
                    </g>
                </g>
                <g id="sbsvgG2982">
                    <rect id="sbsvgRect3070" x="711.192" y="140" width="18" height="41" style="fill:none;"/>
                    <g id="sbsvgG2983">
                        <g id="sbsvgG2984">
                            <rect id="sbsvgPath2985" x="560.61" y="140" width="146.582" height="38.5" style="fill:none;"/>
                            <rect id="sbsvgPath2986" x="560.61" y="140" width="146.582" height="38.5" style="fill:none;"/>
                            <path id="sbsvgPath2987" d="M560.61,178.5L707.192,178.5" style="fill:none;fill-rule:nonzero;stroke:rgb(140,181,255);stroke-width:5px;"/>
                            <g>
                                <g id="sbsvgG2988">
                                    <g id="sbsvgG2989">
                                        <g id="sbsvgG3049">
                                            <g id="sbsvgText3048">
                                                <g>
                                                    <path d="M578.922,148.926L578.818,166.222L581.459,166.238L581.533,153.883L581.63,153.884L586.861,166.27L589.138,166.284L594.517,153.961L594.614,153.962L594.54,166.316L597.181,166.332L597.284,149.035L594.159,149.017L588.069,162.838L587.996,162.837L582.047,148.944L578.922,148.926Z" style="fill-rule:nonzero;"/>
                                                </g>
                                                <g>
                                                    <path d="M605.712,153.519C603.871,153.508 602.39,154.129 601.316,155.407C600.194,156.66 599.652,158.207 599.641,160.072C599.629,162.131 600.2,163.758 601.356,164.976C602.415,166.121 603.889,166.711 605.73,166.722C607.402,166.732 608.786,166.256 609.881,165.318C610.758,164.548 611.321,163.558 611.619,162.397L609.051,162.382C608.708,163.106 608.341,163.661 607.903,163.998C607.343,164.406 606.615,164.62 605.719,164.615C604.701,164.609 603.904,164.265 603.326,163.631C602.749,162.974 602.439,162.027 602.35,160.815L611.846,160.872C611.835,158.643 611.337,156.896 610.375,155.63C609.318,154.219 607.747,153.531 605.712,153.519ZM605.772,155.627C607.807,155.639 608.939,156.736 609.169,158.918L602.41,158.878C602.562,157.813 602.93,157.015 603.466,156.461C604.051,155.883 604.803,155.621 605.772,155.627Z" style="fill-rule:nonzero;"/>
                                                </g>
                                                <g>
                                                    <path d="M617.896,149.885L615.321,150.936L615.304,153.916L612.978,153.902L612.965,156.034L615.291,156.047L615.247,163.315C615.241,164.308 615.455,165.06 615.936,165.596C616.417,166.156 617.215,166.452 618.281,166.458L620.34,166.471L620.353,164.339L618.706,164.329C618.391,164.327 618.173,164.229 618.029,164.083C617.884,163.912 617.813,163.669 617.815,163.33L617.859,156.063L620.717,156.08L620.73,153.948L617.871,153.931L617.896,149.885Z" style="fill-rule:nonzero;"/>
                                                </g>
                                                <g>
                                                    <path d="M622.82,148.849L622.714,166.485L625.282,166.5L625.324,159.475C625.331,158.385 625.602,157.49 626.164,156.791C626.701,156.091 627.406,155.756 628.278,155.762C629.247,155.767 629.996,156.063 630.477,156.671C630.909,157.255 631.147,158.08 631.14,159.195L631.096,166.535L633.664,166.55L633.71,158.774C633.72,157.127 633.364,155.865 632.643,155.013C631.873,154.112 630.737,153.669 629.235,153.66C628.436,153.655 627.732,153.796 627.1,154.131C626.396,154.466 625.811,155.02 625.346,155.744L625.388,148.864L622.82,148.849Z" style="fill-rule:nonzero;"/>
                                                </g>
                                                <g>
                                                    <path d="M642.413,153.738C640.524,153.727 638.994,154.348 637.848,155.601C636.702,156.83 636.135,158.401 636.124,160.315C636.113,162.204 636.66,163.782 637.767,165C638.923,166.267 640.445,166.93 642.335,166.941C644.224,166.952 645.754,166.308 646.925,165.055C648.046,163.85 648.613,162.279 648.624,160.389C648.635,158.476 648.063,156.897 646.956,155.655C645.825,154.389 644.303,153.75 642.413,153.738ZM642.401,155.846C643.588,155.853 644.506,156.319 645.178,157.268C645.755,158.071 646.039,159.114 646.032,160.374C646.025,161.609 645.728,162.625 645.141,163.445C644.458,164.362 643.534,164.841 642.347,164.834C641.16,164.827 640.242,164.336 639.594,163.412C639.017,162.609 638.757,161.59 638.764,160.33C638.772,159.071 639.045,158.031 639.631,157.235C640.291,156.294 641.214,155.839 642.401,155.846Z" style="fill-rule:nonzero;"/>
                                                </g>
                                                <g>
                                                    <path d="M660.151,149.072L660.109,156.049C659.1,154.565 657.821,153.831 656.294,153.821C654.502,153.811 653.069,154.456 652.043,155.758C651.067,156.964 650.598,158.487 650.587,160.328C650.575,162.242 651.05,163.82 652.012,165.037C653.046,166.351 654.496,167.014 656.337,167.025C658.032,167.035 659.344,166.413 660.224,165.207L660.215,166.709L662.613,166.723L662.718,149.087L660.151,149.072ZM656.863,155.908C657.808,155.914 658.581,156.282 659.206,157.061C659.831,157.888 660.164,158.981 660.156,160.337L660.155,160.555C660.147,161.815 659.875,162.831 659.337,163.627C658.702,164.495 657.851,164.95 656.737,164.944C655.477,164.936 654.535,164.47 653.959,163.571C653.455,162.792 653.219,161.725 653.227,160.344C653.235,158.963 653.508,157.899 654.046,157.175C654.656,156.307 655.604,155.901 656.863,155.908Z" style="fill-rule:nonzero;"/>
                                                </g>
                                                <g>
                                                    <path d="M670.272,153.905C668.77,153.896 667.533,154.204 666.584,154.852C665.636,155.476 665.17,156.37 665.163,157.508C665.157,158.574 665.636,159.425 666.602,160.036C667.181,160.428 668.22,160.797 669.696,161.145C670.978,161.444 671.825,161.691 672.211,161.887C672.936,162.23 673.321,162.717 673.317,163.323C673.31,164.437 672.289,165.013 670.303,165.001C669.334,164.995 668.657,164.821 668.222,164.504C667.788,164.162 667.477,163.554 667.337,162.706L664.817,162.691C665.091,165.599 666.923,167.088 670.363,167.109C674.069,167.131 675.943,165.81 675.959,163.169C675.965,162.055 675.462,161.18 674.472,160.544C673.797,160.104 672.733,159.686 671.306,159.338C670.048,159.015 669.226,158.768 668.791,158.572C668.114,158.253 667.778,157.887 667.78,157.451C667.783,156.967 668.003,156.581 668.465,156.341C668.854,156.101 669.436,156.008 670.211,156.012C671.083,156.018 671.761,156.167 672.195,156.46C672.605,156.729 672.893,157.191 673.083,157.871L675.578,157.886C675.303,155.243 673.519,153.924 670.272,153.905Z" style="fill-rule:nonzero;"/>
                                                </g>
                                            </g>
                                        </g>
                                    </g>
                                </g>
                            </g>
                        </g>
                    </g>
                </g>
                <g id="sbsvgG2991">
                    <g id="sbsvgG2992">
                        <g id="sbsvgG2993">
                            <rect id="sbsvgPath2994" x="729.192" y="115" width="87.197" height="26.5" style="fill:none;"/>
                            <rect id="sbsvgPath2995" x="729.192" y="115" width="87.197" height="26.5" style="fill:none;"/>
                            <path id="sbsvgPath2996" d="M729.192,141.5L842.192,141.5" style="fill:none;fill-rule:nonzero;stroke:rgb(140,181,255);stroke-width:1.16px;"/>
                            <g>
                                <g id="sbsvgG2997">
                                    <g id="sbsvgG2998">
                                        <g id="sbsvgG3001">
                                            <g id="sbsvgText3000">
                                                <g>
                                                    <path d="M734.416,120.567L734.419,121.946L739.314,121.938L739.335,134.43L740.908,134.428L740.888,121.936L745.784,121.928L745.782,120.549L734.416,120.567Z" style="fill:rgb(0,36,102);fill-rule:nonzero;"/>
                                                </g>
                                                <g>
                                                    <path d="M751.46,124.095C750.003,124.097 748.858,124.623 748.005,125.674C747.151,126.666 746.745,127.91 746.748,129.387C746.751,131.019 747.18,132.3 748.075,133.27C748.932,134.201 750.098,134.685 751.536,134.683C752.837,134.681 753.905,134.29 754.739,133.551C755.418,132.928 755.864,132.15 756.096,131.178L754.541,131.181C754.29,131.881 753.961,132.406 753.534,132.756C753.029,133.165 752.35,133.38 751.534,133.381C750.582,133.383 749.823,133.073 749.278,132.452C748.733,131.831 748.441,130.958 748.361,129.831L756.288,129.818C756.246,128.07 755.855,126.691 755.115,125.721C754.298,124.634 753.073,124.092 751.46,124.095ZM751.501,125.396C753.405,125.393 754.475,126.46 754.673,128.616L748.398,128.626C748.494,127.635 748.803,126.858 749.346,126.274C749.889,125.69 750.608,125.398 751.501,125.396Z" style="fill:rgb(0,36,102);fill-rule:nonzero;"/>
                                                </g>
                                                <g>
                                                    <path d="M762.437,124.077C760.941,124.079 759.757,124.606 758.904,125.676C758.109,126.648 757.722,127.892 757.725,129.427C757.727,130.962 758.118,132.205 758.916,133.156C759.753,134.164 760.919,134.668 762.435,134.665C763.678,134.663 764.668,134.331 765.425,133.689C766.201,133.027 766.685,132.036 766.916,130.753L765.362,130.755C765.132,132.485 764.142,133.361 762.433,133.364C761.422,133.365 760.645,132.997 760.119,132.299C759.574,131.6 759.32,130.629 759.318,129.405C759.316,128.181 759.586,127.209 760.129,126.49C760.691,125.751 761.468,125.38 762.439,125.379C763.236,125.377 763.877,125.551 764.383,125.939C764.869,126.327 765.181,126.909 765.318,127.686L766.853,127.683C766.676,126.46 766.208,125.547 765.43,124.946C764.672,124.365 763.68,124.075 762.437,124.077Z" style="fill:rgb(0,36,102);fill-rule:nonzero;"/>
                                                </g>
                                                <g>
                                                    <path d="M768.726,120.24L768.748,134.383L770.303,134.381L770.293,128.649C770.292,127.717 770.543,126.92 771.067,126.297C771.571,125.675 772.211,125.363 772.989,125.362C773.824,125.36 774.465,125.612 774.933,126.116C775.361,126.621 775.595,127.339 775.597,128.272L775.606,134.372L777.161,134.369L777.15,128.036C777.148,126.754 776.836,125.763 776.213,125.084C775.59,124.386 774.677,124.057 773.511,124.059C772.831,124.06 772.229,124.217 771.686,124.528C771.103,124.86 770.638,125.346 770.289,125.988L770.28,120.237L768.726,120.24Z" style="fill:rgb(0,36,102);fill-rule:nonzero;"/>
                                                </g>
                                                <g>
                                                    <path d="M784.235,124.042C783.575,124.043 782.973,124.199 782.429,124.511C781.886,124.803 781.439,125.231 781.091,125.795L781.088,124.319L779.534,124.321L779.55,134.366L781.105,134.363L781.095,128.302C781.152,127.388 781.442,126.669 781.985,126.124C782.489,125.618 783.091,125.365 783.79,125.364C785.539,125.361 786.434,126.331 786.437,128.293L786.447,134.354L788.001,134.352L787.991,128.174C787.987,125.415 786.722,124.038 784.235,124.042Z" style="fill:rgb(0,36,102);fill-rule:nonzero;"/>
                                                </g>
                                                <g>
                                                    <path d="M791.67,120.513C791.34,120.514 791.068,120.611 790.836,120.845C790.603,121.04 790.506,121.312 790.507,121.661C790.507,121.992 790.605,122.264 790.838,122.496C791.072,122.71 791.344,122.826 791.674,122.825C792.004,122.825 792.276,122.708 792.509,122.494C792.742,122.26 792.858,121.988 792.857,121.658C792.857,121.308 792.74,121.036 792.506,120.842C792.273,120.61 792.001,120.513 791.67,120.513ZM790.899,124.303L790.916,134.347L792.47,134.345L792.454,124.301L790.899,124.303Z" style="fill:rgb(0,36,102);fill-rule:nonzero;"/>
                                                </g>
                                                <g>
                                                    <path d="M799.544,124.017C798.068,124.019 796.922,124.546 796.108,125.635C795.352,126.608 794.985,127.832 794.987,129.348C794.99,130.824 795.361,132.048 796.101,133.018C796.918,134.066 798.046,134.608 799.484,134.605C800.921,134.603 802.028,133.902 802.803,132.502L802.812,138.175L804.366,138.172L804.344,124.281L802.886,124.284L802.889,125.935C802.149,124.654 801.04,124.015 799.544,124.017ZM799.741,125.299C800.751,125.297 801.529,125.685 802.093,126.48C802.58,127.179 802.834,128.111 802.836,129.238L802.836,129.432C802.838,130.598 802.548,131.531 802.006,132.251C801.443,132.951 800.706,133.321 799.812,133.323C798.724,133.324 797.888,132.937 797.343,132.2C796.837,131.501 796.582,130.55 796.58,129.345C796.579,128.16 796.81,127.208 797.295,126.508C797.837,125.691 798.653,125.301 799.741,125.299Z" style="fill:rgb(0,36,102);fill-rule:nonzero;"/>
                                                </g>
                                                <g>
                                                    <path d="M806.753,124.277L806.763,130.494C806.767,133.214 807.974,134.592 810.422,134.588C811.782,134.586 812.869,133.962 813.683,132.756L813.685,134.311L815.239,134.308L815.223,124.264L813.669,124.266L813.679,130.386C813.564,131.241 813.234,131.941 812.691,132.486C812.168,132.992 811.566,133.265 810.905,133.266C809.992,133.267 809.331,133.016 808.922,132.55C808.514,132.085 808.318,131.366 808.317,130.414L808.307,124.275L806.753,124.277Z" style="fill:rgb(0,36,102);fill-rule:nonzero;"/>
                                                </g>
                                                <g>
                                                    <path d="M821.77,123.981C820.313,123.984 819.167,124.51 818.314,125.56C817.461,126.553 817.055,127.797 817.057,129.273C817.06,130.905 817.49,132.187 818.385,133.157C819.241,134.088 820.408,134.572 821.845,134.569C823.147,134.567 824.215,134.177 825.049,133.437C825.728,132.815 826.174,132.037 826.405,131.065L824.851,131.067C824.6,131.767 824.27,132.292 823.843,132.643C823.339,133.052 822.659,133.266 821.843,133.268C820.891,133.269 820.133,132.96 819.588,132.339C819.043,131.718 818.75,130.844 818.671,129.718L826.597,129.705C826.556,127.956 826.165,126.578 825.425,125.607C824.607,124.521 823.382,123.979 821.77,123.981ZM821.811,125.283C823.715,125.28 824.785,126.347 824.983,128.503L818.708,128.513C818.803,127.522 819.113,126.744 819.656,126.161C820.199,125.577 820.917,125.284 821.811,125.283Z" style="fill:rgb(0,36,102);fill-rule:nonzero;"/>
                                                </g>
                                            </g>
                                        </g>
                                    </g>
                                </g>
                            </g>
                        </g>
                    </g>
                </g>
                <g id="sbsvgG3010">
                    <g id="sbsvgG3011">
                        <g id="sbsvgG3012">
                            <rect id="sbsvgPath3013" x="729.192" y="152" width="87.197" height="26.5" style="fill:none;"/>
                            <rect id="sbsvgPath3014" x="729.192" y="152" width="87.197" height="26.5" style="fill:none;"/>
                            <path id="sbsvgPath3015" d="M729.192,178.5L842.152,178.5" style="fill:none;fill-rule:nonzero;stroke:rgb(140,181,255);stroke-width:1.16px;"/>
                            <g>
                                <g id="sbsvgG3016">
                                    <g id="sbsvgG3017">
                                        <g id="sbsvgG3020">
                                            <g id="sbsvgText3019">
                                                <g>
                                                    <path d="M741.478,157.785C739.32,157.765 737.626,158.475 736.436,159.955C735.344,161.279 734.799,162.981 734.78,165.061C734.761,167.14 735.255,168.832 736.303,170.137C737.447,171.58 739.108,172.321 741.286,172.341C742.777,172.354 744.075,171.935 745.162,171.101C746.328,170.209 747.065,168.941 747.394,167.315L745.844,167.301C745.559,168.515 744.981,169.432 744.151,170.052C743.361,170.633 742.417,170.919 741.299,170.909C739.651,170.893 738.42,170.333 737.567,169.246C736.752,168.218 736.372,166.822 736.389,165.076C736.405,163.33 736.829,161.941 737.663,160.889C738.556,159.759 739.817,159.202 741.445,159.217C742.544,159.227 743.464,159.49 744.224,160.027C745.004,160.583 745.507,161.373 745.693,162.395L747.243,162.409C747.06,161.014 746.442,159.89 745.39,159.057C744.339,158.223 743.028,157.799 741.478,157.785Z" style="fill:rgb(0,36,102);fill-rule:nonzero;"/>
                                                </g>
                                                <g>
                                                    <path d="M754.018,161.765C752.488,161.751 751.286,162.25 750.374,163.301C749.502,164.294 749.059,165.545 749.045,167.075C749.031,168.586 749.451,169.846 750.305,170.834C751.198,171.902 752.389,172.443 753.92,172.457C755.43,172.471 756.651,171.952 757.583,170.901C758.436,169.928 758.879,168.677 758.893,167.166C758.907,165.636 758.487,164.376 757.633,163.368C756.74,162.3 755.528,161.779 754.018,161.765ZM754.006,163.079C755.065,163.089 755.905,163.509 756.525,164.339C757.048,165.089 757.314,166.014 757.304,167.151C757.294,168.25 757.01,169.189 756.474,169.93C755.838,170.748 754.991,171.152 753.932,171.142C752.853,171.133 752.013,170.713 751.432,169.883C750.889,169.133 750.643,168.209 750.653,167.09C750.664,165.952 750.927,165.033 751.483,164.292C752.079,163.474 752.927,163.07 754.006,163.079Z" style="fill:rgb(0,36,102);fill-rule:nonzero;"/>
                                                </g>
                                                <g>
                                                    <path d="M765.73,161.873C765.063,161.867 764.453,162.018 763.901,162.327C763.349,162.616 762.894,163.043 762.536,163.609L762.549,162.118L760.98,162.104L760.887,172.246L762.456,172.261L762.512,166.14C762.58,165.218 762.881,164.495 763.435,163.951C763.95,163.446 764.56,163.196 765.266,163.203C767.032,163.219 767.925,164.208 767.907,166.189L767.851,172.31L769.42,172.325L769.478,166.086C769.503,163.3 768.241,161.896 765.73,161.873Z" style="fill:rgb(0,36,102);fill-rule:nonzero;"/>
                                                </g>
                                                <g>
                                                    <path d="M776.043,158.377C775.18,158.369 774.51,158.598 774.055,159.085C773.619,159.552 773.397,160.197 773.389,161.06L773.378,162.218L770.828,162.194L770.816,163.509L773.366,163.532L773.285,172.36L774.855,172.375L774.936,163.547L779.566,163.589L779.484,172.417L781.034,172.431L781.128,162.289L774.948,162.232L774.958,161.114C774.963,160.623 775.064,160.271 775.262,160.057C775.46,159.824 775.795,159.729 776.227,159.733L777.973,159.749L777.985,158.395L776.043,158.377Z" style="fill:rgb(0,36,102);fill-rule:nonzero;"/>
                                                </g>
                                                <g>
                                                    <path d="M791.406,158.244L791.351,164.247C790.58,162.807 789.468,162.091 788.016,162.078C786.564,162.064 785.441,162.584 784.607,163.675C783.833,164.649 783.449,165.861 783.435,167.352C783.421,168.883 783.783,170.142 784.539,171.13C785.353,172.197 786.505,172.756 787.996,172.77C789.526,172.784 790.67,172.147 791.388,170.859L791.373,172.527L792.844,172.54L792.976,158.258L791.406,158.244ZM788.338,163.375C789.24,163.384 789.982,163.744 790.544,164.494C791.087,165.225 791.372,166.189 791.362,167.366L791.36,167.563C791.349,168.7 791.086,169.62 790.589,170.322C790.013,171.101 789.224,171.487 788.204,171.477C787.106,171.467 786.286,171.048 785.743,170.258C785.259,169.547 785.033,168.584 785.044,167.367C785.055,166.151 785.299,165.211 785.816,164.529C786.372,163.75 787.219,163.365 788.338,163.375Z" style="fill:rgb(0,36,102);fill-rule:nonzero;"/>
                                                </g>
                                                <g>
                                                    <path d="M799.551,162.184C798.08,162.17 796.918,162.689 796.045,163.741C795.172,164.733 794.749,165.985 794.735,167.476C794.72,169.124 795.14,170.423 796.033,171.412C796.888,172.361 798.06,172.863 799.512,172.876C800.826,172.888 801.909,172.506 802.759,171.768C803.452,171.146 803.91,170.366 804.155,169.387L802.585,169.373C802.324,170.077 801.985,170.603 801.551,170.952C801.037,171.36 800.348,171.569 799.524,171.562C798.563,171.553 797.801,171.232 797.257,170.599C796.714,169.966 796.427,169.081 796.359,167.942L804.364,168.016C804.341,166.25 803.961,164.853 803.225,163.865C802.411,162.759 801.18,162.199 799.551,162.184ZM799.579,163.498C801.501,163.516 802.57,164.605 802.746,166.784L796.41,166.726C796.517,165.727 796.838,164.945 797.393,164.361C797.948,163.778 798.676,163.49 799.579,163.498Z" style="fill:rgb(0,36,102);fill-rule:nonzero;"/>
                                                </g>
                                                <g>
                                                    <path d="M811.008,162.289C810.341,162.283 809.732,162.434 809.18,162.743C808.628,163.032 808.172,163.46 807.814,164.025L807.828,162.534L806.258,162.52L806.165,172.663L807.735,172.677L807.791,166.556C807.858,165.635 808.159,164.911 808.713,164.367C809.228,163.862 809.839,163.612 810.545,163.619C812.311,163.635 813.204,164.624 813.186,166.606L813.129,172.727L814.699,172.741L814.756,166.502C814.782,163.717 813.52,162.312 811.008,162.289Z" style="fill:rgb(0,36,102);fill-rule:nonzero;"/>
                                                </g>
                                                <g>
                                                    <path d="M821.602,162.386C820.092,162.372 818.89,162.891 818.017,163.962C817.204,164.936 816.8,166.188 816.785,167.738C816.771,169.287 817.152,170.547 817.947,171.515C818.782,172.543 819.954,173.064 821.484,173.078C822.74,173.09 823.743,172.765 824.514,172.125C825.305,171.465 825.805,170.469 826.052,169.176L824.483,169.162C824.231,170.906 823.223,171.78 821.496,171.764C820.476,171.754 819.695,171.374 819.172,170.663C818.629,169.952 818.383,168.969 818.394,167.733C818.406,166.497 818.689,165.518 819.245,164.798C819.821,164.057 820.609,163.692 821.59,163.701C822.394,163.708 823.04,163.891 823.547,164.288C824.034,164.685 824.342,165.276 824.472,166.062L826.022,166.076C825.857,164.839 825.394,163.912 824.615,163.297C823.856,162.701 822.858,162.398 821.602,162.386Z" style="fill:rgb(0,36,102);fill-rule:nonzero;"/>
                                                </g>
                                                <g>
                                                    <path d="M832.137,162.483C830.666,162.47 829.503,162.989 828.63,164.04C827.758,165.033 827.335,166.285 827.321,167.776C827.306,169.423 827.725,170.722 828.619,171.711C829.473,172.661 830.646,173.162 832.098,173.176C833.412,173.188 834.495,172.805 835.345,172.068C836.038,171.446 836.496,170.665 836.74,169.687L835.171,169.672C834.909,170.376 834.571,170.903 834.136,171.252C833.622,171.659 832.934,171.869 832.11,171.861C831.148,171.852 830.386,171.531 829.843,170.899C829.299,170.266 829.013,169.38 828.945,168.242L836.949,168.315C836.926,166.549 836.547,165.153 835.81,164.165C834.996,163.059 833.765,162.498 832.137,162.483ZM832.164,163.798C834.087,163.816 835.156,164.905 835.332,167.084L828.995,167.026C829.103,166.026 829.424,165.244 829.979,164.661C830.533,164.077 831.262,163.79 832.164,163.798Z" style="fill:rgb(0,36,102);fill-rule:nonzero;"/>
                                                </g>
                                            </g>
                                        </g>
                                    </g>
                                </g>
                            </g>
                        </g>
                    </g>
                </g>
                <g id="sbsvgG3029">
                    <g id="sbsvgG3030">
                        <g id="sbsvgG3031">
                            <rect id="sbsvgPath3032" x="729.192" y="189" width="87.197" height="26.5" style="fill:none;"/>
                            <rect id="sbsvgPath3033" x="729.192" y="189" width="87.197" height="26.5" style="fill:none;"/>
                            <path id="sbsvgPath3034" d="M729.192,215.5L842.159,215.5" style="fill:none;fill-rule:nonzero;stroke:rgb(140,181,255);stroke-width:1.16px;"/>
                            <g>
                                <g id="sbsvgG3035">
                                    <g id="sbsvgG3036">
                                        <g id="sbsvgG3039">
                                            <g id="sbsvgText3038">
                                                <g>
                                                    <path d="M734.354,194.779L739.512,209.293L741.555,209.319L747.08,194.941L745.259,194.918L740.587,207.505L740.526,207.505L736.175,194.802L734.354,194.779Z" style="fill:rgb(0,36,102);fill-rule:nonzero;"/>
                                                </g>
                                                <g>
                                                    <path d="M752.941,198.718C751.686,198.702 750.692,198.933 749.917,199.408C749.061,199.924 748.504,200.746 748.267,201.836L749.864,201.978C750.034,201.312 750.385,200.811 750.935,200.494C751.425,200.176 752.054,200.043 752.823,200.052C754.644,200.076 755.543,200.957 755.521,202.717L755.514,203.264L753.004,203.272C751.426,203.272 750.208,203.56 749.351,204.116C748.372,204.711 747.896,205.595 747.881,206.789C747.87,207.638 748.185,208.351 748.825,208.905C749.446,209.439 750.272,209.713 751.324,209.726C752.295,209.738 753.168,209.527 753.942,209.112C754.594,208.756 755.146,208.297 755.558,207.736L755.536,209.496L757.053,209.516L757.138,202.799C757.154,201.585 756.842,200.63 756.244,199.934C755.526,199.136 754.438,198.737 752.941,198.718ZM755.498,204.477L755.487,205.368C755.477,206.177 755.083,206.9 754.326,207.518C753.549,208.156 752.675,208.468 751.684,208.456C751.037,208.448 750.513,208.279 750.112,207.97C749.711,207.642 749.534,207.255 749.54,206.769C749.559,205.252 750.743,204.498 753.09,204.487L755.498,204.477Z" style="fill:rgb(0,36,102);fill-rule:nonzero;"/>
                                                </g>
                                                <g>
                                                    <path d="M761.671,194.843L761.484,209.572L759.886,209.552L760.073,194.823L761.671,194.843Z" style="fill:rgb(0,36,102);"/>
                                                </g>
                                                <g>
                                                    <path d="M764.449,199.148L764.367,205.622C764.331,208.455 765.567,209.907 768.116,209.939C769.533,209.957 770.674,209.324 771.54,208.081L771.519,209.699L773.138,209.72L773.27,199.26L771.652,199.239L771.571,205.613C771.438,206.501 771.085,207.225 770.511,207.784C769.958,208.304 769.328,208.579 768.64,208.57C767.689,208.558 767.004,208.286 766.586,207.795C766.167,207.304 765.974,206.553 765.987,205.562L766.068,199.168L764.449,199.148Z" style="fill:rgb(0,36,102);fill-rule:nonzero;"/>
                                                </g>
                                                <g>
                                                    <path d="M780.092,199.063C778.575,199.044 777.374,199.575 776.47,200.656C775.567,201.677 775.125,202.966 775.106,204.504C775.084,206.203 775.512,207.544 776.43,208.568C777.308,209.55 778.516,210.072 780.013,210.091C781.368,210.108 782.486,209.717 783.366,208.96C784.082,208.321 784.558,207.518 784.814,206.509L783.195,206.489C782.923,207.214 782.572,207.756 782.122,208.114C781.591,208.532 780.88,208.746 780.03,208.735C779.039,208.722 778.254,208.389 777.696,207.734C777.137,207.079 776.845,206.165 776.779,204.991L785.034,205.096C785.017,203.274 784.63,201.833 783.874,200.811C783.039,199.667 781.772,199.085 780.092,199.063ZM780.116,200.419C782.098,200.445 783.197,201.572 783.371,203.82L776.836,203.737C776.95,202.706 777.284,201.901 777.858,201.301C778.432,200.702 779.185,200.408 780.116,200.419Z" style="fill:rgb(0,36,102);fill-rule:nonzero;"/>
                                                </g>
                                            </g>
                                        </g>
                                    </g>
                                </g>
                            </g>
                        </g>
                    </g>
                </g>
            </g>
        </g>
    </g>
    <g>
        <rect x="1199" y="0" width="1" height="1" style="fill:rgb(235,235,235);"/>
    </g>
    <g>
        <rect x="0" y="0" width="1" height="1" style="fill:rgb(235,235,235);"/>
    </g>
</svg>
