<?xml version="1.0" encoding="UTF-8" standalone="no"?>
<!DOCTYPE svg PUBLIC "-//W3C//DTD SVG 1.1//EN" "http://www.w3.org/Graphics/SVG/1.1/DTD/svg11.dtd">
<svg width="100%" height="100%" viewBox="0 0 5000 1900" version="1.1" xmlns="http://www.w3.org/2000/svg" xmlns:xlink="http://www.w3.org/1999/xlink" xml:space="preserve" xmlns:serif="http://www.serif.com/" style="fill-rule:evenodd;clip-rule:evenodd;stroke-linejoin:round;stroke-miterlimit:10;">
    <g transform="matrix(0.60925,0,0,0.602454,2359.45,362.205)">
        <rect x="2692.73" y="909.273" width="131.309" height="132.79" style="fill:rgb(91,155,213);"/>
    </g>
    <g transform="matrix(1,0,0,1,-1628.89,-445.776)">
        <path d="M2951.6,764.5L3655.5,1276.54L3277.61,1953.5L2625.59,1953.5L2247.5,1276.54L2951.6,764.5Z" style="fill:rgb(173,205,234);fill-rule:nonzero;stroke:rgb(91,155,213);stroke-width:9.17px;stroke-dasharray:9.17,9.17;"/>
    </g>
    <g transform="matrix(1,0,0,1,-1628.89,-445.776)">
        <path d="M2951.6,1319.54L3831.5,1218.5L3168.6,1804.56L2516.5,2103.5L2599.59,1390.55L2951.6,1319.54Z" style="fill:rgb(183,213,163);fill-rule:nonzero;"/>
    </g>
    <g transform="matrix(1,0,0,1,-1628.89,-445.776)">
        <path d="M2951.6,1319.54L3608.16,1244.66L3648.95,1277.99L3605.59,1360.98C3576.55,1412.33 3543.05,1470.46 3550.1,1466.87L3168.6,1804.56L2841.99,1949.05L2626.6,1949.15L2550.64,1814.77L2599.59,1390.55L2951.6,1319.54Z" style="fill:rgb(136,184,186);fill-rule:nonzero;"/>
    </g>
    <g transform="matrix(1,0,0,1,-1628.89,-445.776)">
        <path d="M2951.6,764.5L3655.5,1276.54L3277.61,1953.5L2625.59,1953.5L2247.5,1276.54L2951.6,764.5Z" style="fill:none;fill-rule:nonzero;stroke:rgb(91,155,213);stroke-width:9.17px;stroke-dasharray:9.17,9.17;"/>
    </g>
    <g transform="matrix(1,0,0,1,-1628.89,-445.776)">
        <path d="M2951.6,1412.55L3039.6,1476.55M3039.6,1476.55L3005.6,1579.55M3005.6,1579.55L2896.6,1579.55M2896.6,1579.55L2863.59,1476.55M2863.59,1476.55L2951.6,1412.55M2951.6,1319.54L3127.6,1447.55M3127.6,1447.55L3060.6,1654.55M3060.6,1654.55L2842.59,1654.55M2842.59,1654.55L2775.59,1447.55M2775.59,1447.55L2951.6,1319.54M2951.6,1227.54L3215.61,1419.55M3215.61,1419.55L3114.6,1729.56M3114.6,1729.56L2788.59,1729.56M2788.59,1729.56L2687.59,1419.55M2687.59,1419.55L2951.6,1227.54M2951.6,1134.54L3303.61,1390.55M3303.61,1390.55L3168.6,1804.56M3168.6,1804.56L2733.59,1804.56M2733.59,1804.56L2599.59,1390.55M2599.59,1390.55L2951.6,1134.54M2951.6,1042.53L3391.61,1361.54M3391.61,1361.54L3223.61,1879.56M3223.61,1879.56L2679.59,1879.56M2679.59,1879.56L2511.58,1361.54M2511.58,1361.54L2951.6,1042.53M2951.6,949.531L3479.61,1333.54M3479.61,1333.54L3277.61,1953.56M3277.61,1953.56L2625.59,1953.56M2625.59,1953.56L2423.58,1333.54M2423.58,1333.54L2951.6,949.531M2951.6,857.528L3567.62,1304.54M3567.62,1304.54L3331.61,2028.57M3331.61,2028.57L2570.58,2028.57M2570.58,2028.57L2335.58,1304.54M2335.58,1304.54L2951.6,857.528M2951.6,764.525L3655.62,1276.54M3655.62,1276.54L3386.61,2103.57M3386.61,2103.57L2516.58,2103.57M2516.58,2103.57L2247.57,1276.54M2247.57,1276.54L2951.6,764.525M2951.6,672.522L3743.62,1247.54M3743.62,1247.54L3440.61,2178.57M3440.61,2178.57L2461.58,2178.57M2461.58,2178.57L2159.57,1247.54M2159.57,1247.54L2951.6,672.522M2951.6,579.5L3831.5,1218.54M3831.5,1218.54L3494.61,2253.5M3494.61,2253.5L2407.58,2253.5M2407.58,2253.5L2071.5,1218.54M2071.5,1218.54L2951.6,579.5" style="fill:none;fill-rule:nonzero;stroke:rgb(217,217,217);stroke-width:3.44px;"/>
    </g>
    <g transform="matrix(1,0,0,1,231.356,50.9755)">
        <g transform="matrix(80,0,0,80,520.113,1806.29)">
        </g>
        <text x="115.386px" y="1806.29px" style="font-family:'ArialMT', 'Arial', sans-serif;font-size:80px;">T<tspan x="155.386px 199.878px " y="1806.29px 1806.29px ">ec</tspan>hniques</text>
    </g>
    <g transform="matrix(0.0996678,0,0,0.493783,3720.18,460.003)">
        <rect x="2807.55" y="587.296" width="802.666" height="162.015" style="fill:rgb(112,173,71);"/>
    </g>
    <g transform="matrix(1,0,0,1,1218.88,88.5389)">
        <g transform="matrix(80,0,0,80,3621.43,884.461)">
        </g>
        <text x="2927.68px" y="884.461px" style="font-family:'ArialMT', 'Arial', sans-serif;font-size:80px;">Quality goal or gate</text>
    </g>
    <g transform="matrix(1,0,0,1,1246.42,51.1679)">
        <g transform="matrix(80,0,0,80,3500.02,762.117)">
        </g>
        <text x="2899.71px" y="762.117px" style="font-family:'ArialMT', 'Arial', sans-serif;font-size:80px;">Observed quality</text>
    </g>
    <g transform="matrix(1,0,0,1,-431.865,-89.8654)">
        <g transform="matrix(80,0,0,80,1893.47,181.712)">
        </g>
        <text x="1613.28px" y="181.712px" style="font-family:'ArialMT', 'Arial', sans-serif;font-size:80px;">Breadth</text>
    </g>
    <g transform="matrix(1,0,0,1,30.1815,146.89)">
        <g transform="matrix(80,0,0,80,2419.16,644.375)">
        </g>
        <text x="2205.68px" y="644.375px" style="font-family:'ArialMT', 'Arial', sans-serif;font-size:80px;">Depth</text>
    </g>
    <g transform="matrix(1,0,0,1,94.4734,52.7675)">
        <g transform="matrix(80,0,0,80,2160.92,1805.47)">
        </g>
        <text x="1809.67px" y="1805.48px" style="font-family:'ArialMT', 'Arial', sans-serif;font-size:80px;">Lifecycles</text>
    </g>
    <g transform="matrix(1,0,0,1,-106.477,-273.919)">
        <g transform="matrix(80,0,0,80,251.792,1072.16)">
        </g>
        <g transform="matrix(80,0,0,80,274.018,1072.16)">
        </g>
        <g transform="matrix(80,0,0,80,509.761,1072.16)">
        </g>
        <text x="105.034px" y="1072.16px" style="font-family:'ArialMT', 'Arial', sans-serif;font-size:80px;">Conﬁdence</text>
    </g>
</svg>
