<svg width="4781" height="2081" xmlns="http://www.w3.org/2000/svg" xmlns:xlink="http://www.w3.org/1999/xlink" xml:space="preserve" overflow="hidden"><g transform="translate(-407 -453)"><g><rect x="416" y="460" width="2352" height="565" stroke="#262626" stroke-width="8.02083" stroke-linecap="square" stroke-linejoin="miter" stroke-miterlimit="8" stroke-dasharray="24.0625 8.02083" stroke-opacity="1" fill="#F2F2F2" fill-opacity="1"/><text fill="#0D0D0D" fill-opacity="1" font-family="Consolas,Consolas_MSFontService,sans-serif" font-style="normal" font-variant="normal" font-weight="700" font-stretch="normal" font-size="110" text-anchor="start" direction="ltr" writing-mode="lr-tb" unicode-bidi="normal" text-decoration="none" transform="matrix(1 0 0 1 650.662 630)">resourceReferenceChoice: object</text><text fill="#0D0D0D" fill-opacity="1" font-family="Calibri,Calibri_MSFontService,sans-serif" font-style="normal" font-variant="normal" font-weight="400" font-stretch="normal" font-size="92" text-anchor="start" direction="ltr" writing-mode="lr-tb" unicode-bidi="normal" text-decoration="none" transform="matrix(1 0 0 1 481.95 772)">+</text><text fill="#0D0D0D" fill-opacity="1" font-family="Consolas,Consolas_MSFontService,sans-serif" font-style="normal" font-variant="normal" font-weight="400" font-stretch="normal" font-size="92" text-anchor="start" direction="ltr" writing-mode="lr-tb" unicode-bidi="normal" text-decoration="none" transform="matrix(1 0 0 1 605.7 772)">ref: refLinkType | bomLinkElementType</text><text fill="#0D0D0D" fill-opacity="1" font-family="Calibri,Calibri_MSFontService,sans-serif" font-style="normal" font-variant="normal" font-weight="400" font-stretch="normal" font-size="92" text-anchor="start" direction="ltr" writing-mode="lr-tb" unicode-bidi="normal" text-decoration="none" transform="matrix(1 0 0 1 481.95 882)">+</text><text fill="#0D0D0D" fill-opacity="1" font-family="Consolas,Consolas_MSFontService,sans-serif" font-style="normal" font-variant="normal" font-weight="400" font-stretch="normal" font-size="92" text-anchor="start" direction="ltr" writing-mode="lr-tb" unicode-bidi="normal" text-decoration="none" transform="matrix(1 0 0 1 605.7 882)">extrernalRef</text><text fill="#0D0D0D" fill-opacity="1" font-family="Consolas,Consolas_MSFontService,sans-serif" font-style="normal" font-variant="normal" font-weight="400" font-stretch="normal" font-size="92" text-anchor="start" direction="ltr" writing-mode="lr-tb" unicode-bidi="normal" text-decoration="none" transform="matrix(1 0 0 1 1210.7 882)">: externalReference</text><rect x="3134" y="839" width="2050" height="420" stroke="#262626" stroke-width="8.02083" stroke-linecap="square" stroke-linejoin="miter" stroke-miterlimit="8" stroke-dasharray="24.0625 8.02083" stroke-opacity="1" fill="#BFBFBF" fill-opacity="1"/><text fill="#0D0D0D" fill-opacity="1" font-family="Consolas,Consolas_MSFontService,sans-serif" font-style="normal" font-variant="normal" font-weight="700" font-stretch="normal" font-size="110" text-anchor="start" direction="ltr" writing-mode="lr-tb" unicode-bidi="normal" text-decoration="none" transform="matrix(1 0 0 1 3582.24 1009)">refLinkType: </text><text fill="#0D0D0D" fill-opacity="1" font-family="Consolas,Consolas_MSFontService,sans-serif" font-style="normal" font-variant="normal" font-weight="700" font-stretch="normal" font-size="110" text-anchor="start" direction="ltr" writing-mode="lr-tb" unicode-bidi="normal" text-decoration="none" transform="matrix(1 0 0 1 4371.72 1009)">object</text><text fill="#0D0D0D" fill-opacity="1" font-family="Calibri,Calibri_MSFontService,sans-serif" font-style="normal" font-variant="normal" font-weight="400" font-stretch="normal" font-size="83" text-anchor="start" direction="ltr" writing-mode="lr-tb" unicode-bidi="normal" text-decoration="none" transform="matrix(1 0 0 1 3200.11 1142)">+</text><text fill="#0D0D0D" fill-opacity="1" font-family="Consolas,Consolas_MSFontService,sans-serif" font-style="normal" font-variant="normal" font-weight="400" font-stretch="normal" font-size="83" text-anchor="start" direction="ltr" writing-mode="lr-tb" unicode-bidi="normal" text-decoration="none" transform="matrix(1 0 0 1 3323.86 1142)">...</text><rect x="3134" y="1474" width="2050" height="420" stroke="#262626" stroke-width="8.02083" stroke-linecap="square" stroke-linejoin="miter" stroke-miterlimit="8" stroke-dasharray="24.0625 8.02083" stroke-opacity="1" fill="#BFBFBF" fill-opacity="1"/><text fill="#0D0D0D" fill-opacity="1" font-family="Consolas,Consolas_MSFontService,sans-serif" font-style="normal" font-variant="normal" font-weight="700" font-stretch="normal" font-size="110" text-anchor="start" direction="ltr" writing-mode="lr-tb" unicode-bidi="normal" text-decoration="none" transform="matrix(1 0 0 1 3369.69 1644)">bomLinkElementType: </text><text fill="#0D0D0D" fill-opacity="1" font-family="Consolas,Consolas_MSFontService,sans-serif" font-style="normal" font-variant="normal" font-weight="700" font-stretch="normal" font-size="110" text-anchor="start" direction="ltr" writing-mode="lr-tb" unicode-bidi="normal" text-decoration="none" transform="matrix(1 0 0 1 4584.27 1644)">object</text><text fill="#0D0D0D" fill-opacity="1" font-family="Calibri,Calibri_MSFontService,sans-serif" font-style="normal" font-variant="normal" font-weight="400" font-stretch="normal" font-size="83" text-anchor="start" direction="ltr" writing-mode="lr-tb" unicode-bidi="normal" text-decoration="none" transform="matrix(1 0 0 1 3200.11 1777)">+</text><text fill="#0D0D0D" fill-opacity="1" font-family="Consolas,Consolas_MSFontService,sans-serif" font-style="normal" font-variant="normal" font-weight="400" font-stretch="normal" font-size="83" text-anchor="start" direction="ltr" writing-mode="lr-tb" unicode-bidi="normal" text-decoration="none" transform="matrix(1 0 0 1 3323.86 1777)">...</text><rect x="3134" y="2109" width="2050" height="420" stroke="#262626" stroke-width="8.02083" stroke-linecap="square" stroke-linejoin="miter" stroke-miterlimit="8" stroke-dasharray="24.0625 8.02083" stroke-opacity="1" fill="#BFBFBF" fill-opacity="1"/><text fill="#0D0D0D" fill-opacity="1" font-family="Consolas,Consolas_MSFontService,sans-serif" font-style="normal" font-variant="normal" font-weight="700" font-stretch="normal" font-size="110" text-anchor="start" direction="ltr" writing-mode="lr-tb" unicode-bidi="normal" text-decoration="none" transform="matrix(1 0 0 1 3400.06 2279)">externalReference: </text><text fill="#0D0D0D" fill-opacity="1" font-family="Consolas,Consolas_MSFontService,sans-serif" font-style="normal" font-variant="normal" font-weight="700" font-stretch="normal" font-size="110" text-anchor="start" direction="ltr" writing-mode="lr-tb" unicode-bidi="normal" text-decoration="none" transform="matrix(1 0 0 1 4553.91 2279)">object</text><text fill="#0D0D0D" fill-opacity="1" font-family="Calibri,Calibri_MSFontService,sans-serif" font-style="normal" font-variant="normal" font-weight="400" font-stretch="normal" font-size="83" text-anchor="start" direction="ltr" writing-mode="lr-tb" unicode-bidi="normal" text-decoration="none" transform="matrix(1 0 0 1 3200.11 2412)">+</text><text fill="#0D0D0D" fill-opacity="1" font-family="Consolas,Consolas_MSFontService,sans-serif" font-style="normal" font-variant="normal" font-weight="400" font-stretch="normal" font-size="83" text-anchor="start" direction="ltr" writing-mode="lr-tb" unicode-bidi="normal" text-decoration="none" transform="matrix(1 0 0 1 3323.86 2412)">...</text><path d="M2768.5 736.052 2813.19 736.052 2813.19 750.948 2768.5 750.948ZM2828.08 736.052 2872.77 736.052 2872.77 750.948 2828.08 750.948ZM2887.67 736.052 2932.35 736.052 2932.35 750.948 2887.67 750.948ZM2947.25 736.052 2958.82 736.052 2958.82 784.063 2943.93 784.063 2943.93 743.5 2951.37 750.948 2947.25 750.948ZM2958.82 798.959 2958.82 843.647 2943.93 843.647 2943.93 798.959ZM2958.82 858.543 2958.82 903.23 2943.93 903.23 2943.93 858.543ZM2958.82 918.126 2958.82 962.813 2943.93 962.813 2943.93 918.126ZM2958.82 977.709 2958.82 1022.4 2943.93 1022.4 2943.93 977.709ZM2958.82 1037.29 2958.82 1049.92 2951.37 1042.47 2983.44 1042.47 2983.44 1057.36 2943.93 1057.36 2943.93 1037.29ZM2998.33 1042.47 3043.02 1042.47 3043.02 1057.36 2998.33 1057.36ZM3057.92 1042.47 3102.6 1042.47 3102.6 1057.36 3057.92 1057.36ZM3117.5 1042.47 3134.25 1042.47 3134.25 1057.36 3117.5 1057.36ZM2768.5 780.74 2731.26 743.5 2768.5 706.26 2805.74 743.5Z" fill="#192E3A" fill-rule="nonzero" fill-opacity="1"/><path d="M2768.5 736.052 2813.19 736.052 2813.19 750.948 2768.5 750.948ZM2828.08 736.052 2872.77 736.052 2872.77 750.948 2828.08 750.948ZM2887.67 736.052 2932.35 736.052 2932.35 750.948 2887.67 750.948ZM2947.25 736.052 2958.82 736.052 2958.82 784.064 2943.93 784.064 2943.93 743.5 2951.37 750.948 2947.25 750.948ZM2958.82 798.959 2958.82 843.647 2943.93 843.647 2943.93 798.959ZM2958.82 858.543 2958.82 903.23 2943.93 903.23 2943.93 858.543ZM2958.82 918.126 2958.82 962.814 2943.93 962.814 2943.93 918.126ZM2958.82 977.709 2958.82 1022.4 2943.93 1022.4 2943.93 977.709ZM2958.82 1037.29 2958.82 1081.98 2943.93 1081.98 2943.93 1037.29ZM2958.82 1096.88 2958.82 1141.56 2943.93 1141.56 2943.93 1096.88ZM2958.82 1156.46 2958.82 1201.15 2943.93 1201.15 2943.93 1156.46ZM2958.82 1216.04 2958.82 1260.73 2943.93 1260.73 2943.93 1216.04ZM2958.82 1275.63 2958.82 1320.31 2943.93 1320.31 2943.93 1275.63ZM2958.82 1335.21 2958.82 1379.9 2943.93 1379.9 2943.93 1335.21ZM2958.82 1394.79 2958.82 1439.48 2943.93 1439.48 2943.93 1394.79ZM2958.82 1454.38 2958.82 1499.06 2943.93 1499.06 2943.93 1454.38ZM2958.82 1513.96 2958.82 1558.65 2943.93 1558.65 2943.93 1513.96ZM2958.82 1573.54 2958.82 1618.23 2943.93 1618.23 2943.93 1573.54ZM2958.82 1633.13 2958.82 1677.81 2943.93 1677.81 2943.93 1633.13ZM2959.21 1677.43 3003.89 1677.43 3003.89 1692.33 2959.21 1692.33ZM3018.79 1677.43 3063.48 1677.43 3063.48 1692.33 3018.79 1692.33ZM3078.37 1677.43 3123.06 1677.43 3123.06 1692.33 3078.37 1692.33ZM2768.5 780.74 2731.26 743.5 2768.5 706.26 2805.74 743.5Z" fill="#192E3A" fill-rule="nonzero" fill-opacity="1"/><path d="M2768.5 736.052 2813.19 736.052 2813.19 750.948 2768.5 750.948ZM2828.08 736.052 2872.77 736.052 2872.77 750.948 2828.08 750.948ZM2887.67 736.052 2932.35 736.052 2932.35 750.948 2887.67 750.948ZM2947.25 736.052 2958.82 736.052 2958.82 784.063 2943.93 784.063 2943.93 743.5 2951.37 750.948 2947.25 750.948ZM2958.82 798.959 2958.82 843.647 2943.93 843.647 2943.93 798.959ZM2958.82 858.543 2958.82 903.23 2943.93 903.23 2943.93 858.543ZM2958.82 918.126 2958.82 962.813 2943.93 962.813 2943.93 918.126ZM2958.82 977.709 2958.82 1022.4 2943.93 1022.4 2943.93 977.709ZM2958.82 1037.29 2958.82 1081.98 2943.93 1081.98 2943.93 1037.29ZM2958.82 1096.88 2958.82 1141.56 2943.93 1141.56 2943.93 1096.88ZM2958.82 1156.46 2958.82 1201.15 2943.93 1201.15 2943.93 1156.46ZM2958.82 1216.04 2958.82 1260.73 2943.93 1260.73 2943.93 1216.04ZM2958.82 1275.63 2958.82 1320.31 2943.93 1320.31 2943.93 1275.63ZM2958.82 1335.21 2958.82 1379.9 2943.93 1379.9 2943.93 1335.21ZM2958.82 1394.79 2958.82 1439.48 2943.93 1439.48 2943.93 1394.79ZM2958.82 1454.38 2958.82 1499.06 2943.93 1499.06 2943.93 1454.38ZM2958.82 1513.96 2958.82 1558.65 2943.93 1558.65 2943.93 1513.96ZM2958.82 1573.54 2958.82 1618.23 2943.93 1618.23 2943.93 1573.54ZM2958.82 1633.13 2958.82 1677.81 2943.93 1677.81 2943.93 1633.13ZM2958.82 1692.71 2958.82 1737.4 2943.93 1737.4 2943.93 1692.71ZM2958.82 1752.29 2958.82 1796.98 2943.93 1796.98 2943.93 1752.29ZM2958.82 1811.88 2958.82 1856.56 2943.93 1856.56 2943.93 1811.88ZM2958.82 1871.46 2958.82 1916.15 2943.93 1916.15 2943.93 1871.46ZM2958.82 1931.04 2958.82 1975.73 2943.93 1975.73 2943.93 1931.04ZM2958.82 1990.63 2958.82 2035.31 2943.93 2035.31 2943.93 1990.63ZM2958.82 2050.21 2958.82 2094.9 2943.93 2094.9 2943.93 2050.21ZM2958.82 2109.79 2958.82 2154.48 2943.93 2154.48 2943.93 2109.79ZM2958.82 2169.38 2958.82 2214.06 2943.93 2214.06 2943.93 2169.38ZM2958.82 2228.96 2958.82 2273.65 2943.93 2273.65 2943.93 2228.96ZM2958.82 2288.54 2958.82 2319.84 2951.37 2312.39 2964.76 2312.39 2964.76 2327.29 2943.93 2327.29 2943.93 2288.54ZM2979.66 2312.39 3024.35 2312.39 3024.35 2327.29 2979.66 2327.29ZM3039.24 2312.39 3083.93 2312.39 3083.93 2327.29 3039.24 2327.29ZM3098.83 2312.39 3134.25 2312.39 3134.25 2327.29 3098.83 2327.29ZM2768.5 780.74 2731.26 743.5 2768.5 706.26 2805.74 743.5Z" fill="#192E3A" fill-rule="nonzero" fill-opacity="1"/></g></g></svg>