<?xml version="1.0" encoding="UTF-8"?>
<svg xmlns="http://www.w3.org/2000/svg" xmlns:xlink="http://www.w3.org/1999/xlink" width="94.14pt" height="28.98pt" viewBox="0 0 94.14 28.98">
<defs>
<clipPath id="clip-0">
<path clip-rule="nonzero" d="M 0.78125 0.863281 L 28 0.863281 L 28 28.214844 L 0.78125 28.214844 Z M 0.78125 0.863281 "/>
</clipPath>
<clipPath id="clip-1">
<path clip-rule="nonzero" d="M 88 20 L 92.757812 20 L 92.757812 24 L 88 24 Z M 88 20 "/>
</clipPath>
</defs>
<g clip-path="url(#clip-0)">
<path fill-rule="nonzero" fill="rgb(1.179504%, 1.568604%, 1.959229%)" fill-opacity="1" d="M 14.382812 25.949219 C 8.03125 25.949219 2.875 20.804688 2.875 14.453125 C 2.875 8.105469 8.03125 2.957031 14.382812 2.957031 C 20.742188 2.957031 25.890625 8.105469 25.890625 14.453125 C 25.890625 20.804688 20.742188 25.949219 14.382812 25.949219 Z M 14.382812 0.863281 C 6.871094 0.863281 0.78125 6.949219 0.78125 14.453125 C 0.78125 21.957031 6.871094 28.039062 14.382812 28.039062 C 21.898438 28.039062 27.984375 21.957031 27.984375 14.453125 C 27.984375 6.949219 21.898438 0.863281 14.382812 0.863281 Z M 14.382812 0.863281 "/>
</g>
<g clip-path="url(#clip-1)">
<path fill-rule="nonzero" fill="rgb(1.179504%, 1.568604%, 1.959229%)" fill-opacity="1" d="M 91.023438 21.246094 C 90.929688 21.195312 90.789062 21.171875 90.589844 21.171875 L 90.285156 21.171875 L 90.285156 21.894531 L 90.609375 21.894531 C 90.757812 21.894531 90.871094 21.882812 90.945312 21.851562 C 91.082031 21.800781 91.15625 21.691406 91.15625 21.539062 C 91.15625 21.394531 91.109375 21.292969 91.023438 21.246094 Z M 90.636719 20.925781 C 90.886719 20.925781 91.066406 20.953125 91.183594 20.996094 C 91.394531 21.082031 91.5 21.257812 91.5 21.511719 C 91.5 21.6875 91.433594 21.820312 91.300781 21.90625 C 91.230469 21.953125 91.132812 21.984375 91.011719 22.003906 C 91.167969 22.027344 91.285156 22.09375 91.359375 22.199219 C 91.429688 22.308594 91.464844 22.410156 91.464844 22.511719 L 91.464844 22.65625 C 91.464844 22.703125 91.46875 22.753906 91.46875 22.808594 C 91.476562 22.859375 91.480469 22.898438 91.488281 22.910156 L 91.5 22.9375 L 91.167969 22.9375 C 91.167969 22.933594 91.164062 22.925781 91.164062 22.917969 C 91.164062 22.910156 91.160156 22.90625 91.160156 22.898438 L 91.148438 22.832031 L 91.148438 22.671875 C 91.148438 22.441406 91.089844 22.289062 90.960938 22.210938 C 90.886719 22.171875 90.757812 22.144531 90.566406 22.144531 L 90.285156 22.144531 L 90.285156 22.9375 L 89.933594 22.9375 L 89.933594 20.925781 Z M 89.558594 20.824219 C 89.253906 21.132812 89.097656 21.503906 89.097656 21.941406 C 89.097656 22.378906 89.25 22.753906 89.554688 23.0625 C 89.863281 23.375 90.234375 23.527344 90.671875 23.527344 C 91.109375 23.527344 91.484375 23.375 91.789062 23.0625 C 92.09375 22.753906 92.246094 22.378906 92.246094 21.941406 C 92.246094 21.503906 92.09375 21.132812 91.789062 20.824219 C 91.480469 20.515625 91.109375 20.363281 90.671875 20.363281 C 90.238281 20.363281 89.867188 20.515625 89.558594 20.824219 Z M 91.972656 23.238281 C 91.613281 23.597656 91.179688 23.773438 90.671875 23.773438 C 90.164062 23.773438 89.730469 23.597656 89.375 23.238281 C 89.019531 22.882812 88.84375 22.445312 88.84375 21.9375 C 88.84375 21.433594 89.023438 21.003906 89.378906 20.648438 C 89.738281 20.285156 90.167969 20.109375 90.671875 20.109375 C 91.179688 20.109375 91.613281 20.285156 91.972656 20.648438 C 92.328125 21.003906 92.507812 21.433594 92.507812 21.9375 C 92.507812 22.445312 92.328125 22.882812 91.972656 23.238281 Z M 91.972656 23.238281 "/>
</g>
<path fill-rule="nonzero" fill="rgb(1.179504%, 1.568604%, 1.959229%)" fill-opacity="1" d="M 56.503906 8.09375 L 55.082031 8.09375 C 55.082031 8.09375 55.082031 14.046875 55.085938 16.796875 C 55.085938 17.125 55.066406 17.441406 54.984375 17.757812 C 54.882812 18.183594 54.648438 18.519531 54.226562 18.671875 C 53.207031 19.027344 52.175781 19.027344 51.160156 18.671875 C 50.738281 18.523438 50.496094 18.191406 50.386719 17.769531 C 50.300781 17.421875 50.277344 17.074219 50.277344 16.71875 C 50.277344 14.046875 50.285156 8.09375 50.285156 8.09375 L 48.855469 8.09375 C 48.855469 8.09375 48.859375 13.984375 48.855469 16.660156 C 48.855469 16.964844 48.84375 17.277344 48.792969 17.585938 C 48.683594 18.21875 48.3125 18.632812 47.683594 18.785156 C 46.859375 18.980469 46.03125 18.976562 45.207031 18.785156 C 44.640625 18.652344 44.269531 18.300781 44.140625 17.726562 C 44.101562 17.585938 44.089844 17.4375 44.074219 17.289062 C 44.0625 17.101562 44.050781 16.910156 44.050781 16.71875 C 44.050781 13.917969 44.050781 8.09375 44.050781 8.09375 L 42.621094 8.09375 C 42.621094 8.09375 42.621094 14.050781 42.625 16.757812 C 42.625 17.078125 42.632812 17.390625 42.671875 17.707031 C 42.777344 18.738281 43.285156 19.464844 44.308594 19.789062 C 45.070312 20.03125 45.855469 20.089844 46.644531 20.058594 C 47.792969 20.023438 48.84375 19.734375 49.574219 18.695312 C 50.003906 19.335938 50.589844 19.710938 51.300781 19.890625 C 52.425781 20.175781 53.550781 20.113281 54.664062 19.839844 C 55.40625 19.652344 55.996094 19.242188 56.28125 18.492188 C 56.464844 18.027344 56.503906 17.535156 56.503906 17.042969 C 56.503906 14.671875 56.503906 8.09375 56.503906 8.09375 Z M 56.503906 8.09375 "/>
<path fill-rule="nonzero" fill="rgb(1.179504%, 1.568604%, 1.959229%)" fill-opacity="1" d="M 66.585938 14.316406 L 60.28125 14.316406 L 60.28125 14.113281 C 60.28125 14.113281 60.292969 12.011719 60.292969 10.957031 C 60.292969 10.75 60.3125 10.546875 60.363281 10.34375 C 60.527344 9.660156 61.035156 9.375 61.660156 9.246094 C 62.726562 9.023438 63.800781 9.054688 64.871094 9.179688 C 65.074219 9.203125 65.273438 9.269531 65.472656 9.324219 C 66.183594 9.523438 66.511719 10.023438 66.558594 10.730469 C 66.578125 11.054688 66.574219 11.378906 66.578125 11.707031 C 66.578125 12.503906 66.585938 14.105469 66.585938 14.105469 Z M 68.003906 11.152344 C 68.003906 10.796875 67.976562 10.445312 67.917969 10.09375 C 67.800781 9.378906 67.421875 8.847656 66.773438 8.515625 C 66.171875 8.210938 65.523438 8.09375 64.863281 8.035156 C 63.574219 7.917969 62.300781 7.925781 61.035156 8.179688 C 59.609375 8.46875 58.914062 9.230469 58.878906 10.675781 C 58.839844 12.152344 58.859375 15.113281 58.855469 15.113281 C 58.855469 16.523438 58.859375 17.929688 58.855469 19.34375 L 58.847656 19.34375 L 58.847656 19.945312 L 60.292969 19.945312 L 60.292969 19.40625 C 60.28125 18.179688 60.28125 15.777344 60.28125 15.777344 L 60.28125 15.554688 L 66.585938 15.550781 L 66.585938 15.804688 C 66.585938 15.804688 66.578125 18.164062 66.574219 19.34375 L 66.574219 19.945312 L 68.007812 19.945312 C 68.007812 19.945312 68.003906 13.902344 68.003906 11.152344 Z M 68.003906 11.152344 "/>
<path fill-rule="nonzero" fill="rgb(1.179504%, 1.568604%, 1.959229%)" fill-opacity="1" d="M 77.542969 13.835938 C 76.484375 13.558594 75.398438 13.460938 74.324219 13.269531 C 73.796875 13.171875 73.261719 13.101562 72.734375 12.996094 C 72.023438 12.847656 71.675781 12.40625 71.667969 11.683594 C 71.667969 11.414062 71.667969 11.152344 71.675781 10.886719 C 71.707031 9.988281 72.046875 9.492188 72.921875 9.304688 C 74.257812 9.007812 75.613281 8.988281 76.941406 9.375 C 77.558594 9.550781 77.859375 10.003906 77.933594 10.625 C 77.976562 10.972656 77.964844 11.59375 77.964844 11.59375 L 79.386719 11.59375 L 79.386719 11.238281 C 79.386719 11.007812 79.394531 10.800781 79.371094 10.578125 C 79.257812 9.253906 78.722656 8.617188 77.445312 8.257812 C 76.585938 8.015625 75.703125 8.003906 74.8125 7.984375 C 73.902344 8.003906 72.992188 8.023438 72.105469 8.277344 C 71.0625 8.582031 70.410156 9.21875 70.289062 10.335938 C 70.238281 10.828125 70.25 11.320312 70.25 11.8125 C 70.25 12.917969 70.859375 13.757812 71.921875 14.097656 C 72.695312 14.34375 73.507812 14.402344 74.304688 14.542969 C 75.074219 14.679688 75.851562 14.777344 76.617188 14.917969 C 77.261719 15.042969 77.785156 15.355469 77.917969 16.0625 C 78.015625 16.574219 77.992188 17.09375 77.902344 17.601562 C 77.816406 18.152344 77.492188 18.539062 76.957031 18.6875 C 75.570312 19.074219 74.171875 19.058594 72.785156 18.722656 C 72.125 18.566406 71.777344 18.101562 71.703125 17.429688 C 71.675781 17.25 71.671875 17.066406 71.671875 16.890625 L 71.671875 15.941406 L 70.242188 15.941406 L 70.242188 16.730469 C 70.242188 17.164062 70.25 17.59375 70.339844 18.027344 C 70.476562 18.6875 70.832031 19.195312 71.445312 19.515625 C 71.789062 19.691406 72.148438 19.808594 72.527344 19.886719 C 73.574219 20.097656 74.636719 20.113281 75.699219 20.058594 C 76.347656 20.027344 77.003906 19.957031 77.632812 19.75 C 78.539062 19.453125 79.148438 18.90625 79.316406 17.925781 C 79.414062 17.363281 79.386719 16.796875 79.386719 16.230469 C 79.394531 14.996094 78.742188 14.148438 77.542969 13.835938 Z M 77.542969 13.835938 "/>
<path fill-rule="nonzero" fill="rgb(1.179504%, 1.568604%, 1.959229%)" fill-opacity="1" d="M 38.902344 16.847656 C 38.902344 16.949219 38.902344 17.050781 38.898438 17.160156 C 38.851562 18.042969 38.542969 18.515625 37.683594 18.722656 C 36.332031 19.046875 34.964844 19.046875 33.617188 18.6875 C 32.957031 18.507812 32.621094 18.039062 32.558594 17.371094 C 32.539062 17.136719 32.519531 16.898438 32.519531 16.667969 C 32.519531 14.882812 32.519531 13.101562 32.519531 11.324219 C 32.523438 11.074219 32.539062 10.820312 32.570312 10.574219 C 32.65625 9.816406 33.144531 9.414062 33.847656 9.273438 C 35.089844 9.007812 36.347656 9.007812 37.59375 9.273438 C 38.457031 9.457031 38.867188 9.957031 38.886719 10.84375 C 38.914062 11.902344 38.902344 15.90625 38.902344 16.847656 Z M 40.3125 10.566406 C 40.261719 9.730469 39.976562 9.019531 39.199219 8.582031 C 38.863281 8.390625 38.503906 8.261719 38.125 8.1875 C 37.15625 7.976562 36.167969 7.9375 35.183594 7.972656 C 34.414062 8 33.652344 8.054688 32.917969 8.289062 C 32.230469 8.507812 31.652344 8.863281 31.351562 9.546875 C 31.140625 10.015625 31.101562 10.515625 31.101562 11.019531 C 31.097656 13.015625 31.101562 15.003906 31.101562 17 C 31.101562 17.097656 31.101562 17.195312 31.105469 17.289062 C 31.152344 17.945312 31.253906 18.582031 31.746094 19.078125 C 32.175781 19.515625 32.722656 19.726562 33.308594 19.84375 C 34.757812 20.140625 36.21875 20.125 37.683594 19.929688 C 38.105469 19.875 38.515625 19.765625 38.914062 19.597656 C 39.855469 19.199219 40.253906 18.449219 40.3125 17.480469 C 40.378906 16.320312 40.316406 15.167969 40.34375 14.011719 C 40.316406 12.863281 40.378906 11.714844 40.3125 10.566406 Z M 40.3125 10.566406 "/>
<path fill-rule="nonzero" fill="rgb(1.179504%, 1.568604%, 1.959229%)" fill-opacity="1" d="M 89.308594 13.945312 C 89.199219 14.65625 88.742188 15.085938 88.058594 15.285156 C 87.707031 15.390625 87.347656 15.410156 86.988281 15.410156 C 85.761719 15.417969 83.105469 15.417969 83.105469 15.417969 L 83.105469 9.238281 C 83.105469 9.238281 85.890625 9.238281 87.183594 9.238281 C 87.566406 9.238281 87.9375 9.292969 88.289062 9.433594 C 88.914062 9.683594 89.269531 10.171875 89.335938 10.820312 C 89.441406 11.863281 89.472656 12.910156 89.308594 13.945312 Z M 90.757812 10.546875 C 90.671875 9.699219 90.253906 9.023438 89.476562 8.601562 C 88.792969 8.226562 88.042969 8.121094 87.28125 8.117188 C 85.5625 8.09375 81.679688 8.09375 81.679688 8.09375 L 81.675781 19.945312 L 83.109375 19.945312 L 83.105469 16.527344 C 83.105469 16.527344 85.773438 16.539062 87.003906 16.535156 C 87.550781 16.527344 88.089844 16.488281 88.628906 16.367188 C 89.851562 16.09375 90.65625 15.25 90.761719 14.011719 C 90.863281 12.859375 90.871094 11.699219 90.757812 10.546875 Z M 90.757812 10.546875 "/>
<path fill-rule="nonzero" fill="rgb(1.179504%, 1.568604%, 1.959229%)" fill-opacity="1" d="M 22.5625 9.332031 C 22.296875 9.167969 22.023438 9.015625 21.730469 8.917969 C 21.566406 8.863281 21.410156 8.867188 21.246094 8.917969 C 20.988281 9.003906 20.738281 9.109375 20.488281 9.230469 C 20.449219 9.238281 20.4375 9.203125 20.414062 9.1875 C 20.199219 8.820312 19.910156 8.527344 19.542969 8.308594 C 19.476562 8.265625 19.472656 8.238281 19.503906 8.175781 C 19.621094 7.933594 19.726562 7.6875 19.800781 7.429688 C 19.847656 7.289062 19.847656 7.144531 19.800781 7.007812 C 19.707031 6.703125 19.554688 6.425781 19.378906 6.160156 C 19.355469 6.109375 19.308594 6.085938 19.257812 6.113281 C 19.203125 6.148438 19.207031 6.195312 19.238281 6.246094 C 19.25 6.265625 19.257812 6.28125 19.269531 6.296875 C 19.410156 6.53125 19.539062 6.769531 19.628906 7.023438 C 19.671875 7.15625 19.675781 7.277344 19.628906 7.410156 C 19.554688 7.648438 19.453125 7.875 19.34375 8.105469 C 19.339844 8.121094 19.335938 8.136719 19.320312 8.140625 C 19.292969 8.117188 19.300781 8.085938 19.289062 8.054688 C 19.222656 7.816406 19.007812 7.648438 18.765625 7.636719 C 18.515625 7.632812 18.324219 7.769531 18.238281 8.019531 C 18.230469 8.042969 18.222656 8.070312 18.191406 8.085938 C 17.925781 8.171875 17.742188 8.355469 17.628906 8.601562 C 17.585938 8.636719 17.582031 8.6875 17.566406 8.734375 C 17.484375 9.019531 17.519531 9.292969 17.605469 9.566406 C 17.628906 9.632812 17.652344 9.699219 17.671875 9.769531 C 17.636719 9.78125 17.617188 9.765625 17.589844 9.753906 C 17.296875 9.667969 17.003906 9.648438 16.707031 9.730469 C 16.621094 9.753906 16.554688 9.761719 16.503906 9.6875 C 16.339844 9.445312 16.183594 9.203125 16.027344 8.964844 C 15.996094 8.921875 15.992188 8.882812 16 8.832031 C 16.046875 8.46875 16.085938 8.109375 16.085938 7.75 C 16.085938 7.695312 16.085938 7.632812 16.070312 7.578125 C 16.066406 7.5625 16.0625 7.542969 16.042969 7.535156 C 16.015625 7.53125 16.003906 7.558594 16 7.570312 C 15.980469 7.628906 15.960938 7.6875 15.949219 7.746094 C 15.867188 8.117188 15.828125 8.492188 15.777344 8.871094 C 15.765625 8.964844 15.777344 9.042969 15.8125 9.128906 C 15.902344 9.355469 15.992188 9.578125 16.070312 9.800781 C 16.082031 9.820312 16.101562 9.839844 16.085938 9.871094 C 16.078125 9.871094 16.066406 9.867188 16.0625 9.863281 C 15.878906 9.769531 15.699219 9.675781 15.519531 9.582031 C 15.460938 9.558594 15.429688 9.515625 15.410156 9.457031 C 15.304688 9.09375 15.199219 8.734375 15.070312 8.378906 C 15.035156 8.277344 14.996094 8.175781 14.945312 8.078125 C 14.929688 8.058594 14.917969 8.023438 14.886719 8.027344 C 14.851562 8.039062 14.863281 8.074219 14.863281 8.101562 C 14.867188 8.167969 14.871094 8.238281 14.882812 8.304688 C 14.949219 8.679688 15.046875 9.042969 15.132812 9.410156 C 15.171875 9.582031 15.21875 9.738281 15.378906 9.835938 C 15.386719 9.839844 15.386719 9.847656 15.390625 9.847656 C 15.386719 9.871094 15.453125 9.898438 15.386719 9.914062 C 15.226562 9.863281 15.066406 9.804688 14.90625 9.753906 C 14.863281 9.746094 14.828125 9.71875 14.796875 9.683594 C 14.582031 9.429688 14.359375 9.179688 14.109375 8.953125 C 14.058594 8.90625 14.007812 8.863281 13.953125 8.832031 C 13.933594 8.820312 13.910156 8.804688 13.894531 8.820312 C 13.875 8.835938 13.886719 8.863281 13.894531 8.875 C 13.921875 8.941406 13.960938 9 14.003906 9.058594 C 14.207031 9.347656 14.441406 9.625 14.667969 9.890625 C 14.695312 9.921875 14.726562 9.9375 14.753906 9.953125 C 15.089844 10.109375 15.421875 10.273438 15.757812 10.429688 C 15.789062 10.445312 15.847656 10.449219 15.8125 10.511719 C 15.789062 10.5625 15.800781 10.652344 15.691406 10.628906 C 15.429688 10.574219 15.171875 10.527344 14.914062 10.480469 C 13.683594 10.253906 12.453125 10.054688 11.210938 9.898438 C 9.839844 9.71875 8.464844 9.636719 7.082031 9.644531 C 6.410156 9.644531 5.742188 9.664062 5.078125 9.753906 C 4.960938 9.777344 4.84375 9.796875 4.730469 9.835938 C 4.65625 9.867188 4.636719 9.914062 4.671875 9.992188 C 4.695312 10.050781 4.738281 10.09375 4.777344 10.136719 C 4.894531 10.261719 5.027344 10.371094 5.164062 10.472656 C 5.617188 10.800781 6.09375 11.089844 6.582031 11.359375 C 7.328125 11.777344 8.085938 12.167969 8.945312 12.320312 C 9.484375 12.410156 10.023438 12.511719 10.578125 12.496094 C 10.820312 12.492188 11.070312 12.46875 11.292969 12.355469 C 11.496094 12.257812 11.679688 12.125 11.875 12.011719 C 12.148438 11.84375 12.441406 11.710938 12.773438 11.691406 C 13.308594 11.65625 13.839844 11.597656 14.367188 11.542969 C 14.804688 11.503906 15.238281 11.457031 15.671875 11.414062 C 15.707031 11.410156 15.738281 11.40625 15.746094 11.457031 C 15.792969 11.667969 15.882812 11.863281 15.992188 12.050781 C 15.996094 12.074219 16.003906 12.089844 16.015625 12.113281 C 16.042969 12.152344 16.003906 12.140625 15.992188 12.148438 C 15.640625 11.945312 15.273438 11.953125 14.90625 12.085938 C 14.628906 12.1875 14.378906 12.339844 14.140625 12.507812 C 13.628906 12.875 13.175781 13.316406 12.71875 13.746094 C 12.179688 14.257812 11.675781 14.800781 11.253906 15.417969 C 10.367188 16.703125 9.65625 18.082031 9.023438 19.5 L 8.875 19.824219 L 9.140625 19.707031 L 9.140625 19.703125 C 10.058594 19.296875 10.957031 18.847656 11.839844 18.351562 C 12.570312 17.9375 13.292969 17.492188 13.941406 16.949219 C 14.644531 16.363281 15.265625 15.691406 15.859375 15 C 16.128906 14.691406 16.371094 14.355469 16.542969 13.980469 C 16.746094 13.542969 16.804688 13.105469 16.535156 12.671875 C 16.542969 12.664062 16.554688 12.660156 16.566406 12.65625 C 16.769531 12.785156 16.988281 12.898438 17.226562 12.949219 C 17.292969 12.964844 17.300781 12.996094 17.296875 13.054688 C 17.207031 13.910156 17.117188 14.761719 17.042969 15.621094 C 17.023438 15.84375 17.015625 16.066406 16.949219 16.28125 C 16.863281 16.570312 16.71875 16.820312 16.550781 17.0625 C 16.300781 17.414062 16.199219 17.796875 16.203125 18.226562 C 16.214844 18.769531 16.296875 19.300781 16.414062 19.828125 C 16.484375 20.148438 16.550781 20.476562 16.683594 20.773438 C 17.058594 21.652344 17.527344 22.476562 18.054688 23.265625 C 18.195312 23.480469 18.347656 23.6875 18.527344 23.871094 C 18.585938 23.933594 18.648438 23.988281 18.726562 24.023438 C 18.796875 24.054688 18.847656 24.035156 18.871094 23.957031 C 18.894531 23.914062 18.902344 23.863281 18.917969 23.816406 C 18.980469 23.527344 19.003906 23.238281 19.023438 22.941406 C 19.117188 21.453125 19.058594 19.96875 18.921875 18.484375 C 18.84375 17.570312 18.703125 16.65625 18.5625 15.746094 C 18.421875 14.832031 18.257812 13.925781 18.078125 13.015625 C 18.058594 12.910156 18.140625 12.925781 18.191406 12.894531 C 18.257812 12.859375 18.261719 12.917969 18.277344 12.953125 C 18.441406 13.285156 18.597656 13.613281 18.753906 13.945312 C 18.769531 13.976562 18.785156 14.003906 18.8125 14.03125 C 19.097656 14.273438 19.378906 14.519531 19.691406 14.726562 C 19.730469 14.757812 19.773438 14.777344 19.816406 14.800781 C 19.839844 14.8125 19.867188 14.839844 19.890625 14.808594 C 19.910156 14.78125 19.890625 14.757812 19.867188 14.730469 C 19.828125 14.675781 19.789062 14.621094 19.738281 14.570312 C 19.5625 14.382812 19.375 14.199219 19.171875 14.035156 C 19.023438 13.917969 18.929688 13.785156 18.894531 13.605469 C 18.886719 13.527344 18.847656 13.46875 18.832031 13.394531 C 18.820312 13.34375 18.785156 13.300781 18.796875 13.242188 C 18.855469 13.308594 18.917969 13.371094 18.972656 13.441406 C 19.007812 13.480469 19.054688 13.507812 19.113281 13.523438 C 19.457031 13.613281 19.800781 13.699219 20.152344 13.773438 C 20.3125 13.808594 20.46875 13.84375 20.625 13.847656 C 20.652344 13.847656 20.675781 13.851562 20.6875 13.824219 C 20.691406 13.796875 20.667969 13.785156 20.644531 13.777344 C 20.585938 13.734375 20.519531 13.707031 20.453125 13.679688 C 20.058594 13.527344 19.648438 13.410156 19.25 13.289062 C 19.191406 13.273438 19.15625 13.25 19.132812 13.199219 C 19.039062 13.015625 18.945312 12.832031 18.847656 12.644531 C 18.84375 12.640625 18.84375 12.628906 18.84375 12.621094 C 18.871094 12.609375 18.898438 12.628906 18.921875 12.640625 C 19.167969 12.730469 19.410156 12.828125 19.648438 12.925781 C 19.691406 12.9375 19.726562 12.945312 19.773438 12.9375 C 20.167969 12.886719 20.566406 12.84375 20.957031 12.761719 C 21.015625 12.75 21.082031 12.730469 21.144531 12.707031 C 21.160156 12.699219 21.183594 12.691406 21.179688 12.664062 C 21.175781 12.644531 21.15625 12.640625 21.132812 12.632812 C 21.0625 12.621094 20.992188 12.621094 20.921875 12.621094 C 20.570312 12.625 20.21875 12.664062 19.875 12.710938 C 19.832031 12.714844 19.792969 12.710938 19.757812 12.683594 C 19.496094 12.519531 19.242188 12.351562 18.984375 12.183594 C 18.9375 12.15625 18.921875 12.132812 18.945312 12.074219 C 19.023438 11.820312 19.03125 11.566406 18.984375 11.308594 C 18.96875 11.207031 18.933594 11.109375 18.90625 11.015625 C 18.945312 11 18.964844 11.019531 18.984375 11.03125 C 19.238281 11.132812 19.496094 11.191406 19.773438 11.167969 C 20.136719 11.125 20.429688 10.957031 20.589844 10.617188 C 20.632812 10.53125 20.675781 10.476562 20.769531 10.441406 C 20.976562 10.359375 21.097656 10.136719 21.074219 9.914062 C 21.054688 9.675781 20.875 9.476562 20.640625 9.414062 C 20.617188 9.410156 20.589844 9.421875 20.574219 9.382812 C 20.589844 9.378906 20.605469 9.371094 20.621094 9.359375 C 20.8125 9.269531 21.015625 9.1875 21.214844 9.109375 C 21.417969 9.023438 21.617188 9.039062 21.816406 9.125 C 22.039062 9.226562 22.257812 9.34375 22.464844 9.476562 C 22.515625 9.507812 22.5625 9.511719 22.597656 9.460938 C 22.632812 9.410156 22.613281 9.363281 22.5625 9.332031 Z M 22.5625 9.332031 "/>
</svg>
