<svg xmlns="http://www.w3.org/2000/svg" xmlns:inkscape="http://www.inkscape.org/namespaces/inkscape" width="640" height="560" viewBox="0 0 640 560" font-family="Helvetica, Arial, sans-serif"><title>Inherent, residual, target</title><defs><marker id="arrow333333" viewBox="0 0 10 10" refX="9" refY="5" markerWidth="7" markerHeight="7" orient="auto-start-reverse"><path d="M 0 1 L 9 5 L 0 9 z" fill="#333333"/></marker></defs><g id="background" inkscape:label="Background"><rect x="0" y="0" width="640" height="560" fill="white"/></g><g id="artwork" inkscape:label="Artwork"><text x="320.0" y="28" font-family="Helvetica, Arial, sans-serif" font-size="14.5" font-weight="bold" text-anchor="middle" fill="#333333">Inherent, residual, target on the likelihood-by-impact grid</text><rect x="150" y="70" width="78" height="78" rx="2" fill="#FFF3C4" stroke="white" stroke-width="2" opacity="1.0"/><rect x="228" y="70" width="78" height="78" rx="2" fill="#FFE0B2" stroke="white" stroke-width="2" opacity="1.0"/><rect x="306" y="70" width="78" height="78" rx="2" fill="#FFE0B2" stroke="white" stroke-width="2" opacity="1.0"/><rect x="384" y="70" width="78" height="78" rx="2" fill="#F8C9C0" stroke="white" stroke-width="2" opacity="1.0"/><rect x="462" y="70" width="78" height="78" rx="2" fill="#F8C9C0" stroke="white" stroke-width="2" opacity="1.0"/><rect x="150" y="148" width="78" height="78" rx="2" fill="#FFF3C4" stroke="white" stroke-width="2" opacity="1.0"/><rect x="228" y="148" width="78" height="78" rx="2" fill="#FFF3C4" stroke="white" stroke-width="2" opacity="1.0"/><rect x="306" y="148" width="78" height="78" rx="2" fill="#FFE0B2" stroke="white" stroke-width="2" opacity="1.0"/><rect x="384" y="148" width="78" height="78" rx="2" fill="#FFE0B2" stroke="white" stroke-width="2" opacity="1.0"/><rect x="462" y="148" width="78" height="78" rx="2" fill="#F8C9C0" stroke="white" stroke-width="2" opacity="1.0"/><rect x="150" y="226" width="78" height="78" rx="2" fill="#DFF2E1" stroke="white" stroke-width="2" opacity="1.0"/><rect x="228" y="226" width="78" height="78" rx="2" fill="#FFF3C4" stroke="white" stroke-width="2" opacity="1.0"/><rect x="306" y="226" width="78" height="78" rx="2" fill="#FFF3C4" stroke="white" stroke-width="2" opacity="1.0"/><rect x="384" y="226" width="78" height="78" rx="2" fill="#FFE0B2" stroke="white" stroke-width="2" opacity="1.0"/><rect x="462" y="226" width="78" height="78" rx="2" fill="#FFE0B2" stroke="white" stroke-width="2" opacity="1.0"/><rect x="150" y="304" width="78" height="78" rx="2" fill="#DFF2E1" stroke="white" stroke-width="2" opacity="1.0"/><rect x="228" y="304" width="78" height="78" rx="2" fill="#DFF2E1" stroke="white" stroke-width="2" opacity="1.0"/><rect x="306" y="304" width="78" height="78" rx="2" fill="#FFF3C4" stroke="white" stroke-width="2" opacity="1.0"/><rect x="384" y="304" width="78" height="78" rx="2" fill="#FFF3C4" stroke="white" stroke-width="2" opacity="1.0"/><rect x="462" y="304" width="78" height="78" rx="2" fill="#FFE0B2" stroke="white" stroke-width="2" opacity="1.0"/><rect x="150" y="382" width="78" height="78" rx="2" fill="#DFF2E1" stroke="white" stroke-width="2" opacity="1.0"/><rect x="228" y="382" width="78" height="78" rx="2" fill="#DFF2E1" stroke="white" stroke-width="2" opacity="1.0"/><rect x="306" y="382" width="78" height="78" rx="2" fill="#DFF2E1" stroke="white" stroke-width="2" opacity="1.0"/><rect x="384" y="382" width="78" height="78" rx="2" fill="#FFF3C4" stroke="white" stroke-width="2" opacity="1.0"/><rect x="462" y="382" width="78" height="78" rx="2" fill="#FFF3C4" stroke="white" stroke-width="2" opacity="1.0"/><text x="189.0" y="478" font-family="Helvetica, Arial, sans-serif" font-size="9.5" font-weight="normal" text-anchor="middle" fill="#666">negligible</text><text x="267.0" y="478" font-family="Helvetica, Arial, sans-serif" font-size="9.5" font-weight="normal" text-anchor="middle" fill="#666">low</text><text x="345.0" y="478" font-family="Helvetica, Arial, sans-serif" font-size="9.5" font-weight="normal" text-anchor="middle" fill="#666">moderate</text><text x="423.0" y="478" font-family="Helvetica, Arial, sans-serif" font-size="9.5" font-weight="normal" text-anchor="middle" fill="#666">major</text><text x="501.0" y="478" font-family="Helvetica, Arial, sans-serif" font-size="9.5" font-weight="normal" text-anchor="middle" fill="#666">catastrophic</text><text x="140" y="113.0" font-family="Helvetica, Arial, sans-serif" font-size="9.5" font-weight="normal" text-anchor="end" fill="#666">very-high</text><text x="140" y="191.0" font-family="Helvetica, Arial, sans-serif" font-size="9.5" font-weight="normal" text-anchor="end" fill="#666">high</text><text x="140" y="269.0" font-family="Helvetica, Arial, sans-serif" font-size="9.5" font-weight="normal" text-anchor="end" fill="#666">medium</text><text x="140" y="347.0" font-family="Helvetica, Arial, sans-serif" font-size="9.5" font-weight="normal" text-anchor="end" fill="#666">low</text><text x="140" y="425.0" font-family="Helvetica, Arial, sans-serif" font-size="9.5" font-weight="normal" text-anchor="end" fill="#666">very-low</text><text x="345.0" y="500" font-family="Helvetica, Arial, sans-serif" font-size="12" font-weight="bold" text-anchor="middle" fill="#333333">Impact</text><text transform="rotate(-90 54 265.0)" x="54" y="265.0" font-family="Helvetica, Arial, sans-serif" font-size="12" font-weight="bold" text-anchor="middle" fill="#333333">Likelihood</text><path d="M 150 304 L 306 304 L 306 460 L 150 460 Z" stroke="#3E8E5A" stroke-width="2.4" fill="none" stroke-dasharray="6,4"/><text x="228" y="413.20000000000005" font-family="Helvetica, Arial, sans-serif" font-size="10" font-weight="bold" text-anchor="middle" fill="#3E8E5A">within appetite</text><line x1="423.0" y1="187.0" x2="345.0" y2="343.0" stroke="#333333" stroke-width="1.6" marker-end="url(#arrow333333)"/><text x="450.0" y="259.0" font-family="Helvetica, Arial, sans-serif" font-size="9.5" font-weight="normal" text-anchor="middle" fill="#555">controls implemented</text><line x1="345.0" y1="343.0" x2="267.0" y2="343.0" stroke="#333333" stroke-width="1.6" marker-end="url(#arrow333333)"/><circle cx="423.0" cy="187.0" r="15" fill="#85283C" stroke="white" stroke-width="2.4"/><text x="423.0" y="191.0" font-family="Helvetica, Arial, sans-serif" font-size="11" font-weight="bold" text-anchor="middle" fill="white">I</text><circle cx="345.0" cy="343.0" r="15" fill="#F15A26" stroke="white" stroke-width="2.4"/><text x="345.0" y="347.0" font-family="Helvetica, Arial, sans-serif" font-size="11" font-weight="bold" text-anchor="middle" fill="white">R</text><circle cx="267.0" cy="343.0" r="15" fill="#3E8E5A" stroke="white" stroke-width="2.4"/><text x="267.0" y="347.0" font-family="Helvetica, Arial, sans-serif" font-size="11" font-weight="bold" text-anchor="middle" fill="white">T</text><circle cx="150" cy="500" r="8" fill="#85283C" stroke="#9AA0A6" stroke-width="1.4"/><text x="166" y="504" font-family="Helvetica, Arial, sans-serif" font-size="10.5" font-weight="normal" text-anchor="start" fill="#444">I  inherent (before controls)</text><circle cx="150" cy="518" r="8" fill="#F15A26" stroke="#9AA0A6" stroke-width="1.4"/><text x="166" y="522" font-family="Helvetica, Arial, sans-serif" font-size="10.5" font-weight="normal" text-anchor="start" fill="#444">R  residual (after controls)</text><circle cx="150" cy="536" r="8" fill="#3E8E5A" stroke="#9AA0A6" stroke-width="1.4"/><text x="166" y="540" font-family="Helvetica, Arial, sans-serif" font-size="10.5" font-weight="normal" text-anchor="start" fill="#444">T  target (desired)</text></g></svg>